<?xml version="1.0" encoding="UTF-8"?>
<svg id="_레이어_1" data-name="레이어 1" xmlns="http://www.w3.org/2000/svg" viewBox="0 0 5442.52 3061.42">
  <defs>
    <style>
      .cls-1 {
        fill: #020202;
        stroke-width: 0px;
      }
    </style>
  </defs>
  <g>
    <path class="cls-1" d="M1517.33,1542.18c5.99,20.78,10.8,41.85,15.23,63.02,14.36,63.7,17.02,129.09,12.69,194.37-2.89,36.87-8.8,74.52-23.57,108.87-3.04,6.72-6.2,13.81-10.79,19.64-12.11,15.24-31.43,22.96-50.48,21.68-14.39-.9-26.14-6.38-34.27-18.42-8.56-12.63-8.69-27.68.35-40.16,10.58-15.69,28.83-25.18,47.21-27.14,4.74-.46,11.71-.71,16.53-1,112.94-8.34,226.65-12.4,339.66-2.11,42.86,6.57,85.39,14.9,127.04,26.21-42.97-4.21-85.79-7.21-128.61-8.28-42.58-3.86-85.36-5.62-128.15-5.99-69.65-.8-139.33,3.23-208.84,8.14-2.62.13-9.68.52-12.22.66-14.7.68-29.43,7.42-37.72,19.62-.85,1.2-1.69,2.67-2.35,3.96-4.33,8.78,2.51,19.64,10.54,23.78,1.41.82,3.95,1.42,5.5,1.83,2.16.45,4.35.84,6.56.96,15.28,1.14,31.48-6.59,38.6-20.22,8.32-16.08,13.9-33.26,17.99-50.94,13.83-62.01,12.23-126.81,7.34-189.9-1.04-42.85-3.77-85.86-8.27-128.55h0Z"/>
    <path class="cls-1" d="M4167.3,1542.18c-4.5,42.69-7.22,85.7-8.26,128.55-4.89,63.09-6.48,127.89,7.34,189.9,4.1,17.68,9.67,34.86,17.99,50.94,7.12,13.62,23.32,21.36,38.6,20.22,2.22-.12,4.4-.5,6.56-.96,1.5-.43,4.1-.97,5.5-1.83,8.03-4.15,14.88-14.99,10.54-23.78-.66-1.29-1.51-2.77-2.35-3.96-8.29-12.2-23.02-18.94-37.72-19.62-2.52-.14-9.6-.51-12.22-.66-69.52-4.91-139.19-8.94-208.84-8.14-42.79.37-85.58,2.13-128.15,5.99-42.82,1.08-85.64,4.07-128.61,8.28,41.65-11.31,84.18-19.64,127.04-26.21,113.01-10.29,226.71-6.23,339.66,2.11,0,0,7.93.42,7.93.42,15.24.27,30.39,4.48,42.77,13.98,10.27,8.11,19.88,20,19.85,33.75-.15,14.37-9.1,27.11-21.63,33.82-24.93,11.45-57.33,2.35-72.41-20.88-20.89-36.65-28.19-83.12-31.52-124.56-4.32-65.27-1.67-130.66,12.69-194.37,4.43-21.17,9.25-42.24,15.23-63.02h0Z"/>
    <path class="cls-1" d="M1517.33,1387.25c4.5-42.69,7.22-85.7,8.26-128.55,4.89-63.09,6.48-127.89-7.34-189.9-4.1-17.68-9.67-34.86-17.99-50.94-7.12-13.62-23.32-21.36-38.6-20.22-2.22.12-4.4.5-6.56.96-1.5.43-4.1.97-5.5,1.83-8.03,4.15-14.88,14.99-10.54,23.78.66,1.29,1.51,2.77,2.35,3.96,8.29,12.2,23.02,18.94,37.72,19.62,2.52.14,9.6.51,12.22.66,69.52,4.91,139.19,8.94,208.84,8.14,42.79-.38,85.58-2.13,128.15-5.99,42.82-1.08,85.64-4.07,128.61-8.28-41.65,11.31-84.18,19.64-127.04,26.21-113.01,10.29-226.71,6.23-339.66-2.11,0,0-7.93-.42-7.93-.42-15.24-.27-30.39-4.48-42.77-13.98-10.27-8.11-19.88-20-19.85-33.75.15-14.37,9.1-27.11,21.63-33.83,24.93-11.45,57.33-2.35,72.41,20.88,20.89,36.65,28.19,83.12,31.52,124.56,4.32,65.27,1.67,130.66-12.69,194.37-4.43,21.17-9.25,42.24-15.23,63.02h0Z"/>
  </g>
  <path class="cls-1" d="M4167.3,1387.25c-5.99-20.78-10.8-41.85-15.23-63.02-14.36-63.7-17.02-129.09-12.69-194.37,2.89-36.87,8.8-74.52,23.57-108.87,3.04-6.72,6.19-13.81,10.79-19.64,12.11-15.24,31.43-22.96,50.48-21.68,14.4.9,26.14,6.38,34.27,18.42,8.56,12.63,8.69,27.68-.35,40.16-10.58,15.69-28.83,25.18-47.21,27.14-4.74.46-11.71.71-16.53,1-112.94,8.34-226.65,12.4-339.66,2.11-42.86-6.57-85.39-14.9-127.04-26.21,42.97,4.21,85.79,7.21,128.61,8.28,42.58,3.86,85.36,5.62,128.15,5.99,69.65.8,139.33-3.23,208.84-8.14,2.62-.13,9.68-.52,12.22-.66,14.7-.68,29.43-7.42,37.72-19.62.85-1.2,1.69-2.67,2.35-3.96,4.33-8.78-2.51-19.64-10.54-23.78-1.41-.82-3.95-1.42-5.5-1.83-2.16-.45-4.35-.84-6.56-.96-15.28-1.14-31.48,6.59-38.6,20.22-8.32,16.08-13.9,33.26-17.99,50.94-13.83,62.01-12.23,126.81-7.34,189.9,1.04,42.85,3.77,85.86,8.27,128.55h0Z"/>
</svg>