<?xml version="1.0" encoding="UTF-8"?>
<svg id="_레이어_1" data-name="레이어 1" xmlns="http://www.w3.org/2000/svg" viewBox="0 0 2352.46 3061.42">
  <defs>
    <style>
      .cls-1 {
        fill: #000;
        stroke-width: 0px;
      }
    </style>
  </defs>
  <g>
    <path class="cls-1" d="M892.47,1587.65s379.41,60.05,561.79,58.89c182.37-1.16,297.41-102.57,297.41-102.57,0,0-171.53-185-859.2,43.68Z"/>
    <path class="cls-1" d="M892.47,1587.65c63.67,2.49,157.17,6.87,221.88,9.84,9.21.47,18.28,2,27.38,3.42,91.82,11.42,184.72,20.9,277.16,24.36,16.13.16,34.34.7,50.48.1,88.18-3.5,175.54-31.89,248.4-81.8,6.91-4.78,13.78-9.85,20.14-15.21.02.04-1.56,30.07-1.47,29.81-6.77-6.35-15.15-11.56-23.16-16.31-24.41-13.76-51.24-23.11-78.62-30.09-5.08-1.14-14.55-3.65-19.4-4.46-4.85-.96-11.53-2.3-16.34-3.21-6.3-.96-16.91-2.72-23.14-3.57-3.95-.49-15.83-1.84-20-2.35-85.37-8.42-172.48-2.53-257.33,9.9-15.64,2.06-38.38,5.99-54.04,8.77-6.64,1.08-20.33,3.62-26.94,5.03-2.71.6-30.81,6.13-33.61,6.73-14.85,3.36-32.06,7.09-46.84,10.67-8.88,2.26-17.6,5.1-26.7,6.48-15,2.4-39.49,6.43-54.42,9.38-35.07,6.11-72.86,14-107.92,20.79-17.89,3.11-37.25,6.05-55.49,11.74h0ZM892.47,1587.65c19.16-6.64,37.58-17.13,57.06-25.24,11.19-4.79,33.96-13.81,45.6-18.56,19.65-8.16,45.37-17.31,65.39-24.79,4.26-1.55,9.05-3.34,13.2-4.69,16.1-5.49,37.11-13.29,53.66-15.82,15.16-3.17,32.62-7.38,47.8-10.67,18.48-3.56,43.42-9.01,61.88-12.02,101.67-18.04,205.47-28.72,308.79-20.35,8.32.52,20.08,1.92,28.39,2.93,8.39.81,20,2.84,28.35,4.11,4.48.6,9.77,1.8,14.14,2.62,33.4,6.51,66.06,15.83,97.23,30.27,0,0,6.72,3.26,6.72,3.26,1.12.55,2.24,1.07,3.35,1.65l3.32,1.79s6.63,3.6,6.62,3.6l6.55,3.93c9.11,5.66,18.06,11.91,25.77,19.49,0,0,.65.68.65.68,0,0,14.92,15.48,14.92,15.48l-16.42,14.28c-1.32,1.15-2.18,1.85-3.22,2.71-82.65,64.6-186.74,100.3-291.25,104.68-13.21.52-29.51.27-42.7.05-21.82-.31-48.35-1.65-70.03-3.09-64.52-4.07-129.75-10.83-193.95-18.26-13.15-1.62-28.25-3.2-41.42-4.41-9.23-.92-18.31-2.91-27.37-4.88-68.08-14.48-135.9-30.17-203.02-48.74h0Z"/>
  </g>
  <g>
    <path class="cls-1" d="M898.54,1578.93s168.11,286.12,289.03,403.01c120.92,116.89,230.64,98.97,230.64,98.97,0,0,53-222.24-519.67-501.98Z"/>
    <path class="cls-1" d="M898.54,1578.93c28.61,36.09,75.2,94.84,103.32,129.85,5.62,7.09,17.15,20.6,21.61,27.93,6.13,10,12.55,19.83,19.28,29.44,45.09,65.23,91.98,130.54,146.49,187.95,8.95,9.23,18.89,18.95,28.6,27.34,36.05,31.73,78.38,57.58,124.42,70.71,20.6,5.87,42.17,9.4,63.55,8.86,3.09-.08,6.04-.28,9.05-.64-.07.11-17,15.67-16.93,15.85,0,0-.01.07-.01.07,0,.03,0,.05,0,0,0,0,.06-.38.06-.38l.06-.38c.27-1.78.44-4.1.55-5.88.85-32.41-10.78-63.68-25.07-92.59-3.49-6.39-6.99-13.24-10.85-19.44-1.24-2.1-6.17-10.1-7.31-11.93-.95-1.34-3.75-5.55-4.75-6.98-38.35-56.58-89.68-104.72-142.86-147.53-48.51-38.27-100.25-72.85-153.67-104.77,0,0-18.88-13.97-18.88-13.97-11.7-8.16-31.59-22.33-43.29-30.57-13.08-8.88-30.94-21.01-43.96-30-16.21-10.98-31.36-23.52-49.41-32.95h0ZM898.54,1578.93c15.62,7.14,33.18,11.37,49.97,17.77,14.93,5.64,35.53,14.01,50.43,19.93,17.31,7.18,37.79,16.23,54.83,23.82,0,0,21.66,10.24,21.66,10.24,54.65,32.66,107.84,68.17,158.22,107.92,6.37,5.2,21.81,17.96,27.9,22.96,8.37,7.46,18.89,16.52,27.09,24.07,41.37,38.63,80.58,81.71,109.8,130.7,23.81,40.15,43.28,87.73,41.72,135.33-.21,3.53-.56,7.86-1.18,11.35-.72,4.18-2.77,12.66-3.52,16.44-5.66.69-16.15,2.57-21.6,2.82-32.31,2.04-64.56-3.82-95.14-13.82-51.88-17.23-97.8-47.24-137.51-83.95-32.52-30.17-61.45-64.78-88.62-99.24-31.97-40.72-61.81-82.7-90.9-125.39-6.49-9.96-14.28-19.04-20.07-29.45-29.98-56.04-58.27-112.95-83.09-171.49h0Z"/>
  </g>
  <g>
    <path class="cls-1" d="M896.68,1584.62c162.76,557.97,9.44,545.37,9.44,545.37l-9.33-539.58"/>
    <path class="cls-1" d="M896.68,1584.62c16.41,32.68,31.56,67.12,45.19,101.04,0,0,6.75,17.19,6.75,17.19,1.96,5.36,4.85,11.98,6.23,17.36,1.53,5.92,2.21,12.05,3.6,18,2.73,11.93,5.35,23.89,7.84,35.89,11.26,54.32,20.5,108.97,24.4,164.51,2.85,44.46,3.14,89.74-8.16,133.31-5.75,20.76-14.23,41.07-29.59,57.12-11.25,11.79-26.58,20.56-43.25,21.7-3.77.4-20.03-.98-24.06-1.09-1.59-90.23-5.33-310.98-6.92-398.69-.21-5.62-.98-11.23-.6-16.86,2.64-25.38,5.77-50.7,9.02-76.06,2.92-22.54,6.01-45.08,9.65-67.63,4.41,22.41,8.28,44.84,11.98,67.26,4.12,25.23,8.13,50.43,11.64,75.7.28,2.81.3,5.62.22,8.43.28,79.85,5.22,304.76,6.3,387.83,0,0-19.11-20.39-19.11-20.39-.17-.02-.34-.03-.5-.04,0,0-.3,0-.3,0-.04,0-.12,0-.09,0,0,0,.01,0,.03,0h.11c.83-.12,1.67-.2,2.61-.49,9.55-2.89,16.07-10.64,21.27-19.25,6.44-10.93,10.53-23.76,13.32-36.32,3.03-13.71,4.69-27.5,5.61-41.79,3.79-70.84-7.38-141.62-20.75-211.15-3.46-17.48-7.28-35.38-11.26-52.74-1.34-5.85-3.34-11.54-4.61-17.41-1.2-5.53-1.64-12.41-2.29-17.98-4.66-42.46-9.99-84.81-14.3-127.45h0Z"/>
  </g>
  <g>
    <path class="cls-1" d="M898.87,1596.02s156.9-292.42,273.2-413.91c116.3-121.49,226.64-107.83,226.64-107.83,0,0,61.57,220.02-499.84,521.74Z"/>
    <path class="cls-1" d="M898.87,1596.02c22.53-59.45,48.6-117.42,76.39-174.58,5.38-10.63,12.81-20.01,18.91-30.21,27.41-43.79,55.61-86.89,85.98-128.82,25.82-35.48,53.38-71.2,84.71-102.6,38.26-38.23,82.97-69.99,134.15-89.22,30.16-11.18,62.17-18.28,94.53-17.49,5.85.1,15.94,1.47,21.69,1.99.55,2.12,3.8,14.47,4.16,16.29.75,3.46,1.27,7.78,1.61,11.3,3.41,47.49-14.21,95.8-36.44,136.84-27.3,50.08-64.81,94.65-104.65,134.85-7.88,7.86-18.09,17.34-26.13,25.1-5.85,5.28-20.98,18.64-26.99,24.03-48.8,41.67-100.58,79.22-153.92,113.96l-21.25,11.07c-16.8,8.24-36.84,18.12-53.87,25.92-14.61,6.44-34.91,15.67-49.62,21.87-16.53,7.04-33.92,11.97-49.25,19.69h0ZM898.87,1596.02c17.67-10.12,32.33-23.24,48.1-34.84,12.68-9.51,30.05-22.32,42.76-31.68,11.44-8.72,30.54-23.5,42.07-32.22,0,0,18.32-14.69,18.32-14.69,52.15-33.96,102.51-70.53,149.5-110.64,51.49-44.84,100.91-94.92,137.04-152.95,0,0,2.98-4.77,2.98-4.77,0,0,1.49-2.39,1.49-2.39,1.5-2.49,5.43-9.77,6.84-12.2,3.62-6.34,6.84-13.32,10.09-19.84,13.16-29.44,23.57-61.13,21.46-93.49-.03-.39-.09-.76-.13-1.14,0,0-.25-2.26-.25-2.26,0,0-.32-2.03-.32-2.03-.02-.18-.05-.32-.08-.43,0,0-.08-.37-.08-.37,0,0-.07-.37-.07-.37,0-.05,0-.03,0,0,0,0,.02.07.02.07,0,0,.04.13.04.13,0,0,17.49,15.05,17.49,15.05-3.04-.22-5.97-.34-9.07-.29-21.39.29-42.8,4.66-63.16,11.32-45.5,14.9-86.79,42.37-121.59,75.47-9.37,8.76-18.94,18.86-27.52,28.43-52.24,59.48-96.57,126.56-139.1,193.49-6.35,9.86-12.38,19.93-18.12,30.17-4.57,8.09-15.13,21.36-20.51,28.75-26.74,36.01-71.35,97.06-98.22,133.75h0Z"/>
  </g>
  <g>
    <path class="cls-1" d="M896.8,1590.41c141.02-563.85-11.69-545.33-11.69-545.33l11.69,545.33Z"/>
    <path class="cls-1" d="M896.8,1590.41c1.55-6.31,2.03-13.5,1.77-19.62-.05-2.69-.04-5.31.11-7.97,2.5-35.15,5.79-74.38,8.16-109.37.24-9.1,2.95-17.75,4.82-26.58,2.24-11.78,4.34-23.59,6.32-35.41,12.29-75.72,22.42-152.91,15.46-229.52-2.89-26.14-7.94-55.02-21.94-77.32-5.52-8.42-12.36-15.9-22-18.41-.95-.28-1.79-.3-2.62-.38,0,0-.11,0-.11,0-.01,0-.02,0-.03,0-.03,0,.05,0,.09,0,0,0,.3-.02.3-.02.17-.01.34-.03.5-.06,0,0,18.3-21.11,18.3-21.11,3.26,122.33,1.83,243.33-2.81,365.5-.15,5.63-.01,10.52-.36,16.26-4.17,54.28-6.07,108.75-5.95,164.02h0ZM896.8,1590.41c-1.94-38.97-5.69-78.24-11.14-117.85-.82-5.48-1.44-10.82-1.65-16.6-.46-11.53-2.84-41.05-3.62-53.05-9.41-124.93-14.26-251.61-16.52-376.68,3.3-.25,20.04-2.13,22.98-2.04,12.86.11,25.4,4.96,35.65,12.23,67.57,48.75,56.84,196.1,49.25,270.71-3.27,30.59-7.63,61-12.75,91.25-2.02,12.08-4.19,24.13-6.44,36.17-1.12,6.01-1.55,12.16-2.93,18.12-2.74,10.4-8.27,24.75-11.69,35.01-9.04,25.49-19.53,52.4-30.04,77.37,0,0-.99,2.42-.99,2.42s-1.04,2.47-1.04,2.47c-2.9,7.02-7.24,13.46-9.1,20.47h0Z"/>
  </g>
</svg>