<?xml version="1.0" standalone="no"?>
<!DOCTYPE svg PUBLIC "-//W3C//DTD SVG 20010904//EN"
 "http://www.w3.org/TR/2001/REC-SVG-20010904/DTD/svg10.dtd">
<svg version="1.0" xmlns="http://www.w3.org/2000/svg"
 width="1351.000000pt" height="1946.000000pt" viewBox="0 0 1351.000000 1946.000000"
 preserveAspectRatio="xMidYMid meet">

<g transform="translate(0.000000,1946.000000) scale(0.100000,-0.100000)"
fill="#000000" stroke="none">
<path d="M6184 19426 c-18 -8 -35 -19 -39 -26 -4 -7 4 -5 17 4 14 9 33 14 42
10 13 -5 10 -10 -16 -23 -68 -34 -78 -71 -63 -221 15 -147 -40 -247 -168 -306
l-62 -29 -1743 -2 c-1538 -3 -1745 -1 -1758 12 -9 8 -25 16 -37 17 -12 1 10 4
48 8 l70 6 -85 2 c-88 1 -198 -13 -135 -18 17 -1 41 -6 55 -10 16 -6 -13 -8
-80 -7 -129 2 -488 -21 -515 -33 -11 -5 -47 -16 -80 -25 -33 -9 -94 -33 -135
-52 -41 -20 -77 -37 -80 -37 -2 -1 -15 -11 -29 -23 -13 -13 -30 -23 -38 -23
-8 0 -26 -12 -41 -27 -15 -15 -30 -28 -33 -28 -3 0 -31 -27 -63 -60 l-57 -60
36 53 c53 76 222 211 245 197 6 -3 10 -1 10 4 0 6 3 10 8 9 9 -3 182 62 182
68 0 3 -10 3 -22 0 -13 -3 -7 2 12 11 19 9 55 17 80 18 25 1 63 3 85 5 l40 2
-50 9 c-38 7 -67 5 -120 -8 -38 -9 -76 -16 -82 -15 -7 2 -13 -2 -13 -8 0 -6
-5 -8 -10 -5 -6 3 -10 2 -10 -4 0 -5 -17 -15 -37 -21 -48 -15 -197 -95 -219
-118 -10 -9 -33 -29 -52 -44 -19 -16 -29 -28 -22 -28 6 0 -9 -24 -35 -52 -26
-29 -61 -73 -78 -98 -17 -25 -37 -51 -44 -58 -7 -7 -13 -18 -13 -24 0 -6 -3
-9 -6 -5 -4 3 3 21 15 40 11 19 21 38 21 43 0 5 -12 -9 -25 -31 -14 -22 -23
-46 -20 -53 5 -14 -42 -102 -55 -102 -10 0 -56 -130 -75 -212 -13 -56 -15
-171 -14 -755 1 -378 -2 -890 -5 -1138 -5 -282 -3 -549 4 -715 13 -306 12
-248 10 -1065 -2 -370 -6 -620 -11 -605 -6 17 -7 7 -4 -34 2 -33 8 -62 12 -65
5 -3 8 -100 9 -216 0 -115 3 -351 7 -522 4 -204 3 -313 -4 -313 -5 0 -7 -10
-4 -22 11 -53 14 -450 5 -653 -19 -388 -41 -575 -96 -825 -25 -108 -74 -267
-94 -300 -5 -8 -25 -46 -44 -85 -43 -87 -144 -231 -171 -243 -22 -11 -127 -94
-161 -128 -14 -14 -46 -26 -90 -34 -38 -7 -82 -19 -97 -27 -16 -8 -38 -16 -49
-18 -47 -10 -97 -89 -105 -169 -5 -49 -2 -64 26 -121 42 -84 136 -179 227
-228 38 -20 62 -37 53 -37 -8 0 -36 -13 -61 -29 -25 -16 -49 -27 -52 -24 -13
13 -117 -111 -152 -181 -34 -70 -36 -80 -32 -143 5 -68 31 -138 48 -128 5 3
11 1 15 -5 9 -14 64 -42 100 -50 l30 -7 -25 -10 c-22 -9 -18 -11 34 -17 33 -5
66 -12 75 -16 9 -5 43 -21 76 -36 83 -38 252 -207 323 -324 62 -100 127 -262
117 -288 -6 -13 -10 -8 -20 23 -7 23 -13 31 -14 20 -1 -25 16 -90 34 -131 23
-50 46 -162 39 -191 -4 -23 -3 -25 6 -13 9 12 10 7 5 -23 -5 -29 -3 -37 5 -32
8 5 10 2 6 -11 -3 -11 1 -44 9 -74 14 -52 17 -102 40 -763 3 -87 1 -156 -3
-153 -4 2 0 -48 10 -112 19 -122 20 -269 3 -265 -5 1 -13 17 -16 35 -4 19 -6
-8 -7 -62 0 -52 2 -87 5 -78 2 10 8 18 12 18 4 0 4 -28 0 -62 -10 -86 -13
-173 -7 -184 3 -5 9 -28 13 -51 5 -34 4 -43 -7 -43 -12 0 -13 -13 -5 -76 5
-50 5 -86 -2 -106 -17 -48 -13 -226 9 -413 23 -202 24 -226 8 -222 -20 3 -21
-74 -4 -160 10 -45 15 -119 15 -187 l-2 -111 -17 130 -16 130 -7 -70 c-16
-174 -17 -235 -8 -305 l9 -75 -1 102 c-1 56 1 96 5 90 10 -19 28 -231 27 -322
-1 -74 -2 -78 -13 -51 -11 25 -13 -11 -13 -230 1 -142 -2 -286 -6 -319 -7 -57
-7 -58 7 -29 31 70 36 51 35 -138 -1 -135 -3 -173 -10 -144 -5 22 -12 42 -14
45 -10 9 6 -465 17 -523 8 -42 9 -170 3 -455 -4 -218 -7 -407 -6 -421 2 -14 6
-268 10 -565 6 -469 9 -548 24 -599 27 -90 60 -167 108 -252 84 -147 293 -309
474 -367 145 -47 90 -46 2265 -47 1125 0 2061 -4 2080 -9 180 -42 267 -185
230 -380 -13 -68 -4 -107 36 -146 38 -39 84 -47 158 -30 28 7 54 12 57 11 15
-3 138 83 195 136 116 109 171 268 160 458 -9 150 -48 254 -141 377 -104 139
-296 248 -481 274 -39 5 -190 12 -335 15 -145 3 -277 6 -294 6 -16 1 -73 1
-125 0 -52 0 -165 1 -250 1 -247 3 -1990 -13 -2153 -19 -125 -4 -153 -2 -180
11 -18 9 -75 27 -127 40 -52 13 -126 35 -165 48 -38 14 -79 28 -90 32 -17 6
-17 5 -5 -5 27 -21 -30 0 -105 38 -56 29 -99 65 -221 186 -181 182 -242 262
-321 425 -34 69 -63 119 -67 112 -4 -6 -3 -11 2 -11 9 0 54 -99 58 -127 5 -29
-9 -9 -43 62 -29 61 -33 78 -23 90 8 10 9 15 2 15 -7 0 -9 7 -5 17 4 11 3 14
-6 9 -9 -6 -10 0 -6 21 5 23 4 25 -5 13 -10 -13 -11 -12 -6 3 3 10 -3 55 -14
100 -10 46 -22 144 -25 222 -4 77 -11 145 -15 150 -4 6 -11 156 -15 335 -3
178 -10 327 -14 330 -10 6 -22 126 -26 250 -1 52 -8 115 -14 139 -8 28 -10 62
-5 95 5 28 7 67 5 87 -16 212 -22 275 -32 343 -10 61 -10 81 -1 84 16 5 15 76
-2 198 -16 109 -26 280 -16 264 11 -17 0 265 -16 444 -9 92 -14 187 -11 209 3
23 1 49 -4 60 -9 17 -14 88 -35 554 -4 78 -11 140 -16 137 -8 -5 -11 32 -14
186 -6 300 -15 537 -25 625 -6 55 -14 145 -19 200 -4 55 -12 134 -18 175 -6
41 -16 183 -22 314 -6 132 -16 270 -22 308 -8 53 -8 74 1 92 9 17 10 40 3 92
-5 38 -8 143 -7 234 2 95 0 137 -4 100 -6 -64 -6 -65 -14 -25 -4 22 -9 128
-12 235 -2 107 -9 223 -14 257 -5 34 -6 88 -2 119 8 59 3 114 -9 95 -4 -7 -12
14 -19 46 -31 141 -133 278 -251 338 -84 43 -85 47 -25 79 58 30 135 92 135
107 0 6 13 29 29 52 70 103 110 219 110 322 0 28 10 95 22 150 12 55 23 141
25 190 2 50 8 169 13 265 5 96 10 238 10 315 1 77 8 208 16 290 7 83 16 247
19 365 4 118 11 265 16 325 6 61 14 193 20 295 5 102 14 239 20 305 5 66 14
212 19 325 17 358 31 598 52 865 11 143 24 334 29 425 5 91 19 293 32 449 19
244 20 301 11 415 -6 72 -12 136 -13 141 -1 6 -2 37 0 70 1 44 4 55 10 40 7
-17 9 -14 10 15 1 19 5 76 10 125 5 50 18 223 30 385 11 162 29 426 40 585 21
298 36 410 68 527 11 37 16 65 11 62 -4 -2 -1 16 7 41 9 25 20 42 26 39 6 -4
8 1 4 14 -4 13 -2 24 7 29 8 4 25 37 39 73 15 39 30 64 38 62 8 -2 10 3 6 13
-3 9 -2 13 4 10 5 -3 17 14 28 37 38 86 105 159 282 311 25 22 38 36 30 32 -8
-3 -4 2 10 13 14 11 36 30 49 41 35 31 232 125 325 156 163 55 234 64 568 80
214 9 327 11 350 4 18 -5 153 -9 308 -9 151 1 284 1 295 1 11 0 261 -1 555 -4
294 -2 753 -1 1020 3 550 8 560 10 735 95 197 96 321 241 376 440 40 147 20
389 -37 450 -14 15 -37 46 -51 69 -56 88 -138 160 -233 206 -100 47 -159 58
-206 36z m-4431 -583 c-7 -2 -19 -2 -25 0 -7 3 -2 5 12 5 14 0 19 -2 13 -5z
m-804 -844 c-7 -34 -11 -214 -10 -478 0 -232 -3 -420 -7 -417 -5 6 -16 492
-16 781 0 124 17 215 35 183 5 -10 4 -38 -2 -69z m-12 -2486 c-2 -21 -4 -6 -4
32 0 39 2 55 4 38 2 -18 2 -50 0 -70z m3 -134 c0 -57 -4 -88 -10 -84 -5 3 -10
44 -10 91 0 49 4 84 10 84 6 0 10 -37 10 -91z m-2 -1024 c0 -92 -2 -109 -8
-74 -10 56 -13 142 -10 224 l3 60 8 -45 c4 -25 7 -99 7 -165z m-1 -1732 c-3
-10 -5 -2 -5 17 0 19 2 27 5 18 2 -10 2 -26 0 -35z m-657 -2313 c-14 -4 -36
-8 -50 -8 -22 0 -22 1 5 8 17 4 39 8 50 8 16 0 15 -2 -5 -8z m-83 -16 c-3 -3
-12 -4 -19 -1 -8 3 -5 6 6 6 11 1 17 -2 13 -5z m128 -1154 c13 -6 15 -9 5 -9
-8 0 -22 4 -30 9 -18 12 -2 12 25 0z m922 -652 c-3 -8 -6 -5 -6 6 -1 11 2 17
5 13 3 -3 4 -12 1 -19z m0 -215 c-3 -10 -5 -4 -5 12 0 17 2 24 5 18 2 -7 2
-21 0 -30z"/>
<path d="M7177 19395 c-26 -7 -50 -13 -53 -13 -3 1 -36 -19 -72 -43 -199 -129
-272 -265 -272 -503 0 -75 6 -140 16 -180 45 -174 182 -342 349 -428 89 -46
220 -92 234 -83 5 2 24 0 44 -6 20 -5 212 -11 434 -12 219 -2 403 -6 408 -9 6
-3 343 -2 750 3 407 4 839 8 960 7 345 -2 379 -1 565 7 150 7 178 6 191 -7 8
-8 50 -23 94 -33 44 -9 122 -30 173 -47 51 -16 97 -26 102 -23 6 4 48 -11 93
-33 98 -48 210 -143 351 -298 122 -135 146 -169 221 -321 43 -86 65 -119 72
-112 7 7 9 0 7 -25 -1 -23 1 -34 8 -30 6 4 8 -2 3 -16 -5 -17 -4 -21 6 -15 9
6 11 3 6 -9 -4 -10 2 -53 13 -95 12 -49 22 -131 26 -222 4 -79 11 -147 17
-150 6 -5 11 -120 13 -313 1 -168 5 -309 8 -314 11 -18 34 -220 35 -306 1 -49
4 -93 8 -98 3 -6 7 -103 9 -217 2 -122 8 -219 14 -237 7 -16 13 -72 15 -124 2
-77 1 -84 -4 -35 l-8 60 -1 -72 c-1 -40 5 -121 13 -180 19 -144 27 -302 14
-283 -7 11 -8 5 -3 -20 3 -18 8 -104 9 -190 2 -85 10 -225 18 -310 8 -85 14
-166 15 -180 0 -14 3 -61 6 -105 14 -188 28 -466 27 -540 0 -51 3 -73 8 -60
10 24 21 -93 19 -205 -1 -41 3 -111 9 -156 6 -44 7 -102 3 -129 -9 -61 29
-570 49 -665 6 -25 10 -83 11 -130 0 -47 8 -184 17 -305 9 -129 16 -340 16
-510 1 -159 2 -264 4 -232 2 31 8 57 12 57 11 0 26 -297 18 -347 -4 -19 1 -70
9 -112 10 -53 13 -108 9 -181 -3 -58 -2 -97 3 -87 5 12 11 -3 20 -50 27 -141
122 -278 240 -345 28 -16 52 -33 52 -38 0 -4 10 -10 23 -14 19 -5 15 -10 -37
-38 -67 -37 -159 -115 -150 -129 3 -5 -3 -21 -14 -37 -30 -42 -79 -143 -91
-187 -6 -22 -11 -69 -12 -105 -1 -36 -15 -134 -32 -219 -24 -121 -28 -158 -19
-172 14 -22 16 -79 3 -79 -16 0 -21 -70 -26 -370 -2 -157 -9 -328 -15 -380 -8
-74 -20 -342 -28 -630 0 -8 -5 -55 -11 -105 -6 -49 -11 -144 -11 -210 -1 -66
-5 -156 -11 -200 -20 -169 -43 -544 -59 -975 -5 -118 -15 -287 -24 -375 -8
-88 -22 -275 -31 -415 -8 -140 -23 -336 -32 -435 -19 -209 -22 -502 -5 -560
12 -41 5 -176 -8 -155 -8 13 -19 -115 -60 -700 -52 -752 -55 -782 -99 -928
-11 -34 -15 -60 -11 -57 5 3 2 -15 -6 -40 -9 -25 -20 -42 -26 -39 -6 4 -8 -1
-4 -14 5 -13 2 -24 -8 -29 -8 -4 -26 -38 -41 -76 -15 -37 -32 -70 -37 -73 -6
-4 -5 3 1 15 7 11 9 21 6 21 -2 0 -19 -28 -36 -63 -17 -34 -48 -84 -70 -112
-31 -41 -157 -159 -245 -231 -10 -8 -13 -13 -6 -9 31 16 6 -7 -54 -50 -120
-86 -342 -176 -515 -210 -85 -16 -518 -37 -591 -27 -26 3 -38 0 -38 -8 0 -9
-14 -10 -47 -6 -113 14 -414 24 -536 17 -72 -4 -137 -4 -142 0 -6 4 -455 6
-997 3 -821 -3 -999 -6 -1057 -19 -274 -57 -461 -190 -562 -399 -55 -114 -73
-204 -66 -340 6 -128 26 -203 65 -243 15 -15 45 -54 66 -86 22 -32 58 -74 80
-94 45 -39 193 -117 243 -127 38 -9 106 8 124 31 13 15 12 15 -11 2 -17 -11
-36 -13 -60 -9 l-35 7 32 2 c38 1 86 39 103 81 10 25 10 48 1 114 -24 173 26
279 164 343 l60 28 1739 2 c1524 2 1741 1 1759 -12 12 -8 31 -16 42 -17 11 -1
-16 -5 -60 -8 l-80 -7 100 0 c55 0 108 3 118 5 31 8 18 21 -25 25 -24 2 13 3
82 3 69 0 157 5 195 11 39 7 117 17 175 24 58 6 114 17 125 23 11 7 49 23 85
35 36 13 92 38 125 57 33 18 63 32 67 31 4 -1 14 7 22 18 9 11 16 16 16 10 0
-5 7 1 16 13 8 12 20 20 25 17 5 -4 50 36 100 87 78 79 86 85 54 41 -61 -88
-214 -216 -244 -205 -8 3 -11 0 -7 -7 4 -7 0 -11 -12 -11 -11 0 -54 -16 -96
-35 -72 -34 -97 -50 -58 -40 9 3 -5 -6 -33 -19 -29 -15 -60 -23 -75 -20 -14 2
-45 -2 -70 -9 l-45 -14 70 3 c41 1 93 11 124 23 30 11 58 18 62 16 4 -3 15 2
24 12 9 9 44 29 76 44 67 32 179 104 222 143 28 26 36 43 15 30 -7 -4 10 17
37 47 28 30 68 79 90 109 22 30 44 60 50 67 5 6 25 39 44 72 19 34 37 59 39
56 10 -9 63 128 88 224 24 94 24 99 25 600 0 278 2 623 4 766 11 750 12 1095
3 1150 -11 70 -17 1775 -6 1730 4 -16 4 -3 1 30 -6 65 -10 201 -18 670 -5 318
-11 418 -26 409 -5 -3 -8 12 -8 33 2 30 3 32 6 11 2 -16 8 -28 13 -28 12 0 23
82 16 117 -11 50 -9 483 3 683 20 331 51 560 102 740 11 41 22 87 24 101 4 27
50 154 66 179 5 8 23 42 40 75 73 139 126 202 253 297 110 83 127 93 190 105
38 7 83 22 101 33 17 11 34 17 37 14 8 -7 59 56 75 93 24 58 17 138 -19 204
-38 72 -142 173 -220 214 l-56 29 41 24 c23 14 48 25 56 25 28 1 135 121 169
188 26 54 32 78 32 131 0 67 -16 132 -30 123 -5 -3 -10 -2 -12 2 -8 19 -59 56
-95 68 l-38 14 35 2 c29 1 25 3 -25 13 -78 16 -170 51 -220 83 -107 70 -234
205 -302 321 -49 83 -104 223 -97 245 5 17 10 9 24 -36 19 -60 101 -240 107
-234 2 2 -17 46 -41 98 -25 52 -52 128 -62 169 -9 41 -21 80 -26 87 -18 22
-48 157 -42 188 4 24 3 27 -6 15 -9 -12 -10 -6 -5 25 4 31 3 37 -5 25 -9 -12
-11 -10 -6 10 3 14 -1 46 -8 71 -20 67 -29 199 -41 624 -3 121 -8 243 -11 270
-3 38 -2 46 7 35 8 -12 10 -8 5 16 -19 116 -37 271 -34 311 3 47 22 69 31 36
3 -10 5 14 6 52 0 49 -2 65 -9 55 -6 -10 -7 17 -2 80 7 101 7 136 -4 214 -4
34 -3 47 5 42 8 -5 9 11 4 56 -4 35 -6 74 -5 88 12 112 11 309 -2 428 -19 160
-20 229 -5 234 17 6 15 91 -4 195 -12 59 -17 126 -15 190 l3 98 14 -123 c10
-78 18 -119 24 -113 15 15 20 241 8 361 l-10 105 4 -130 c6 -183 -12 -128 -25
77 -5 90 -10 169 -10 176 0 18 18 14 23 -5 5 -20 6 16 10 364 1 127 -1 224 -4
215 -4 -10 -14 -24 -22 -31 -14 -11 -16 6 -15 171 1 144 3 175 11 146 23 -84
24 -57 13 322 -2 63 -8 140 -14 170 -6 34 -7 210 -3 465 4 226 3 424 -1 440
-5 17 -8 237 -7 490 2 402 0 470 -15 539 -58 267 -200 471 -431 622 -106 69
-174 100 -289 133 l-91 25 -2065 6 -2065 5 -49 23 c-147 67 -198 171 -174 351
14 109 0 149 -66 181 -48 23 -71 24 -139 5z m4634 -2046 c19 -38 27 -65 21
-71 -6 -6 -18 13 -33 49 -41 101 -35 114 12 22z m446 -6151 c-2 -13 -4 -5 -4
17 -1 22 1 32 4 23 2 -10 2 -28 0 -40z m13 -247 c0 -32 -6 -24 -14 19 -4 25
-3 31 4 20 5 -8 10 -26 10 -39z m959 -637 c10 -9 -35 -3 -49 6 -11 8 -7 9 15
4 17 -4 32 -8 34 -10z m96 -1149 c-27 -11 -96 -22 -89 -15 9 9 45 17 79 18 11
0 16 -1 10 -3z m-741 -4110 c2 -95 1 -130 -6 -110 -5 17 -11 98 -13 180 -3
108 -2 139 5 110 5 -22 11 -103 14 -180z m-1 -964 c-13 -214 -20 -230 -21 -51
-1 151 1 172 13 156 10 -14 12 -40 8 -105z m-16 -858 c-3 -10 -5 -4 -5 12 0
17 2 24 5 18 2 -7 2 -21 0 -30z m17 -1283 c4 -296 2 -377 -10 -430 -8 -36 -19
-72 -24 -80 -19 -31 -21 2 -4 82 16 72 18 135 18 493 -1 250 2 389 7 355 5
-30 11 -219 13 -420z m-827 -1316 c-3 -3 -12 -4 -19 -1 -8 3 -5 6 6 6 11 1 17
-2 13 -5z"/>
<path d="M6077 19323 c-4 -3 -7 -20 -6 -37 l1 -31 8 35 c9 36 8 45 -3 33z"/>
<path d="M3053 18893 c15 -2 39 -2 55 0 15 2 2 4 -28 4 -30 0 -43 -2 -27 -4z"/>
<path d="M4353 18885 c0 -8 4 -15 7 -15 4 0 13 7 20 15 10 12 9 15 -7 15 -11
0 -20 -7 -20 -15z"/>
<path d="M3818 18883 c12 -2 30 -2 40 0 9 3 -1 5 -23 4 -22 0 -30 -2 -17 -4z"/>
<path d="M4580 18880 l-55 -7 50 -1 c28 -1 57 3 65 8 8 5 11 9 5 8 -5 -1 -35
-4 -65 -8z"/>
<path d="M1780 18870 c-12 -8 -9 -10 13 -10 15 0 27 5 27 10 0 13 -20 13 -40
0z"/>
<path d="M1868 18873 c6 -2 18 -2 25 0 6 3 1 5 -13 5 -14 0 -19 -2 -12 -5z"/>
<path d="M2685 18865 l-40 -13 55 -1 c61 -1 100 7 100 20 0 13 -69 10 -115 -6z"/>
<path d="M2998 18873 c12 -2 32 -2 45 0 12 2 2 4 -23 4 -25 0 -35 -2 -22 -4z"/>
<path d="M3658 18863 c12 -2 30 -2 40 0 9 3 -1 5 -23 4 -22 0 -30 -2 -17 -4z"/>
<path d="M3893 18853 c9 -2 25 -2 35 0 9 3 1 5 -18 5 -19 0 -27 -2 -17 -5z"/>
<path d="M5053 18853 c20 -2 54 -2 75 0 20 2 3 4 -38 4 -41 0 -58 -2 -37 -4z"/>
<path d="M5193 18853 c15 -2 37 -2 50 0 12 2 0 4 -28 4 -27 0 -38 -2 -22 -4z"/>
<path d="M5343 18853 c9 -2 25 -2 35 0 9 3 1 5 -18 5 -19 0 -27 -2 -17 -5z"/>
<path d="M3108 18843 c17 -2 47 -2 65 0 17 2 3 4 -33 4 -36 0 -50 -2 -32 -4z"/>
<path d="M3678 18843 c12 -2 32 -2 45 0 12 2 2 4 -23 4 -25 0 -35 -2 -22 -4z"/>
<path d="M11159 17985 c36 -19 69 -39 75 -45 5 -5 15 -10 21 -10 16 1 -24 29
-87 61 -80 41 -87 36 -9 -6z"/>
<path d="M12571 17724 c0 -11 3 -14 6 -6 3 7 2 16 -1 19 -3 4 -6 -2 -5 -13z"/>
<path d="M12583 17395 c0 -22 2 -30 4 -17 2 12 2 30 0 40 -3 9 -5 -1 -4 -23z"/>
<path d="M12574 17185 c0 -55 1 -76 3 -47 2 29 2 74 0 100 -2 26 -3 2 -3 -53z"/>
<path d="M12582 17030 c0 -14 2 -19 5 -12 2 6 2 18 0 25 -3 6 -5 1 -5 -13z"/>
<path d="M1481 15364 c0 -11 3 -14 6 -6 3 7 2 16 -1 19 -3 4 -6 -2 -5 -13z"/>
<path d="M12601 13818 c0 -53 3 -88 9 -88 12 0 12 53 0 125 -7 46 -7 43 -9
-37z"/>
<path d="M12122 12750 c0 -8 4 -26 8 -40 6 -20 8 -21 8 -5 0 11 -3 29 -8 40
-5 12 -8 14 -8 5z"/>
<path d="M12584 12546 c-3 -19 -1 -48 4 -63 9 -24 11 -20 11 35 1 69 -5 80
-15 28z"/>
<path d="M709 8668 c20 -46 43 -94 49 -108 l12 -25 -6 25 c-8 31 -81 190 -88
190 -2 0 12 -37 33 -82z"/>
<path d="M901 6920 c0 -72 0 -74 15 -47 13 24 13 33 1 75 l-15 47 -1 -75z"/>
<path d="M1361 6784 c0 -11 3 -14 6 -6 3 7 2 16 -1 19 -3 4 -6 -2 -5 -13z"/>
<path d="M1372 6730 c0 -19 2 -27 5 -17 2 9 2 25 0 35 -3 9 -5 1 -5 -18z"/>
<path d="M893 5645 c0 -38 2 -53 4 -32 2 20 2 52 0 70 -2 17 -4 1 -4 -38z"/>
<path d="M902 4775 c0 -16 2 -22 5 -12 2 9 2 23 0 30 -3 6 -5 -1 -5 -18z"/>
<path d="M1493 4390 c0 -25 2 -35 4 -22 2 12 2 32 0 45 -2 12 -4 2 -4 -23z"/>
<path d="M910 2403 c0 -12 5 -25 10 -28 13 -8 13 15 0 35 -8 12 -10 11 -10 -7z"/>
<path d="M923 2270 c0 -47 2 -66 4 -42 2 23 2 61 0 85 -2 23 -4 4 -4 -43z"/>
<path d="M913 2065 c0 -27 2 -38 4 -22 2 15 2 37 0 50 -2 12 -4 0 -4 -28z"/>
<path d="M922 1695 c0 -16 2 -22 5 -12 2 9 2 23 0 30 -3 6 -5 -1 -5 -18z"/>
<path d="M2234 1531 c6 -10 111 -71 122 -71 3 0 -21 18 -54 40 -59 40 -78 48
-68 31z"/>
<path d="M12425 1114 c-15 -25 -25 -47 -22 -50 2 -2 16 18 31 46 34 63 27 66
-9 4z"/>
<path d="M9803 613 c9 -2 25 -2 35 0 9 3 1 5 -18 5 -19 0 -27 -2 -17 -5z"/>
<path d="M10308 613 c17 -2 47 -2 65 0 17 2 3 4 -33 4 -36 0 -50 -2 -32 -4z"/>
<path d="M11665 610 l-30 -8 30 -1 c17 0 37 4 45 9 13 9 13 10 0 9 -8 -1 -28
-5 -45 -9z"/>
<path d="M8138 603 c23 -2 59 -2 80 0 20 2 1 4 -43 4 -44 0 -61 -2 -37 -4z"/>
<path d="M8303 603 c15 -2 37 -2 50 0 12 2 0 4 -28 4 -27 0 -38 -2 -22 -4z"/>
<path d="M9573 603 c9 -2 25 -2 35 0 9 3 1 5 -18 5 -19 0 -27 -2 -17 -5z"/>
<path d="M10700 595 c-11 -13 -4 -15 49 -15 36 0 60 4 56 9 -3 5 7 12 22 14
16 2 -4 5 -43 6 -53 1 -75 -3 -84 -14z"/>
<path d="M9798 593 c6 -2 18 -2 25 0 6 3 1 5 -13 5 -14 0 -19 -2 -12 -5z"/>
<path d="M8888 583 c12 -2 32 -2 45 0 12 2 2 4 -23 4 -25 0 -35 -2 -22 -4z"/>
<path d="M9115 580 c-30 -8 -30 -8 8 -9 20 0 37 4 37 9 0 11 -2 11 -45 0z"/>
<path d="M9675 580 c-3 -5 1 -10 9 -10 9 0 16 5 16 10 0 6 -4 10 -9 10 -6 0
-13 -4 -16 -10z"/>
<path d="M9978 583 c6 -2 18 -2 25 0 6 3 1 5 -13 5 -14 0 -19 -2 -12 -5z"/>
<path d="M10453 583 c15 -2 39 -2 55 0 15 2 2 4 -28 4 -30 0 -43 -2 -27 -4z"/>
<path d="M8798 573 c7 -3 16 -2 19 1 4 3 -2 6 -13 5 -11 0 -14 -3 -6 -6z"/>
<path d="M10403 563 c20 -2 54 -2 75 0 20 2 3 4 -38 4 -41 0 -58 -2 -37 -4z"/>
<path d="M7431 244 c0 -11 3 -14 6 -6 3 7 2 16 -1 19 -3 4 -6 -2 -5 -13z"/>
<path d="M7420 173 c-3 -23 -2 -39 3 -34 5 5 7 24 5 42 -3 33 -4 33 -8 -8z"/>
<path d="M7258 3 c7 -3 16 -2 19 1 4 3 -2 6 -13 5 -11 0 -14 -3 -6 -6z"/>
</g>
</svg>
