<?xml version="1.0" encoding="UTF-8"?>
<svg id="_레이어_1" data-name="레이어 1" xmlns="http://www.w3.org/2000/svg" xmlns:xlink="http://www.w3.org/1999/xlink" viewBox="0 0 2354.17 3061.42">
  <defs>
    <style>
      .cls-1 {
        fill: #f4c3c3;
      }

      .cls-1, .cls-2, .cls-3, .cls-4, .cls-5, .cls-6, .cls-7 {
        stroke-width: 0px;
      }

      .cls-8 {
        fill: #ffe9e9;
      }

      .cls-8, .cls-9, .cls-10, .cls-11, .cls-12, .cls-13, .cls-14, .cls-15, .cls-16, .cls-17 {
        stroke: #000;
        stroke-miterlimit: 10;
        stroke-width: 7px;
      }

      .cls-2 {
        fill: #6d0000;
      }

      .cls-9 {
        fill: #fff200;
      }

      .cls-3 {
        fill: #020202;
      }

      .cls-10, .cls-6 {
        fill: #fff;
      }

      .cls-4, .cls-14 {
        fill: #000;
      }

      .cls-11 {
        fill: url(#_무제_그라디언트_68);
      }

      .cls-12 {
        fill: none;
      }

      .cls-18 {
        opacity: .16;
      }

      .cls-5 {
        fill: #ddd026;
      }

      .cls-13 {
        fill: #870000;
      }

      .cls-15 {
        fill: #00ea16;
      }

      .cls-16 {
        fill: url(#_무제_그라디언트_68-2);
      }

      .cls-17 {
        fill: #350000;
      }

      .cls-7 {
        fill: #157719;
      }
    </style>
    <linearGradient id="_무제_그라디언트_68" data-name="무제 그라디언트 68" x1="963.46" y1="820.38" x2="1090.06" y2="820.38" gradientUnits="userSpaceOnUse">
      <stop offset="0" stop-color="#fff"/>
      <stop offset=".04" stop-color="#d4e8e6"/>
      <stop offset=".1" stop-color="#a8d1cd"/>
      <stop offset=".15" stop-color="#81bcb6"/>
      <stop offset=".22" stop-color="#5eaaa2"/>
      <stop offset=".28" stop-color="#429b92"/>
      <stop offset=".36" stop-color="#2a8f84"/>
      <stop offset=".45" stop-color="#18857a"/>
      <stop offset=".55" stop-color="#0c7e73"/>
      <stop offset=".69" stop-color="#057b6f"/>
      <stop offset="1" stop-color="#037a6e"/>
    </linearGradient>
    <linearGradient id="_무제_그라디언트_68-2" data-name="무제 그라디언트 68" x1="1284.66" y1="820.38" x2="1411.26" y2="820.38" xlink:href="#_무제_그라디언트_68"/>
  </defs>
  <polygon class="cls-13" points="580.22 1904.13 415.92 2733.85 838.52 2733.85 782.47 1929.11 580.22 1904.13"/>
  <polygon class="cls-13" points="1833.02 1900.02 2007.63 2735.86 1604.25 2735.03 1663.22 1929.11 1833.02 1900.02"/>
  <path class="cls-8" d="M1067.16,1142.56s3.99,58.92,2.68,134.23c-.06,3.23-1.45,6.19-3.67,7.76-4.03,2.84-10.39,8.13-13.1,14.83-6.15,15.21-7.21,32.9-3.53,49.35,8.21,36.7,39.28,105.77,154.98,161.53,0,0,93.4-24.48,150.29-152.16,6.5-14.59,6.87-32.47,4.6-48.99-1.38-10.04-4.21-19.71-9.92-22.32,0,0-33.77.1-8.05-144.49l-274.28.26Z"/>
  <polygon class="cls-13" points="728.09 1929.11 728.09 2733.85 1709.79 2733.85 1709.79 1932.88 728.09 1929.11"/>
  <path class="cls-13" d="M1065.33,1281.31s-76.13,28.79-145.3,122.21c0,0,170.76,173.5,284.43,168.88v-131.54s-120.86-52.25-139.13-159.56Z"/>
  <path class="cls-13" d="M1343.72,1281.31s76.13,28.79,145.3,122.21c0,0-170.76,173.5-284.43,168.88v-131.54s120.86-52.25,139.13-159.56Z"/>
  <g>
    <path class="cls-13" d="M918.56,1409.55s-198.94,81.11-284.97,237.81l-98.32,298.05s518.77,30.73,666.26,190.5l.58-563.45s-73.83,32.18-283.54-162.91Z"/>
    <path class="cls-13" d="M1771.68,1647.3c-86.03-156.7-284.97-237.81-284.97-237.81-209.7,195.09-283.54,162.91-283.54,162.91l3.15,563.45c147.49-159.78,663.69-190.5,663.69-190.5l-98.32-298.05Z"/>
  </g>
  <path class="cls-17" d="M850.93,1443.99s75.16,218.66,353.08,253.02c0,0,277.92-46.85,387.25-231.16l-104.56-56.36s-156.22,153.88-283.54,162.91c0,0-98.29,5.75-284.61-162.86l-67.62,34.44Z"/>
  <ellipse class="cls-15" cx="1200.79" cy="1848.51" rx="74.97" ry="98.4"/>
  <path class="cls-3" d="M1258.65,1825.62c-7.5-15.82-33.74-12.03-33.74,3.78s-16.62,21.5-16.62,21.5c6.08-2.93,4.68-13.31,4.68-13.31,9.49-2.83,5.89-14.8,5.89-14.8-13.78-.61-13.38,14.47-13.38,14.47h-6.04s.4-15.08-13.38-14.47c0,0-3.6,11.96,5.89,14.8,0,0-1.4,10.38,4.68,13.31,0,0-16.62-5.69-16.62-21.5s-26.23-19.6-33.74-3.78c0,0,15.85,1.81,8.43,25.68,0,0,18.66-2.01,11.84,16.85,0,0,22.74-7.04,31.57,8.61l-4.81,13.26h18.31l-4.81-13.26c8.83-15.65,31.57-8.61,31.57-8.61-6.82-18.86,11.84-16.85,11.84-16.85-7.42-23.87,8.43-25.68,8.43-25.68Z"/>
  <path class="cls-1" d="M1074.21,1186.54c18.59,29.05,42.34,54.44,67.27,78.28,8.36,8,16.92,15.88,26.54,22.31,18.25,12.2,40.15,18.84,62.1,18.84,6.61,0,14.54.06,18.06,5.65,1.15,1.83,1.61,4,1.92,6.14,1.45,9.73.41,19.82-2.99,29.06-3.73,10.14-10.19,19.1-13.88,29.25-1.72,4.73-2.3,11.1,1.96,13.78,2.39,1.5,5.49,1.19,8.22.48,13.8-3.57,23.81-15.15,32.91-26.13,16.51-19.91,33.43-40.61,40.52-65.48,2.76-9.68,3.94-19.72,5.11-29.72,3.48-29.67,6.96-59.33,10.43-89-23.86,21.51-48.48,42.19-73.79,61.97-5.96,4.66-12.04,9.32-18.96,12.38-7.9,3.5-16.6,4.79-25.21,5.59-10.88,1.02-22,1.31-32.56-1.49-9.6-2.54-18.35-7.53-26.77-12.78-29.23-18.21-55.96-40.12-82.58-61.96"/>
  <path class="cls-8" d="M1639.62,773.77c-9.9-35.06-42.25-59.46-78.65-58.06-25.39.98-42.74,13.83-54.53,29.61l3.56-16.69s-182.53-355.92-350.79-325.5c0,0-374.06-84.43-296.85,351.11-13.71-17.29-33.91-31.64-62.77-29.56-36.34,2.62-65.8,30.43-71.77,66.37-13.48,81.05,16.58,199.04,216.38,216.88l-2.07-7.35,22.1,60.78c7.61,27.7,24.51,51.43,47.49,66.68l142.18,112.63c33.51,22.23,76.27,20.75,108.35-3.75l131.01-116.97c28.33-21.64,47.33-54.51,52.71-91.24l1.71-7.99c194.51-23.98,214.28-167.92,191.96-246.94Z"/>
  <path class="cls-1" d="M1180.71,809.97c-2.11-5.83-7.99-9.48-13.89-11.39-5.9-1.91-12.19-2.53-17.99-4.72-2.88-1.09-6.51-2.42-8.68-.24-1.33,1.33-1.41,3.55-.68,5.29s2.13,3.1,3.52,4.38c6.32,5.82,13.54,11.38,16.49,19.45,1.12,3.06,1.56,6.32,2.42,9.45,1.56,5.64,4.49,10.78,7.39,15.86.49.85,1,1.73,1.8,2.3,1.14.81,2.67.83,4.05.58,4.01-.73,7.56-3.62,9.08-7.4,1.29-3.19,1.16-6.75.92-10.17-.57-7.93-1.71-15.81-3.4-23.58"/>
  <path class="cls-1" d="M1172.27,934.9c5.11.98,10.23,1.96,15.34,2.94,1.21.23,2.51.51,3.36,1.41.98,1.04,1.08,2.62,1.07,4.06,0,2.01-.11,4.02-.3,6.02-.21,2.16-.85,4.74-2.92,5.4-1.05.34-2.18.06-3.25-.22-5.2-1.36-10.61-2.82-14.65-6.36-4.04-3.54-6.21-9.84-3.43-14.44,3.5-.04,7,.66,10.22,2.03"/>
  <path class="cls-12" d="M1117.87,794.47s-9.75-6.93-28.34-11.85c-34.17-9.04-81.94-12.87-186.46,19.65"/>
  <path class="cls-11" d="M1023.75,863.65s73.24-.74,65.77-81.04c0,0-35.27-6.4-65.66-5.4,0,0-51.25,5.23-59.71,9.35,0,0-11.56,70.68,59.6,77.09Z"/>
  <path class="cls-14" d="M1025.51,832.21s43.88.06,38.73-52.34c0,0-19.69-2.34-37.67-1.75,0,0-22.48-.71-34.48,4.95,0,0-8.69,45.34,33.42,49.13Z"/>
  <path class="cls-12" d="M1256.85,794.47s9.75-6.93,28.34-11.85c34.17-9.04,121.47-12.87,186.46,19.65"/>
  <path class="cls-16" d="M1350.97,863.65s-73.24-.74-65.77-81.04c0,0,35.27-6.4,65.66-5.4,0,0,51.25,5.23,59.71,9.35,0,0,11.56,70.68-59.6,77.09Z"/>
  <path class="cls-14" d="M1349.21,832.21s-43.88.06-38.73-52.34c0,0,19.69-2.34,37.67-1.75,0,0,22.48-.71,34.48,4.95,0,0,8.69,45.34-33.42,49.13Z"/>
  <path class="cls-12" d="M1092.95,1048.53s97.14-36.36,201-.62"/>
  <path class="cls-10" d="M1139.32,1066.19s-13.52,1.13-18.02-25.91c0,0,27.6-4.22,30.42-3.94,0,0,3.38,20.84-12.39,29.85Z"/>
  <path class="cls-10" d="M1250.64,1066.19s13.52,1.13,18.02-25.91c0,0-27.6-4.22-30.42-3.94,0,0-3.38,20.84,12.39,29.85Z"/>
  <path class="cls-9" d="M1253.33,757.31s47.95-62.16,193.59-24.86c0,0-78.15-12.43-193.59,24.86Z"/>
  <path class="cls-9" d="M1118.08,757.31s-47.95-62.16-193.59-24.86c0,0,78.15-12.43,193.59,24.86Z"/>
  <path class="cls-12" d="M1436.46,850.16s-9.16,27.49-32.07,45.82"/>
  <path class="cls-12" d="M1448.1,861.33s-7.73,23.19-27.06,38.65"/>
  <path class="cls-12" d="M939.44,849.34s17.61,23.01,45.24,32.89"/>
  <path class="cls-12" d="M934.1,867.01s14.86,19.41,38.16,27.74"/>
  <path class="cls-9" d="M1492.08,689.93l-5.14,147.58,25.08-76.95c16.75-51.38,33.43-94.69,32.84-148.73l-.5-45.77c-.31-28.28-15.16-66.67-27.54-92.1-.39-.8-.79-1.61-1.19-2.42-43.57-87.53-129.88-137.37-223.47-165.68-135.37-40.94-451.09,3.03-455.62,207.15-5.63,6.81-115.98,108.23-45.81,208.91,4.26,6.11,18.01,0,31.78,4.77,13.67,4.73,14.03,5.3,39.19,24.89l62.32-139.54s107.58,104.96,303.72,85.71c0,0-53.46-12.36-81.99-98.76,0,0,128.65,99.63,234.78,85.71,0,0-87.58-55.9-80.12-98.76,0,0,92.68,96.13,191.68,103.96Z"/>
  <line class="cls-8" x1="942.13" y1="1000.59" x2="900.84" y2="879.77"/>
  <line class="cls-8" x1="1447.67" y1="1020.71" x2="1474.14" y2="902.83"/>
  <line class="cls-12" x1="878.66" y1="811.71" x2="862.36" y2="754.24"/>
  <circle class="cls-10" cx="1052.84" cy="826.38" r="12.47"/>
  <circle class="cls-10" cx="1371.77" cy="826.38" r="12.47"/>
  <path class="cls-1" d="M848.8,773.84c-15.23-1.32-31.33-2.49-45.05,4.24-11.89,5.83-20.5,17.1-25.19,29.48s-5.79,25.84-5.58,39.07c.07,4.51.3,9.06,1.55,13.4,2.23,7.73,7.53,14.14,12.7,20.31,14.18,16.94,28.58,34.09,46.66,46.78,9.66,6.79,21.07,12.38,32.82,11.14s23.06-11.64,21.56-23.36c-.79-6.16-4.73-11.37-8.14-16.56-17.82-27.16-23.42-60.84-22-93.29.31-7.07.91-14.35-1.32-21.07-2.22-6.72-8.14-12.82-15.22-12.72"/>
  <path class="cls-1" d="M1534.05,773.24c15.23-1.32,31.33-2.49,45.05,4.24,11.89,5.83,20.5,17.1,25.19,29.48,4.69,12.38,5.79,25.84,5.58,39.07-.07,4.51-.3,9.06-1.55,13.4-2.23,7.73-7.53,14.14-12.7,20.31-14.18,16.94-28.58,34.09-46.66,46.78-9.66,6.79-21.07,12.38-32.82,11.14-11.75-1.24-23.06-11.64-21.56-23.36.79-6.16,4.73-11.37,8.14-16.56,17.82-27.16,23.42-60.84,22-93.29-.31-7.07-.91-14.35,1.32-21.07,2.22-6.72,8.14-12.82,15.22-12.72"/>
  <path class="cls-12" d="M837.15,776.94s-82.91-23.85-57.92,92"/>
  <path class="cls-12" d="M870.09,934.23s-87.27-43.68-88.4-139.09"/>
  <path class="cls-12" d="M1543.39,776.94s82.91-23.85,57.92,92"/>
  <path class="cls-12" d="M1510.46,938.22s87.27-43.68,88.4-139.09"/>
  <path class="cls-2" d="M1552.86,1992.66c19.6-.87,41.07-5.73,59.17,1.82,6.89,2.87,13.26,6.86,19.37,11.15,30.42,21.34,42.53,46.67,75.36,84.24.79-6.23-.63-14.22-.58-23.34.18-33.66-.48-67.16.44-100.86-84.81,13-79.02,12.76-129.86,22.41"/>
  <path class="cls-2" d="M1712.77,1970.4c-.8,37.56.95,79.74.15,117.3,43.84-18.18,91.18-29.6,138.53-26.43,3.03.2,4.31-1.78,9.95-.37,2.46.62-.11-6.05-1.54-15.09-4.51-28.56-11.91-59.75-20.02-94.88-39.77,3.75-73.01,6.47-113.05,12.01-5.38.74-5.54.92-12.94,1.23"/>
  <path class="cls-2" d="M885.22,1997.96c-19.6-.87-41.07-5.73-59.17,1.82-6.89,2.87-13.26,6.86-19.37,11.15-30.42,21.34-41.96,45.75-74.79,83.31,0-8.42.39-14.46.34-23.58-.18-33.66.15-66-.76-99.69,84.81,13,79.02,12.76,129.86,22.41"/>
  <path class="cls-2" d="M723.62,1975.7c.8,37.56.18,78.11.52,117.52-43.84-18.18-91.84-29.82-139.2-26.65-3.03.2-25.61-3.56-31.24-2.15-2.46.62.11-6.05,1.54-15.09,4.51-28.56,11.24-62.78,19.35-97.91,39.77,3.75,94.01,9.95,134.06,15.49,5.38.74,8.44,1.71,15.83,2.02"/>
  <path class="cls-7" d="M1174.33,1936.53s63.7,6.28,92.83-53.41c0,0-9.43,37.99-41.13,53.98-14.33,7.23-32.66,10.16-51.7-.57Z"/>
  <path class="cls-6" d="M1178.42,1770.7c-5.68.46-9.92,5.21-13.54,9.61-.19.23-.38.47-.4.76-.02.26.1.52.25.74.76,1.07,2.26,1.4,3.54,1.13s2.41-1.02,3.5-1.75c2.71-1.82,5.43-3.65,8.14-5.47.91-.61,1.93-1.41,1.92-2.51,0-.96-.85-1.74-1.78-2s-1.9-.11-2.85.04"/>
  <g class="cls-18">
    <path class="cls-4" d="M644.9,1630.45c52.15-30.98,105.03-60.77,158.85-88.76,15.79-8.21,31.7-16.28,48.24-22.85,16.59-6.58,33.74-11.62,50.74-17.04,28.66-9.14,56.96-19.4,84.81-30.75,2.6-1.06,5.26-2.17,7.33-4.06,3.98-3.64,5.04-9.38,6.61-14.54,4.91-16.13,16.49-29.27,28.23-41.37,19.29-19.87,39.92-38.44,61.71-55.53-14.56-21.77-24.01-46.94-27.39-72.91-54.82,28.77-103.65,68.88-142.53,117.06-4.26,5.28-8.46,10.72-13.83,14.87-7.7,5.96-17.24,8.89-26.36,12.27-48.47,17.96-89.47,51.11-132.43,79.85-7.76,5.19-7.85,12.24-13.94,19.32-4.3,5-15.4,8.91-18.82,14.54-14.89,24.48-33.87,46.37-55.22,65.48-8.07,7.23-16.83,14.54-20.58,24.7"/>
  </g>
  <g class="cls-18">
    <path class="cls-4" d="M1758.32,1630.45c-52.15-30.98-105.03-60.77-158.85-88.76-15.79-8.21-31.7-16.28-48.24-22.85-16.59-6.58-33.74-11.62-50.74-17.04-28.66-9.14-56.96-19.4-84.81-30.75-2.6-1.06-5.26-2.17-7.33-4.06-3.98-3.64-5.04-9.38-6.61-14.54-4.91-16.13-16.49-29.27-28.23-41.37-19.29-19.87-39.92-38.44-61.71-55.53,14.56-21.77,24.01-46.94,27.39-72.91,54.82,28.77,103.65,68.88,142.53,117.06,4.26,5.28,8.46,10.72,13.83,14.87,7.7,5.96,17.24,8.89,26.36,12.27,48.47,17.96,89.47,51.11,132.43,79.85,7.76,5.19,7.85,12.24,13.94,19.32,4.3,5,15.4,8.91,18.82,14.54,14.89,24.48,33.87,46.37,55.22,65.48,8.07,7.23,16.83,14.54,20.58,24.7"/>
  </g>
  <g>
    <path class="cls-5" d="M1135.64,678.1c.38.06.26-.36.32-.44-.64.05-.31.54-.32.44Z"/>
    <polygon class="cls-5" points="1129.33 678.58 1129.45 678.42 1128.5 678.77 1129.33 678.58"/>
    <path class="cls-5" d="M1123.46,678.14c.49.75,2.14.04,3.16.37l.16.18.52-.54c-1.27,0-2.96.26-3.83,0Z"/>
    <path class="cls-5" d="M1120.49,676.37c.16.29-.7.19.72.14-.07-.04-.09-.05-.12-.08-.13,0-.3-.02-.59-.06Z"/>
    <path class="cls-5" d="M1121.08,676.43c.62.03-.38-.26,0,0h0Z"/>
    <path class="cls-5" d="M1118.24,676.28l.83-.14c-.15-.19-.86-.32-.58-.4-.84.03-.69.21-.25.54Z"/>
    <path class="cls-5" d="M1117.42,676.7l.43-.05c-.07-.08-.17-.12-.43.05Z"/>
    <path class="cls-5" d="M1118.76,676.55l-.91.1c.1.13.09.36.42-.03-.1.2.1.02.49-.08Z"/>
    <path class="cls-5" d="M1119.25,676.72c.44.21,1.01.39.17.53.78.06,1.13-.1,1.08-.22-.04-.13-.48-.24-1.26-.31Z"/>
    <path class="cls-5" d="M1123.1,678.85l.59.25.55-.2c-.27.1-1.16-.28-1.14-.05Z"/>
    <path class="cls-5" d="M1113.28,675.25c-.07.14.22.44.25.64l.62-.09c-.29-.14-.86-.32-.87-.54Z"/>
    <path class="cls-5" d="M1113.53,675.88l-.92.14c.79.14.95.03.92-.14Z"/>
    <polygon class="cls-5" points="1117.19 677.46 1118.71 677.12 1116.9 677.43 1117.19 677.46"/>
    <polygon class="cls-5" points="1109.89 674.77 1110.44 674.49 1109.47 674.9 1109.89 674.77"/>
    <path class="cls-5" d="M1107.63,674.54c.42-.24-.44-.56-.02-.68-.62-.03-1.18.15-1.68.31.52-.06,1.04.04,1.7.37Z"/>
    <path class="cls-5" d="M1105.09,674.38c.26-.04.54-.12.84-.22-.28.03-.55.09-.84.22Z"/>
    <path class="cls-5" d="M1111.1,675.75c-.06-.1-.16-.36-.64-.52l.29.47c.11.02.23.03.35.05Z"/>
    <path class="cls-5" d="M1110.76,675.71h-.01c-.38-.08-.64-.12-.75-.14.1.02.33.06.76.14Z"/>
    <path class="cls-5" d="M1111.19,675.76s-.06,0-.09-.01c.03.05.05.06.09.01Z"/>
    <path class="cls-5" d="M1114.89,676.77c-.55.17-1.68.28-.67.78.41-.24-.17-.53.67-.78Z"/>
    <path class="cls-5" d="M1111.55,676.35l.94.22c0-.11-.15-.3.12-.38l-1.06.16Z"/>
    <polygon class="cls-5" points="1111.07 676.42 1111.55 676.35 1111.2 676.27 1111.07 676.42"/>
    <path class="cls-5" d="M1106.65,674.99c-.44.13-.89.09-1.4.05.53.15,1.08.27,1.61.34.1-.12.36-.33-.22-.39Z"/>
    <path class="cls-5" d="M1108.64,675.38s-.07,0-.09.01c.05.04.09.06.09-.01Z"/>
    <polygon class="cls-5" points="1100.31 674.16 1100.38 674.25 1100.41 674.19 1100.31 674.16"/>
    <path class="cls-5" d="M1106.94,675.48c.4.14.65.06.9-.03-.31,0-.64-.01-.98-.06-.04.06-.06.09.08.09Z"/>
    <path class="cls-5" d="M1103.68,674.37c.19.13.42.25.66.35-.19-.15-.57-.44-.66-.35Z"/>
    <path class="cls-5" d="M1108.42,675.25h.06c-.12-.12-.11-.07-.06,0Z"/>
    <path class="cls-5" d="M1108.42,675.25c-.22.03-.4.12-.58.19.25,0,.49-.02.7-.05-.05-.04-.09-.09-.12-.14Z"/>
    <path class="cls-5" d="M1098.33,676.57c.14-.38,1.27-.53,2.12.07.96-.12.58-1.52-.07-2.38-.06.16-.08.32-1.06.37.29.27,1.98.9,1.13,1.1-1.27-.04-.99-.33-1.55-.65.42.58-1.7.4-1.56,1.17l1.13-.04c0,.12-.43.22-.14.38Z"/>
    <path class="cls-5" d="M1102.14,674.63l.39.03c-.42-.15-.71-.37-1.23-.78-.67.07-.82.19-.89.31l1.87.42-.14.03Z"/>
    <path class="cls-5" d="M1104.24,674.97c-.37.4-1.32.38-.83.96,1.13.17.85-.24,1.55-.32-1.84-.14.56-.17-.72-.58.37-.02.7,0,1,.02-.32-.1-.63-.2-.91-.32.02.01.03.02.04.03h0s0,0,0,0c.07.06.09.1,0,.06,0,0-.03,0-.04,0-.02.06-.06.1-.11.15-.51-.16-.06-.12.11-.15,0-.02.03-.04.03-.06h0c-.62,0-1.23-.07-1.85-.1.37.13.85.23,1.72.31Z"/>
    <path class="cls-5" d="M1113.13,678.34c-.05-.05-.05-.08-.05-.11-.13.04-.18.07.05.11Z"/>
    <path class="cls-5" d="M1112.41,677.98c.14-.04.27-.2.7-.1.36.18-.03.2-.03.35.28-.08.96-.18.16-.5l-.14.04c-.72-.25-1.6-.9-1.46-.95.16.41.32.71.76,1.16Z"/>
    <path class="cls-5" d="M1108.24,676.57h-1.56s.72.48.72.48v-.23c.85.2.7-.09.83-.25Z"/>
    <polygon class="cls-5" points="1100.18 673.92 1100.46 673.51 1099.47 673.97 1100.18 673.92"/>
    <polygon class="cls-5" points="1098.21 673.6 1098.36 673.22 1097.8 673.36 1098.21 673.6"/>
    <path class="cls-5" d="M991.7,636.59l-.44-.16c.2.09.34.13.44.16Z"/>
    <path class="cls-5" d="M994.46,638.42l.17-.12c-.19,0-.28.04-.17.12Z"/>
    <path class="cls-5" d="M1051.09,660.68c-.49-.58-.97-1.37-1.05-.92l.04.48c.46.09.77.26,1.02.45Z"/>
    <path class="cls-5" d="M1019.2,649.64c.04.07.08.14.11.2.21-.06.41-.12.58-.17-.21-.01-.45-.02-.7-.04Z"/>
    <path class="cls-5" d="M1017.98,651.03l-.66-.64c.13.18.34.39.66.64Z"/>
    <path class="cls-5" d="M976.48,626.75l-.69.04c.68.49.51.1.69-.04Z"/>
    <path class="cls-5" d="M1078.26,669.33c-.51-.3-.93-.48-1.3-.6.6.41,1.04.9,1.3.6Z"/>
    <path class="cls-5" d="M995.25,633.41c-.27-.08-.42-.07-.46.01.28.09.46.11.46-.01Z"/>
    <path class="cls-5" d="M1075.37,668.33c.08.07.17.11.26.17.42.03.84.08,1.32.23-.44-.3-.97-.55-1.59-.4Z"/>
    <path class="cls-5" d="M928.34,582.17s-.05-.1-.06-.15c-.05.03-.01.08.06.15Z"/>
    <path class="cls-5" d="M919.77,564.66c.14.13.32.37.5.59-.06-.13-.21-.31-.5-.59Z"/>
    <path class="cls-5" d="M1090.38,671.9c.42.05.08-.03,0,0h0Z"/>
    <path class="cls-5" d="M1092.05,673.96c-.1.03-.18.08-.21.17.06-.1.13-.15.21-.17Z"/>
    <path class="cls-5" d="M1070.57,669.83s-.02,0-.03-.01c.1.12.08.1.03.01Z"/>
    <path class="cls-5" d="M1090.96,672.21c-.15-.08-.31-.16-.5-.23.08.05.23.12.5.23Z"/>
    <path class="cls-5" d="M1090.92,671.99c.14.04.25.08.35.11.07-.06.03-.11-.35-.11Z"/>
    <path class="cls-5" d="M1089.8,671.81c.24.04.46.1.66.17-.08-.04-.1-.07-.08-.08-.12-.02-.3-.04-.58-.09Z"/>
    <path class="cls-5" d="M953.77,606.41s-.03-.06-.04-.09c-.44-.16-.28-.05.04.09Z"/>
    <path class="cls-5" d="M1039.1,660.92s.03,0,.05,0c-.02-.01-.04-.03-.05-.04v.04Z"/>
    <path class="cls-5" d="M1037.56,660.6c.81-.23,1.12-.02,1.54.28v-1.36s-1.54,1.08-1.54,1.08Z"/>
    <path class="cls-5" d="M984.97,632.37l.69.92c-1.46-.18-2.13-.88-1.58.13.89-1.04,3.62,2.19,4.5,1.14l.44.63c-.16-.12-.24-.07-.4-.19.81,1.3,1.4-.26,2.8.88.47.43.73.83.28.73l1.35.47c.32.24.12.39-.21.15l1.83,1.06-.03.03c.37-.02,1.11.08,1.47.14.35.46-.3-.02-.27.19l1.15.36c.22.56-.78.32-1.43-.16.21,1.75.97.27,2.62,2.12l-1.05-.41c.22,1.02,1.12,1.21,1.96,2.25-.13-.37-1.56-2.29-.28-1.95.26.27.64.54,1.38.65-.24.42.4.65,1.14,1.05l-.37.52c.88.29.98-.02,1.59,0,.85.56.78,1.09.78,1.57,1.36.9-.58-1.25,1.15-.4,1.05.88,2,1.13,3.58,1.6.71.66-.33.26-.13.59l.97-.03c.17.11.04.22-.03.27.71.18.36-.53,1.4-.13.3-.24.66.28,1.16.83.51.53,1.15,1.11,1.94,1.07.22.31-.33.27-.35.54,1.92.38,1.62.39,3.32.45l.98.96c-.64-.86.72-.81,1.88-.75-.2-.36-.37-.67-.5-.85l1.68.46c.14.19-.11.31-.48.42.13,0,.25,0,.35,0,.44.49,0,.68-.56.8-.12-.21-.25-.42-.37-.63-.55.16-1.1.36-1.19.74.13-.02.35.02.58.1-.15.04-.25.1-.24.18.02.09.25.04.57.02l.03.81.21-.21,1.82,1.42c1.77.07,3.45-.21,5.88.61-.8.22-.49.72-.78,1.27-.36-.86-1.89-.63-3.03-1.34.59.37.32.57.12.58l2.37.53c-.27.44.3.55.77.99,0-1.09,1.9.1,2.9.21-.08.33-.44.55-1.48,0,.88,1.21,2.02-.4,2.92.69-.27-.11-.39-.22-.56-.11.74,0,2.14.87,1.67.98l-.26-.11c1.7.87,5.31,2.33,5.89,1.66-.02.11-.63.85-.8.96l4.2-1.29c-.55.56-.16,2.63-1.76,2.38.38.27.84.64,1.83.74-.25-.2-.32-1.26.1-1.16.78,1.16.59.68,1.67,1.83-.38-.31.53-1.19,1.2-.9-.17.12-.36,1.07-.65,1.09l2.12-.41c-.5.03-.42.86-.15,1.3-.1-.27,1.47.57,1.97.64l-.63-.52c1.87.88,2.46-.77,4.34,0-.31.13-1.06,1.13-.14,1.63.65-.37,2.91-1.87,4.73-1.66l.21.43c.47.04.94.09,1.41.12-1.08.54-3.94,1.4-5.42,1.61.63.52.07.44,1.16.82.28.43-.75.22-1.07.12l2.46,1.13c.11-.67,2.15.08,2.25-.51-1.01-.06-1.98-.22-2.98-.33.06-.34.61-.64,1.37-.76.75-.11,1.71-.06,2.6.26.38.4-.73,1.03-.76,1.25.31-.15,1.87.12,1.98.33l-.89.1c.93.56,1.93-.33,2.95.66.41.17.99,1.22,1.18.86-.45-.95.14-3.25.77-3.65.13.09,1.96,1.38,2.33,1.89.51.79-1.46,1.05-1.02,1.72.08-.17.53-.26.71-.29.39.29-.35.49.63.71.36-.6,1.93.66.62-.41.99.11.95.44,2.06.76-.22-.53,1.41-1.13,2.39-1.03-.1.15.04.43.12.56.94.34,1.66.64,2.37.89.71.27,1.4.52,2.3.75.12.2.95.61.5.8.29-.05.59-.21,1.15-.09.93.84-1.27-.23-.63.67.17-.36,1.59-.16,2.44-.2-.09-.65-1.81-.58-2.67-.54.21-.82,1.82-1.32,3.8-1.23,1.55.17.52.69.8.64,2.78.85,2.74-.83,4.93.35.8.76-.2,1.05-.08,1.48-1.27-.11-1.8-.8-2.63-.99l.96.5c-.43.08-1.28,0-1.69-.26.33.33,1.52.66,2.88,1.02,1.36.36,2.9.78,3.96,1.18.43-.1,1.15-.15.87-.43l-.71-.06c-.55-.55,1.44-.33.6-.7,1-.12,2.14-.39,3.4.1l.12.65c0-.18-.78-.52-1.19-.41.6-.16,1.85,1.2,2.61.53l-.84-.59c1-.12,2.27-.54,3.39-.13-.41-.7-.28.02-.97-.84.55,1-2.95-.61-1.99.52-.68-.97-1.39-.62-2.35-1.52,0,.2.31.45-.64.17-.06.05-.17.1-.25.13-.03-.01-.04-.02-.06-.03l.05.03s-.05.03.02.01c.21.13.38.27.43.4-.58.36-2.12.05-2.7.18-.56-.21.29-.18.02-.45l-.86.2c.02-.46-1.35-1.11.05-1.03l-1.2-.32c-.65-.42-1.61-.77-2.25-.74-.55-.24-1.55.12-.97-.1l-1.96-.21v-.11c-1.84-.52-4.03-.25-5.95-1.57-.66-.05-1.35-.08-2.36-.47l-.1-.43c-.85-.07-2.28-1.1-2.74-.81-.56-1.27-3.78-1.42-5.13-2.03l-.2.47c-.95-.33-1.92-.48-3.17-.66l-.06.45c-1.15.03-2.55-1.13-4.2-1.59.17-.13.56.04.82.23-.82-.76-1.88-.96-2.94-1.13-1.06-.16-2.11-.29-2.85-.96-.49,0-.78-.18-1.05-.4.04.01.08.02.12.02-.04-.02-.11-.05-.18-.07-.16-.14-.33-.3-.52-.45.14.17.29.32.42.41-.34-.12-.86-.25-1.4-.33l-.04-.53s-.07-.02-.12-.03c-.42-.35-.47.07-.34.5-.28-.02-.54-.02-.76.03-.12-.87-1.4-.24-1.64-1.22-.48.25-2.6-.65-3.18.04.02-.11-.1-.21.17-.12-.52-.3-1.04-.59-1.62-.56v-.66c-.51.11-1.02.2-1.51.28-.58-.66-.79-.99.1-1.11-2-.08-1.5-.36-3.24-.34l.23-.33c-.53-.21-1.57-.09-1.76-.53-.87-1.2-5.75-2.63-8.46-4.58.04.66-.25.38-.62.05-.36-.35-.78-.79-1.04-.41-.05-.33-.39-.68.18-.66-1.61-.51-2.05-1.52-3.41-1.36-.05-.33.5-.2.42-.43-.15,0-.58-.02-.66-.25-.08-.22.32-.1.61-.09-1.54-.72-2.07-.04-2.54.61-.61-.73-1.01-.87-1.81-.69-.15-.37-.48-.84.51-.44-.52-.3-3.08-1.98-3.43-1.44-.09-.23-.72-.42-.9-.42-1.18-.64-1.26-.74-2.46-1.28l.28.26c-.84.46-1.05-.37-2.01-.81l.06-.05c-1.84-1.7-1.04-.29-2.82-2.05l-.12.48c-.7.79-1.55-1.59-2.95-1.94l.3.49c-.84-.08-1.14-2.28-1.74-2.77-.1-.16.3,0,.53.07-1.42-1.52-.54.41-1.91-.2-.06-.43.75-.57-.09-1.12-.28-.5-3.11-.47-3.91-1.78.12.39.23.77-.45.56-.94-.5-1.88-2.4-3.12-2.22-.07-.13-.08-.22-.05-.28-.79-.26-2.4-1.14-3.05-1.03.28-1.79-4.68-2.08-3.82-3.34l-2.14-1.29.14-.09c-1.27-.97-1.9-1.04-2.58-1.06-.24-.3.06-.26.13-.31-1.7-1.63-1.92-1.71-3.95-2.24l.13-.52c-.6-.08-2.26-2.61-4.45-3.5.05-.03.15-.08.34-.03-1.21-.53-2.26-1.69-3.2-2.66-.91-1-1.76-1.74-2.69-1.33l-1.59-.73c1.61,1.5-.74.4-.23,1.21-.74-.47-1.39-1.85-.51-1.24l.07.18c.89-.49-1.91-1.99-1.45-2.45-1.69-1.35-3.26-2.79-4.8-4.22l-1.15-1.07c-.36-.37-.73-.74-1.09-1.11-.72-.74-1.45-1.46-2.19-2.15l-.14.86-1.01-.99c-.16-.38.02-.76.74-.06-.11-.67-1.48-.88-1.6-.78-1.25-1.55,1.14-.11.71-.53l-.64-.51.08.19c-.69-.23-.95-.03-1.82-.88-.46-.63.02-.6-.19-.82.04-.04-.02-.12-.33-.33l-1.27-1.25.13.9c-.78-.33-1.21-1.15-1.06-.12-.1-.78-1.26-1.96-2.44-3.05-1.12-1.14-2.25-2.19-2.4-2.57-1.07-.49-1.82-1.28-2.73-2.29.15.33-.17.92-.93.03,1.26-.63-1.07-1.94-1.03-3.28.12,1.04-2.42-2.26-2.16-.69-.6-.77.32-.39.04-1.13-2.04-1.26-3.2-3.97-5.2-6.01-.16.08-.05.62-.65.33l-.33-1.72c-.43-.37-1.11.27-1.32-.9-.02.21-.04.52-.33.27-1.49-2.41-3.56-4.4-5.42-6.59-1.81-2.22-3.56-4.52-4.65-7.26.2.82-.14.43-.51-.03.17.35-.35.26-.5.46l-.92-2.28c-.8.05-1.59-1.99-2.25-1.82l.55.53c-1.22-.36-.48,2.1-1.34,2.55,1.37.39.82,3.13,2.92,3.87.1.45-.46-.09-.5.22.61.12,1.03.52,1.53,1.47l-.15-.03c.94,1.15,1.53,2.03,2.11,2.99.29.48.58.97.91,1.52.17.27.34.56.53.87.21.29.44.61.68.95l.2-.49c.42.58.41.79.53,1.12,1.09.16-1.29-1.55-.19-1.49-.12,1.33,3.3,3.82,2.88,5.02.72.84.21-.6.92.24l-.03.41.47-.04c.43.59.39,1.11.21,1.29-.09-.15-.38-.33-.52-.46.35.94,1.83,1.93,1.95,2.24l-.56-.92c1.09,1.05,2.17,2.33,3.27,3.58.28.31.55.62.83.92.29.29.59.57.89.84.6.54,1.2,1.03,1.82,1.45v-.31c1.86,1.31,1.07,1.44,2.91,3.06l-.1-.03c.5.19,1.04.58,1.48,1.08-.62-.26.45,1.19-.33.81,2,1.42,1.08.61,2.78,1.16v.53c.61.15.76.06,1.68.86-.92-.49.15.96-.93.46,1.19,2.44,3.3,2.04,3.32,3.71,1.57.05-1.24-1.91-.6-1.62-.17-.61,1.24.1,1.76.71.58.57.12,1.89,1.65,3.27-.15-.14-.21-.09-.36-.24.39.71,1.35.76,1.76,1.71.81-.1.88.85,1.52.37l-1.51-1.14c.93.57,2.28.56,3.28,2.08-.21.03-.73-.17-1.08-.33.22.52.83.55,1.06,1.09-.64.49-1.8-1.42-3.05-1.74.18.62,1.98,1.04.98,1.29,1.34-.25,1.4,1.47,2.98,1.79l-.38.29c.21.09.7.23.99.52l-.95-.03c1.18.37,1.29,1.83,2.33,2.29-1.76-1.43-.03-.74-.52-1.64,2.55,1.31.42,1.97,2.99,3.79-.37-.22-1.05-1.23-.39-.97.4.45.89,1.09,1.01,1.51,1.67,1.24.07-.58.94-.24.18.89.94.46,1.76.9l-.3.38c1.63,1.74,1.12-.38,2.52,1.25l-1.11-.05.97.57-.52.28c1.19.45,1.41.77,2.23,1.64,0-.44.66-.59,1.48.06.37.68-.59.11.6.99-.44.03-.96.09-1.19-.67-.15.08-.44.03-.59.11.39.75,1.45,1.28,1.87,1.62-.15-.15-.32-.32-.38-.46.68.29,1.41.52,2.12.77.16.34-.14.3-.44.26.38.21.76.22,1.3.56-.37.21-.58.56-1.43.17l1.92.86c0,.22.57,1,.27.95.78.86,2.71,1.04,3.74,2.17.11-.02.28.02.57.16,1.09.91,1.83,2.04,3.49,2.59l.37,1.14c1.15.65-.53-1.49,1.38-.41,1.38.72.12.84.46,1.3.85.13,2.37.26,3.25,1.51-.47-.15-.72-.43-1.12-.63ZM998.78,640.82c-.32-.07-1.03-.11-1.08-.47.6-.29.7.07,1.08.47ZM1020.9,651.53c-.28.04-.56-.19-.84-.54.28.1.57.26.84.54ZM1085.78,671.27s-.02,0-.04.02c-.63-.35-.41-.22.04-.02ZM1087.12,671.82c.15-.03.16-.1.12-.18-.12.09-.44.02-.78-.1.07.15.23.28.67.28ZM952.61,600.94l.12.28c-.56-.32-.34-.3-.12-.28Z"/>
    <path class="cls-5" d="M1018.13,650.87c-.04-.11-.02-.2,0-.29-.15.02-.19.1,0,.29Z"/>
    <path class="cls-5" d="M976.6,626.74l-.04-.03s-.07.02-.09.04h.13Z"/>
    <path class="cls-5" d="M1064.52,669.93c-.26-.16-.4-.29-.48-.41-.05.11.05.24.48.41Z"/>
    <path class="cls-5" d="M1094.71,672.51l-.92-.05c.44.06.57.19.78.31,0-.11-.14-.31.14-.26Z"/>
    <path class="cls-5" d="M1102.01,676.95c.14-.03.28.05.42.01v-.23c-.57-.09-.99,0-.42.21Z"/>
    <path class="cls-5" d="M1095.24,674.24c0,.41.59.39,1.23.43-.04,0-.07,0-.11-.02.29-.52-.42-.47-1.12-.41Z"/>
    <path class="cls-5" d="M1096.62,674.69c.2.02.4.05.59.1.12-.21-.23-.09-.59-.1Z"/>
    <path class="cls-5" d="M1088.95,671.96c.28.16.3-.47.43-.28.44-.44-2.13.23-.43.28Z"/>
    <polygon class="cls-5" points="1095.5 675.65 1095.37 675.12 1094.93 675.45 1095.5 675.65"/>
    <path class="cls-5" d="M1090.56,674.33l.99.33c0-.09.14-.11.31-.11-.62-.14-1.29-.37-1.29-.22Z"/>
    <path class="cls-5" d="M1091.85,674.54c.32.07.64.12.83.07-.18-.03-.56-.09-.83-.07Z"/>
    <polygon class="cls-5" points="1094.08 675.53 1093.8 675.37 1093.09 675.2 1094.08 675.53"/>
    <path class="cls-5" d="M1079.78,671.68l-1.13-.14c-.15.14.12.32.54.35.29-.05.71-.01.59-.22Z"/>
    <path class="cls-5" d="M1082.77,673.85c-.27-.18-.27-.29-.4-.49l-.18.6.57-.1Z"/>
    <path class="cls-5" d="M1079.53,673.18c-.15.14-1.72.08-.31.39.15-.14,1.29,0,.31-.39Z"/>
    <polygon class="cls-5" points="1063.35 667.78 1063.63 667.86 1063.89 666.88 1063.35 667.78"/>
    <path class="cls-5" d="M1048.32,665.19c1.18.7.52-.48,1.55.24.38-.12-.85-.58-.47-.66-.85-.05-1.2-.33-1.08.43Z"/>
    <path class="cls-5" d="M1049.4,664.76c.14,0,.28.01.44,0-.24-.02-.36-.02-.44,0Z"/>
    <polygon class="cls-5" points="918.3 561.85 917.96 561.05 918.02 561.69 918.3 561.85"/>
    <path class="cls-5" d="M916.7,561l.4-.54-.79-.06c.14.14.41.4.39.6Z"/>
    <path class="cls-5" d="M1000.21,643.15l.14-.1c-.03-.21-.2-.32-.54-.55l.4.65Z"/>
    <polygon class="cls-5" points="990.44 636.53 990.6 636.65 990.6 635.95 990.44 636.53"/>
    <path class="cls-5" d="M981.74,631.74c.31.27.78.42,1.11.66-.81-.38-.78-1.33-1.11-.66Z"/>
  </g>
  <g>
    <path class="cls-5" d="M1205.34,698.12c.35.08.27-.35.33-.42-.59.01-.33.53-.33.42Z"/>
    <polygon class="cls-5" points="1199.44 698.27 1199.57 698.11 1198.66 698.41 1199.44 698.27"/>
    <path class="cls-5" d="M1194.04,697.52c.41.78,1.98.15,2.9.54l.14.18.52-.51c-1.18-.07-2.76.1-3.55-.21Z"/>
    <path class="cls-5" d="M1191.41,695.54c.13.3-.66.13.65.2-.06-.04-.08-.06-.11-.09-.12-.02-.27-.04-.54-.11Z"/>
    <path class="cls-5" d="M1191.95,695.65c.57.08-.33-.29,0,0h0Z"/>
    <path class="cls-5" d="M1189.32,695.36l.78-.12c-.13-.19-.78-.34-.52-.41-.78,0-.65.19-.27.53Z"/>
    <path class="cls-5" d="M1188.53,695.75l.4-.04c-.06-.08-.15-.12-.4.04Z"/>
    <path class="cls-5" d="M1189.78,695.63l-.85.08c.09.13.06.36.39-.01-.1.2.09.02.47-.06Z"/>
    <path class="cls-5" d="M1190.23,695.82c.39.22.92.41.13.53,1.44.15,1.31-.38-.13-.53Z"/>
    <path class="cls-5" d="M1193.65,698.21l.53.28.52-.17c-.26.08-1.06-.34-1.06-.11Z"/>
    <path class="cls-5" d="M1184.75,694.2c-.07.14.18.44.2.64l.58-.08c-.26-.15-.78-.34-.78-.57Z"/>
    <path class="cls-5" d="M1184.95,694.84l-.87.11c.73.16.89.06.87-.11Z"/>
    <polygon class="cls-5" points="1188.26 696.51 1189.71 696.2 1188 696.47 1188.26 696.51"/>
    <polygon class="cls-5" points="1181.62 693.64 1182.15 693.37 1181.23 693.75 1181.62 693.64"/>
    <path class="cls-5" d="M1179.54,693.29c.4-.21-.37-.58.02-.68-.57-.07-1.1.08-1.57.21.48-.03.96.1,1.55.47Z"/>
    <path class="cls-5" d="M1177.2,692.99c.24-.02.5-.09.79-.17-.26.02-.52.06-.79.17Z"/>
    <path class="cls-5" d="M1182.7,694.64c-.05-.1-.13-.36-.57-.54l.25.48c.1.02.21.04.32.06Z"/>
    <path class="cls-5" d="M1182.38,694.59v-.02c-.36-.07-.6-.12-.7-.14.09.02.3.07.7.16Z"/>
    <path class="cls-5" d="M1182.78,694.65s-.05-.01-.08-.02c.02.05.04.06.08.02Z"/>
    <path class="cls-5" d="M1186.17,695.75c-.52.15-1.58.23-.67.76.4-.23-.12-.53.67-.76Z"/>
    <path class="cls-5" d="M1183.08,695.25l.86.25c0-.11-.13-.3.13-.38l-.99.13Z"/>
    <polygon class="cls-5" points="1182.63 695.31 1183.08 695.25 1182.77 695.16 1182.63 695.31"/>
    <path class="cls-5" d="M1178.61,693.69c-.41.1-.82.03-1.29-.03.48.19.98.34,1.47.44.09-.12.35-.31-.18-.4Z"/>
    <path class="cls-5" d="M1180.43,694.19s-.06,0-.09,0c.04.05.08.07.09,0Z"/>
    <polygon class="cls-5" points="1172.76 692.71 1172.81 692.8 1172.84 692.73 1172.76 692.71"/>
    <path class="cls-5" d="M1178.86,694.19c.36.16.6.1.84.02-.29-.02-.59-.05-.91-.11-.04.05-.06.09.07.1Z"/>
    <path class="cls-5" d="M1175.89,692.92c.18.13.38.25.6.36-.16-.17-.51-.46-.6-.36Z"/>
    <path class="cls-5" d="M1180.24,694.05h.06c-.1-.12-.1-.08-.06,0Z"/>
    <path class="cls-5" d="M1180.24,694.05c-.2.02-.37.09-.54.15.23.01.45.01.65-.01-.04-.04-.08-.09-.1-.14Z"/>
    <path class="cls-5" d="M1170.79,695.1c.15-.37,1.21-.53,1.98.07.9-.12.62-1.51.04-2.37-.06.16-.09.32-1,.37.25.27,1.8.89,1,1.09-1.18-.04-.91-.33-1.42-.65.37.58-1.6.4-1.51,1.16l1.06-.04c0,.11-.41.21-.15.37Z"/>
    <path class="cls-5" d="M1174.44,693.18l.36.03c-.39-.15-.64-.37-1.11-.78-.63.07-.78.19-.85.31l1.73.41-.13.03Z"/>
    <path class="cls-5" d="M1176.39,693.53c-.36.37-1.25.37-.82.93,1.04.19.8-.2,1.46-.26-1.7-.24.53-.14-.63-.63.34,0,.64.04.93.08-.29-.11-.57-.24-.83-.37.01.01.02.02.03.03h0s0,0,0,0c.06.07.08.11,0,.06,0,0-.03,0-.04,0-.02.06-.06.1-.11.14-.47-.19-.05-.12.11-.14.01-.02.03-.04.03-.06h0s-1.72-.12-1.72-.12c.34.13.79.21,1.59.33Z"/>
    <path class="cls-5" d="M1184.44,697.27s-.04-.08-.04-.11c-.12.03-.17.06.04.11Z"/>
    <path class="cls-5" d="M1183.79,696.89c.13-.04.27-.19.66-.08.32.19-.04.2-.04.35.26-.07.9-.16.18-.5l-.13.04c-.66-.26-1.43-.94-1.3-.98.13.42.25.72.64,1.17Z"/>
    <path class="cls-5" d="M1180,695.36l-1.44-.08.64.51v-.23c.79.25.67-.05.8-.2Z"/>
    <polygon class="cls-5" points="1172.64 692.47 1172.92 692.06 1171.98 692.52 1172.64 692.47"/>
    <polygon class="cls-5" points="1170.82 692.14 1170.97 691.77 1170.44 691.9 1170.82 692.14"/>
    <path class="cls-5" d="M1070.97,660.13l-.42-.11c.19.07.32.1.42.11Z"/>
    <path class="cls-5" d="M1073.65,661.62l.16-.14c-.18.03-.27.07-.16.14Z"/>
    <path class="cls-5" d="M1127.14,679.73c-.45-.55-.9-1.32-.98-.87l.03.47c.43.07.72.22.95.4Z"/>
    <path class="cls-5" d="M1097.17,670.58c.04.06.07.13.11.19.2-.08.38-.15.55-.21-.2,0-.42.02-.66.02Z"/>
    <path class="cls-5" d="M1096.04,672.05c-.21-.19-.41-.4-.62-.6.13.16.32.37.62.6Z"/>
    <path class="cls-5" d="M1056.19,652.19l-.65.12c.67.4.49.03.65-.12Z"/>
    <path class="cls-5" d="M1152.39,687.75c-.46-.31-.85-.49-1.19-.61.54.41.94.91,1.19.61Z"/>
    <path class="cls-5" d="M1074.2,656.66c-.26-.06-.4-.03-.44.06.27.06.44.06.44-.06Z"/>
    <path class="cls-5" d="M1149.73,686.74c.08.07.16.11.24.17.39.03.78.08,1.22.23-.4-.3-.89-.56-1.46-.41Z"/>
    <path class="cls-5" d="M1007.2,616.01s-.05-.09-.06-.14c-.05.03,0,.08.06.14Z"/>
    <path class="cls-5" d="M999.73,599.54c.11.13.25.36.38.58-.04-.12-.15-.3-.38-.58Z"/>
    <path class="cls-5" d="M1163.61,690.27c.39.07.07-.03,0,0h0Z"/>
    <path class="cls-5" d="M1165.07,692.39c-.09.03-.17.07-.2.17.06-.09.12-.15.2-.17Z"/>
    <path class="cls-5" d="M1145.21,688.28s-.02,0-.03-.01c.09.11.07.09.03.01Z"/>
    <path class="cls-5" d="M1164.14,690.6c-.13-.09-.29-.17-.46-.24.07.05.21.13.46.24Z"/>
    <path class="cls-5" d="M1164.11,690.38c.13.05.23.09.32.12.06-.06.03-.11-.32-.12Z"/>
    <path class="cls-5" d="M1163.08,690.16c.22.05.42.12.61.19-.07-.05-.09-.08-.07-.09-.11-.02-.27-.05-.54-.11Z"/>
    <path class="cls-5" d="M1033.44,635.48s-.03-.05-.05-.08c-.43-.08-.27,0,.05.08Z"/>
    <path class="cls-5" d="M1115.94,680.42s.03,0,.05,0c-.02-.01-.03-.03-.05-.04v.04Z"/>
    <path class="cls-5" d="M1114.49,680.2c.76-.28,1.06-.09,1.45.18v-1.34s-1.45,1.16-1.45,1.16Z"/>
    <path class="cls-5" d="M1064.48,656.67l.68.83c-1.38-.03-2.04-.65-1.48.28.79-1.11,3.49,1.78,4.27.66l.44.57c-.16-.1-.22-.05-.38-.15.81,1.2,1.31-.39,2.66.58.45.37.71.74.29.69l1.28.33c.31.21.12.37-.19.16.59.29,1.18.57,1.78.83l-.03.03c.35-.06,1.07-.06,1.41-.04.35.4-.29.01-.25.22l1.12.2c.23.51-.73.41-1.37.02.27,1.66.96.11,2.54,1.81l-.99-.32c.23.99,1.08,1.1,1.89,2.06-.13-.35-1.52-2.14-.31-1.9.25.24.62.49,1.31.53-.21.43.39.61,1.1.94l-.34.55c.83.22.92-.1,1.49-.13.8.48.76,1.02.77,1.49,1.29.78-.57-1.18,1.07-.48.99.8,1.91.92,3.43,1.22.69.57-.31.29-.1.59l.92-.13c.17.09.04.21-.02.27.68.1.33-.55,1.33-.27.55-.52,1.46,1.83,2.95,1.64.21.3-.3.29-.32.56,1.79.27,1.51.29,3.09.26l.92.9c-.6-.83.65-.83,1.76-.87-.19-.34-.36-.62-.48-.79l1.59.32c.13.17-.1.31-.45.45.12,0,.24-.01.33-.03.42.44,0,.66-.51.83l-.36-.59c-.52.2-1.03.45-1.11.82.13-.03.33,0,.55.05-.14.06-.24.12-.22.19.02.08.23.02.54-.03l.04.8.2-.22,1.74,1.23c1.66-.06,3.27-.52,5.55.14-.74.25-.45.74-.72,1.29-.34-.86-1.79-.47-2.87-1.08.56.32.31.53.12.56l2.25.32c-.24.45.28.53.72.95,0-1.09,1.76.03,2.69.1-.08.33-.41.57-1.37.06.82,1.17,1.87-.46,2.71.57-.25-.09-.36-.19-.52-.07.69-.04,2.01.72,1.57.87l-.25-.09c1.6.75,4.99,1.96,5.54,1.27-.02.11-.59.87-.75.99l3.95-1.53c-.52.58-.15,2.59-1.66,2.45.35.25.8.55,1.71.63-.23-.2-.29-1.25.1-1.17.71,1.15.54.68,1.53,1.81-.35-.29.5-1.2,1.12-.94-.16.13-.34,1.08-.61,1.11l1.98-.49c-.47.05-.4.87-.15,1.3-.09-.27,1.37.51,1.83.55l-.59-.48c1.74.8,2.31-.86,4.06-.18-.29.14-1.01,1.16-.15,1.61.61-.4,2.74-1.97,4.45-1.84l.19.42c.44.03.88.05,1.33.05-1.03.59-3.71,1.55-5.11,1.82.59.48.06.43,1.08.76.26.42-.7.25-1,.16l2.29,1.02c.11-.66,2.02-.02,2.11-.6-.94-.04-1.86-.13-2.78-.21.12-.68,2.07-1.26,3.72-.64.34.39-.69,1.04-.73,1.26.29-.15,1.73.08,1.84.29l-.82.12c.86.54,1.8-.36,2.73.6.37.16.9,1.19,1.08.83-.4-.93.2-3.23.79-3.65.12.09,1.8,1.34,2.13,1.84.46.78-1.38,1.07-.99,1.73.08-.17.5-.27.67-.3.36.28-.34.49.57.69.35-.6,1.78.62.59-.42.92.09.88.43,1.9.72-.2-.52,1.34-1.14,2.27-1.1-.1.15.03.42.1.55,1.77.56,2.64,1.12,4.31,1.59.11.2.86.62.44.81.27-.05.55-.21,1.07-.08.84.85-1.17-.23-.6.66.17-.36,1.48-.16,2.27-.19-.07-.65-1.66-.59-2.46-.55.22-.81,1.73-1.31,3.57-1.2,1.43.18.46.69.73.65,2.55.88,2.59-.85,4.59.29.73.73-.22,1.05-.13,1.47-1.19-.08-1.66-.75-2.43-.92l.88.48c-.41.08-1.2.03-1.57-.22.6.65,4.4,1.17,6.32,2.09.4-.09,1.07-.12.82-.4l-.66-.08c-.48-.56,1.34-.29.58-.68.93-.09,1.99-.32,3.14.21l.09.65c.01-.18-.7-.55-1.09-.45.56-.14,1.66,1.26,2.39.61l-.75-.62c.93-.09,2.13-.46,3.16-.06-.36-.69-.26.02-.87-.83.46,1.03-2.71-.69-1.87.47-.59-.99-1.27-.67-2.12-1.6-.02.2.27.46-.6.15-.05.05-.17.1-.24.13-.03-.01-.03-.02-.06-.03l.04.04s-.05.03.02.01c.19.14.34.28.38.41-.55.34-1.97-.02-2.51.1-.51-.22.28-.17.04-.45l-.8.17c.04-.45-1.23-1.07.08-1.02l-1.12-.29c-.6-.4-1.48-.72-2.09-.68-.5-.22-1.46.16-.91-.07-.61-.04-1.22-.12-1.82-.2v-.11c-1.69-.54-3.73-.27-5.48-1.61-.61-.05-1.25-.09-2.18-.48l-.08-.43c-.78-.08-2.12-1-2.56-.7-.51-1.22-3.51-1.34-4.75-1.92l-.2.47c-.88-.31-1.78-.44-2.95-.6l-.07.45c-1.07.05-2.36-1.08-3.89-1.51.16-.13.53.03.76.22-1.49-1.5-4.02-.6-5.4-1.85-.46.01-.73-.14-.98-.35.04.01.07.02.11.01-.04-.02-.1-.04-.16-.06-.15-.14-.31-.29-.48-.42.13.16.26.3.39.39-.31-.1-.8-.22-1.31-.27l-.04-.52s-.07-.02-.11-.03c-.39-.33-.44.09-.32.51-.26,0-.5,0-.71.06-.11-.86-1.3-.18-1.53-1.14-.45.27-2.43-.54-2.98.17.02-.11-.1-.21.16-.13-.49-.27-.96-.57-1.5-.52v-.66s-1.41.33-1.41.33c-.55-.61-.75-.93.09-1.1-1.88.04-1.41-.26-3.05-.13l.21-.34c-.5-.18-1.48,0-1.66-.42-.83-1.13-5.44-2.21-7.94-4.11.09,1.31-1.09-1.04-1.56-.26-.05-.32-.38-.63.16-.66-1.53-.37-1.96-1.32-3.25-1.05-.05-.32.47-.24.39-.45-.14,0-.55.02-.63-.19-.08-.21.3-.12.57-.13-1.47-.58-1.96.13-2.39.81-.58-.66-.97-.77-1.72-.53-.15-.36-.46-.8.48-.48-.49-.26-2.9-1.79-3.23-1.23-.09-.22-.68-.37-.84-.37-1.11-.57-1.18-.66-2.32-1.13l.26.24c-.77.49-.99-.28-1.93-.61l.06-.06c-1.8-1.47-1-.18-2.74-1.7l-.1.48c-.65.85-1.51-1.4-2.83-1.65l.29.46c-.79,0-1.13-2.16-1.7-2.59-.1-.15.28-.02.5.02-1.37-1.39-.5.45-1.79-.05-.07-.42.68-.62-.11-1.1-.28-.45-2.9-.25-3.73-1.41.13.36.25.72-.41.6-.92-.37-1.91-2.08-3.06-1.8-.08-.12-.08-.21-.06-.27-.76-.18-2.3-.88-2.92-.71.2-1.79-4.49-1.57-3.72-2.9l-2.06-1.05.13-.11c-1.25-.8-1.87-.77-2.5-.72-.24-.27.05-.26.11-.32-1.7-1.38-1.91-1.43-3.86-1.72l.09-.52c-.57,0-2.27-2.28-4.39-2.87.05-.04.14-.1.32-.07-.59-.18-1.14-.53-1.67-.94-.52-.42-1-.9-1.47-1.31-.94-.83-1.79-1.44-2.65-.92l-1.56-.48c1.64,1.23-.68.49-.14,1.2-.73-.35-1.45-1.59-.57-1.13l.08.16c.82-.59-1.94-1.66-1.55-2.17-.85-.54-1.67-1.1-2.48-1.67-.8-.58-1.56-1.21-2.32-1.82-1.52-1.22-3.01-2.43-4.54-3.52l-.07.85-1.05-.78c-.18-.34-.05-.73.7-.17-.16-.62-1.48-.61-1.6-.5-1.33-1.29,1.08-.28.63-.62l-.65-.39.09.17c-.68-.11-.91.12-1.81-.56-.48-.55-.03-.58-.23-.77.03-.04-.03-.12-.33-.28l-1.28-1.04.19.86c-.75-.21-1.22-.96-1,.03-.29-1.48-4.71-3.99-5.07-4.65-1.07-.29-1.89-.89-2.84-1.7.17.29-.08.91-.88.18,1.14-.81-1.2-1.68-1.27-2.98.2.99-2.47-1.81-2.1-.33-.62-.66.28-.42-.05-1.1-1.97-.97-3.36-3.28-5.38-4.93-.15.1-.01.6-.6.4-.14-.53-.27-1.06-.39-1.59-.43-.3-1.05.39-1.3-.7,0,.2-.02.5-.31.29-1.51-2.12-3.39-3.91-5.1-5.89-1.71-1.96-3.21-4.17-3.81-6.75.05.77-.21.39-.48-.06.1.34-.38.21-.55.39-.19-.73-.33-1.46-.46-2.2-.38-.02-.67-.52-.92-1.01-.23-.5-.46-.98-.79-.95l.39.57c-1.07-.52-.96,1.88-1.85,2.2.63.28.67,1.05.81,1.88.17.81.43,1.71,1.4,2.14.05.43-.44-.11-.52.18.6.16.96.56,1.35,1.5l-.15-.04c1.68,2.26,2.07,3.47,3.92,6.07l.21-.49c.39.56.37.76.49,1.09,1.05.12-1.2-1.48-.14-1.45-.19,1.35,3.16,3.54,2.8,4.71.72.75.18-.6.9.15v.4s.44-.09.44-.09c.44.52.43,1.02.27,1.22-.1-.14-.39-.28-.53-.39.39.88,1.88,1.65,2.03,1.93l-.61-.81c2.24,1.75,4.59,4.3,7.08,5.55l-.02-.3c1.85.99,1.13,1.24,3.01,2.5h-.1c.49.1,1.04.38,1.51.78-.61-.15.53,1.06-.24.83,2.05,1,1.1.39,2.78.62l.04.5c.6.03.75-.08,1.7.52-.93-.3.23.88-.85.59,1.4,2.07,3.3,1.45,3.46,3.06,1.48-.17-1.3-1.69-.68-1.5-.21-.57,1.17-.08,1.7.45.59.47.24,1.83,1.78,2.95-.15-.12-.2-.06-.35-.18.41.65,1.33.54,1.8,1.38.76-.22.91.68,1.48.12l-1.54-.85c.93.4,2.23.17,3.3,1.47-.2.06-.71-.05-1.05-.14.25.46.84.4,1.11.88-.57.57-1.83-1.07-3.06-1.19.23.57,1.98.68,1.04,1.08,1.26-.45,1.46,1.19,2.99,1.24l-.34.34c.21.06.68.11.98.34l-.91.12c1.15.17,1.39,1.53,2.37,1.87-1.73-1.19-.06-.74-.59-1.53,2.48.95.51,1.87,3.02,3.35-.36-.17-1.05-1.08-.42-.91.39.4.89.96,1.04,1.35,1.67.96.02-.57.87-.36.23.84.92.32,1.73.62l-.26.41c1.66,1.45,1.04-.52,2.48.86l-1.06.11.95.41-.48.34c1.16.27,1.39.54,2.23,1.27-.03-.42.59-.66,1.41-.15.4.6-.56.19.63.87-.42.09-.91.22-1.17-.48-.14.1-.42.09-.56.19.42.66,1.46,1.04,1.88,1.3-.15-.12-.33-.27-.39-.39l2.02.52c.17.32-.12.31-.4.3.36.18.72.14,1.25.41-.34.25-.52.62-1.33.33.61.22,1.23.41,1.85.62.02.21.59.9.3.9.78.74,2.61.68,3.65,1.66.1-.03.26-.02.55.09,1.08.75,1.83,1.76,3.43,2.1l.4,1.06c1.12.49-.58-1.38,1.29-.57,1.36.51.17.78.51,1.2.8.04,2.24.02,3.11,1.15-.45-.1-.69-.35-1.07-.51ZM1077.81,663.52c-.3-.04-.96-.03-1.02-.38.55-.34.65.01,1.02.38ZM1098.81,672.3c-.26.06-.54-.14-.81-.46.27.07.54.21.81.46ZM1159.34,689.63s-.02,0-.04.02c-.58-.33-.37-.21.04-.02ZM1160.58,690.15c.15-.03.15-.1.11-.18-.12.1-.41.03-.73-.08.06.14.21.27.62.26ZM1031.9,630.41l.13.26c-.55-.24-.34-.24-.13-.26Z"/>
    <path class="cls-5" d="M1096.17,671.88c-.04-.11-.03-.2,0-.29-.14.03-.18.11,0,.29Z"/>
    <path class="cls-5" d="M1056.31,652.16l-.04-.03s-.06.03-.08.05l.12-.02Z"/>
    <path class="cls-5" d="M1139.55,688.53c-.24-.15-.36-.28-.43-.4-.05.11.04.24.43.4Z"/>
    <path class="cls-5" d="M1167.61,691.02l-.85-.08c.4.07.52.21.71.34,0-.11-.11-.31.15-.26Z"/>
    <path class="cls-5" d="M1174.21,695.48c.13-.03.26.05.39.01v-.23c-.51-.09-.91,0-.39.21Z"/>
    <path class="cls-5" d="M1168.02,692.77c-.02.42.53.4,1.13.45-.04,0-.07,0-.1-.02.3-.52-.37-.45-1.03-.42Z"/>
    <path class="cls-5" d="M1169.28,693.23c.18.02.37.05.54.1.12-.21-.21-.09-.54-.1Z"/>
    <path class="cls-5" d="M1162.28,690.29c.25.17.29-.46.41-.26.43-.43-1.98.16-.41.26Z"/>
    <polygon class="cls-5" points="1168.19 694.18 1168.09 693.65 1167.68 693.96 1168.19 694.18"/>
    <path class="cls-5" d="M1163.68,692.71l.9.36c0-.09.13-.1.29-.11-.57-.16-1.17-.41-1.19-.26Z"/>
    <path class="cls-5" d="M1164.86,692.96c.3.08.58.14.77.1-.16-.03-.51-.1-.77-.1Z"/>
    <polygon class="cls-5" points="1166.89 694.02 1166.63 693.85 1165.98 693.66 1166.89 694.02"/>
    <path class="cls-5" d="M1153.72,690.1l-1.04-.14c-.15.14.1.32.49.35.27-.05.66,0,.55-.21Z"/>
    <path class="cls-5" d="M1156.43,692.26c-.25-.17-.24-.28-.35-.48l-.19.59.54-.12Z"/>
    <path class="cls-5" d="M1153.44,691.6c-.14.14-1.6.07-.3.39.15-.14,1.2,0,.3-.39Z"/>
    <polygon class="cls-5" points="1138.51 686.42 1138.76 686.49 1139.03 685.51 1138.51 686.42"/>
    <path class="cls-5" d="M1124.51,684.31c1.1.65.49-.49,1.45.17.36-.13-.79-.54-.43-.64-.79-.01-1.12-.28-1.02.47Z"/>
    <path class="cls-5" d="M1125.53,683.84c.13,0,.26,0,.41-.02-.23-.01-.34,0-.41.02Z"/>
    <polygon class="cls-5" points="998.93 596.82 998.81 596.05 998.7 596.63 998.93 596.82"/>
    <path class="cls-5" d="M997.64,595.81l.52-.42-.73-.18c.1.15.29.43.21.61Z"/>
    <path class="cls-5" d="M1079.2,665.7l.13-.11c-.03-.21-.2-.3-.52-.5l.39.61Z"/>
    <polygon class="cls-5" points="1069.78 660.2 1069.94 660.3 1069.91 659.61 1069.78 660.2"/>
    <path class="cls-5" d="M1061.41,656.4c.31.2.76.3,1.08.51-.77-.31-.8-1.19-1.08-.51Z"/>
  </g>
  <g>
    <path class="cls-5" d="M1321.12,660.32c.1.1.27-.29.32-.34-.24-.04-.37.44-.32.34Z"/>
    <polygon class="cls-5" points="1318.7 659.99 1318.82 659.87 1318.32 660.06 1318.7 659.99"/>
    <path class="cls-5" d="M1316.89,658.91c-.2.71.72.29.91.7l-.03.17.44-.41c-.44-.15-1.14-.13-1.32-.46Z"/>
    <path class="cls-5" d="M1316.72,657.02c-.08.27-.33.08.18.21,0-.04,0-.06,0-.08-.04-.02-.09-.05-.18-.12Z"/>
    <path class="cls-5" d="M1316.9,657.14c.2.1,0-.27,0,0h0Z"/>
    <path class="cls-5" d="M1315.94,656.75l.38-.06c.03-.17-.17-.34-.02-.39-.33-.04-.36.13-.35.45Z"/>
    <path class="cls-5" d="M1315.44,657.05h.18c.01-.08,0-.13-.18,0Z"/>
    <path class="cls-5" d="M1316.01,657.01l-.39.02c-.02.12-.14.32.17,0-.13.17.03.03.22-.03Z"/>
    <path class="cls-5" d="M1316.11,657.2c.06.22.19.41-.19.47.53.2.72-.27.19-.47Z"/>
    <path class="cls-5" d="M1316.42,659.49l.08.29.29-.11c-.14.05-.26-.38-.37-.18Z"/>
    <path class="cls-5" d="M1314.59,655.48c-.09.12-.13.4-.21.57l.27-.04c-.04-.15-.17-.34-.06-.54Z"/>
    <path class="cls-5" d="M1314.38,656.06l-.41.05c.23.18.34.1.41-.05Z"/>
    <polygon class="cls-5" points="1314.98 657.7 1315.72 657.51 1314.89 657.65 1314.98 657.7"/>
    <polygon class="cls-5" points="1313.55 654.83 1313.89 654.62 1313.33 654.91 1313.55 654.83"/>
    <path class="cls-5" d="M1312.82,654.46c.27-.18.1-.52.32-.59-.22-.07-.51.04-.77.15.22-.01.37.12.46.45Z"/>
    <path class="cls-5" d="M1311.95,654.14c.11-.01.26-.07.42-.13-.12,0-.25.04-.42.13Z"/>
    <path class="cls-5" d="M1313.54,655.76c.03-.09.11-.32.01-.5l-.12.43s.07.05.1.07Z"/>
    <path class="cls-5" d="M1313.43,655.71h0c-.11-.1-.19-.15-.22-.18.03.02.09.08.22.18Z"/>
    <path class="cls-5" d="M1313.56,655.78l-.03-.02s-.01.06.03.02Z"/>
    <path class="cls-5" d="M1314.46,656.93c-.29.11-.76.12-.62.63.27-.18.19-.47.62-.63Z"/>
    <path class="cls-5" d="M1313.42,656.32l.24.26c.05-.1.09-.27.23-.32l-.47.06Z"/>
    <polygon class="cls-5" points="1313.2 656.35 1313.42 656.32 1313.33 656.22 1313.2 656.35"/>
    <path class="cls-5" d="M1312.24,654.78c-.22.08-.37.01-.54-.06.12.17.27.32.44.42.09-.1.29-.26.1-.36Z"/>
    <path class="cls-5" d="M1312.8,655.26h-.04s0,.06.04,0Z"/>
    <path class="cls-5" d="M1310.17,653.77s-.01.06-.02.08l.04-.06-.03-.02Z"/>
    <path class="cls-5" d="M1312.12,655.23c.08.15.21.1.35.04-.12-.02-.23-.06-.34-.12-.04.05-.07.08-.01.09Z"/>
    <path class="cls-5" d="M1311.42,654.04c.02.12.05.23.09.33,0-.15-.01-.41-.09-.33Z"/>
    <path class="cls-5" d="M1312.78,655.14h.03c0-.11-.01-.07-.03,0Z"/>
    <path class="cls-5" d="M1312.78,655.14c-.1.01-.2.07-.3.12.09.02.19.02.28,0,0-.04,0-.08.02-.13Z"/>
    <path class="cls-5" d="M1308.26,655.81c.23-.32.76-.43.81.11.44-.08.94-1.3,1.08-2.07-.1.14-.18.28-.59.29-.01.25.37.83-.06.98-.49-.07-.24-.32-.31-.61-.1.52-.86.3-1.17.97h.47c-.05.09-.27.17-.23.32Z"/>
    <path class="cls-5" d="M1310.68,654.23l.14.03c-.1-.14-.11-.34-.12-.71-.3.04-.42.14-.5.24l.55.41-.07.02Z"/>
    <path class="cls-5" d="M1311.35,654.59c-.32.31-.7.29-.77.79.36.19.43-.16.74-.19-.62-.25.29-.11,0-.56.15,0,.26.05.36.09-.07-.11-.14-.22-.19-.35v.03s0,0,0,0h0c0,.07-.01.1-.02.06,0,0-.02,0-.02,0-.04.05-.07.09-.11.12-.12-.18.03-.11.11-.12l.04-.05h0s-.68-.15-.68-.15c.09.12.24.21.53.33Z"/>
    <path class="cls-5" d="M1313.06,658.16s.02-.07.03-.1c-.06.02-.1.04-.03.1Z"/>
    <path class="cls-5" d="M1312.96,657.8c.07-.03.2-.15.31-.03.05.18-.11.18-.18.3.14-.05.44-.09.3-.43l-.07.03c-.15-.27-.16-.9-.09-.93-.14.37-.22.64-.27,1.06Z"/>
    <path class="cls-5" d="M1312.08,656.28l-.58-.11.04.46.1-.2c.22.24.31-.03.43-.16Z"/>
    <polygon class="cls-5" points="1310.23 653.55 1310.54 653.21 1309.93 653.58 1310.23 653.55"/>
    <polygon class="cls-5" points="1309.6 653.22 1309.83 652.9 1309.54 653 1309.6 653.22"/>
    <path class="cls-5" d="M1273.44,634.33h-.2c.08.01.15,0,.2,0Z"/>
    <path class="cls-5" d="M1274.36,635.06l.14-.14c-.11.05-.17.1-.14.14Z"/>
    <path class="cls-5" d="M1294.88,643.68c.01-.44.12-1.06-.11-.67l-.18.4c.18.03.26.14.29.28Z"/>
    <path class="cls-5" d="M1283.52,638.91s-.01.1-.02.15c.13-.09.26-.17.37-.24-.11.03-.23.06-.35.1Z"/>
    <path class="cls-5" d="M1282.33,640.27l-.09-.41c0,.12.03.26.09.41Z"/>
    <path class="cls-5" d="M1268.02,630.78l-.42.23c.24.18.27-.08.42-.23Z"/>
    <path class="cls-5" d="M1303.34,649.43c-.08-.25-.18-.4-.28-.49.07.34.03.76.28.49Z"/>
    <path class="cls-5" d="M1276.57,630.92c-.13,0-.21.05-.27.13.13,0,.22-.03.27-.13Z"/>
    <path class="cls-5" d="M1302.56,648.61c0,.06.02.09.03.14.16.02.32.05.46.17-.05-.25-.16-.46-.49-.32Z"/>
    <path class="cls-5" d="M1250.09,615.72s0-.05,0-.07c-.04.04-.03.06,0,.07Z"/>
    <path class="cls-5" d="M1247.83,607.97c.07.02.15.09.23.16-.02-.06-.08-.11-.23-.16Z"/>
    <path class="cls-5" d="M1307.27,651.53c.14.06.05-.03,0,0h0Z"/>
    <path class="cls-5" d="M1306.97,653.37c-.05.02-.11.06-.16.15.07-.08.12-.13.16-.15Z"/>
    <path class="cls-5" d="M1299.82,650.05s0,0-.01,0c0,.1,0,.08.01,0Z"/>
    <path class="cls-5" d="M1307.35,651.82c-.02-.08-.05-.15-.1-.21,0,.05.04.11.1.21Z"/>
    <path class="cls-5" d="M1307.44,651.63s.06.07.09.11c.05-.05.06-.1-.09-.11Z"/>
    <path class="cls-5" d="M1307.07,651.44c.08.04.13.1.18.17,0-.04,0-.07,0-.08-.04-.02-.1-.05-.19-.09Z"/>
    <path class="cls-5" d="M1260.46,622.85s0-.03,0-.05c-.23.04-.16.06,0,.05Z"/>
    <path class="cls-5" d="M1289.06,645.16s.02,0,.03,0v-.03s-.03.03-.03.03Z"/>
    <path class="cls-5" d="M1288.43,645.11c.5-.31.57-.18.65.02l.56-1.13-1.21,1.12Z"/>
    <path class="cls-5" d="M1271.1,632.72l.07.54c-.76.23-.9-.15-.94.5.87-1.05,1.29.8,2.15-.25l.03.38c-.05-.05-.11,0-.16-.05,0,.82.89-.56,1.28-.02.11.22.12.47-.1.51l.6.03c.1.11-.07.28-.17.17l.67.37-.03.03c.21-.1.61-.22.78-.26.04.27-.16.06-.23.22h.53c-.08.37-.56.44-.76.22-.5,1.32.48-.06.69,1.07l-.42-.1c-.25.77.16.73.24,1.38.06-.26,0-1.5.57-1.5.04.16.15.3.51.22-.29.39-.02.44.24.59l-.4.5c.37.04.54-.23.87-.35.25.26.02.71-.16,1.09.41.42.15-.88.77-.57.24.48.67.47,1.36.5.14.38-.28.28-.29.5l.54-.24c.05.05-.06.17-.12.22.32-.01.39-.5.81-.41.5-.51.05,1.31.92.95,0,.22-.28.28-.39.51.85-.04.69.03,1.55-.23l.14.61c0-.59.69-.8,1.27-.95.04-.26.07-.48.07-.6l.7.08c0,.13-.18.27-.42.43.06-.02.13-.04.18-.06.04.32-.27.55-.6.75.02-.15.03-.3.05-.45-.35.23-.72.49-.91.82.08-.04.18-.04.26-.02-.09.06-.17.12-.19.19-.02.07.11-.01.29-.09l-.3.66.19-.21.39.83c.89-.25,1.9-.82,2.81-.53-.49.3-.53.67-.9,1.17.17-.68-.74-.18-1.04-.57.16.2-.05.41-.17.46h1.03c-.31.41-.07.42-.01.72.44-.91.9-.18,1.36-.24-.18.29-.44.52-.74.21-.06.88,1.17-.62,1.17.16-.09-.05-.1-.13-.24,0,.37-.11.71.42.43.58l-.09-.05c.49.49,1.69,1.19,2.26.55-.06.09-.66.79-.79.91l2.62-1.66c-.5.54-1.15,2.21-1.85,2.22.07.18.17.39.6.37-.03-.15.37-1.02.54-.99-.12.9-.01.52.02,1.38-.05-.22.75-1.06.95-.89-.13.12-.62.94-.77.99l1.17-.56c-.25.08-.56.77-.62,1.12.07-.22.45.33.66.34l-.08-.37c.51.55,1.49-.9,2.06-.44-.2.14-.98,1.06-.76,1.39.46-.38,2.17-1.87,2.95-1.88l-.08.34.62-.04c-.74.55-2.47,1.58-3.25,1.9.08.37-.15.37.2.57-.05.34-.45.26-.56.21l.68.71c.34-.58.98-.15,1.27-.63h-1.25c.34-.59,1.56-1.24,2.06-.78,0,.32-.77.92-.89,1.12.2-.14.78-.01.74.16l-.44.14c.18.42,1.01-.4,1.03.38.11.12-.09.98.15.66.21-.78,1.48-2.78,1.94-3.17.02.07.28,1.06.22,1.48-.12.64-1.11.98-1.22,1.53.11-.15.35-.26.44-.29.05.22-.37.44-.03.57.43-.54.57.45.46-.39.4.03.23.32.59.52.13-.44,1.13-1.05,1.53-1.02-.11.13-.17.37-.2.47.56.45.72.91,1.27,1.28-.04.17.12.51-.15.69.15-.05.35-.2.53-.1.01.71-.44-.17-.57.59.24-.32.75-.17,1.13-.22.26-.56-.5-.47-.89-.42.46-.71,1.37-1.17,2.16-1.12.58.12-.09.59.05.54.79.69,1.54-.76,1.93.22,0,.64-.56.91-.71,1.28-.49-.07-.4-.66-.67-.81l.18.42c-.22.07-.54.02-.6-.2-.02.56,1.42,1.03,1.86,1.84.22-.08.53-.1.54-.35l-.25-.07c.04-.49.73-.25.56-.59.45-.08,1.03-.28,1.3.18l-.25.57c.09-.16-.07-.47-.28-.39.31-.12.18,1.09.79.53l-.06-.54c.45-.08,1.16-.41,1.41-.02.16-.62-.12,0,0-.75-.25.88-.9-.61-1.03.4.18-.86-.27-.58-.23-1.39-.1.18-.09.4-.33.13-.04.04-.12.08-.16.11,0-.01,0-.02-.01-.03v.03s-.03.02,0,.01c.02.12.02.25-.01.36-.4.3-.87-.01-1.16.09-.13-.19.2-.15.22-.39l-.43.15c.22-.39-.07-.93.49-.89l-.36-.26c-.08-.35-.33-.63-.62-.6-.12-.2-.72.13-.37-.07l-.74-.15.05-.1c-.55-.42-1.6-.15-1.82-1.25-.26-.03-.54-.05-.79-.36l.15-.37c-.32-.05-.53-.82-.86-.55.31-1.05-1.08-.99-1.42-1.43l-.3.41c-.29-.22-.65-.29-1.14-.37l-.23.39c-.53.09-.65-.81-1.19-1.11.13-.12.23,0,.27.15-.05-1.24-1.69-.25-1.83-1.24-.23.04-.3-.07-.33-.23.01,0,.03,0,.05,0-.01-.01-.03-.03-.05-.04-.02-.1-.03-.22-.06-.33,0,.13,0,.24.02.31-.11-.06-.3-.13-.52-.14l.2-.44s-.03-.01-.04-.01c-.05-.25-.25.1-.37.46-.12.01-.25.04-.37.1.31-.73-.56-.06-.26-.86-.33.26-.96-.28-1.52.36.06-.1.04-.17.13-.12-.12-.2-.24-.4-.53-.31l.27-.55-.85.42c-.02-.47.01-.71.51-.94-.96.21-.6-.09-1.48.17l.25-.31c-.18-.1-.75.14-.66-.2.06-.88-1.8-1.38-2.36-2.63-.49,1.08-.15-.74-.7-.03.1-.26.06-.49.35-.57-.64-.13-.48-.88-1.25-.5.1-.27.34-.25.38-.42-.07.02-.29.08-.25-.09.05-.17.21-.14.35-.18-.52-.32-1.07.34-1.57.96-.03-.49-.19-.53-.68-.24.06-.28.08-.6.44-.46-.15-.16-.84-1.07-1.23-.57.04-.17-.22-.21-.3-.19-.37-.31-.37-.38-.79-.61l.05.16c-.61.52-.42-.09-.78-.24l.05-.06c-.37-.97-.46,0-.78-1.03l-.25.42c-.67.78-.25-.94-.89-.92l-.02.33c-.43.12.22-1.58.08-1.85,0-.11.16-.06.27-.06-.21-.91-.45.45-.96.25.12-.33.61-.62.36-.88.02-.33-1.5.27-1.5-.55-.07.27-.14.55-.46.56-.36-.15-.23-1.41-1-.96,0-.09.03-.15.07-.21-.36,0-.96-.29-1.37-.04.79-1.48-1.93-.45-1-1.66l-.76-.47.11-.11c-.39-.43-.77-.26-1.16-.09-.04-.16.12-.22.18-.27-.47-.76-.58-.75-1.6-.58l.25-.44c-.33.11-.48-1.35-1.48-1.4.04-.04.11-.11.21-.12-1.09-.1-.89-2.43-2.27-1.23l-.75-.03c.53.6-.58.54-.51.98-.31-.11-.29-.93.07-.76v.11c.68-.65-.57-.87-.15-1.36-1.24-.93-2.1-2.27-3.19-3.22l-.33.67-.37-.35c0-.22.22-.56.48-.31.11-.44-.69-.11-.8,0-.36-.68.75-.49.59-.64l-.26-.14v.11c-.38.08-.59.31-.91.01-.12-.29.18-.44.11-.53.03-.04.02-.08-.11-.12l-.45-.45-.17.61c-.4.04-.45-.4-.63.29.3-1.05-1.61-1.78-1.61-2.2-.57.07-.87-.19-1.21-.53.02.17-.34.71-.61.39.98-.93-.21-.94.15-1.89-.18.68-1.01-.64-1.23.36-.2-.31.31-.4.31-.81-.97-.13-1.18-1.43-2.07-1.97-.13.12-.17.44-.51.5l.16-1.02c-.21-.07-.8.65-.68-.05-.06.15-.14.37-.28.32-.97-1.94-3.57-2.15-4.04-4.7-.02.44-.18.34-.34.21.05.15-.29.32-.43.52l-.2-1.06c-.55.39-.72-.57-1.2-.15l.28.09c-.77.32-.72,1.57-1.4,2.26.87-.37-.03,1.65,1.27,1.17-.02.24-.3.15-.38.37.4-.2.61-.13.77.26l-.1.05c.86.62.93,1.23,1.66,2.21l.24-.42c.15.21.1.36.11.53.69-.35-.52-.5.2-.92-.37.95,1.36,1.18.82,2.16.29.26.27-.49.56-.23l-.11.29.32-.23c.15.22.01.58-.14.78-.03-.06-.18-.06-.25-.09.03.48.79.52.81.68l-.17-.38c1,.49,1.74,1.64,2.93,1.84l.08-.22c.87.19.33.59,1.12,1l-.06.02c.28-.06.53,0,.69.17-.34.06,0,.66-.42.69.94.21.55,0,1.51-.27l-.14.37c.36-.14.49-.26.88-.06-.48.02-.15.61-.72.68.18,1.21,1.56.23,1.13,1.41.98-.53-.25-.94.07-.96.06-.38.75-.38.91-.12.21.2-.45,1.33.13,1.78-.05-.05-.11,0-.16-.04.05.38.64.06.63.61.54-.36.32.3.86-.28l-.64-.28c.43.08,1.29-.41,1.49.33-.14.09-.41.14-.59.15,0,.3.37.1.37.41-.54.58-.74-.38-1.44-.17-.06.38.96.04.26.58.92-.66.47.56,1.38.23l-.32.35c.11,0,.37-.08.48.02l-.59.31c.64-.16.31.85.79.86-.64-.49.22-.56.17-1.04,1.17.13-.33,1.32.69,1.84-.16-.04-.27-.57.06-.6.1.21.21.52.16.8.64.38.22-.45.64-.49-.16.61.43.04.8.1l-.3.38c.47.77.8-.65,1.16.11l-.67.33.42.11-.4.38c.59-.05.63.11.86.5.13-.33.58-.65.89-.43.02.38-.4.27.06.55-.28.16-.62.38-.52-.11-.12.11-.28.16-.39.27.01.43.49.49.65.6-.05-.06-.1-.14-.09-.22l1.02-.06c-.02.22-.18.27-.34.33.16.05.38-.06.58.05-.29.27-.53.6-.9.55l.85.1c-.07.16,0,.6-.15.65.18.43,1.25,0,1.49.58.07-.04.16-.07.28-.04.34.38.4,1.03,1.21.97l-.16.76c.47.16.18-.98.95-.72.57.16-.2.6-.17.88.43-.12,1.25-.4,1.31.36-.21,0-.26-.16-.41-.21ZM1275.9,635.94c-.15.02-.52.13-.41-.14.43-.37.35-.1.41.14ZM1283.66,640.15c-.16.08-.22-.06-.23-.29.11.03.19.11.23.29ZM1305.65,650.97s-.01,0-.02.01c-.11-.29-.07-.18.02-.01ZM1305.97,651.43c.08-.03.11-.09.13-.16-.1.08-.2.03-.29-.07-.04.13-.03.24.16.23ZM1261.24,619.3v.16c-.27-.03-.14-.09,0-.16Z"/>
    <path class="cls-5" d="M1282.47,640.11c.02-.08.07-.16.11-.24-.08.04-.14.12-.11.24Z"/>
    <path class="cls-5" d="M1268.1,630.73s0,0-.01-.02c-.03.02-.05.04-.07.06l.08-.04Z"/>
    <path class="cls-5" d="M1297.06,650.5c-.05-.12-.05-.22-.03-.32-.07.09-.08.21.03.32Z"/>
    <path class="cls-5" d="M1308.71,652.18l-.34-.07c.15.06.14.18.17.29.05-.1.09-.27.18-.22Z"/>
    <path class="cls-5" d="M1309.55,656.23c.07-.02.09.05.16.02l.11-.2c-.18-.1-.4-.02-.27.17Z"/>
    <path class="cls-5" d="M1308.11,653.7c-.19.36.05.35.29.41-.01,0-.03-.01-.03-.02.36-.44.05-.42-.25-.39Z"/>
    <path class="cls-5" d="M1308.46,654.13c.07.02.14.05.19.1.14-.18-.05-.09-.19-.1Z"/>
    <path class="cls-5" d="M1306.67,651.55c.04.15.34-.4.3-.23.38-.37-.95.14-.3.23Z"/>
    <polygon class="cls-5" points="1307.56 654.93 1307.76 654.46 1307.43 654.74 1307.56 654.93"/>
    <path class="cls-5" d="M1306.21,653.65l.24.31c.04-.07.11-.09.17-.09-.18-.14-.34-.35-.41-.22Z"/>
    <path class="cls-5" d="M1306.62,653.87c.1.07.2.12.3.09-.06-.03-.18-.09-.3-.09Z"/>
    <polygon class="cls-5" points="1307.05 654.79 1307.02 654.64 1306.81 654.47 1307.05 654.79"/>
    <path class="cls-5" d="M1302.92,651.43l-.42-.1c-.13.12-.09.27.07.29.15-.05.31-.02.35-.2Z"/>
    <path class="cls-5" d="M1303.21,653.24c-.04-.15.02-.24.06-.42l-.35.52.29-.1Z"/>
    <path class="cls-5" d="M1302.14,652.73c-.13.12-.76.1-.31.34.13-.12.54-.02.31-.34Z"/>
    <polygon class="cls-5" points="1297.48 648.74 1297.57 648.79 1298.12 647.93 1297.48 648.74"/>
    <path class="cls-5" d="M1291.66,647.76c.26.47.45-.46.64.04.23-.14-.15-.41.06-.51-.38.05-.43-.16-.69.47Z"/>
    <path class="cls-5" d="M1292.35,647.29c.06,0,.13-.02.21-.04-.1,0-.16.02-.21.04Z"/>
    <polygon class="cls-5" points="1247.35 606.82 1247.26 606.46 1247.18 606.84 1247.35 606.82"/>
    <path class="cls-5" d="M1246.41,607l.38-.53-.53.32c.07.02.21.07.15.22Z"/>
    <path class="cls-5" d="M1275.81,637.5l.11-.11c.06-.16.01-.22-.09-.32l-.02.44Z"/>
    <polygon class="cls-5" points="1272.74 634.6 1272.79 634.65 1273.04 634.1 1272.74 634.6"/>
    <path class="cls-5" d="M1269.48,633.07c.1.11.31.11.41.21-.32-.1,0-.82-.41-.21Z"/>
  </g>
  <g>
    <path class="cls-5" d="M1310,657.33c.12.1.26-.3.32-.35-.28-.04-.36.45-.32.35Z"/>
    <polygon class="cls-5" points="1307.26 657.01 1307.38 656.88 1306.85 657.08 1307.26 657.01"/>
    <path class="cls-5" d="M1305.1,655.91c-.12.74.83.29,1.11.71v.18s.42-.43.42-.43c-.51-.16-1.29-.12-1.53-.47Z"/>
    <path class="cls-5" d="M1304.65,653.96c-.06.28-.36.09.23.21-.01-.04-.01-.06-.02-.09-.05-.02-.11-.05-.21-.13Z"/>
    <path class="cls-5" d="M1304.87,654.08c.24.1-.04-.28,0,0h0Z"/>
    <path class="cls-5" d="M1303.75,653.69l.41-.07c.01-.18-.24-.35-.08-.4-.37-.04-.38.14-.33.47Z"/>
    <path class="cls-5" d="M1303.23,654.01h.2c0-.09-.03-.13-.2,0Z"/>
    <path class="cls-5" d="M1303.86,653.97l-.43.03c0,.12-.11.33.19,0-.12.17.03.03.24-.04Z"/>
    <path class="cls-5" d="M1303.99,654.16c.1.22.27.42-.14.49.62.2.76-.29.14-.49Z"/>
    <path class="cls-5" d="M1304.66,656.52l.13.3.3-.12c-.15.06-.35-.39-.43-.19Z"/>
    <path class="cls-5" d="M1302.06,652.41c-.09.13-.08.41-.15.6l.3-.04c-.07-.15-.24-.35-.15-.55Z"/>
    <path class="cls-5" d="M1301.91,653l-.45.06c.28.18.39.1.45-.06Z"/>
    <polygon class="cls-5" points="1302.81 654.69 1303.6 654.48 1302.7 654.64 1302.81 654.69"/>
    <polygon class="cls-5" points="1300.81 651.74 1301.15 651.53 1300.58 651.83 1300.81 651.74"/>
    <path class="cls-5" d="M1299.94,651.37c.27-.19.04-.54.26-.62-.25-.07-.56.05-.84.16.24-.02.43.11.57.46Z"/>
    <path class="cls-5" d="M1298.93,651.05c.12-.01.28-.08.44-.14-.13,0-.27.05-.44.14Z"/>
    <path class="cls-5" d="M1300.93,652.71c.02-.09.08-.33-.06-.52l-.07.45s.08.05.13.07Z"/>
    <path class="cls-5" d="M1300.8,652.65h0c-.14-.1-.23-.15-.27-.18.03.02.11.08.27.18Z"/>
    <path class="cls-5" d="M1300.96,652.73l-.03-.02s0,.06.03.02Z"/>
    <path class="cls-5" d="M1302.12,653.9c-.3.11-.82.13-.6.66.27-.19.14-.49.6-.66Z"/>
    <path class="cls-5" d="M1300.88,653.29l.31.27c.04-.1.06-.28.21-.34l-.51.07Z"/>
    <polygon class="cls-5" points="1300.64 653.32 1300.88 653.29 1300.76 653.19 1300.64 653.32"/>
    <path class="cls-5" d="M1299.34,651.72c-.24.09-.41.02-.61-.05.16.18.35.32.55.42.09-.1.29-.27.06-.37Z"/>
    <path class="cls-5" d="M1300.04,652.2h-.04s.02.07.04,0Z"/>
    <path class="cls-5" d="M1296.9,650.71s0,.06,0,.08l.04-.06-.03-.02Z"/>
    <path class="cls-5" d="M1299.28,652.17c.11.15.25.1.4.03-.13-.02-.26-.06-.39-.12-.04.05-.06.08,0,.09Z"/>
    <path class="cls-5" d="M1298.32,650.96c.04.12.09.23.15.34-.01-.16-.07-.43-.15-.34Z"/>
    <path class="cls-5" d="M1299.99,652.08h.03c0-.11-.02-.07-.03,0Z"/>
    <path class="cls-5" d="M1299.99,652.08c-.11.02-.21.08-.32.13.11.02.21.02.32,0,0-.04,0-.09,0-.13Z"/>
    <path class="cls-5" d="M1295.08,652.85c.21-.34.77-.46.92.1.47-.09.85-1.36.9-2.16-.09.15-.16.29-.62.32.02.25.53.85.08,1.01-.55-.06-.31-.32-.44-.62-.04.54-.91.33-1.15,1.03l.52-.02c-.04.1-.27.19-.21.34Z"/>
    <path class="cls-5" d="M1297.53,651.17l.16.03c-.13-.15-.17-.35-.24-.73-.33.05-.44.15-.52.26l.67.41-.08.03Z"/>
    <path class="cls-5" d="M1298.34,651.53c-.31.33-.73.31-.74.83.43.19.46-.17.79-.21-.72-.25.3-.11-.07-.58.17,0,.3.04.42.09-.1-.11-.18-.23-.26-.35,0,.01,0,.02,0,.03h0s0,0,0,0c0,.06,0,.1-.02.05,0,0-.02,0-.02,0-.03.05-.07.09-.1.13-.15-.18.02-.11.1-.13l.04-.05h0s-.78-.15-.78-.15c.12.13.3.21.64.33Z"/>
    <path class="cls-5" d="M1300.74,655.2s.01-.07.02-.1c-.07.02-.1.05-.02.1Z"/>
    <path class="cls-5" d="M1300.58,654.82c.08-.03.2-.16.34-.04.08.19-.1.18-.15.31.15-.05.48-.1.27-.44l-.07.03c-.21-.27-.31-.93-.23-.96-.1.39-.15.67-.15,1.1Z"/>
    <path class="cls-5" d="M1299.39,653.26l-.66-.1.12.48.09-.21c.28.24.34-.04.46-.17Z"/>
    <polygon class="cls-5" points="1296.93 650.48 1297.22 650.12 1296.6 650.52 1296.93 650.48"/>
    <polygon class="cls-5" points="1296.18 650.15 1296.39 649.81 1296.09 649.92 1296.18 650.15"/>
    <path class="cls-5" d="M1253.07,632.05h-.22c.09.02.16.01.22,0Z"/>
    <path class="cls-5" d="M1254.23,632.75l.13-.15c-.11.06-.17.12-.13.15Z"/>
    <path class="cls-5" d="M1278.35,640.69c-.06-.45-.05-1.1-.24-.7l-.13.42c.2.02.31.13.37.27Z"/>
    <path class="cls-5" d="M1264.98,636.23s0,.1,0,.15c.13-.1.25-.19.36-.27-.11.04-.24.08-.37.12Z"/>
    <path class="cls-5" d="M1263.93,637.7l-.17-.42c.02.12.08.26.17.42Z"/>
    <path class="cls-5" d="M1246.46,628.71l-.41.27c.29.17.28-.1.41-.27Z"/>
    <path class="cls-5" d="M1288.65,646.37c-.13-.26-.26-.41-.39-.5.13.35.16.79.39.5Z"/>
    <path class="cls-5" d="M1255.84,628.33c-.14.01-.22.06-.27.15.14,0,.24-.04.27-.15Z"/>
    <path class="cls-5" d="M1287.66,645.55c.02.06.04.1.06.15.19.02.36.04.54.17-.1-.26-.25-.47-.6-.31Z"/>
    <path class="cls-5" d="M1223.75,614.51s-.02-.05-.02-.08c-.04.05-.02.06.02.08Z"/>
    <path class="cls-5" d="M1219.49,606.65c.08.02.19.08.29.14-.03-.06-.11-.11-.29-.14Z"/>
    <path class="cls-5" d="M1293.34,648.45c.17.06.05-.03,0,0h0Z"/>
    <path class="cls-5" d="M1293.29,650.36c-.06.03-.11.07-.16.15.06-.09.11-.13.16-.15Z"/>
    <path class="cls-5" d="M1284.86,647.12h-.01c0,.09,0,.07.01,0Z"/>
    <path class="cls-5" d="M1293.48,648.75c-.03-.08-.08-.15-.14-.22.02.05.06.12.14.22Z"/>
    <path class="cls-5" d="M1293.54,648.55s.08.08.12.11c.05-.05.06-.1-.12-.11Z"/>
    <path class="cls-5" d="M1293.11,648.36c.09.04.16.1.23.17-.02-.04-.02-.07,0-.08-.05-.02-.12-.05-.23-.09Z"/>
    <path class="cls-5" d="M1236.57,621.03s0-.03-.01-.05c-.24.06-.16.08.01.05Z"/>
    <path class="cls-5" d="M1272.19,642.45s.02,0,.03,0v-.03s-.03.03-.03.03Z"/>
    <path class="cls-5" d="M1271.48,642.43c.5-.34.6-.21.72-.01l.42-1.2-1.14,1.21Z"/>
    <path class="cls-5" d="M1250.21,630.53l.19.56c-.78.29-1.01-.1-.92.58.74-1.14,1.56.74,2.29-.4l.11.39c-.07-.05-.12,0-.18-.04.16.85.86-.64,1.39-.1.17.22.22.48,0,.53h.66c.13.1-.02.28-.15.18l.8.34-.03.03c.21-.12.62-.27.81-.32.09.28-.17.07-.2.24l.58-.04c0,.4-.52.5-.78.29-.29,1.4.51-.09.96,1.07l-.48-.08c-.13.81.31.75.52,1.42.02-.28-.29-1.56.33-1.59.08.16.22.3.6.2-.24.42.06.45.37.6l-.34.54c.41.02.55-.27.88-.41.33.26.16.73.03,1.14.52.42,0-.92.74-.63.36.49.82.45,1.58.44.22.38-.25.31-.22.53l.55-.27c.07.05-.03.17-.09.24.35-.03.34-.54.81-.47.45-.55.3,1.35,1.18.93.03.23-.25.31-.34.54.93-.08.76,0,1.66-.32l.26.63c-.11-.61.61-.86,1.22-1.05,0-.27-.01-.51-.03-.63l.78.05c.02.13-.15.29-.38.47.07-.02.13-.05.19-.07.1.33-.19.59-.52.81,0-.15-.02-.31-.03-.47-.34.25-.7.55-.85.89.08-.04.18-.05.29-.04-.09.07-.16.14-.18.2-.01.07.12-.02.3-.1l-.21.7.17-.23.58.84c.93-.3,1.94-.94,2.99-.69-.48.33-.47.72-.78,1.25.07-.71-.84-.15-1.25-.54.21.2.01.43-.1.48l1.13-.05c-.27.43,0,.43.11.74.32-.97.96-.23,1.45-.31-.14.31-.39.56-.77.26.1.92,1.17-.7,1.31.12-.11-.05-.14-.13-.26,0,.38-.13.85.4.57.58l-.11-.05c.62.48,2.07,1.16,2.58.47-.05.1-.59.85-.71.98l2.59-1.83c-.46.58-.89,2.33-1.65,2.38.11.18.25.4.72.36-.06-.15.23-1.08.42-1.05.02.94.08.54.26,1.43-.09-.23.65-1.13.89-.96-.12.13-.52,1-.68,1.05l1.19-.63c-.26.09-.49.82-.49,1.18.04-.23.56.33.78.32l-.15-.38c.66.55,1.49-.99,2.19-.54-.2.16-.9,1.14-.6,1.46.45-.41,2.08-2.02,2.94-2.06l-.03.36.67-.06c-.72.59-2.46,1.72-3.27,2.09.15.38-.11.38.32.58,0,.35-.45.29-.58.24l.87.7c.28-.61,1.06-.19,1.29-.7l-1.38.04c.28-.61,1.51-1.34,2.14-.87.05.33-.7.98-.79,1.19.2-.16.86-.04.84.14l-.46.16c.26.43,1.05-.45,1.2.36.14.12.06,1.02.28.68.11-.81,1.18-2.93,1.63-3.34.03.08.48,1.09.48,1.52-.02.67-1.07,1.05-1.09,1.63.1-.16.35-.28.44-.31.09.23-.34.46.06.59.38-.57.71.45.44-.42.44.02.31.33.74.52.08-.46,1.08-1.12,1.52-1.1-.1.14-.13.38-.14.5.69.44.94.92,1.61,1.28-.02.18.22.53-.06.71.15-.06.35-.21.57-.12.13.73-.51-.17-.53.62.21-.34.8-.2,1.21-.26.2-.59-.63-.47-1.04-.41.4-.75,1.33-1.25,2.21-1.22.66.11-.01.61.14.56.98.69,1.59-.83,2.17.17.1.66-.48.95-.59,1.34-.55-.06-.54-.67-.86-.82l.26.43c-.23.08-.6.04-.69-.19.07.58,1.74,1.03,2.34,1.85.23-.08.57-.12.55-.37l-.29-.07c-.04-.51.76-.28.53-.63.49-.09,1.1-.31,1.47.16l-.19.59c.07-.16-.15-.49-.37-.4.33-.14.36,1.13.96.53l-.14-.55c.49-.09,1.22-.45,1.56-.05.08-.64-.13,0-.11-.78-.14.92-1.08-.61-1.09.43.07-.89-.38-.59-.47-1.43-.08.19-.03.42-.35.14-.04.04-.12.09-.16.12,0-.01-.01-.02-.02-.03v.03s-.03.02.01.01c.04.12.06.25.04.37-.4.32-.96,0-1.27.12-.17-.2.2-.16.18-.41l-.46.17c.18-.41-.22-.96.41-.93l-.44-.26c-.15-.36-.47-.65-.78-.6-.17-.2-.77.15-.42-.06l-.84-.13.05-.1c-.67-.42-1.79-.11-2.22-1.25-.29-.03-.6-.03-.93-.35l.11-.38c-.37-.04-.72-.83-1.05-.54.17-1.1-1.36-.99-1.8-1.44l-.26.44c-.35-.22-.77-.28-1.32-.35l-.19.41c-.57.11-.86-.82-1.5-1.12.12-.13.26,0,.32.15-.26-1.29-1.91-.2-2.23-1.22-.25.05-.34-.06-.4-.23.02,0,.03,0,.05,0-.02-.01-.04-.03-.07-.04-.04-.11-.07-.23-.12-.34.02.13.04.25.08.32-.13-.06-.35-.12-.6-.13l.15-.47s-.03-.01-.05-.01c-.1-.26-.26.12-.33.49-.13.02-.27.05-.39.12.22-.77-.63-.04-.44-.89-.32.28-1.11-.26-1.62.43.05-.1.02-.18.12-.13-.17-.2-.33-.4-.64-.3l.21-.59-.86.46c-.1-.48-.11-.74.39-1-1.03.26-.68-.07-1.6.24l.22-.33c-.21-.1-.8.18-.76-.17-.09-.91-2.22-1.35-3.06-2.62-.34,1.15-.29-.76-.78,0,.07-.28-.02-.51.29-.61-.73-.1-.69-.89-1.47-.46.07-.28.33-.28.35-.46-.08.03-.31.1-.29-.08.02-.18.2-.15.35-.2-.63-.3-1.11.4-1.55,1.07-.13-.5-.31-.55-.79-.22.02-.29-.03-.63.4-.49-.2-.15-1.12-1.07-1.46-.53.01-.18-.28-.21-.37-.18-.46-.3-.48-.38-.98-.59l.08.16c-.57.57-.48-.07-.9-.21l.05-.06c-.59-.98-.51.02-1.05-1.03l-.19.44c-.59.85-.46-.96-1.15-.91l.04.34c-.45.15-.06-1.65-.27-1.92-.01-.11.17-.07.28-.08-.41-.94-.4.49-1.01.31.07-.35.56-.68.23-.93-.04-.34-1.59.36-1.75-.49-.02.29-.05.58-.39.6-.42-.14-.53-1.45-1.28-.93-.01-.09,0-.16.03-.22-.4.02-1.12-.24-1.51.05.57-1.59-2.2-.35-1.43-1.66l-.93-.45.1-.12c-.52-.42-.9-.22-1.28-.02-.08-.17.09-.23.14-.3-.67-.75-.78-.75-1.86-.5l.18-.47c-.33.14-.8-1.37-1.9-1.35.04-.04.1-.12.2-.14-1.21-.03-1.48-2.47-2.73-1.12l-.83.02c.7.58-.52.6-.35,1.05-.36-.09-.51-.94-.09-.8v.11c.63-.73-.78-.86-.43-1.4-1.55-.87-2.77-2.21-4.17-3.11l-.21.73-.48-.34c-.04-.22.12-.6.46-.35.03-.47-.77-.06-.87.07-.54-.67.71-.56.51-.71l-.32-.13.02.11c-.39.11-.57.37-.98.08-.19-.29.1-.47,0-.56.03-.04,0-.09-.15-.12l-.59-.43-.05.64c-.43.07-.57-.38-.62.35.1-1.12-2.14-1.73-2.24-2.16-.61.12-.99-.12-1.43-.46.05.18-.21.77-.58.45.85-1.05-.44-.96-.27-1.98-.04.73-1.24-.58-1.26.48-.28-.3.24-.44.15-.87-1.09-.06-1.6-1.39-2.69-1.87-.11.14-.08.47-.44.56l-.06-1.08c-.24-.05-.72.75-.76,0-.03.16-.07.39-.23.36-1.5-1.94-4.37-1.91-5.48-4.53.08.46-.11.37-.32.25.09.15-.24.36-.34.58l-.47-1.08c-.51.46-.91-.52-1.34-.05l.32.07c-.75.41-.4,1.71-.97,2.48.85-.47.36,1.72,1.65,1.1.04.26-.29.18-.33.42.38-.24.62-.19.89.2l-.1.06c1.08.56,1.3,1.19,2.31,2.14l.17-.45c.21.21.19.37.24.54.67-.43-.68-.47,0-.98-.18,1.02,1.74,1.11,1.38,2.17.38.24.18-.54.56-.29l-.06.31.3-.26c.22.21.15.6.02.82-.04-.06-.21-.05-.29-.07.14.5.98.47,1.03.64l-.27-.38c1.19.42,2.26,1.54,3.59,1.65l.04-.24c.99.12.49.59,1.44.95l-.06.03c.29-.08.57-.04.79.12-.35.09.14.68-.3.76,1.07.14.6-.04,1.58-.41l-.07.4c.36-.17.47-.31.95-.13-.51.06-.02.65-.63.77.46,1.24,1.75.11,1.54,1.37.94-.63-.47-.95-.13-1-.02-.4.74-.45.96-.19.27.19-.2,1.42.53,1.83-.07-.05-.11.02-.18-.03.13.39.71.02.82.58.51-.42.41.29.87-.35l-.75-.24c.48.05,1.31-.53,1.69.23-.13.11-.42.18-.61.2.06.31.43.08.49.4-.46.65-.89-.34-1.6-.06.02.4,1.05-.03.41.58.85-.76.63.55,1.55.13l-.28.39c.12-.02.39-.11.53-.02l-.57.37c.66-.21.52.85,1.05.84-.8-.46.12-.6-.04-1.09,1.3.04-.08,1.4,1.13,1.86-.18-.03-.41-.58-.06-.63.16.21.34.53.34.82.78.35.14-.49.6-.55-.05.64.48.01.89.04l-.25.42c.67.76.74-.73,1.29.03l-.66.39.48.08-.36.42c.63-.1.71.07,1.04.45.08-.35.5-.72.88-.51.1.4-.37.31.18.56-.27.19-.59.44-.59-.08-.1.12-.27.19-.37.31.1.44.64.47.83.58-.06-.06-.14-.13-.15-.22l1.1-.13c.03.23-.14.3-.31.36.18.04.4-.08.64.01-.26.3-.45.66-.86.63l.94.05c-.04.17.13.62-.04.69.28.43,1.37-.08,1.74.5.07-.05.16-.08.3-.06.45.37.65,1.04,1.51.93l-.02.8c.54.13,0-1.03.9-.81.66.13-.1.64,0,.92.45-.15,1.29-.5,1.5.29-.23.02-.31-.15-.49-.19ZM1256.08,633.57c-.16.02-.54.17-.48-.12.4-.41.37-.12.48.12ZM1265.37,637.52c-.16.09-.25-.05-.3-.29.12.02.23.11.3.29ZM1291.46,647.91s-.01,0-.02.01c-.16-.3-.11-.19.02-.01ZM1291.89,648.37c.08-.03.11-.09.12-.16-.09.09-.21.03-.33-.07-.02.13,0,.24.21.23ZM1236.66,617.29l.03.17c-.29-.02-.17-.09-.03-.17Z"/>
    <path class="cls-5" d="M1264.06,637.53c0-.09.04-.17.08-.25-.08.05-.13.13-.08.25Z"/>
    <path class="cls-5" d="M1246.54,628.67s-.01,0-.01-.02c-.02.02-.04.04-.06.07l.08-.05Z"/>
    <path class="cls-5" d="M1281.88,647.67c-.07-.12-.09-.23-.09-.33-.06.1-.06.21.09.33Z"/>
    <path class="cls-5" d="M1295.04,649.09l-.39-.06c.17.06.18.19.23.3.04-.1.06-.28.17-.23Z"/>
    <path class="cls-5" d="M1296.57,653.26c.08-.03.11.05.18.02l.09-.21c-.22-.1-.45-.01-.27.19Z"/>
    <path class="cls-5" d="M1294.6,650.68c-.16.37.11.36.38.42-.02,0-.03-.01-.04-.02.33-.47,0-.43-.34-.4Z"/>
    <path class="cls-5" d="M1295.05,651.11c.08.02.16.05.22.1.13-.19-.07-.09-.22-.1Z"/>
    <path class="cls-5" d="M1292.67,648.48c.06.15.31-.42.3-.24.36-.39-1.03.17-.3.24Z"/>
    <polygon class="cls-5" points="1294.18 651.96 1294.32 651.47 1294 651.76 1294.18 651.96"/>
    <path class="cls-5" d="M1292.49,650.67l.31.32c.03-.08.1-.1.18-.1-.22-.14-.43-.36-.49-.22Z"/>
    <path class="cls-5" d="M1292.98,650.89c.12.07.24.12.34.08-.07-.03-.22-.09-.34-.08Z"/>
    <polygon class="cls-5" points="1293.59 651.83 1293.53 651.67 1293.28 651.5 1293.59 651.83"/>
    <path class="cls-5" d="M1288.51,648.45l-.48-.09c-.12.13-.06.28.12.3.15-.05.34-.03.35-.21Z"/>
    <path class="cls-5" d="M1289.1,650.32c-.06-.15-.02-.25,0-.43l-.3.54.31-.11Z"/>
    <path class="cls-5" d="M1287.84,649.82c-.12.13-.83.12-.29.36.12-.13.6-.04.29-.36Z"/>
    <polygon class="cls-5" points="1282.06 645.83 1282.16 645.88 1282.63 644.98 1282.06 645.83"/>
    <path class="cls-5" d="M1275.49,645.04c.37.48.42-.49.71.02.23-.15-.24-.41-.02-.53-.41.06-.5-.14-.68.52Z"/>
    <path class="cls-5" d="M1276.17,644.53c.07,0,.14-.03.22-.05-.11,0-.18.03-.22.05Z"/>
    <polygon class="cls-5" points="1218.7 605.5 1218.52 605.13 1218.52 605.54 1218.7 605.5"/>
    <path class="cls-5" d="M1217.72,605.78l.28-.59-.49.38c.08.02.24.05.21.21Z"/>
    <path class="cls-5" d="M1256.28,635.19l.1-.12c.04-.17-.03-.23-.16-.33l.06.45Z"/>
    <polygon class="cls-5" points="1252.37 632.37 1252.43 632.42 1252.59 631.84 1252.37 632.37"/>
    <path class="cls-5" d="M1248.51,630.99c.13.11.36.09.49.19-.36-.09-.16-.85-.49-.19Z"/>
  </g>
  <g>
    <path class="cls-5" d="M810.37,690.69c0,.15.39,0,.47,0-.15-.22-.57.04-.47,0Z"/>
    <polygon class="cls-5" points="808.86 688.51 809.03 688.51 808.54 688.24 808.86 688.51"/>
    <path class="cls-5" d="M808.4,686.21c-.66.35.27.81.1,1.27l-.15.1.6.07c-.18-.47-.68-1.05-.55-1.44Z"/>
    <path class="cls-5" d="M809.69,684.74c-.26.12-.28-.22-.03.29.03-.03.04-.04.06-.06-.01-.05-.02-.11-.03-.23Z"/>
    <path class="cls-5" d="M809.72,684.97c.06.23.2-.19,0,0h0Z"/>
    <path class="cls-5" d="M809.39,683.9l.29.28c.15-.09.15-.37.28-.29-.18-.3-.33-.21-.57.01Z"/>
    <path class="cls-5" d="M808.84,683.68l.13.15c.06-.04.08-.09-.13-.15Z"/>
    <path class="cls-5" d="M809.23,684.14l-.27-.31c-.11.06-.34.1.1.15-.21,0,0,.04.17.17Z"/>
    <path class="cls-5" d="M809.15,684.35c-.13.2-.19.45-.48.17.19.59.66.42.48-.17Z"/>
    <path class="cls-5" d="M807.65,686.23l-.16.28.28.16c-.14-.08.1-.5-.12-.44Z"/>
    <path class="cls-5" d="M809.49,681.9c-.15,0-.39.15-.58.2l.21.21c.09-.13.15-.37.37-.41Z"/>
    <path class="cls-5" d="M808.91,682.1l-.31-.32c.01.32.14.36.31.32Z"/>
    <polygon class="cls-5" points="808.05 683.73 808.67 684.23 808.02 683.62 808.05 683.73"/>
    <polygon class="cls-5" points="809.38 680.57 809.74 680.73 809.19 680.43 809.38 680.57"/>
    <path class="cls-5" d="M809.24,679.7c.3.12.47-.24.67-.1-.07-.23-.34-.42-.58-.58.14.19.13.39-.08.68Z"/>
    <path class="cls-5" d="M808.97,678.73c.08.09.21.19.35.29-.08-.1-.18-.19-.35-.29Z"/>
    <path class="cls-5" d="M808.62,681.17c.09-.04.32-.11.41-.32l-.41.18s0,.09,0,.14Z"/>
    <path class="cls-5" d="M808.6,681.04h.01c0-.16,0-.26,0-.31,0,.04,0,.13-.01.31Z"/>
    <path class="cls-5" d="M808.62,681.21v-.04s-.06.03,0,.04Z"/>
    <path class="cls-5" d="M808.3,682.75c-.27-.18-.58-.58-.88-.11.31.11.48-.15.88.11Z"/>
    <path class="cls-5" d="M808.11,681.44c-.02.13-.05.26-.06.39.11-.02.27-.11.4-.02-.12-.12-.23-.25-.34-.37Z"/>
    <polygon class="cls-5" points="807.96 681.27 808.11 681.44 808.13 681.29 807.96 681.27"/>
    <path class="cls-5" d="M808.63,679.39c-.2-.15-.23-.32-.28-.52-.06.22-.09.44-.07.66.14.02.38.09.35-.13Z"/>
    <path class="cls-5" d="M808.58,680.19l-.03-.03s-.04.04.03.03Z"/>
    <path class="cls-5" d="M808.26,676.9s-.05.02-.08.03h.07s0-.03,0-.03Z"/>
    <path class="cls-5" d="M808.2,679.57c-.07.17.04.26.18.34-.05-.12-.09-.24-.11-.38-.06,0-.1,0-.08.04Z"/>
    <path class="cls-5" d="M808.74,678.19c-.09.09-.16.19-.22.29.13-.09.34-.27.22-.29Z"/>
    <path class="cls-5" d="M808.66,680.1l.02.02c.09-.06.04-.05-.02-.02Z"/>
    <path class="cls-5" d="M808.66,680.1c-.07-.08-.18-.13-.28-.19.04.1.1.18.17.26.03-.02.07-.05.11-.06Z"/>
    <path class="cls-5" d="M805.5,676.38c.4.02.78.45.37.84.31.36,1.6.06,2.32-.28-.17,0-.33,0-.58-.37-.21.14-.47.85-.84.55-.22-.5.12-.42.32-.67-.48.22-.74-.62-1.46-.5l.27.44c-.11.01-.3-.15-.4-.02Z"/>
    <path class="cls-5" d="M808.17,677.64l.06.15c.06-.18.22-.31.52-.55-.2-.24-.35-.29-.48-.3l-.03.75-.06-.05Z"/>
    <path class="cls-5" d="M808.26,678.48c-.43-.09-.63-.45-1.09-.2.05.45.37.3.58.56-.16-.72.25.19.46-.35.08.14.11.26.14.38.04-.13.09-.26.17-.39l-.03.02h0s0,0,0,0c-.05.03-.09.05-.06,0,0,0,0-.01,0-.01-.06,0-.11-.01-.16-.02.08-.21.11-.04.16.02h.07s0,0,0,0l-.26-.71c-.05.16-.03.35.03.69Z"/>
    <path class="cls-5" d="M806.44,682.36s.07-.03.1-.04c-.06-.04-.1-.06-.1.04Z"/>
    <path class="cls-5" d="M806.66,682.02c.07.05.24.07.22.25-.11.17-.21.02-.34.05.13.09.36.33.52-.02l-.07-.05c.1-.31.6-.75.67-.71-.38.13-.65.24-1,.48Z"/>
    <path class="cls-5" d="M807.34,680.22l-.26-.6-.34.34.22-.03c-.06.36.21.26.39.29Z"/>
    <polygon class="cls-5" points="808.47 676.82 808.93 676.89 808.28 676.56 808.47 676.82"/>
    <polygon class="cls-5" points="808.39 676.04 808.79 676.06 808.54 675.86 808.39 676.04"/>
    <path class="cls-5" d="M814.91,631l-.02-.22c0,.09,0,.16.02.22Z"/>
    <path class="cls-5" d="M814.31,632.21l.16.11c-.07-.1-.13-.16-.16-.11Z"/>
    <path class="cls-5" d="M810.51,656.89c.42-.17,1.05-.31.61-.39l-.44-.03c.03.19-.05.32-.17.41Z"/>
    <path class="cls-5" d="M812.08,643.23s-.1.02-.15.03c.12.11.22.22.32.32-.05-.11-.11-.22-.17-.34Z"/>
    <path class="cls-5" d="M810.48,642.41l.39-.23c-.12.04-.25.11-.39.23Z"/>
    <path class="cls-5" d="M817.86,624.22l-.29-.4c-.16.3.11.27.29.4Z"/>
    <path class="cls-5" d="M808.53,668.01c.19-.21.28-.38.31-.53-.27.24-.67.42-.31.53Z"/>
    <path class="cls-5" d="M818.83,633.48c-.02-.13-.08-.22-.17-.25.02.14.07.23.17.25Z"/>
    <path class="cls-5" d="M808.9,666.84s-.07.07-.11.11c.06.17.1.34.05.54.2-.18.34-.39.06-.64Z"/>
    <path class="cls-5" d="M831.98,601.66s.05-.02.08-.02c-.05-.04-.06-.02-.08.02Z"/>
    <path class="cls-5" d="M839.91,597.74c-.02.08-.09.18-.15.28.06-.03.11-.11.15-.28Z"/>
    <path class="cls-5" d="M808.58,672.9c.03.17.05.03,0,0h0Z"/>
    <path class="cls-5" d="M806.86,673.68s-.11-.07-.21-.07c.1.02.17.04.21.07Z"/>
    <path class="cls-5" d="M806.44,664.83h0c-.09.03-.07.02,0,0Z"/>
    <path class="cls-5" d="M808.38,673.14c.05-.06.1-.13.13-.21-.03.03-.08.1-.13.21Z"/>
    <path class="cls-5" d="M808.58,673.11c-.02.06-.03.1-.04.14.07.02.12,0,.04-.14Z"/>
    <path class="cls-5" d="M808.56,672.66c0,.09-.01.18-.05.27.03-.03.05-.04.07-.04,0-.05-.01-.12-.02-.23Z"/>
    <path class="cls-5" d="M825.33,614.26s.03,0,.05-.01c-.06-.24-.08-.16-.05.01Z"/>
    <path class="cls-5" d="M807.31,651.41s.01.02.01.02l.02-.02h-.04Z"/>
    <path class="cls-5" d="M807.18,650.71c.44.41.34.54.17.7l1.26.15-1.43-.85Z"/>
    <path class="cls-5" d="M816.24,628.05l-.54.22c-.34-.77.04-1.01-.64-.89,1.18.67-.65,1.61.54,2.27l-.39.13c.05-.07-.02-.12.03-.18-.84.22.69.81.2,1.38-.21.18-.46.25-.53.03l.06.66c-.09.14-.29,0-.2-.14l-.27.83-.03-.02c.14.2.32.6.39.78-.27.11-.08-.16-.26-.18l.09.57c-.4.03-.54-.48-.36-.75-1.42-.17.14.5-.99,1.04l.04-.48c-.82-.06-.73.37-1.37.65.27-.01,1.53-.43,1.62.18-.16.09-.28.25-.14.62-.44-.2-.44.1-.56.43l-.57-.28c.02.42.33.52.5.84-.23.35-.71.23-1.13.15-.36.57.91-.1.71.67-.45.4-.37.86-.26,1.62-.35.27-.33-.21-.56-.16l.34.51c-.04.07-.18-.01-.25-.06.07.34.58.27.57.75.61.38-1.31.46-.78,1.28-.22.06-.34-.21-.58-.26.2.91.11.76.54,1.6l-.58.35c.59-.19.94.48,1.22,1.05.27-.05.5-.08.62-.12l.07.77c-.13.04-.31-.1-.52-.3.03.06.06.12.1.17-.31.15-.61-.1-.88-.4.15-.03.3-.06.46-.09-.3-.3-.65-.6-1.01-.7.05.07.08.17.08.28-.08-.08-.16-.14-.23-.14-.07,0,.03.12.15.28l-.73-.1.25.14-.75.7c.45.87,1.26,1.77,1.19,2.83-.41-.41-.79-.33-1.37-.55.71-.05,0-.85.31-1.32-.16.24-.42.08-.49-.02l.24,1.11c-.47-.19-.43.07-.71.24,1.01.15.38.89.56,1.37-.32-.08-.63-.28-.39-.71-.89.26.9,1.02.13,1.31.03-.11.1-.16-.05-.26.2.35-.23.91-.46.67l.03-.11c-.36.7-.73,2.25.06,2.61-.11-.02-.95-.39-1.1-.49l2.36,2.13c-.67-.32-2.47-.34-2.69-1.08-.15.15-.33.34-.19.79.14-.09,1.1-.02,1.12.17-.91.23-.51.2-1.34.57.21-.14,1.24.36,1.14.64-.15-.09-1.1-.27-1.19-.41l.9,1.01c-.15-.23-.91-.27-1.26-.19.23-.02-.18.62-.12.84l.33-.24c-.37.78,1.33,1.19,1.07,1.97-.2-.15-1.33-.57-1.57-.19.52.33,2.52,1.46,2.8,2.25l-.35.07.25.61c-.78-.5-2.35-1.85-2.93-2.54-.32.25-.4,0-.47.47-.34.1-.4-.36-.39-.5l-.43,1.05c.67.09.48.97,1.04,1.04l-.43-1.32c.67.1,1.72,1.08,1.44,1.8-.3.14-1.14-.38-1.37-.41.2.15.28.81.11.85l-.29-.4c-.33.38.75.87.03,1.26-.07.17-.95.38-.56.48.81-.16,3.15.21,3.69.5-.06.05-.88.78-1.29.92-.65.19-1.34-.67-1.89-.51.18.04.37.24.43.32-.19.16-.55-.17-.54.25.65.17-.17.82.54.28.14.43-.2.4-.23.87.46-.08,1.43.63,1.57,1.04-.17-.05-.4.01-.51.04-.17.79-.55,1.19-.62,1.94-.17.05-.4.4-.68.21.11.12.33.25.32.48-.63.4-.04-.53-.78-.26.39.07.49.66.7,1.02.62-.05.19-.76-.02-1.12.84.09,1.66.75,1.98,1.55.15.63-.57.22-.46.34-.24,1.15,1.41,1.08.75,2-.56.35-1.07-.04-1.46.03-.18-.52.38-.76.38-1.1l-.28.41c-.17-.17-.29-.52-.12-.7-.5.29-.2,1.98-.69,2.87.18.17.36.45.58.32l-.07-.29c.44-.25.6.55.8.2.3.39.78.82.53,1.35l-.61.1c.18-.01.37-.35.18-.5.27.22-.84.82-.04,1.06l.43-.37c.31.38.95.84.76,1.31.6-.22-.07-.11.64-.45-.88.29.05-1.18-.88-.72.82-.34.35-.59,1.06-1.02-.2.01-.39.15-.29-.24-.06-.02-.13-.06-.18-.09,0-.01,0-.02.02-.03l-.02.02s-.04-.02,0,0c-.09.09-.2.16-.31.19-.46-.2-.45-.83-.68-1.05.11-.23.23.11.45-.02l-.34-.33c.45-.02.78-.59,1.01-.03l.05-.49c.27-.28.39-.66.21-.92.11-.22-.47-.61-.13-.39l-.23-.79h.11c.13-.75-.59-1.63.3-2.41-.09-.27-.21-.55-.02-.96l.4-.04c-.09-.34.52-.92.14-1.12,1.09-.2.43-1.54.73-2.08l-.5-.11c.1-.39.02-.79-.09-1.31l-.45-.05c-.28-.49.5-1.03.6-1.7.16.08.08.24-.05.34,1.16-.58-.36-1.83.52-2.39-.12-.22-.04-.33.1-.43,0,.02,0,.03.01.05,0-.02.02-.04.02-.07.1-.06.2-.12.3-.19-.13.05-.23.1-.29.15.03-.14.02-.36-.03-.59l.49.03s0-.03,0-.05c.22-.16-.18-.22-.56-.19-.05-.12-.12-.24-.21-.34.8.03-.12-.6.74-.62-.36-.24-.04-1.1-.83-1.44.11.02.18-.02.15.09.16-.2.32-.4.15-.67l.62.07-.65-.72c.45-.2.69-.26,1.06.16-.49-.92-.09-.66-.6-1.48l.37.14c.05-.22-.36-.73,0-.77.89-.26.85-2.39,1.97-3.4-1.19-.14.7-.4-.14-.75.29.02.49-.1.65.18-.03-.72.75-.79.19-1.49.29.02.33.27.51.27-.04-.07-.16-.28.02-.29.18,0,.18.17.26.31.19-.65-.57-1.01-1.3-1.34.48-.19.49-.37.09-.79.29-.02.61-.11.55.32.12-.21.88-1.23.3-1.49.18-.01.17-.3.12-.38.24-.49.31-.51.46-1.02l-.15.1c-.63-.49.01-.47.09-.9l.07.04c.89-.69-.08-.5.87-1.14l-.46-.14c-.92-.49.91-.55.77-1.22l-.33.08c-.2-.43,1.63-.22,1.87-.44.11-.02.09.15.11.27.88-.48-.53-.35-.42-.96.35.04.73.49.95.15.32-.07-.51-1.52.31-1.74-.29,0-.58,0-.63-.34.1-.43,1.38-.62.8-1.32.09-.02.16,0,.22.02-.05-.39.15-1.11-.16-1.48,1.62.47.19-2.19,1.55-1.49l.39-.93.13.09c.39-.52.17-.89-.06-1.26.16-.08.24.08.3.13.71-.69.69-.8.39-1.86l.48.16c-.15-.33,1.33-.82,1.26-1.91.05.04.12.1.15.2-.02-1.2,2.41-1.49,1.02-2.71l-.05-.82c-.56.71-.62-.5-1.06-.33.08-.36.92-.52.79-.1h-.11c.74.62.84-.78,1.38-.44.83-1.54,2.15-2.74,3.03-4.11l-.72-.22.33-.47c.22-.04.59.13.36.46.47.03.05-.77-.07-.86.67-.53.56.71.71.51l.13-.31-.11.02c-.11-.38-.37-.57-.08-.97.29-.19.47.1.56.01.04.03.09,0,.12-.15l.43-.58-.64-.06c-.07-.42.38-.56-.35-.62,1.11.11,1.73-2.09,2.16-2.17-.12-.6.13-.97.46-1.41-.17.05-.77-.23-.44-.59,1.03.87.96-.41,1.98-.21-.72-.06.6-1.21-.46-1.26.31-.27.43.25.86.17.07-1.07,1.41-1.54,1.9-2.61-.14-.11-.47-.1-.55-.45l1.07-.03c.05-.24-.73-.74.01-.75-.16-.03-.39-.08-.35-.24,1.97-1.41,2.01-4.25,4.64-5.25-.46.07-.37-.13-.24-.33-.15.08-.36-.25-.57-.36l1.09-.42c-.45-.52.55-.88.08-1.32l-.08.32c-.39-.76-1.69-.47-2.45-1.06.44.86-1.72.29-1.14,1.59-.26.03-.17-.29-.41-.34.23.39.17.63-.22.88l-.06-.1c-.59,1.05-1.21,1.24-2.19,2.21l.45.18c-.21.21-.37.17-.54.22.41.68.49-.65.98.04-1.01-.22-1.15,1.69-2.2,1.29-.25.37.53.2.28.56l-.31-.07.26.31c-.22.21-.6.13-.82,0,.06-.04.05-.21.08-.28-.5.12-.49.96-.66,1l.39-.26c-.44,1.17-1.59,2.19-1.71,3.51l.24.05c-.14.98-.6.47-.97,1.4l-.03-.06c.08.29.03.57-.13.78-.09-.35-.68.12-.75-.31-.15,1.06.04.6.39,1.58l-.39-.07c.17.36.31.47.12.94-.05-.51-.65-.04-.76-.64-1.24.44-.13,1.73-1.38,1.51.62.95.95-.46,1-.12.4-.01.45.74.19.96-.19.27-1.41-.22-1.83.5.05-.07-.02-.11.03-.18-.39.13-.02.7-.58.81.42.51-.29.4.35.87l.24-.74c-.05.48.53,1.3-.22,1.68-.11-.13-.18-.42-.2-.61-.31.06-.07.42-.39.48-.65-.46.33-.88.06-1.59-.4.02.04,1.05-.58.4.76.85-.54.63-.12,1.55l-.39-.28c.02.11.11.39.02.52l-.37-.57c.21.66-.85.52-.83,1.04.46-.79.6.12,1.1-.04-.04,1.29-1.4-.08-1.85,1.14.03-.18.57-.41.62-.07-.21.16-.52.34-.81.34-.34.78.49.13.56.59-.64-.04,0,.47-.03.88l-.42-.24c-.75.67.74.72-.01,1.28l-.4-.65-.07.48-.43-.35c.11.63-.05.71-.42,1.05.35.07.73.49.54.86-.39.11-.32-.37-.56.19-.2-.27-.45-.58.06-.59-.12-.1-.2-.26-.32-.37-.44.11-.45.65-.55.84.06-.06.13-.14.21-.15l.16,1.09c-.23.03-.3-.13-.37-.3-.04.18.09.39,0,.64-.31-.25-.68-.43-.66-.84l-.02.94c-.18-.03-.62.15-.69-.01-.42.3.13,1.36-.43,1.75.05.06.09.15.07.3-.36.46-1.01.7-.85,1.55l-.8.02c-.11.55,1.03-.06.85.85-.09.66-.64-.07-.92.04.17.44.56,1.25-.21,1.51-.03-.23.13-.32.16-.5ZM813.65,634.12c-.04-.16-.21-.52.08-.48.44.36.15.35-.08.48ZM810.87,643.8c-.11-.14.01-.25.24-.34,0,.13-.07.25-.24.34ZM808.26,671.06s-.01,0-.02-.01c.2-.26.12-.17.02.01ZM808.03,671.61c.06.06.13.06.2.04-.12-.04-.12-.17-.08-.31-.13.03-.22.1-.12.28ZM829.06,614.39l-.17.03c.02-.29.09-.16.17-.03Z"/>
    <path class="cls-5" d="M810.66,642.51c.09,0,.18.02.26.04-.06-.08-.14-.11-.26-.04Z"/>
    <path class="cls-5" d="M817.92,624.3s0-.01.02-.01c-.02-.02-.04-.04-.07-.06l.05.07Z"/>
    <path class="cls-5" d="M804.89,662.22c.09-.11.19-.16.29-.19-.12-.03-.22.01-.29.19Z"/>
    <path class="cls-5" d="M808.78,674.61l-.12-.36c.02.17-.08.24-.16.32.11,0,.28-.08.28.04Z"/>
    <path class="cls-5" d="M805.88,677.86c.06.05.01.12.07.17l.22-.03c-.02-.23-.21-.38-.3-.14Z"/>
    <path class="cls-5" d="M807.18,674.95c-.41.03-.27.26-.2.52,0-.02,0-.03,0-.05.57.07.38-.2.2-.47Z"/>
    <path class="cls-5" d="M807,675.53c.02.08.03.16.02.24.23.03.04-.1-.02-.24Z"/>
    <path class="cls-5" d="M808.26,672.34c-.11.12.51.09.35.15.51.15-.58-.82-.35-.15Z"/>
    <polygon class="cls-5" points="805.84 675.17 806.34 675.07 805.94 674.93 805.84 675.17"/>
    <path class="cls-5" d="M806.22,673.11l-.14.41c.08,0,.13.05.17.11.02-.26.12-.53-.03-.53Z"/>
    <path class="cls-5" d="M806.25,673.64c-.01.13,0,.26.08.34,0-.07-.02-.23-.08-.34Z"/>
    <polygon class="cls-5" points="805.69 674.6 805.8 674.48 805.84 674.18 805.69 674.6"/>
    <path class="cls-5" d="M806.55,668.65l-.1-.46c-.17-.06-.28.05-.23.23.11.12.16.29.33.24Z"/>
    <path class="cls-5" d="M805.08,669.93c.11-.12.22-.12.39-.18l-.62-.06.23.23Z"/>
    <path class="cls-5" d="M805.03,668.58c-.17-.06-.43-.71-.45-.12.17.06.26.54.45.12Z"/>
    <polygon class="cls-5" points="806.7 661.8 806.69 661.91 807.69 662.07 806.7 661.8"/>
    <path class="cls-5" d="M805.57,655.27c-.37.48.58.28.16.69.2.18.34-.34.51-.16-.17-.38.02-.52-.67-.53Z"/>
    <path class="cls-5" d="M806.24,655.79c.03.06.06.13.11.2-.04-.11-.07-.16-.11-.2Z"/>
    <polygon class="cls-5" points="841.09 597 841.46 596.83 841.05 596.82 841.09 597"/>
    <path class="cls-5" d="M840.84,596.02l.58.3-.37-.5c-.02.08-.06.24-.22.2Z"/>
    <path class="cls-5" d="M812.05,634.48l.13.09c.18.02.22-.05.31-.19l-.45.1Z"/>
    <polygon class="cls-5" points="814.54 630.32 814.49 630.39 815.09 630.51 814.54 630.32"/>
    <path class="cls-5" d="M815.69,626.38c-.1.13-.07.37-.17.5.07-.37.84-.21.17-.5Z"/>
  </g>
  <g>
    <path class="cls-5" d="M1500.62,669.71c.05.14.37-.13.45-.16-.22-.15-.53.22-.45.16Z"/>
    <polygon class="cls-5" points="1498.46 668.24 1498.63 668.18 1498.08 668.12 1498.46 668.24"/>
    <path class="cls-5" d="M1497.2,666.37c-.47.58.56.61.57,1.09l-.1.15.58-.17c-.35-.35-1.02-.66-1.05-1.06Z"/>
    <path class="cls-5" d="M1497.78,664.49c-.18.22-.34-.08.09.28,0-.04.02-.06.03-.08-.03-.04-.07-.09-.12-.2Z"/>
    <path class="cls-5" d="M1497.9,664.69c.15.19.1-.26,0,0h0Z"/>
    <path class="cls-5" d="M1497.13,663.88l.39.11c.09-.15-.04-.4.12-.38-.3-.18-.4-.03-.51.27Z"/>
    <path class="cls-5" d="M1496.53,663.94l.18.07c.04-.06.03-.11-.18-.07Z"/>
    <path class="cls-5" d="M1497.09,664.16l-.38-.15c-.07.1-.25.24.16.08-.19.1.02.04.23.07Z"/>
    <path class="cls-5" d="M1497.12,664.38c-.02.23.03.47-.36.36.42.44.79.07.36-.36Z"/>
    <path class="cls-5" d="M1496.53,666.7l-.04.31.31.03c-.15-.02-.1-.48-.27-.34Z"/>
    <path class="cls-5" d="M1496.27,662.08c-.13.07-.27.32-.41.46l.28.09c.01-.16-.04-.4.13-.54Z"/>
    <path class="cls-5" d="M1495.86,662.53l-.42-.13c.16.27.29.24.42.13Z"/>
    <polygon class="cls-5" points="1495.85 664.36 1496.63 664.5 1495.78 664.27 1495.85 664.36"/>
    <polygon class="cls-5" points="1495.5 660.99 1495.9 660.94 1495.27 660.97 1495.5 660.99"/>
    <path class="cls-5" d="M1494.93,660.31c.32-.06.28-.46.51-.44-.18-.16-.51-.18-.79-.2.22.08.31.27.28.63Z"/>
    <path class="cls-5" d="M1494.21,659.62c.11.04.27.04.44.05-.12-.04-.25-.07-.44-.05Z"/>
    <path class="cls-5" d="M1495.16,661.88c.06-.08.22-.26.19-.48l-.26.36s.05.07.08.11Z"/>
    <path class="cls-5" d="M1495.08,661.78h0c-.08-.14-.13-.23-.15-.26.02.03.06.11.15.26Z"/>
    <path class="cls-5" d="M1495.18,661.91l-.02-.03s-.03.05.02.03Z"/>
    <path class="cls-5" d="M1495.63,663.4c-.31-.03-.77-.22-.83.33.32-.05.35-.36.83-.33Z"/>
    <path class="cls-5" d="M1494.85,662.36l.14.36c.09-.07.18-.22.34-.21l-.47-.14Z"/>
    <polygon class="cls-5" points="1494.63 662.3 1494.85 662.36 1494.8 662.23 1494.63 662.3"/>
    <path class="cls-5" d="M1494.26,660.37c-.24-.02-.36-.15-.5-.29.06.22.15.42.27.59.12-.06.37-.13.23-.3Z"/>
    <path class="cls-5" d="M1494.63,661.08h-.04s-.02.05.04,0Z"/>
    <path class="cls-5" d="M1492.59,658.54s-.03.05-.04.07l.06-.04-.02-.03Z"/>
    <path class="cls-5" d="M1493.99,660.75c.03.18.17.19.33.19-.1-.07-.2-.16-.28-.26-.06.03-.09.05-.04.08Z"/>
    <path class="cls-5" d="M1493.73,659.31c-.02.12-.02.24-.02.36.06-.15.13-.41.02-.36Z"/>
    <path class="cls-5" d="M1494.65,660.95h.03c.04-.09.01-.06-.03,0Z"/>
    <path class="cls-5" d="M1494.65,660.95c-.1-.03-.22-.02-.33-.01.08.06.17.1.27.13.01-.03.04-.08.06-.11Z"/>
    <path class="cls-5" d="M1490.05,659.75c.33-.22.88-.12.76.42.45.1,1.35-.87,1.74-1.56-.14.1-.27.19-.68.05-.09.23.09.94-.38.92-.46-.26-.13-.4-.11-.71-.27.46-.94-.04-1.45.48l.46.17c-.08.07-.32.06-.33.22Z"/>
    <path class="cls-5" d="M1492.94,659.19l.13.09c-.05-.18,0-.37.11-.74-.31-.08-.46-.03-.57.03l.41.62h-.08Z"/>
    <path class="cls-5" d="M1493.48,659.81c-.41.16-.78,0-1.02.45.29.33.47.03.78.13-.5-.51.31.02.21-.54.14.07.23.16.32.24-.03-.13-.05-.27-.06-.42v.03s0,0,0,0h0c-.02.06-.05.09-.04.04,0,0-.02,0-.02,0-.05.03-.1.05-.15.07-.05-.22.07-.09.15-.07l.06-.03h0s-.62-.43-.62-.43c.04.16.17.29.41.53Z"/>
    <path class="cls-5" d="M1493.83,663.96s.04-.06.07-.08c-.07,0-.11,0-.07.08Z"/>
    <path class="cls-5" d="M1493.87,663.58c.08,0,.24-.06.31.1-.02.19-.17.12-.28.21.15.01.46.1.44-.27h-.08c-.05-.32.17-.93.25-.93-.26.3-.44.52-.64.89Z"/>
    <path class="cls-5" d="M1493.58,661.75l-.52-.35-.12.46.17-.15c.13.32.31.1.47.03Z"/>
    <polygon class="cls-5" points="1492.72 658.36 1493.13 658.14 1492.41 658.26 1492.72 658.36"/>
    <polygon class="cls-5" points="1492.2 657.78 1492.53 657.56 1492.22 657.55 1492.2 657.78"/>
    <path class="cls-5" d="M1459.04,630.14l-.2-.02c.08.03.15.03.2.02Z"/>
    <path class="cls-5" d="M1459.97,630.95l.15-.13c-.11.04-.18.09-.15.13Z"/>
    <path class="cls-5" d="M1479.94,643.37c.1-.44.32-1.04.02-.71l-.26.35c.18.08.24.21.25.36Z"/>
    <path class="cls-5" d="M1469.04,636.04s-.02.1-.04.15c.15-.07.28-.13.41-.18-.11.01-.24.02-.37.04Z"/>
    <path class="cls-5" d="M1467.67,637.23l-.05-.43c-.01.12,0,.26.05.43Z"/>
    <path class="cls-5" d="M1453.55,626.25l-.43.22c.24.19.28-.07.43-.22Z"/>
    <path class="cls-5" d="M1487.14,651.72c0-.28-.07-.46-.15-.59-.02.36-.17.77.15.59Z"/>
    <path class="cls-5" d="M1462.39,626.94c-.13,0-.22.03-.28.11.13.01.23,0,.28-.11Z"/>
    <path class="cls-5" d="M1486.59,650.65c0,.06,0,.1,0,.15.16.08.31.16.41.33.02-.27-.04-.52-.4-.49Z"/>
    <path class="cls-5" d="M1433.77,612.06s-.02-.04-.02-.07c-.04.05-.02.06.02.07Z"/>
    <path class="cls-5" d="M1429.77,604.66c.08.01.18.07.28.12-.03-.05-.11-.09-.28-.12Z"/>
    <path class="cls-5" d="M1490.45,655.21c.12.11.05,0,0,0h0Z"/>
    <path class="cls-5" d="M1489.59,656.9c-.06,0-.12.02-.21.08.09-.05.16-.08.21-.08Z"/>
    <path class="cls-5" d="M1483.49,651.16s0,0,0-.01c-.03.09-.03.07,0,.01Z"/>
    <path class="cls-5" d="M1490.44,655.53c0-.08,0-.17-.03-.25,0,.05,0,.12.03.25Z"/>
    <path class="cls-5" d="M1490.58,655.38c.02.06.04.1.05.14.07-.03.09-.07-.05-.14Z"/>
    <path class="cls-5" d="M1490.29,655.05c.06.07.1.15.13.24,0-.04.01-.07.03-.07-.03-.03-.08-.08-.16-.17Z"/>
    <path class="cls-5" d="M1445.37,618.25s0-.03,0-.05c-.24.06-.16.07,0,.05Z"/>
    <path class="cls-5" d="M1473.79,643.41s.02,0,.03,0v-.03s-.03.03-.03.03Z"/>
    <path class="cls-5" d="M1473.15,643.23c.56-.2.61-.06.66.15l.76-1.01-1.42.85Z"/>
    <path class="cls-5" d="M1456.7,628.34l.06.56c-.78.18-.91-.21-.96.45.91-1.01,1.28.89,2.19-.11l.02.39c-.05-.06-.11,0-.16-.06-.02.83.92-.51,1.31.07.11.23.11.48-.12.5l.61.08c.1.12-.08.27-.18.16l.67.42-.03.03c.22-.09.63-.18.82-.2.03.28-.17.04-.24.21l.55.03c-.09.38-.59.41-.79.17-.57,1.29.51-.03.64,1.15l-.42-.14c-.31.76.11.76.14,1.43.08-.26.1-1.53.68-1.47.03.17.13.32.5.28-.32.36-.05.44.2.63l-.44.47c.37.09.57-.18.91-.26.24.3-.03.72-.24,1.09.38.48.22-.87.83-.49.21.52.65.55,1.35.67.11.4-.31.25-.34.47l.58-.17c.05.06-.08.16-.14.21.33.03.45-.46.87-.31.56-.45-.07,1.33.84,1.09-.03.22-.31.25-.45.45.87.1.69.13,1.6.01l.07.64c.07-.6.79-.69,1.41-.75.07-.26.13-.48.14-.6l.71.2c-.02.13-.21.24-.48.36.07,0,.13-.02.19-.03,0,.33-.34.52-.7.66.03-.14.07-.3.1-.45-.38.17-.79.38-1.02.68.08-.02.18-.02.27.02-.1.05-.19.1-.22.16-.03.06.12,0,.31-.04l-.39.62.22-.18.3.9c.93-.1,2.05-.51,2.95-.04-.53.2-.63.57-1.08,1.01.28-.66-.73-.31-.99-.75.14.23-.11.4-.23.43l1.06.18c-.37.35-.13.4-.12.72.58-.84.93,0,1.4.03-.22.25-.52.44-.77.07-.19.88,1.27-.39,1.15.4-.08-.07-.09-.15-.24-.06.39-.03.65.57.34.67l-.08-.07c.42.59,1.52,1.54,2.2,1.02-.07.08-.8.65-.95.74l2.95-1.09c-.6.43-1.55,1.94-2.27,1.81.04.19.11.42.54.5,0-.16.56-.94.72-.87-.29.88-.11.52-.24,1.39,0-.23.95-.89,1.12-.66-.15.09-.8.8-.96.81l1.28-.28c-.26.01-.71.63-.84.96.11-.2.39.44.59.5v-.39c.39.68,1.67-.53,2.15.08-.23.09-1.2.81-1.04,1.18.54-.26,2.58-1.3,3.37-1.1l-.15.32.63.13c-.86.34-2.84.9-3.69,1.03,0,.39-.23.32.08.62-.12.32-.5.15-.6.07l.53.86c.47-.49,1.02.11,1.4-.29-.41-.12-.84-.22-1.25-.33.46-.48,1.85-.84,2.23-.21-.08.32-.98.7-1.13.86.23-.09.77.21.69.37h-.47c.07.48,1.09-.1.92.69.08.15-.32.94,0,.7.4-.71,2.14-2.32,2.69-2.57,0,.08.03,1.14-.13,1.53-.27.6-1.35.64-1.58,1.15.14-.11.41-.15.51-.15,0,.23-.48.32-.17.55.55-.4.46.61.55-.25.39.15.15.39.46.69.24-.39,1.39-.69,1.78-.54-.15.1-.26.31-.31.4.46.6.47,1.13.92,1.67-.08.16-.02.55-.34.62.16,0,.39-.08.54.08-.18.7-.38-.31-.72.39.32-.23.78.08,1.16.16.41-.46-.37-.63-.75-.71.65-.54,1.67-.69,2.44-.37.54.32-.26.54-.1.55.59.94,1.74-.21,1.86.89-.18.62-.82.68-1.07.99-.46-.24-.2-.78-.43-1.02l.06.47c-.24,0-.54-.16-.53-.4-.19.54,1.13,1.48,1.29,2.44.23,0,.54.1.63-.14l-.22-.17c.19-.47.78.03.73-.37.46.1,1.09.12,1.21.68l-.42.45c.13-.12.08-.49-.15-.49.35,0-.17,1.13.6.82l.11-.54c.47.1,1.26.06,1.38.53.35-.53-.12-.04.24-.73-.52.76-.69-.94-1.14-.02.44-.77-.08-.67.21-1.45-.15.14-.21.36-.37,0-.06.02-.14.04-.19.04,0-.01,0-.02,0-.03v.03s-.05,0,0,.01c-.01.13-.05.25-.12.34-.48.14-.84-.35-1.15-.36-.06-.24.24-.07.33-.3l-.47-.02c.33-.3.2-.93.74-.68l-.29-.38c.02-.38-.16-.74-.46-.81-.07-.24-.75-.13-.35-.2l-.7-.41.08-.08c-.43-.61-1.55-.7-1.47-1.88-.25-.12-.52-.23-.69-.64l.24-.31c-.31-.16-.34-.98-.74-.82.56-.94-.86-1.33-1.1-1.87l-.4.32c-.24-.31-.59-.5-1.06-.73l-.31.32c-.55-.07-.47-1.02-.94-1.48.16-.08.23.07.23.23.24-1.28-1.67-.72-1.61-1.75-.24-.02-.29-.15-.29-.32.01.01.03.02.05.02,0-.02-.03-.04-.05-.06,0-.11.01-.23,0-.34-.03.13-.05.24-.03.32-.1-.09-.28-.21-.5-.28l.29-.39s-.02-.02-.04-.03c0-.27-.28.04-.47.36-.13-.02-.26-.02-.4,0,.46-.65-.56-.21-.1-.94-.39.18-.92-.54-1.61-.03.08-.08.07-.16.15-.09-.08-.23-.17-.46-.48-.45l.38-.49-.94.21c.06-.47.12-.71.67-.83-1.03,0-.61-.23-1.55-.16l.3-.26c-.17-.15-.79-.02-.65-.34.19-.88-1.63-1.79-2.03-3.18-.64,1-.05-.79-.72-.17.14-.25.12-.48.44-.51-.66-.25-.4-.98-1.25-.74.14-.25.38-.2.45-.36-.08,0-.31.03-.25-.13.07-.16.23-.1.39-.12-.51-.42-1.15.15-1.73.69.02-.5-.14-.58-.67-.36.1-.27.14-.6.5-.39-.14-.19-.76-1.24-1.21-.79.06-.17-.2-.25-.29-.24-.35-.38-.34-.46-.75-.76l.03.17c-.66.43-.42-.16-.79-.36l.06-.05c-.32-1.03-.48-.07-.74-1.15l-.28.39c-.75.71-.2-.99-.86-1.06l-.04.33c-.45.07.32-1.59.19-1.88.01-.11.17-.04.28-.03-.17-.97-.49.4-1.01.13.15-.33.67-.56.42-.86.03-.33-1.55.08-1.53-.75-.08.27-.16.54-.5.52-.37-.19-.2-1.46-1.02-1.07,0-.09.04-.15.08-.2-.38-.04-1-.38-1.43-.16.84-1.46-2-.62-1.02-1.79l-.79-.55.12-.1c-.41-.47-.82-.31-1.21-.16-.05-.17.13-.22.18-.27-.51-.79-.62-.8-1.68-.67l.25-.44c-.34.1-.54-1.41-1.58-1.5.04-.04.11-.1.21-.12-1.12-.16-1.04-2.55-2.43-1.32l-.79-.03c.59.61-.57.55-.47,1-.33-.11-.36-.94.02-.78v.11c.68-.66-.64-.89-.24-1.39-1.36-.95-2.35-2.35-3.62-3.25l-.27.7-.42-.34c-.02-.22.17-.58.47-.33.07-.46-.73-.09-.83.04-.45-.67.73-.53.55-.68l-.29-.14v.11c-.37.1-.57.35-.93.05-.16-.29.13-.46.05-.55.03-.04.01-.09-.13-.12l-.53-.44-.1.63c-.41.06-.51-.39-.62.33.2-1.11-1.9-1.74-1.97-2.14-.59.12-.93-.11-1.34-.44.04.17-.25.76-.58.45.87-1.03-.37-.93-.15-1.94-.08.71-1.15-.56-1.22.48-.25-.29.25-.44.18-.86-1.02-.06-1.48-1.33-2.51-1.75-.11.14-.09.47-.43.57l-.04-1.05c-.23-.04-.7.76-.72.04-.03.16-.07.39-.23.36-.7-.92-1.72-1.35-2.72-1.84-1-.47-1.95-1.03-2.51-2.27.09.44-.1.38-.3.27.09.14-.22.38-.31.6l-.47-1.03c-.47.5-.88-.44-1.26.06l.31.04c-.69.47-.33,1.72-.85,2.53.78-.53.36,1.65,1.56.93.04.25-.27.2-.3.44.35-.27.58-.24.84.11l-.09.07c1.01.46,1.23,1.03,2.17,1.9l.16-.46c.2.19.17.35.22.52.63-.46-.62-.42.02-.96-.19,1.01,1.61.99,1.25,2.06.35.22.18-.53.53-.31l-.06.31.29-.27c.2.19.12.58,0,.8-.04-.06-.19-.04-.27-.05.12.48.9.41.95.57l-.24-.36c1.1.35,2.07,1.38,3.29,1.47l.05-.23c.92.1.42.57,1.29.9l-.06.03c.27-.09.54-.05.73.11-.34.09.08.66-.33.74,1,.12.56-.05,1.52-.42l-.09.38c.36-.17.47-.31.9-.14-.49.06-.07.63-.65.75.35,1.19,1.63.11,1.33,1.34.94-.6-.36-.94-.03-.98.02-.4.73-.43.92-.17.24.19-.31,1.38.33,1.8-.06-.05-.11.01-.17-.03.09.38.66.03.71.58.52-.4.35.29.85-.33l-.68-.25c.44.06,1.28-.49,1.57.26-.13.1-.42.16-.59.18.02.3.39.09.42.39-.5.62-.8-.35-1.5-.1-.02.39.99-.01.32.57.88-.72.54.54,1.45.16l-.3.37c.11-.01.38-.1.5,0l-.58.35c.65-.19.4.83.88.84-.68-.49.18-.58.1-1.07,1.21.1-.24,1.36.82,1.87-.17-.04-.31-.58.02-.61.12.21.25.53.21.81.68.38.19-.46.63-.51-.13.62.44.04.83.09l-.29.39c.52.77.79-.67,1.2.1l-.67.34.44.11-.4.39c.6-.06.65.11.91.49.12-.33.57-.66.9-.44.04.39-.4.28.09.55-.28.17-.62.39-.55-.11-.11.11-.28.17-.4.28.03.43.53.49.69.6-.05-.06-.11-.13-.1-.22l1.04-.04c-.01.22-.18.28-.34.33.16.06.38-.05.59.07-.29.27-.52.6-.9.54l.86.13c-.06.17.02.61-.15.66.19.44,1.28.04,1.53.62.07-.04.16-.06.29-.03.36.39.42,1.06,1.25,1.02l-.16.76c.48.18.18-.98.99-.69.59.18-.21.6-.18.88.44-.09,1.28-.33,1.32.45-.22-.01-.26-.18-.42-.24ZM1461.49,631.99c-.15,0-.53.08-.41-.19.46-.33.37-.06.41.19ZM1469.05,637.33c-.17.05-.22-.09-.2-.33.11.05.19.15.2.33ZM1489.02,654.06s-.02,0-.03,0c-.02-.32-.02-.2.03,0ZM1489.21,654.62c.09,0,.14-.04.18-.1-.12.05-.21-.04-.27-.17-.07.11-.1.22.09.28ZM1445.8,614.6l.02.16c-.28-.02-.15-.09-.02-.16Z"/>
    <path class="cls-5" d="M1467.83,637.09c.03-.08.09-.15.14-.22-.09.03-.15.09-.14.22Z"/>
    <path class="cls-5" d="M1453.63,626.2s0,0-.01-.02c-.03.02-.05.04-.07.06l.08-.04Z"/>
    <path class="cls-5" d="M1480.62,650.78c-.02-.13,0-.23.04-.33-.09.07-.13.18-.04.33Z"/>
    <path class="cls-5" d="M1491.66,656.42l-.32-.2c.12.12.08.23.07.35.08-.08.17-.23.25-.15Z"/>
    <path class="cls-5" d="M1491.17,660.65c.08,0,.07.08.15.09l.17-.15c-.15-.16-.38-.17-.32.06Z"/>
    <path class="cls-5" d="M1490.59,657.66c-.3.27-.06.36.15.51-.01-.01-.02-.02-.03-.03.49-.29.18-.38-.12-.48Z"/>
    <path class="cls-5" d="M1490.79,658.21c.06.05.12.1.15.17.2-.12-.02-.1-.15-.17Z"/>
    <path class="cls-5" d="M1489.86,655c0,.16.45-.27.36-.11.48-.22-.97-.23-.36.11Z"/>
    <polygon class="cls-5" points="1489.66 658.64 1490 658.26 1489.6 658.4 1489.66 658.64"/>
    <path class="cls-5" d="M1488.76,656.88l.13.4c.06-.06.13-.05.2-.02-.13-.2-.22-.47-.33-.37Z"/>
    <path class="cls-5" d="M1489.09,657.26c.07.11.15.19.26.2-.05-.05-.15-.16-.26-.2Z"/>
    <polygon class="cls-5" points="1489.21 658.31 1489.23 658.15 1489.08 657.91 1489.21 658.31"/>
    <path class="cls-5" d="M1486.17,653.55l-.38-.24c-.16.08-.17.23-.01.31.16,0,.31.08.4-.07Z"/>
    <path class="cls-5" d="M1485.94,655.42c0-.15.09-.23.17-.39l-.49.38h.31Z"/>
    <path class="cls-5" d="M1485.04,654.55c-.16.08-.77-.16-.4.23.16-.08.54.16.4-.23Z"/>
    <polygon class="cls-5" points="1481.46 649.16 1481.54 649.24 1482.3 648.55 1481.46 649.16"/>
    <path class="cls-5" d="M1475.87,646.63c.16.53.54-.34.63.2.26-.08-.07-.44.16-.49-.39-.05-.4-.26-.79.3Z"/>
    <path class="cls-5" d="M1476.66,646.33c.06,0,.13.01.22,0-.11-.02-.17-.02-.22,0Z"/>
    <polygon class="cls-5" points="1428.98 603.59 1428.8 603.24 1428.82 603.64 1428.98 603.59"/>
    <path class="cls-5" d="M1428.07,603.94l.24-.61-.45.42c.08.01.23.03.21.19Z"/>
    <path class="cls-5" d="M1461.3,633.57l.12-.1c.07-.16.03-.22-.07-.34l-.05.44Z"/>
    <polygon class="cls-5" points="1458.32 630.37 1458.37 630.42 1458.64 629.88 1458.32 630.37"/>
    <path class="cls-5" d="M1455.05,628.6c.1.11.32.12.42.24-.31-.13.01-.83-.42-.24Z"/>
  </g>
</svg>