<?xml version="1.0" encoding="UTF-8"?>
<svg id="_레이어_1" data-name="레이어 1" xmlns="http://www.w3.org/2000/svg" viewBox="0 0 5442.52 3061.42">
  <defs>
    <style>
      .cls-1 {
        font-family: ChalkboardSE-Regular, 'Chalkboard SE';
        font-size: 287.04px;
        stroke: #000;
        stroke-miterlimit: 10;
        stroke-width: .3px;
      }

      .cls-1, .cls-2 {
        fill: #000;
      }

      .cls-2 {
        stroke-width: 0px;
      }

      .cls-3 {
        letter-spacing: -.04em;
      }
    </style>
  </defs>
  <g>
    <g>
      <path class="cls-2" d="M2026.76,1520.25c8.91,18.79,15.46,38.55,20.79,58.63,2.32,33.93,3.12,68.57-6.07,101.83-1.6,5.3-3.52,10.87-5.92,15.88-4.38,10.87-13.51,18.71-24.59,21.35-8.84,2.13-19.07,1.27-26.64-4.03-9.73-6.69-14.72-20.3-9.32-31.24,5.94-12.59,19.78-20.21,33.17-20.71,1.11-.05,4.27-.24,5.44-.29,53.12-3.93,106.63-5.81,159.83-.97,4.51,1.13,10.51,3.02,14.96,4.33,3.98,1.2,10.83,3.37,14.78,4.84,3.74,1.35,10.84,3.78,14.56,5.38,4.8,1.98,9.57,3.94,14.28,6.05-5.19.42-10.31.69-15.41.98-7.27.33-15.56,1.14-22.8,1.52-7.38.74-15.27,1.18-22.57,2-19.63-1.78-39.39-2.59-59.17-2.77-34.61-.46-69.26,1.93-103.84,4.19-4.33.5-8.4,2.57-10.39,6.11.15-.25.13-.49.18-.78-.06-.48-.1-.38.13,0,.18.29.6.69.85.83,3.21,1.11,9.1.06,11.59-3.36.6-.68,1.73-3.19,2.14-4.06.82-1.61,1.82-4.26,2.5-5.98,4.71-13.15,6.7-26.7,7.82-40.83,1.18-16.78,1.09-34.01-.28-50.86-.34-2.43-.8-4.85-.59-7.32,1.99-20.25,3.3-40.28,4.61-60.72h0Z"/>
      <path class="cls-2" d="M3658.16,1520.25c1.31,20.44,2.62,40.46,4.61,60.72.21,2.47-.25,4.89-.59,7.32-1.37,16.86-1.47,34.09-.28,50.86,1.24,15.2,3.37,29.88,9.02,43.86.36.91.83,2.07,1.3,2.94.36.78,1.55,3.4,2.14,4.06,2.48,3.42,8.4,4.48,11.59,3.36-.02.05.05-.06.11-.05.06-.09.17-.1.25-.22.2-.15.35-.39.49-.55.22-.38.19-.48.13,0,.05.21,0,.49.13.66.02.04,0,.07.01.09-1.84-3.39-6.07-5.62-10.36-6.08-34.59-2.26-69.24-4.65-103.84-4.18-19.78.17-39.54.99-59.17,2.77-7.3-.8-15.23-1.28-22.57-2-7.25-.38-15.54-1.19-22.8-1.52-5.1-.29-10.23-.56-15.41-.98,4.71-2.11,9.48-4.08,14.28-6.05,3.86-1.65,10.53-3.94,14.56-5.38,4.1-1.48,10.5-3.59,14.78-4.84,4.46-1.35,10.54-3.18,14.96-4.33,50.71-4.56,101.76-3.22,152.4.48,2.31.16,8.76.58,11.01.68,14.05.08,28.78,7.57,35.02,20.81,5.38,10.94.41,24.55-9.33,31.24-7.58,5.29-17.8,6.15-26.64,4.03-11.1-2.66-20.19-10.46-24.59-21.35-2.39-5.01-4.32-10.58-5.92-15.88-9.19-33.25-8.39-67.89-6.07-101.83,5.32-20.08,11.88-39.83,20.79-58.63h0Z"/>
      <path class="cls-2" d="M2026.76,1447.91c-1.31-20.44-2.62-40.46-4.61-60.72-.21-2.47.25-4.89.59-7.32,1.37-16.86,1.47-34.09.28-50.86-1.24-15.2-3.37-29.88-9.02-43.86-.36-.91-.83-2.07-1.29-2.94-.36-.78-1.55-3.4-2.14-4.06-2.48-3.42-8.4-4.48-11.59-3.36.02-.05-.05.06-.11.05-.06.09-.17.1-.25.22-.2.15-.35.39-.49.55-.22.38-.18.48-.13,0-.05-.2,0-.49-.13-.65-.02-.06,0-.09-.04-.13,1.99,3.55,6.06,5.61,10.39,6.11,34.59,2.26,69.24,4.65,103.84,4.18,19.78-.17,39.54-.99,59.17-2.77,7.3.8,15.23,1.28,22.57,2,7.25.38,15.54,1.19,22.8,1.52,5.1.29,10.23.56,15.41.98-4.71,2.11-9.48,4.08-14.28,6.05-3.86,1.65-10.53,3.94-14.56,5.38-4.1,1.48-10.5,3.59-14.78,4.84-4.46,1.35-10.54,3.18-14.96,4.33-50.71,4.56-101.76,3.22-152.4-.48-2.31-.16-8.76-.58-11.01-.68-14.05-.08-28.78-7.57-35.02-20.81-5.38-10.94-.41-24.55,9.33-31.24,7.58-5.29,17.8-6.15,26.64-4.03,11.1,2.66,20.19,10.46,24.59,21.35,2.4,5.02,4.32,10.58,5.92,15.88,9.19,33.25,8.39,67.89,6.07,101.83-5.32,20.08-11.88,39.83-20.79,58.63h0Z"/>
    </g>
    <path class="cls-2" d="M3658.16,1447.91c-8.91-18.8-15.46-38.55-20.79-58.63-2.31-33.93-3.12-68.57,6.07-101.83,1.6-5.3,3.52-10.87,5.92-15.88,4.38-10.87,13.51-18.71,24.59-21.35,8.84-2.13,19.07-1.27,26.64,4.03,9.73,6.69,14.72,20.3,9.32,31.24-5.94,12.59-19.78,20.21-33.17,20.71-1.11.05-4.27.24-5.44.29-53.12,3.93-106.63,5.81-159.83.97-4.51-1.13-10.51-3.02-14.96-4.33-3.98-1.2-10.83-3.37-14.78-4.84-3.74-1.35-10.84-3.78-14.56-5.38-4.8-1.98-9.57-3.94-14.28-6.05,5.19-.42,10.31-.69,15.41-.98,7.27-.33,15.56-1.14,22.8-1.52,7.38-.74,15.27-1.18,22.57-2,19.63,1.78,39.39,2.59,59.17,2.77,34.61.46,69.26-1.93,103.84-4.18,4.29-.46,8.54-2.69,10.36-6.08-.02.03,0,.06-.01.09-.12.16-.09.45-.13.65.06.48.1.38-.13,0-.18-.29-.6-.69-.85-.83-.02-.03.09.06.21.06-3.95-1.33-9.4.11-11.8,3.3-.6.68-1.73,3.19-2.14,4.06-.82,1.61-1.82,4.26-2.5,5.98-4.71,13.15-6.7,26.7-7.82,40.83-1.18,16.78-1.09,34.01.28,50.86.34,2.43.8,4.85.59,7.32-1.99,20.25-3.3,40.28-4.61,60.72h0Z"/>
  </g>
  <text class="cls-1" transform="translate(2256.77 1568.56) rotate(.71)"><tspan x="0" y="0">C</tspan><tspan class="cls-3" x="168.41" y="0">L</tspan><tspan x="306.7" y="0">OSING</tspan></text>
</svg>