<?xml version="1.0" encoding="UTF-8"?>
<svg id="_레이어_1" data-name="레이어 1" xmlns="http://www.w3.org/2000/svg" viewBox="0 0 5442.52 3061.42">
  <defs>
    <style>
      .cls-1 {
        fill: #020202;
      }

      .cls-1, .cls-2 {
        stroke-width: 0px;
      }

      .cls-2 {
        fill: #fff;
      }
    </style>
  </defs>
  <polygon class="cls-2" points="5045.44 1948.21 4457.02 1940.97 3950.59 1969.91 3231.78 1954.73 2977.06 1925.61 2681.8 1929.35 2322.39 1952.79 986.77 1942.95 465.54 1942.42 448.02 1709.26 457.87 1528.64 448.02 1427.93 460.06 1262.64 450.43 1173.06 987.56 1190.68 2337.54 1162.42 2684.62 1184.62 3003.93 1186.45 3333.74 1161.27 5041.38 1173.06 5053.14 1462.41 5034.24 1562.03 5050.23 1672.56 5045.44 1948.21"/>
  <g>
    <path class="cls-1" d="M453.51,1355.74c.74-23.09.14-45.85-.16-68.8.59-4.93,1.02-10.54,1.21-15.54,1.12-27.11.74-55.17-6.05-81.29-2.1-7.47-4.54-14.95-8.48-21.6-3.91-5.58-11.83-7.83-18.28-5.81-1.95.55-3.89,3.08-4.21,4.62-.16.82-.12,1.23.17,1.91,3.12,6.21,11.12,9.71,18.33,9.52,257.98,3.78,516.19,5.82,774.18,3.5,70.38,1.09,141,2.33,211.39,1.74,21.13-.23,42.27-.51,63.37-1.73,7.02-.48,14.06-.92,21.04-1.93-13.82,2.92-27.91,4.41-41.95,5.89-42.16,4.22-84.48,6.57-126.76,8.9-42.29,2.09-84.59,3.99-126.91,5.45-253.83,1.6-507.73.11-761.55-3.54,0,0-10.62-.21-10.62-.21-4.01-.06-8.4-.2-12.38-1.21-14.18-3.15-29.52-16.64-25.81-32.45,2.06-8.31,8.39-15.11,16.49-17.68,13.76-4.28,29.91.73,38.25,12.69,12.63,21.14,15.95,46.98,17.67,70.84,1.14,18.12.58,36.01-.44,53.98-.05,3.59-.19,7.18-1.03,10.69-4.37,21.07-9.97,41.92-17.44,62.07h0Z"/>
    <path class="cls-1" d="M5045.52,1350.12c-7.53-20.37-13.17-41.52-17.56-62.8-1.19-4.92-.84-9.99-1.22-15-1.51-27-1.47-54.06,3.42-80.93,2.32-12.43,5.88-25.04,11.7-36.43.71-1.48,1.62-2.95,2.56-4.29,7.87-11.1,22.33-16.2,35.46-13.38,10.32,1.93,18.62,10.57,19.97,21.03.7,5.4-1.05,11.04-4.24,15.4-6.84,9.94-18.57,15.45-30.37,15.85-7.51.21-24.6.31-32.36.39-223.92,1.29-447.78.25-671.69-3.21-39.31-1.54-79.2-4.12-118.46-6.5-52.53-4.06-105.53-6.25-157.38-16.02,12.41,1.71,26.74,2.36,39.35,2.95,72.28,2.48,144.79,1.7,217.12,1.18,240.07,3.79,480.32,5.3,720.44,3.27,0,0,2.32-.06,2.32-.06.41,0,.63-.04.95-.06,5.86-.3,12.26-3.42,15.28-8.02.62-.95,1.35-1.89,1.19-3.08-.12-1.59-2.31-4.57-4.25-5.11-4.62-1.47-9.97-.82-14.11,1.68-2.4,1.46-4.23,3.32-5.48,5.7-.94,1.8-1.78,3.65-2.6,5.52-8.43,20.31-10.62,42.39-11.47,64.39-.4,16.02-.17,32.31,1.56,48.34.26,3.06-.11,6.74-.13,9.78-.48,19.6-.48,39.77.04,59.42h0Z"/>
    <path class="cls-1" d="M5049.88,1779.1c-.57,21.91-.54,44.3.17,66.17-1.14,15.36-2.15,30.87-1.76,46.23.57,23.75,2.68,48.78,12,70.44,0,0,.88,1.94.88,1.94l.94,1.89c1.26,2.76,3.29,4.96,6,6.54,3.97,2.34,9.05,3.02,13.51,1.74.65-.18.58-.17.85-.29.45-.2,1.07-.62,1.62-1.12,1.14-1.02,1.96-2.44,2.17-3.4.28-.99.02-1.69-.45-2.5-3.27-5.58-9.65-8.68-16.25-9.07-226.18-4.29-452.58-5.56-678.78-3.68-69.1-1.2-138.38-2.63-207.46-.62-11.86.49-25.71,1.11-37.61,2.72,49.53-9.51,100.24-11.4,150.46-15.01,37.53-2.01,75.67-4.47,113.27-5.4,163.65-1.06,327.28-.55,490.89,1.41,56.74.75,113.47,1.22,170.24,2.63,10.01.51,20.3,4.97,27.1,12.81,5.08,5.7,8.08,13.32,6.09,20.93-2.34,9.62-10.63,17.17-20.35,18.66-14.2,2.75-29.89-3.97-36.74-16.98-18.09-36.1-17.45-82.47-15.37-121.77-.17-6.45,1.19-12.74,2.63-19,1.35-6.27,2.9-12.49,4.5-18.68,3.36-12.35,6.93-24.6,11.45-36.57h0Z"/>
    <path class="cls-1" d="M453.08,1780.91c7.82,21.2,13.78,43.23,18.06,65.41,2.38,41.51,4.29,90.3-14.66,128.65-7.2,14.08-24.82,20.74-39.64,16.43-9.52-2.73-16.5-10.84-17.71-20.67-.73-6.05,1.7-12.06,5.47-16.7,6.18-7.82,15.29-12.49,24.98-13.74,3.38-.48,8.62-.41,12.1-.52,274.56-3.74,549.23-5.41,823.8-3.59,44.53,1.53,89.06,3.32,133.57,5.42,44.51,2.31,89.05,4.62,133.44,8.81,14.78,1.48,29.62,2.91,44.18,5.92-14.71-1.99-29.55-2.4-44.37-2.94-88.53-2.13-178.35-.3-266.98.96-276.19-2.13-552.61-.3-828.81,3.54-7.37-.23-15.51,2.66-19.15,9.37-1.44,2.58,1.94,6.28,4.31,6.81,7.02,2.02,15.48-.94,18.84-7.42,8.37-16.55,11.35-34.82,13.05-53.64,1.48-17.9,1.29-36.24.21-54.31-.39-5.48-1.31-10.9-.81-16.42.62-20.36.61-40.87.11-61.37h0Z"/>
    <path class="cls-1" d="M449.03,1398.86c1.28,7.27,3.44,19.85,4.69,26.93-1.4,10.72-2.03,21.67-1.83,32.45.36,18.7,3.03,37.89,10.8,54.79,1.49,3.35,3.4,6.49,5.16,9.69,8.2,16.53-4.13,34.9-21.05,38-12.05,2.49-25.69-1.35-32.87-11.89-1.01-1.53-1.63-3.22-2.1-4.87-2.56-9.63-1.26-17.46,1.07-26.1,2.17-7.57,5.38-14.74,9.31-21.51-.73,12.48-1.6,32.99,7.14,42.37,2.39,4.73,9.1,5.18,13.82,4.37,6.02-.96,11.62-7.46,8.24-12.94-7.41-12.31-12.01-26.46-14.54-40.3-4.02-21.95-3.54-44.24-1.25-66.19,3.64-8.7,7.86-17.11,13.42-24.8h0Z"/>
    <path class="cls-1" d="M449.32,1734.43c-5.35-7.36-9.39-15.4-12.97-23.68-1.05-1.86-.64-3.92-.86-5.92-2.1-21.38-2.05-42.99,2.21-64.26,2.6-12.96,7.16-26.13,14.16-37.75,4.13-6.25-10.82-12.18-15.75-13.35-4.88-1.15-8.61-1.65-11.87.43-1.7,1.46-3.74,2.4-5.2,4.3-5.41,6.77-7.62,17.21-8.65,26.21-.55,5.05-.75,10.19-.29,15.42-2.52-4.68-4.27-9.8-5.61-14.97-2.66-11.28-3.92-22.52.31-34.21,1.96-5.04,5.21-10.08,10.32-12.52,7.76-4.33,17.44-4.41,25.67-2.04,8.89,2.49,18.2,6.53,24.56,14.24,6.28,7.44,7.02,17.94,1.58,26.38-.87,1.46-1.75,3.05-2.51,4.56-12.99,26.13-13.69,57.02-11.03,85.76.17,1.89,1.01,3.68.42,5.6,0,0-.35,1.93-.35,1.93l-1.35,7.8s-2.8,16.08-2.8,16.08h0Z"/>
    <path class="cls-1" d="M5048.39,1393.63c5.59,7.76,9.81,16.26,13.46,25.03,2.31,22.14,2.79,44.62-1.26,66.76-2.55,13.95-7.18,28.22-14.66,40.63-3.44,5.58,2.24,12.19,8.37,13.17,4.8.82,11.6.35,14.03-4.45,8.8-9.48,7.89-30.19,7.13-42.79,3.94,6.84,7.17,14.08,9.35,21.71,2.63,9.69,4.35,21.35-1.07,31.19-7.22,10.61-20.95,14.47-33.08,11.96-17.02-3.13-29.43-21.59-21.18-38.23,1.78-3.22,3.7-6.4,5.2-9.78,7.84-17.06,10.54-36.43,10.9-55.31.16-9.67-.31-19.42-1.35-29.13-.2-1.21-.67-2.38-.5-3.63.19-1.25.45-2.51.66-3.78.86-5.18,3.1-18.11,3.99-23.38h0Z"/>
    <path class="cls-1" d="M5048.1,1732.2s-2.77-16.21-2.77-16.21c-.28-1.73-1.43-8.34-1.69-9.82-.59-1.93.26-3.74.43-5.65,2.69-29,1.98-60.19-11.13-86.57-.77-1.52-1.67-3.13-2.54-4.6-5.46-8.45-4.72-19.06,1.59-26.52,6.4-7.76,15.78-11.83,24.74-14.34,8.29-2.38,18.03-2.31,25.84,2.05,5.14,2.46,8.41,7.52,10.38,12.59,4.28,11.77,3.02,23.11.35,34.48-1.35,5.21-3.1,10.38-5.63,15.11.47-5.27.27-10.47-.27-15.56-1.02-9.08-3.24-19.63-8.69-26.48-1.48-1.92-3.54-2.9-5.27-4.37-3.31-2.13-7.1-1.61-12.03-.45-5.02,1.2-20.14,7.18-15.94,13.58,7.05,11.71,11.65,24.99,14.28,38.06,4.3,21.45,4.35,43.25,2.23,64.81-.22,2.02.19,4.1-.86,5.98-3.59,8.36-7.64,16.47-13.01,23.9h0Z"/>
    <path class="cls-1" d="M4014,1971.51c-65.32,3.65-130.9,6.37-196.3,8.19-195.99-2.62-393.11-5.19-588.83-15.68-65.58-3.9-131.23-7.64-196.3-17.49-14.21-2.35-28.25-4.83-42.13-9.37-4.56-1.72-9.55-3.38-14.44-3.7-16.27-1.48-32.11,8.26-39.57,22.74-5.23,10.12-6.11,19.18-2.17,29.78,12.01,29.87,66.59,45.09,96.64,42.14-12.77,3.56-26.37,3.96-39.58,2.82-20.55-1.99-41.15-7.45-58.02-20.15-12.81-9.82-21.5-23.79-19.45-40.85,2.66-31.2,31.93-57.44,63.61-54.41,5.72.45,11.34,1.85,16.69,3.85,1.07.4,3.12,1.1,4.21,1.43,11.87,3.65,24.64,5.92,37.06,7.96,116.18,16.38,233.94,19.26,351.09,24.11,142.86,4.74,288.28,7.51,431.37,8.44,60.91,2.84,135.38,6.75,196.13,10.2h0Z"/>
    <path class="cls-1" d="M1724.79,1948.29c62.27-1.9,124.72-4.44,187-5.25,186.32,3.28,373.95,4.55,560.05-2.89,55.45-2.87,111.45-5.23,166.02-15.19,7.38-1.5,14.47-3.12,21.4-5.5,4.65-1.76,10.23-3.45,15.19-4.09,27.58-4.26,58.83,12.32,63.82,41.32,1.92,12.02,2.53,25.04-1.86,36.85-9.2,24.19-34.85,35.19-58.8,37.59-19.28,2.03-38.15.49-56.94-2.96-6.17-1.14-12.29-2.52-18.32-4.19,12.42,1.37,24.86,1.9,37.21,1.47,25.78-.97,63.97-5.94,76.99-30.82,3.29-6.98,4.92-14.66,5.13-22.42-.07-5.23-.54-10.76-1.96-15.84-5.21-16.96-25.6-25.85-42.75-23.18-3.83.46-8.16,1.91-11.79,3.26-7.79,2.69-15.93,4.56-23.81,6.15-55.8,10.22-112.33,12.6-168.73,15.52-186.57,7.89-374.46,5.33-561.16,3.39-62.25-2.86-124.61-7.93-186.7-13.24h0Z"/>
    <path class="cls-1" d="M1763.93,1169.83c58.44-5.75,117.16-10.9,175.78-14.46,175.91-3.22,352.87-6.85,528.73-.55,59.1,2.79,118.45,4.57,176.77,16.13,5.95,1.33,11.91,2.82,17.97,4.89,4.58,1.75,9.87,3.41,14.83,3.69,17.3,1.62,37.19-8.49,40.81-26.42,1.1-5.76,0-12.07-1.51-17.81-1.32-4.97-2.52-10.03-4.58-14.77-8.48-20.92-28.92-31.84-50.89-33.29-11.54-.92-23.27.07-34.75,2.04,11.16-4.13,22.77-7.18,34.74-8.14,18.91-1.67,38.86,3.1,53.08,16.38,12.11,11.18,20.57,26.66,21.85,43.21,5.7,41.29-39.31,66.45-75.29,53.61-17.26-6.36-35.72-8.95-54.1-11.5-92.83-10.96-186.75-11.74-280.2-13.11-128.2-.93-258.73.47-387.03,4.11-54.71-.65-121.64-2.58-176.22-4.02h0Z"/>
    <path class="cls-1" d="M3887.77,1170.27c-59.4,1.48-118.97,3.51-178.37,3.98-177.63-4.55-356.54-6.99-534.02-.66-47.08,2.06-94.59,4.47-141.13,11.09-15.13,2.34-29.84,4.82-43.89,10.04-9.02,3.15-18.81,4.14-28.27,2.88-22.03-2.57-43.14-18.7-47.1-41.36-3.67-26.49,9.74-53.46,32.79-66.89,16.47-9.84,36.89-11.33,55.07-8.89,11.97,1.62,23.61,4.78,34.91,8.82-41.36-7.57-91.07-4.74-102.74,43.66-1.94,6.41-3.28,13.4-2.32,20.02.94,5.04,3.2,9.71,6.58,13.71,10.37,12.39,29.92,16.58,45.19,11.03,15.24-5.66,31.51-8.43,47.15-10.84,94.82-12.51,190.47-13,285.85-14.62,130.1-1.47,262.25,1.15,392.38,3.51,59.34,3.35,118.77,8.76,177.93,14.52h0Z"/>
    <g>
      <path class="cls-2" d="M2827.65,1858.83s-43.81,100.19-43.92,147.61,19.4,56.04,43.5,56.1c0,0,99.9,13.39.42-203.71Z"/>
      <path class="cls-1" d="M2827.65,1858.83c-4.47,19.54-8.97,38.88-13.05,58.15-6.6,18.22-12.51,36.85-16.96,55.64-4.4,18.2-6.7,36.59-3.18,54.85,4.13,20.36,13.8,26.11,33.96,26.15,17.25.96,28.6-10,32.33-26.63,6.68-28.96-5.03-72.07-15.29-99.97-1.38-3.41-2.05-7.01-2.88-10.59-3.25-13.85-7.35-29.23-11.06-43.11-1.44-4.86-1.93-9.45-3.87-14.48h0ZM2827.65,1858.83c11.94,17.61,22.75,36.05,32.34,55.19,1.83,3.33,2.93,6.95,3.95,10.59,1.52,4.79,3.14,9.56,4.57,14.4,9.38,32.02,20.3,77.06,3.66,108.25-8.8,16.64-27.48,26.13-46.13,24.21,0,0,1.17.08,1.17.08-11.46,0-23.95-1.99-33.56-9.68-14.17-11.34-17.8-30.03-18.72-46.87-.21-5.15-.33-10.81.1-15.92,2.84-30.63,12.8-59.53,22.48-88.16,9.17-17.88,19.04-35.33,30.14-52.08h0Z"/>
    </g>
    <g>
      <path class="cls-2" d="M2828.06,1246.75s43.81-100.19,43.92-147.61c.12-47.42-19.4-56.04-43.5-56.1,0,0-99.9-13.39-.42,203.71Z"/>
      <path class="cls-1" d="M2828.06,1246.75c4.47-19.54,8.97-38.88,13.05-58.15,6.6-18.22,12.51-36.85,16.96-55.64,4.4-18.2,6.7-36.59,3.18-54.85-4.13-20.36-13.8-26.11-33.96-26.15-17.25-.96-28.6,10-32.33,26.63-6.68,28.96,5.03,72.07,15.29,99.97,1.38,3.41,2.05,7.01,2.88,10.59,3.25,13.85,7.35,29.23,11.06,43.11,1.45,4.86,1.93,9.45,3.87,14.48h0ZM2828.06,1246.75c-11.94-17.61-22.75-36.05-32.34-55.19-1.83-3.33-2.93-6.95-3.95-10.59-1.52-4.79-3.14-9.56-4.57-14.4-9.38-32.02-20.3-77.06-3.66-108.25,8.79-16.64,27.48-26.13,46.13-24.21,0,0-1.17-.08-1.17-.08,11.46,0,23.95,1.99,33.56,9.68,14.17,11.34,17.8,30.03,18.72,46.87.21,5.15.33,10.81-.1,15.92-2.84,30.63-12.8,59.53-22.48,88.16-9.17,17.88-19.04,35.33-30.14,52.08h0Z"/>
    </g>
  </g>
</svg>