<?xml version="1.0" encoding="UTF-8"?>
<svg id="_레이어_1" data-name="레이어 1" xmlns="http://www.w3.org/2000/svg" viewBox="0 0 1605.73 2245.97">
  <defs>
    <style>
      .cls-1 {
        stroke: #fff;
        stroke-linecap: round;
        stroke-width: 3px;
      }

      .cls-1, .cls-2, .cls-3, .cls-4 {
        stroke-miterlimit: 10;
      }

      .cls-1, .cls-3 {
        fill: none;
      }

      .cls-2, .cls-3 {
        stroke-width: 2px;
      }

      .cls-2, .cls-3, .cls-4 {
        stroke: #040000;
      }

      .cls-2, .cls-4 {
        fill: #ffd45a;
      }

      .cls-4 {
        stroke-width: 2.32px;
      }

      .cls-5 {
        fill: #fff;
        stroke-width: 0px;
      }
    </style>
  </defs>
  <rect class="cls-5" x="394.78" y="509.12" width="809.51" height="1269.42"/>
  <path class="cls-2" d="M1298.93,1648.19c129.15-351.13,9.63-473.43,9.63-473.43,81.16-106.05,42.94-299.64,18.87-389.5-6.31-23.54-14.53-46.5-24.08-68.92-62.72-147.21,5.04-281.32,5.04-281.32-127.25,13.26-194.16-3.59-194.16-3.59-241.17-92.51-307.25-19.82-307.25-19.82-100.76-73.51-317.99,20.65-317.99,20.65-119.76,17.34-196.36.64-196.36.64,54.82,155.37,15.57,241.86,15.57,241.86-50.28,140.79-60.34,236.33-60.34,236.33-30.17,192.75,48.62,269.01,48.62,269.01-50.83,61.66-52.15,147.54-52.15,147.54-16.22,133.03,61.65,339.07,61.65,339.07,43.07,115.51-10.29,233.49-10.29,233.49,76.55-56.36,165.73-13.46,165.73-13.46,68.14,23.34,120.19-2.05,141.96-16.21,11.75-7.64,24.51-13.66,37.89-17.84,109.35-34.13,159.94,17.38,159.94,17.38,75.23-63.29,192.24-2.39,192.24-2.39,76.42,51.34,151.65,15.52,151.65,15.52,94.33-34.63,160,14.33,160,14.33-60.9-130.15-6.17-249.33-6.17-249.33ZM1191.49,1755.3H412.53V530.79h778.95v1224.5Z"/>
  <path class="cls-2" d="M234.99,1230.81c-8.43-22.47,33.74-40.99,57.27-50.55-25.97,9.01-77.06,16.68-78.28-8.45,0,0,0,0,0,0-.03-.19-5.99-36.41,77.45-2.35-23.9-11.25-73.23-38.22-49.29-60.16,0,0,0,0,0,0,0,0,37.08-24.71,71.38,67.3,0,0-43.5,74.84-70.28,63.23-3.88-1.68-6.76-5.06-8.25-9.03Z"/>
  <path class="cls-2" d="M1370.74,1117.31c8.43,22.47-33.74,40.99-57.27,50.55,25.97-9.01,77.06-16.68,78.28,8.45,0,0,0,0,0,0,.03.19,5.99,36.41-77.45,2.35,23.9,11.25,72.82,38.1,49.29,60.16,0,0,0,0,0,0,0,0-37.08,24.71-71.38-67.3,0,0,43.5-74.84,70.28-63.23,3.88,1.68,6.76,5.06,8.25,9.03Z"/>
  <path class="cls-4" d="M530.98,401.05c11.87,14.39,39.13,26.38,71.6,12.19,107.5-46.99,197.74,26.61,197.74,26.61,0,0-44.42-81.86-190.33-61.05,0,0-18.97,4.86-30.87-7.04-5.04-5.04-11.85-18.27-19.53-23.14-7.12-4.52-17.85-4.42-26.62,1.86-6.74,4.82-10.65,12.6-11.33,20.86-.65,7.88.57,19.08,9.34,29.71Z"/>
  <path class="cls-4" d="M1083.24,401.05c-11.87,14.39-39.13,26.38-71.6,12.19-107.5-46.99-197.74,26.61-197.74,26.61,0,0,44.42-81.86,190.33-61.05,0,0,18.97,4.86,30.87-7.04,5.04-5.04,11.85-18.27,19.53-23.14,7.12-4.52,17.85-4.42,26.62,1.86,6.74,4.82,10.65,12.6,11.33,20.86.65,7.88-.57,19.08-9.34,29.71Z"/>
  <path class="cls-2" d="M679.37,463.66c5.29,6.41,17.45,11.76,31.92,5.43,47.92-20.95,88.15,11.86,88.15,11.86,0,0-19.8-36.49-84.85-27.22,0,0-8.46,2.16-13.76-3.14-2.25-2.25-5.28-8.15-8.71-10.32-3.18-2.01-7.96-1.97-11.87.83-3,2.15-4.75,5.62-5.05,9.3s.26,8.51,4.16,13.25Z"/>
  <path class="cls-2" d="M925.56,463.66c-5.29,6.41-17.45,11.76-31.92,5.43-47.92-20.95-88.15,11.86-88.15,11.86,0,0,19.8-36.49,84.85-27.22,0,0,8.46,2.16,13.76-3.14,2.25-2.25,5.28-8.15,8.71-10.32,3.18-2.01,7.96-1.97,11.87.83,3,2.15,4.75,5.62,5.05,9.3s-.26,8.51-4.16,13.25Z"/>
  <path class="cls-4" d="M1156.45,460.99c-18.49,15.09-55.7,23.33-92.89-2.59-123.15-85.82-254.77-16.01-254.77-16.01,0,0,76.19-91.61,254.07-29.05,0,0,22.59,10.83,40.49-1.12,7.58-5.06,19.44-19.97,30.28-24.16,10.07-3.89,23.51-1.08,32.94,8.99,7.25,7.74,10.21,18.47,9.01,29.01s-5.49,23.8-19.14,34.95Z"/>
  <path class="cls-4" d="M453.94,459.52c18.49,15.09,55.7,23.33,92.89-2.59,123.15-85.82,254.77-16.01,254.77-16.01,0,0-76.19-91.61-254.07-29.05,0,0-22.59,10.83-40.49-1.12-7.58-5.06-19.44-19.97-30.28-24.16-10.07-3.89-23.51-1.08-32.94,8.99-7.25,7.74-10.21,18.47-9.01,29.01,1.15,10.05,5.49,23.8,19.14,34.95Z"/>
  <path class="cls-3" d="M1253.24,474.92c-32.34,101.29-24.55,187.11-8.85,232.03,18.33,52.46,33.72,105.92,45.52,160.23,4.74,21.83,9.01,42.34,12.44,59.12,9.39,46.02,10.4,93.41,2.39,139.69-12.3,71.06-45.38,99.48-45.38,99.48,30.55,64.15,48.33,126.77,48.33,126.77,38.18,151.21-48.88,328.38-48.88,328.38-49.19,104.85-2.19,220.79-2.19,220.79-38.04-13.66-96.89.93-131.61,7.83-49.86,9.92-95.93-3.35-142.75-23.16-.68-.29-1.34-.57-2-.85-27.66-11.9-57.31-18.66-87.41-19.24-72.55-1.4-86.58,32.89-86.58,32.89-14.57-20.91-47.25-29.71-77.79-33.17-34.16-3.87-68.75,1.9-100.01,16.21-100.35,45.95-148.98,25.6-154.56,22.93-1-.48-2-.94-3.01-1.39-80.42-35.87-115.51-4.19-115.51-4.19,4.69-7.99,7.89-20.13,10.07-33.26,5.86-35.27,3.07-71.44-7.46-105.61-39.49-128.15-73.3-229.41-81.67-286.52-7.32-49.9-3.02-100.89,13.24-148.63,17.82-52.31,57.38-96.01,57.38-96.01,0,0-92.66-92.07-57.02-274.2,0,0,41-158.21,62.25-236.81,11.22-41.49,14.24-84.86,8.13-127.4-2.55-17.73-6.68-35.23-13.26-49.31"/>
  <path class="cls-2" d="M871.94,1904.78c-26.3,10.71-49.58-38.55-61.66-66.07,11.51,30.42,22.25,90.59-7.42,92.85,0,0,0,0,0,0-.23.04-42.86,8.28-5.32-91.52-12.52,28.63-42.67,87.37-69.53,60.27,0,0,0,0,0,0,0,0-20.72-37.43,77.25-86.63,0,0,89.93,48.99,77.09,81.04-1.86,4.65-5.77,8.16-10.4,10.05Z"/>
  <rect class="cls-3" x="392.04" y="508.51" width="818.5" height="1271.02"/>
  <line class="cls-3" x1="392.04" y1="508.51" x2="413.27" y2="531.25"/>
  <line class="cls-3" x1="412.53" y1="1755.3" x2="392.04" y2="1779.52"/>
  <line class="cls-3" x1="1210.53" y1="508.51" x2="1191.49" y2="530.79"/>
  <line class="cls-3" x1="1191.49" y1="1755.3" x2="1210.53" y2="1779.52"/>
  <ellipse class="cls-5" cx="737.46" cy="1887.49" rx="3.69" ry="4.04"/>
  <path class="cls-1" d="M302.81,1180.54s-10.77,22.76-41.77,43.72"/>
  <g>
    <path class="cls-2" d="M829.54,350.99c0,25.1-26.66,59.34-26.66,59.34,0,0-26.66-34.24-26.66-59.34s11.94-36.77,26.66-36.77,26.66,11.67,26.66,36.77Z"/>
    <path class="cls-2" d="M776.21,472.67c0-25.1,26.66-59.34,26.66-59.34,0,0,26.66,34.24,26.66,59.34s-11.94,36.77-26.66,36.77-26.66-11.67-26.66-36.77Z"/>
    <path class="cls-2" d="M827.04,473.7c-17.75-17.75-23.1-60.81-23.1-60.81,0,0,43.07,5.36,60.81,23.1,17.75,17.75,17.56,34.44,7.14,44.85s-27.11,10.6-44.85-7.14Z"/>
    <path class="cls-2" d="M778.71,349.96c17.75,17.75,23.1,60.81,23.1,60.81,0,0-43.07-5.36-60.81-23.1s-17.56-34.44-7.14-44.85,27.11-10.6,44.85,7.14Z"/>
    <path class="cls-2" d="M864.75,387.67c-17.75,17.75-60.81,23.1-60.81,23.1,0,0,5.36-43.07,23.1-60.81,17.75-17.75,34.44-17.56,44.85-7.14s10.6,27.11-7.14,44.85Z"/>
    <path class="cls-2" d="M741.01,435.99c17.75-17.75,60.81-23.1,60.81-23.1,0,0-5.36,43.07-23.1,60.81-17.75,17.75-34.44,17.56-44.85,7.14s-10.6-27.11,7.14-44.85Z"/>
    <path class="cls-2" d="M863.71,438.49c-25.1,0-59.34-26.66-59.34-26.66,0,0,34.24-26.66,59.34-26.66s36.77,11.94,36.77,26.66-11.67,26.66-36.77,26.66Z"/>
    <path class="cls-2" d="M742.04,385.16c25.1,0,59.34,26.66,59.34,26.66,0,0-34.24,26.66-59.34,26.66-25.1,0-36.77-11.94-36.77-26.66,0-14.73,11.67-26.66,36.77-26.66Z"/>
    <circle class="cls-2" cx="803.13" cy="414.62" r="20.39"/>
  </g>
  <path class="cls-1" d="M789.04,410.96s-.65,17.65,16.83,16.83"/>
  <path class="cls-1" d="M783.49,477.64s3.27,24.19,18.63,24.19"/>
</svg>