<?xml version="1.0" encoding="UTF-8"?>
<svg id="_레이어_1" data-name="레이어 1" xmlns="http://www.w3.org/2000/svg" viewBox="0 0 5442.52 3061.42">
  <defs>
    <style>
      .cls-1 {
        stroke-width: 2.35px;
      }

      .cls-1, .cls-2, .cls-3 {
        stroke: #000;
        stroke-miterlimit: 10;
      }

      .cls-1, .cls-3 {
        fill: #fff;
      }

      .cls-2 {
        fill: #000;
        stroke-width: 3.41px;
      }

      .cls-3 {
        stroke-width: 3.37px;
      }
    </style>
  </defs>
  <rect class="cls-3" x="1868.92" y="1006.06" width="1421.01" height="919.81"/>
  <path class="cls-2" d="M3229.42,944.52h-1297.68c-61.99,0-112.24,50.25-112.24,112.24v835.22c0,61.99,50.25,112.24,112.24,112.24h1297.68c61.99,0,112.24-50.25,112.24-112.24v-835.22c0-61.99-50.25-112.24-112.24-112.24ZM3168.08,1850.81l-23.36,67.15h-1141.36l-30.96-70.59-73.92-25.71c0-.23,0-.46,0-.7v-685.8l73.93-25.71,32.67-74.48h1138.3l24.71,71.04,94.61,41.49v661.81l-94.61,41.5Z"/>
  <g>
    <circle class="cls-1" cx="1919.85" cy="1046.02" r="30.46"/>
    <circle class="cls-1" cx="3227.51" cy="1046.02" r="30.46"/>
    <circle class="cls-1" cx="1919.85" cy="1891.61" r="30.46"/>
    <circle class="cls-1" cx="3227.51" cy="1891.61" r="30.46"/>
  </g>
</svg>