<?xml version="1.0" encoding="UTF-8"?>
<svg id="_레이어_1" data-name="레이어 1" xmlns="http://www.w3.org/2000/svg" viewBox="0 0 5442.52 3061.42">
  <defs>
    <style>
      .cls-1 {
        fill: #145604;
      }

      .cls-1, .cls-2, .cls-3 {
        stroke-width: 0px;
      }

      .cls-2 {
        fill: #000;
      }

      .cls-3 {
        fill: #246d17;
      }
    </style>
  </defs>
  <g>
    <path class="cls-3" d="M1660.41,389.83c135.13-12.53,261.8-80.02,396.81-93.92,346.32-35.65,686.86,102.5,1033.89,128.95,184.5,14.06,369.98-3.62,552.86-33.38,199.02-32.39,452.93,26.28,652.93,50.76,66,8.08,136.77,23.05,195.85-9.63,36.43-20.16,62.9-55.85,94.39-84.06,80.16-71.83,197.4-92.03,294.38-50.74,96.98,41.29,169.68,142.37,182.55,253.81,15,129.89-45.01,266.47-3.45,389.47,15.49,45.85,44.08,85.44,60.43,130.94,29.29,81.46,16.73,172.54,3.75,258.76-30.84,204.94-62.2,411.9-134.77,604.24-44.43,117.78-103.67,228.28-156.38,342.03-8.28,17.86-16.62,37.63-12.47,57.09,5.15,24.18,27.44,38.91,48.21,49.65,61.21,31.65,70.6,59.77,67.32,100.77-7.14,89.22-63.71,166.82-145.76,202.58-325.84,142-546.69,65.97-900.19-142.3-64.88-38.22-132.2-82.01-206.12-79.78-129.69,3.93-346.68,54.12-476.03,65.01-62.13,5.23-123.28-21.16-185.6-20.03-76.08,1.38-145.6,43.08-216.36,73.22-151.09,64.36-316.38,77.74-478.81,82.13-231.68,6.26-463.75-4.33-694.11-31.67-138.38-16.43-279.68-38.75-415.51-5.91-125.22,30.28-246.18,107.03-373.1,86.53-83.54-13.49-158.94-68.58-243.32-72.89-39.02-1.99-78.23,7.1-117.04,2.27-38.81-4.83-80.03-29.39-87.7-70.63-4.32-23.23,2.78-46.94,9.49-69.5,40.05-134.44,69.77-272.45,88.75-412.15,5.45-40.08,9.98-81.29,1.55-120.77-7.82-36.66-26.32-69.48-39.48-104.32-22.53-59.67-29.19-124.67-35.62-188.71-3.52-35.02-6.85-71.69,5.26-104.41,9.21-24.89,26.59-45.2,38.31-68.83,36.88-74.34,12.63-164.73-5.25-246.79-45.11-207.11-43.51-425.82,4.61-632.14,6.65-28.5,14.63-57.73,32.31-80.1,37.72-47.74,104.58-48.9,162.73-46.21l457.29,21.12c53.26,2.46,106.53-6.67,156.11-27.78,20.74-8.83,46.21-11.05,70.94,9.31,0,0,95.54,10.64,151.55-28.38,0,0,148.34-82.09,164.77-83.62Z"/>
    <path class="cls-2" d="M1660.41,394.33c125.53-12.71,240.53-69.22,364.42-89.55,130.16-21.35,266.68-9.27,396.27,10.12,254.62,38.1,503.41,113.28,762.33,118.94,136.17,2.97,272.22-9.55,406.81-29.47,60.83-9,120.35-17.82,182.01-17.9,59.28-.08,118.48,4.55,177.35,11.18,116.22,13.08,231.31,34.38,347.31,49.1,54.96,6.98,113.45,18.97,167.86,2.46,51.11-15.51,82.58-57.4,120.05-92.42,85.67-80.05,218.62-100.11,321.58-41.61,101.39,57.61,156.4,171.15,155.63,285.43-.78,115.64-44.98,236.26-3.05,349.27,20.75,55.93,56.87,104.04,68.82,163.45,13.22,65.75,4.76,133.91-4.84,199.52-19.02,130.06-38.76,260.39-68.35,388.54-30.41,131.67-74.71,257.3-132.06,379.62-27.87,59.44-57.31,118.13-85.2,177.55-19.56,41.66-35.65,83.47,7.42,115.56,39.41,29.36,89.09,42.1,87.98,100.45-1.02,53.5-23.57,106.29-58.51,146.34-38.24,43.83-89.61,65.8-143.05,85.49-50.22,18.5-102.02,32.97-154.94,41.21-100.1,15.58-201.28,5.88-298.11-22.97-110.47-32.91-213.99-86.24-314.05-142.66-54.38-30.66-106.93-65.99-163.42-92.7-47.11-22.27-92.87-30.89-144.67-27.23-102.36,7.23-203.64,27.77-304.77,44.21-49.79,8.09-100.58,17.86-151.08,19.84-62.62,2.45-122.55-23.81-185.26-20.25-55.81,3.16-107.52,26.5-157.55,49.57-59.17,27.3-118.72,50.89-182.1,66.58-125.54,31.1-255.67,37.27-384.47,39.75-135.95,2.62-272-.56-407.68-9.52-136.97-9.04-272.51-29.34-409.15-41.05-64.74-5.55-130.09-7.38-194.68.92-59.17,7.61-115.13,25.79-170.96,46.15-55.54,20.25-111.38,42.2-170.13,51.13-64.58,9.82-123.37-3.55-183.29-27.24-52.37-20.71-104.74-44.54-162.07-45.46-59.65-.96-137.94,21.5-179.47-36.82-22.76-31.96-9.83-69.72.12-103.65,9.67-32.97,18.77-66.1,27.21-99.4,16.55-65.29,30.68-131.19,42.37-197.52,10.64-60.4,24.25-124.16,22.97-185.78-1.26-60.48-31.73-108.84-50.02-164.75-20.45-62.5-27.31-130.21-31.92-195.55-2.46-34.88-.13-67.77,16.99-99.07,12.91-23.61,29.09-44.75,37.69-70.54,17.47-52.39,10.02-109.38-.35-162.39-12.67-64.83-27.9-128.6-35.9-194.31-16.37-134.38-13.86-271.22,7.77-404.86,4.71-29.08,10.3-58.02,16.82-86.74,7.7-33.91,15.97-71.49,41.98-96.58,39.51-38.12,99.51-37.25,150.71-35.04,33.19,1.43,66.38,3.07,99.57,4.6,115.57,5.34,231.14,10.68,346.71,16.02,26.51,1.22,52.86,1,79.22-2.74,27.89-3.96,54.99-11.3,81.24-21.46,16.24-6.29,31.6-12.28,49.39-7.94,10.82,2.64,18.54,11.02,28.46,14.21,7.77,2.5,18.55,1.22,26.58,1.29,20.64.17,41.41-1.33,61.72-5.15,29.29-5.52,53.13-18.54,78.74-32.57,26.59-14.56,53.27-28.96,80.16-42.98,20.85-10.87,46.42-29.01,70.05-32.77,5.7-.91,3.28-9.58-2.39-8.68-23.2,3.69-47.43,20.82-67.89,31.44-29.16,15.13-58.08,30.75-86.89,46.55-32.39,17.76-62.27,30.39-99.86,33.82-16.22,1.48-32.6,1.77-48.87.89-16.64-.9-26.99-13.58-44.08-15.97-23.07-3.23-42.29,7.83-63.41,15.06-34.1,11.67-69.92,17.99-105.95,18.81-16.21.37-32.42-.63-48.61-1.38-55.94-2.58-111.88-5.17-167.82-7.75-65.46-3.02-130.92-6.05-196.38-9.07-44.72-2.07-91.41-7.06-135.97-2.45-40.92,4.23-80.93,18.63-104.93,53.94-15.16,22.3-22.07,49.01-28.18,74.91-8.12,34.39-14.76,69.16-20.19,104.08-20.25,130.25-22.74,263.22-7.22,394.12,7.4,62.41,20.5,123.32,33.4,184.73,13.97,66.47,25.18,139.35-8.58,201.91-12.72,23.57-29.86,44.49-37.62,70.53-8.67,29.08-6.47,60.1-3.7,89.88,5.68,60.94,11.77,123.14,30.82,181.61,9.24,28.35,22.88,54.84,33.5,82.65,13.15,34.44,17.72,68.95,15.58,105.72-4.11,70.37-18.32,141.32-31.9,210.39-12.7,64.58-27.71,128.7-45.03,192.19-13.35,48.93-47.05,114.73-13.88,162.31,28.04,40.22,78.94,46.93,124.14,44.64,34.37-1.75,67.94-5.88,102.18.56,28.68,5.4,56.18,15.51,83.25,26.2,55.06,21.75,109.28,45.54,169.49,46.44,59.16.88,116.78-16.29,172.06-35.7,58.14-20.42,115.36-44.3,175.79-57.35,67.58-14.59,137.14-15.86,205.91-11.65,139.37,8.54,277.61,31.77,416.98,41.79,138.71,9.97,277.85,13.89,416.9,11.75,127.24-1.96,255.75-7,380.42-34.55,61.68-13.63,121.43-33.37,178.98-59.4,60.91-27.55,122.89-61.3,191.38-62.59,63.66-1.19,124.37,24.91,188.35,19.79,46.47-3.72,92.73-11.37,138.71-18.82,107.1-17.34,214.78-40.34,323.39-45.51,63.72-3.04,118.92,22.72,172.93,53.89,57.71,33.3,114.72,67.65,173.53,99.04,182.71,97.54,379.51,170.02,588.76,128,52.7-10.58,104.08-26.99,153.9-47.05,47.04-18.94,89.41-42.13,122.33-81.67,43.99-52.83,90.11-161.22,26.71-216.33-17.2-14.95-38.2-23.21-56.92-35.76-21.03-14.1-33.83-33.16-28.63-59.79,3.77-19.29,14.5-37.66,22.84-55.33,29.3-62.06,60.14-123.39,88.95-185.68,55.08-119.12,97.08-241.91,126.41-369.86,30.29-132.16,51.07-266.83,69.78-401.07,7.88-56.53,13.69-114.25,5.25-171.08-9.5-64.01-45.02-113.71-68.74-172.35-48.27-119.35,3.89-247.82.29-370.74-2.98-101.63-51.11-200.39-134.28-260.34s-188.33-66.77-279.02-26.26c-52.01,23.23-86.38,62.49-127.01,100.62-53.42,50.12-115.97,54.17-185.54,45.76-118.52-14.32-236.06-35.3-354.46-50.42-115.06-14.69-232.53-24.31-347.78-6.44-143.03,22.18-286.67,39.06-431.64,38.09-136.99-.92-272.03-20.5-406.3-46.4-251.84-48.57-515.6-122.9-774.03-84.06-126.2,18.97-242.92,77.64-370.4,90.55-5.71.58-5.77,9.58,0,9Z"/>
  </g>
  <path class="cls-1" d="M486.35,1269.19c20.57,37.36,52.84,68.16,91.12,86.98,9.71,4.77,20.46,9.39,25.8,18.8,9.47,16.71-3.4,37.09-16.83,50.84-22.75,23.29-49.03,43.11-77.67,58.59-16.82-32.04,13.42-70.42,7.71-106.16-4.72-29.55-33.59-53.47-30.32-83.22,3.58-2.37,8.78-1.89,11.86,1.1"/>
  <path class="cls-1" d="M1150.34,2638.92c138.41-52.02,271.39-117.76,410.24-168.61s286.13-86.88,433.6-76.03c9.92.73,22.99,5.29,21.74,15.16-.54,4.25-3.86,7.56-7.13,10.33-57.9,48.92-143.67,33.26-219.23,27.22-137.92-11.04-278.98,20.78-398.81,89.96"/>
  <path class="cls-1" d="M4986.5,1888.77c-99.68,135.48-208.17,264.47-324.57,385.89-17.36,18.11-35.74,37.65-39.99,62.38-5.31,30.88,13.12,61.07,35.24,83.26,50.05,50.19,120.91,75.3,191.4,82.72,38.71,4.07,90.09-6.82,94.29-45.52,2.57-23.69-15.81-44.63-35.78-57.63-19.97-13-43.07-21.85-59.63-38.97-29.7-30.72-30.19-80.58-14.69-120.4s43.97-72.92,68.2-108.11c52.86-76.76,86.73-166.48,97.78-259.02"/>
  <path class="cls-1" d="M5021.86,592.1c-23.79,73.91-47.58,147.81-71.37,221.72-8.37,26.02-16.85,53.1-13.22,80.19,3.59,26.74,18.56,50.38,33.17,73.06,38.48,59.74,80.43,122.56,145.17,151.87-4.21-37.93-26.13-71.11-44.1-104.77-65.47-122.66-82.29-270.47-46.04-404.71"/>
  <path class="cls-1" d="M1205.03,544.78c-23.89,55.07-48.16,111.75-50.41,171.74-.86,23.09,1.55,46.55-3.66,69.06-13.87,59.91-75.13,94.3-130.34,121.39-17.29-21-1.92-51.98,12.77-74.88,48.15-75.07,87.32-155.89,116.41-240.2,6.78-19.66,13.24-39.93,25.84-56.48,12.6-16.55,32.95-28.92,53.52-25.9-4.32,13.52-12.67,25.72-23.71,34.65"/>
  <path class="cls-1" d="M1323.49,496.61c6.38,40.79-6.82,81.81-19.85,120.99-26.7,80.27-54.4,162.42-107.38,228.37-18.19,22.64-39.14,43.07-55.88,66.8-2.05,2.9-4.08,6-4.49,9.53-.88,7.59,6.56,14.16,14.16,14.94,7.6.77,14.97-2.7,21.49-6.68,40.04-24.38,63.2-68.28,84.44-110.07,27.04-53.18,54.08-106.36,81.12-159.55,13.77-27.08,27.71-54.43,47.35-77.61,27.17-32.07,68.06-50.53,68.16-92.56-41-11.67-88.03-14.23-122.93,10.25"/>
  <path class="cls-1" d="M2756.12,378.15c74.85,4.49,139.93,49.81,204.06,88.67,63.98,38.77,130.89,72.43,197.72,106.05,88.62,44.58,184.62,90.44,282.68,75.49,16.67-2.54,36.56-10.73,37.63-27.56,1.08-17.06-17.87-27.52-33.83-33.63-123.87-47.44-247.74-94.89-371.62-142.33-105.4-40.37-216.25-81.45-328.18-66.92"/>
  <path class="cls-1" d="M1729.41,383.73c-24.17,16.55-37.29,45.35-43.16,74.04-5.87,28.7-5.64,58.27-9.33,87.33-9.49,74.55-44.91,144.08-91.59,202.97-46.68,58.9-104.39,108.07-163.69,154.24-6.11-16.63.31-35.63,11.13-49.66,10.81-14.03,25.54-24.4,38.99-35.94,118.45-101.64,128.02-280.95,211.41-412.89,12.92-20.44,36.03-42.19,57.91-31.88"/>
  <path class="cls-1" d="M446.03,1000.61c-3.04,25.4,13.49,48.55,29.15,68.78,49.05,63.35,98.1,126.71,147.15,190.06,9.46,12.22,19.24,25.16,21.65,40.43s-5.45,33.35-20.54,36.73c-18.26,4.09-33.45-13.93-42.29-30.43-27.89-52.04-43.6-113.38-88.32-151.93-26.93-23.21-64.95-39.42-74.04-73.8-3.38-12.77-2.01-26.27-.41-39.39,4.8-39.41,11.44-78.59,19.9-117.38"/>
  <path class="cls-1" d="M424.13,1748.77c49.24,84.48,121.43,156.99,151.35,250.08,29.72,92.48,13.23,194.85-25.35,284-38.57,89.15-97.78,167.55-156.42,244.99,38.89-164.69,68.8-331.5,89.57-499.44,2.18-17.63,4.22-35.83-.73-52.89-4.42-15.26-14.08-28.35-21.72-42.29-25.32-46.17-27.92-104.13-6.84-152.39"/>
  <path class="cls-1" d="M3709.86,2080.7c9.93-48.25,19.86-96.51,29.79-144.76,1.81-8.79,3.6-18,1.04-26.6s-11.04-16.15-19.84-14.4c-6.84,1.35-11.52,7.55-15.14,13.51-34.05,56.12-31.26,127.31-57.2,187.62-10.71,24.9-26.13,47.48-42.45,69.12-93.25,123.68-217.7,221.23-310.35,345.37,16.21.73,32.41,1.45,48.62,2.18,5.64.25,11.44.48,16.77-1.37,6.38-2.22,11.38-7.17,16.14-11.96,19.67-19.81,39.35-39.63,59.02-59.44,17.68-17.8,35.48-35.76,49.24-56.74,14.31-21.83,23.89-46.41,36.97-69,27.52-47.56,69.45-84.71,107.34-124.5,37.89-39.8,73.48-85.51,82.92-139.64"/>
  <path class="cls-1" d="M4101.87,1213.83c-5.61-7.18-14.08,5.97-13.7,15.08,4.69,110.96-17.29,222.95-63.57,323.9-16.63,36.28-36.33,71.14-51.78,107.95-28.01,66.71-41.53,138.54-65.22,206.91-23.27,67.17-56.19,130.54-82.97,196.38-46.48,114.26-74.4,235.75-126.15,347.72-9.74,21.08-22.14,43.5-43.82,51.84,30.77,3.34,61.55,6.68,92.32,10.02,5.28.57,10.98,1.06,15.54-1.66,3.96-2.36,6.26-6.67,8.35-10.77,46.63-91.41,88.85-186.08,110.47-286.39,11.9-55.2,17.44-111.6,28.58-166.96,8.77-43.6,20.99-86.42,33.19-129.19,13.56-47.51,27.11-95.02,40.67-142.53,12.55-43.98,25.1-87.98,40.11-131.18,40.09-115.42,98.51-230.25,90.47-352.17-.93-14.05-3.6-29.61-14.8-38.14"/>
  <path class="cls-1" d="M3526.28,1657.83c-19.59,96.29-42.41,191.92-68.41,286.68-5.62,20.48-11.55,41.29-23.25,59.01-10.91,16.53-26.28,29.52-41.43,42.28-23.17,19.5-46.33,39-69.5,58.5-2.16,1.81-4.41,3.77-5.3,6.44-1.3,3.91.72,8.18,3.4,11.31,12.11,14.13,34.2,12.43,52.34,8.29,14.68-3.35,29.17-7.5,43.39-12.42,9.68-3.35,19.5-7.22,27.01-14.19,8.77-8.13,13.51-19.65,17.16-31.03,12.26-38.24,15.03-78.79,22.79-118.19,16.14-81.95,54.05-159.82,57.67-243.27.84-19.39-.61-40.09-11.93-55.85-3.15,4.62-6.3,9.23-9.45,13.85"/>
  <path class="cls-1" d="M2702.03,746.79c-78.26,35.46-150.89,83.31-214.35,141.23-71.61,65.34-134.65,145.42-224.5,181.82-34.94,14.16-72.34,20.92-109.21,28.81-177.21,37.94-348.35,104.12-504.98,195.28-107.38,62.49-213.58,143.97-254.5,261.28-23.61,67.68-24.69,145.21-67.6,202.63-11.58,15.5-25.94,29.04-35.3,45.98-15.46,27.98-15.44,61.6-15.03,93.57.66,51.29,1.31,102.57,1.97,153.86,44.89-17.16,63.79-71.08,65.42-119.11,1.63-48.03-8.27-97.01,3.12-143.7,9.94-40.76,35.16-75.77,54.41-113.05,31.73-61.44,48.47-131.62,92.61-184.86,36.94-44.54,89.45-72.73,140.59-99.82,99.67-52.8,200.18-105.94,308.4-137.72,55.3-16.24,112.25-26.78,166.79-45.42,222.77-76.14,382.57-277.95,600.84-366.16,66.49-26.87,140.68-44.74,189.77-97.03-67.86-24.52-145.5-20.6-210.54,10.63"/>
</svg>