<?xml version="1.0" encoding="UTF-8"?>
<svg id="_레이어_1" data-name="레이어 1" xmlns="http://www.w3.org/2000/svg" viewBox="0 0 1605.73 2245.97">
  <defs>
    <style>
      .cls-1 {
        fill: #ffd45a;
        stroke: #040000;
        stroke-miterlimit: 10;
        stroke-width: 3px;
      }
    </style>
  </defs>
  <path class="cls-1" d="M822.83,378.45c-332.56,0-602.15,341.8-602.15,763.44s269.59,763.44,602.15,763.44,602.15-341.8,602.15-763.44-269.59-763.44-602.15-763.44ZM822.83,1718.27c-251.08,0-454.61-258.06-454.61-576.39s203.54-576.39,454.61-576.39,454.61,258.06,454.61,576.39-203.54,576.39-454.61,576.39Z"/>
  <path class="cls-1" d="M683.27,1835.54c38.5-6.1,105.71-43.52,105.71-43.52,9.17-4.65,17.4-10.24,24.57-15.98,17.94-14.37,30.75-34.04,37.43-56.03,10.84-35.66,33.31-22.34,33.31-22.34,16.55,22.05-12.98,42.76-12.98,42.76l67.74-60.95c18.03-14.6,27.65-36.96,26.82-60.14-.67-18.74,8.1-25.63,15.53-28.12,5.87-1.97,12.3.57,15.38,5.93,10.84,18.89-.91,39.08-.91,39.08l34.16-36.69c27.63-25.67,48.1-32.29,59.7-33.61,8.29-.94,15.83,5.05,16.27,13.39.49,9.27-8.46,13.4-15.09,15.19-3.28.88-6.67,1.18-10.06,1.13-28.26-.45-51.94,24.91-51.94,24.91,9.21-6.99,16.88-10,21.99-11.29s10.44,1.03,12.65,5.73c5.97,12.72-20.64,19.88-20.64,19.88-22.32,4.15-41.03,28.26-41.03,28.26,7.09-2.6,17.4-3.41,24.29-3.65,6.2-.21,12.29,2.02,16.68,6.4s5.23,8.57,4.47,12.56c-1.57,8.28-9.11,11.32-16.47,7.22-11.57-6.46-39.1-6.73-39.1-6.73,9.12-.6,15.51,3.98,15.81,8.5.26,3.95-2.78,5.68-6.34,3.96-35.33-17.07-72.46,18.51-72.46,18.51-146.85,124.47-245.47,125.64-245.47,125.64"/>
  <path class="cls-1" d="M1356.75,1240.38c6.49-38.45-10.43-114.23-10.43-114.23-1.83-10.19-4.96-19.79-8.62-28.44-9.14-21.63-25.6-40.12-46.57-53.56-34-21.78-12.39-38.77-12.39-38.77,28.83-8.56,40.77,26.1,40.77,26.1l-41.58-83.86c-9.35-21.79-29.72-38.13-54.47-44.83-20-5.41-24.33-15.94-24.46-23.79-.1-6.2,4.73-11.48,11.43-12.67,23.58-4.18,40.94,13.48,40.94,13.48l-27.25-44.21c-17.81-34.47-17.93-56-15.42-67.42,1.79-8.16,10.65-13.37,19.6-11.1,9.94,2.53,11.31,12.34,10.97,19.2-.17,3.39-.99,6.7-2.19,9.9-9.97,26.63,8.85,57.26,8.85,57.26-4.3-11.01-4.89-19.27-4.53-24.53s4.61-9.51,10.29-10.09c15.43-1.56,14.05,25.98,14.05,25.98-3.12,22.5,16.04,48,16.04,48-.37-7.55,2.24-17.58,4.3-24.18,1.94-6.2,6.65-11.42,13.12-14.08,5.04-2.06,9.31-1.85,12.88-.37,9.12,3.76,8.09,13.41,1.5,20.03-9.99,10.03-18.52,33.31-18.52,33.31,2.42-8.77,9.31-13.35,14.18-12.26,4.24.94,5.25,4.43,2.25,7.22-30.03,27.96-4.9,74.73-4.9,74.73,82.05,179.33,50.16,273.17,50.16,273.17"/>
  <path class="cls-1" d="M297.13,1076.21c14.69,36.12,14.62,113.77,14.62,113.77.43,10.34-.54,20.39-2.23,29.63-4.23,23.1-16.28,44.73-33.82,62.39-28.46,28.65-3.67,40.54-3.67,40.54,30,2.1,34.13-34.33,34.13-34.33l-22.38,90.89c-4.4,23.31-20.73,43.68-43.44,55.58-18.35,9.62-20.29,20.85-18.71,28.53,1.24,6.07,7.11,10.18,13.91,9.88,23.92-1.04,37.04-22.05,37.04-22.05l-17,49.08c-9.9,37.52-5.34,58.56-.41,69.16,3.52,7.58,13.3,10.74,21.54,6.58,9.16-4.63,8.36-14.51,6.54-21.13-.9-3.27-2.42-6.32-4.29-9.19-15.51-23.83-3.8-57.81-3.8-57.81-1.8,11.68-.59,19.87.9,24.93s6.56,8.29,12.23,7.61c15.4-1.83,8.08-28.41,8.08-28.41-7.93-21.28,5.24-50.34,5.24-50.34,1.28,7.45,6,16.67,9.45,22.67,3.24,5.63,8.97,9.71,15.87,10.89,5.36.92,9.49-.22,12.65-2.43,8.09-5.66,4.98-14.84-2.89-19.87-11.93-7.62-25.31-28.49-25.31-28.49,4.26,8.03,11.99,11.01,16.5,8.89,3.94-1.84,4.17-5.46.63-7.54-35.39-20.77-21.01-71.88-21.01-71.88,41.15-192.87-10.36-277.55-10.36-277.55"/>
  <g>
    <path class="cls-1" d="M1364.17,1163.6s-8.1,110.61,88.26,112.6c0,0-29.03-21.65-42.71-50.63,0,0,42.46,51.58,91.01,28.76,0,0-51.46-46.76-69.35-49.54,0,0,39.07-.48,44.38-18.61,0,0-64.03,4.77-111.6-22.58Z"/>
    <path class="cls-1" d="M1362.52,1162.49s82.77,73.83,14.93,142.29c0,0,5.79-35.75-4.54-66.08,0,0,5.38,66.6-45.37,83.97,0,0,4.43-69.39,15.35-83.83,0,0-28.41,26.83-44.83,17.5,0,0,49.31-41.12,64.46-93.86Z"/>
    <path class="cls-1" d="M1363.06,1164.13s8.1-110.61-88.26-112.6c0,0,29.03,21.65,42.71,50.63,0,0-42.46-51.58-91.01-28.76,0,0,51.46,46.76,69.35,49.54,0,0-39.07.48-44.38,18.61,0,0,64.03-4.77,111.6,22.58Z"/>
    <path class="cls-1" d="M1363.62,1163.48s-69.94-86.08-141.45-21.46c0,0,35.98-4.14,65.8,7.57,0,0-66.28-8.44-85.97,41.46,0,0,69.52-1.24,84.44-11.48,0,0-28.11,27.14-19.55,43.98,0,0,43.35-47.37,96.72-60.07Z"/>
    <path class="cls-1" d="M1366.57,1164.27s-108.21-24.31-124.38,70.7c0,0,25.7-25.52,56.37-34.78,0,0-57.28,34.39-41.86,85.78,0,0,53.84-44,59.22-61.29,0,0-5.28,38.72,11.87,46.64,0,0,4.72-64.03,38.79-107.05Z"/>
    <path class="cls-1" d="M1364.72,1165.24s-82.77-73.83-14.93-142.29c0,0-5.79,35.75,4.54,66.08,0,0-5.38-66.6,45.37-83.97,0,0-4.43,69.39-15.35,83.83,0,0,28.41-26.83,44.83-17.5,0,0-49.31,41.12-64.46,93.86Z"/>
    <path class="cls-1" d="M1361.1,1163.22s73.83-82.77,142.29-14.93c0,0-35.75-5.79-66.08,4.54,0,0,66.6-5.38,83.97,45.37,0,0-69.39-4.43-83.83-15.35,0,0,26.83,28.41,17.5,44.83,0,0-41.12-49.31-93.86-64.46Z"/>
    <path class="cls-1" d="M1361.32,1164.04s3.03-110.87,99.1-103.19c0,0-31.05,18.64-47.57,46.09,0,0,47.42-47.07,93.43-19.49,0,0-55.88,41.37-73.96,42.34,0,0,38.83,4.4,42.29,22.97,0,0-63.23-11.16-113.3,11.29Z"/>
  </g>
  <path class="cls-1" d="M376.41,761.42c-20.83,32.95-37.09,108.14-37.09,108.14-2.56,9.96-3.79,19.82-4.21,29-1.04,22.96,5.28,45.57,17.38,65.1,19.63,31.69-5.21,39.76-5.21,39.76-27.49-2.13-23.55-37.98-23.55-37.98l1.07,91.12c-.93,23.18,9.51,45.17,27.47,59.85,14.52,11.86,13.91,23,10.87,30.22-2.4,5.71-8.55,8.87-14.62,7.64-21.35-4.32-28.75-26.48-28.75-26.48l5.01,49.88c1.04,37.7-7.49,57.45-14.16,67.03-4.77,6.85-14.25,8.56-20.8,3.38-7.28-5.75-4.48-15.2-1.45-21.37,1.5-3.04,3.51-5.79,5.79-8.3,18.99-20.93,15.57-55.46,15.57-55.46-.83,11.56-3.65,19.33-6.05,24.01s-7.66,7.12-12.63,5.68c-13.49-3.91-1.31-28.63-1.31-28.63,11.62-19.51,5.86-49.47,5.86-49.47-2.72,7.04-8.91,15.31-13.28,20.64-4.1,5-10.13,8.16-16.59,8.35-5.03.15-8.51-1.53-10.89-4.11-6.1-6.6-1.37-15.06,6.78-18.84,12.35-5.73,28.8-24.08,28.8-24.08-5.53,7.19-13.12,9-16.74,6.32-3.16-2.33-2.61-5.87,1.01-7.39,36.26-15.21,34.05-66.7,34.05-66.7,3.44-192.47,67.66-267.33,67.66-267.33"/>
  <g>
    <path class="cls-1" d="M751.39,1808.51s-6.93,94.64,75.51,96.34c0,0-24.84-18.53-36.54-43.31,0,0,36.33,44.13,77.86,24.6,0,0-44.02-40.01-59.33-42.38,0,0,33.43-.41,37.97-15.92,0,0-54.78,4.08-95.48-19.32Z"/>
    <path class="cls-1" d="M749.98,1807.57s70.81,63.16,12.77,121.74c0,0,4.95-30.59-3.88-56.53,0,0,4.61,56.98-38.82,71.84,0,0,3.79-59.37,13.14-71.72,0,0-24.3,22.96-38.36,14.98,0,0,42.19-35.18,55.15-80.3Z"/>
    <path class="cls-1" d="M750.44,1808.97s6.93-94.64-75.51-96.34c0,0,24.84,18.53,36.54,43.31,0,0-36.33-44.13-77.86-24.6,0,0,44.02,40.01,59.33,42.38,0,0-33.43.41-37.97,15.92,0,0,54.78-4.08,95.48,19.32Z"/>
    <path class="cls-1" d="M750.92,1808.41s-59.84-73.64-121.02-18.36c0,0,30.78-3.54,56.3,6.48,0,0-56.7-7.22-73.55,35.47,0,0,59.48-1.06,72.25-9.82,0,0-24.05,23.22-16.72,37.63,0,0,37.08-40.53,82.75-51.39Z"/>
    <path class="cls-1" d="M753.44,1809.09s-92.58-20.8-106.42,60.49c0,0,21.99-21.84,48.23-29.76,0,0-49.01,29.42-35.81,73.39,0,0,46.06-37.65,50.66-52.43,0,0-4.52,33.13,10.15,39.9,0,0,4.04-54.78,33.18-91.59Z"/>
    <path class="cls-1" d="M751.86,1809.91s-70.81-63.16-12.77-121.74c0,0-4.95,30.59,3.88,56.53,0,0-4.61-56.98,38.82-71.84,0,0-3.79,59.37-13.14,71.72,0,0,24.3-22.96,38.36-14.98,0,0-42.19,35.18-55.15,80.3Z"/>
    <path class="cls-1" d="M748.77,1808.18s63.16-70.81,121.74-12.77c0,0-30.59-4.95-56.53,3.88,0,0,56.98-4.61,71.84,38.82,0,0-59.37-3.79-71.72-13.14,0,0,22.96,24.3,14.98,38.36,0,0-35.18-42.19-80.3-55.15Z"/>
    <path class="cls-1" d="M748.95,1808.89s2.59-94.85,84.79-88.28c0,0-26.57,15.94-40.7,39.43,0,0,40.57-40.27,79.94-16.68,0,0-47.81,35.39-63.28,36.22,0,0,33.22,3.76,36.18,19.65,0,0-54.1-9.55-96.93,9.66Z"/>
  </g>
  <g>
    <path class="cls-1" d="M388.52,742.32s-11.13,152.11,121.38,154.85c0,0-39.92-29.78-58.73-69.62,0,0,58.39,70.94,125.15,39.54,0,0-70.76-64.31-95.36-68.12,0,0,53.73-.67,61.03-25.6,0,0-88.05,6.55-153.47-31.06Z"/>
    <path class="cls-1" d="M386.24,740.8s113.82,101.53,20.53,195.67c0,0,7.96-49.16-6.24-90.87,0,0,7.4,91.58-62.4,115.47,0,0,6.1-95.42,21.12-115.28,0,0-39.06,36.9-61.65,24.07,0,0,67.81-56.55,88.64-129.07Z"/>
    <path class="cls-1" d="M386.98,743.05s11.13-152.11-121.38-154.85c0,0,39.92,29.78,58.73,69.62,0,0-58.39-70.94-125.15-39.54,0,0,70.76,64.31,95.36,68.12,0,0-53.73.67-61.03,25.6,0,0,88.05-6.55,153.47,31.06Z"/>
    <path class="cls-1" d="M387.76,742.15s-96.18-118.37-194.52-29.51c0,0,49.48-5.69,90.49,10.41,0,0-91.14-11.61-118.22,57.02,0,0,95.6-1.7,116.12-15.79,0,0-38.66,37.33-26.88,60.48,0,0,59.61-65.14,133.01-82.61Z"/>
    <path class="cls-1" d="M391.81,743.24s-148.81-33.43-171.05,97.22c0,0,35.34-35.1,77.52-47.83,0,0-78.77,47.3-57.56,117.96,0,0,74.03-60.51,81.43-84.28,0,0-7.26,53.24,16.32,64.14,0,0,6.5-88.06,53.34-147.21Z"/>
    <path class="cls-1" d="M389.26,744.57s-113.82-101.53-20.53-195.67c0,0-7.96,49.16,6.24,90.87,0,0-7.4-91.58,62.4-115.47,0,0-6.1,95.42-21.12,115.28,0,0,39.06-36.9,61.65-24.07,0,0-67.81,56.55-88.64,129.07Z"/>
    <path class="cls-1" d="M384.29,741.79s101.53-113.82,195.67-20.53c0,0-49.16-7.96-90.87,6.24,0,0,91.58-7.4,115.47,62.4,0,0-95.42-6.1-115.28-21.12,0,0,36.9,39.06,24.07,61.65,0,0-56.55-67.81-129.07-88.64Z"/>
    <path class="cls-1" d="M384.59,742.92s4.17-152.46,136.28-141.9c0,0-42.71,25.63-65.42,63.38,0,0,65.21-64.73,128.49-26.8,0,0-76.85,56.89-101.71,58.22,0,0,53.4,6.05,58.16,31.58,0,0-86.95-15.34-155.81,15.52Z"/>
  </g>
</svg>