<?xml version="1.0" encoding="UTF-8"?>
<svg xmlns="http://www.w3.org/2000/svg" viewBox="0 0 5442.52 3061.42">
  <defs>
    <style>
      .cls-1 {
        letter-spacing: .02em;
      }

      .cls-2 {
        fill: #020202;
      }

      .cls-2, .cls-3 {
        stroke-width: 0px;
      }

      .cls-4 {
        letter-spacing: 0em;
      }

      .cls-3, .cls-5 {
        fill: #000;
      }

      .cls-6 {
        mix-blend-mode: hard-light;
      }

      .cls-5 {
        font-family: ChalkboardSE-Regular, 'Chalkboard SE';
        font-size: 139.67px;
      }

      .cls-7 {
        fill: #fff;
        stroke: #000;
        stroke-linecap: round;
        stroke-miterlimit: 10;
        stroke-width: 13px;
      }

      .cls-8 {
        mix-blend-mode: darken;
      }

      .cls-9 {
        letter-spacing: -.03em;
      }

      .cls-10 {
        isolation: isolate;
      }

      .cls-11 {
        letter-spacing: -.02em;
      }

      .cls-12 {
        letter-spacing: 0em;
      }

      .cls-13 {
        letter-spacing: .03em;
      }
    </style>
  </defs>
  <g class="cls-10">
    <g id="_레이어_1" data-name="레이어 1">
      <path class="cls-7" d="M1943.47,996.25c.35-4.75,3.54-7.09,7.49-7.9,7.85-1.6,12.94,4.24,14.84,12.03,6.94,28.52,29.04,121.6-1.03,192.2-2.19,5.15-20.68,6.98-20.15-6.18.26-6.48,7.94-14.21,52.84-13.64h1556.32s10.56.44,19.5,3.66c7.56,2.72,9.35,12.77,3.16,17.9-.08.07-.17.14-.25.21-4.95,3.99-12.39,1.16-13.46-5.11-4.33-25.24-13.95-131.37,2.11-179.17,0,0,5.23-9.21,11.13-15.94,6.54-7.47,18.27,1.83,12.33,9.78-4.35,5.83-13.79,5.83-46.64,6.56h-1556.88s-43.26,2.72-41.3-14.39Z"/>
      <path class="cls-7" d="M1943.47,1264.78c.35-4.75,3.54-7.09,7.49-7.9,7.85-1.6,12.94,4.24,14.84,12.03,6.94,28.52,29.04,121.6-1.03,192.2-2.19,5.15-20.68,6.98-20.15-6.18.26-6.48,7.94-14.21,52.84-13.64h1556.32s10.56.44,19.5,3.66c7.56,2.72,9.35,12.77,3.16,17.9-.08.07-.17.14-.25.21-4.95,3.99-12.39,1.16-13.46-5.11-4.33-25.24-13.95-131.37,2.11-179.17,0,0,5.23-9.21,11.13-15.94,6.54-7.47,18.27,1.83,12.33,9.78-4.35,5.83-13.79,5.83-46.64,6.56h-1556.88s-43.26,2.72-41.3-14.39Z"/>
      <path class="cls-7" d="M1943.47,1533.32c.35-4.75,3.54-7.09,7.49-7.9,7.85-1.6,12.94,4.24,14.84,12.03,6.94,28.52,29.04,121.6-1.03,192.2-2.19,5.15-20.68,6.98-20.15-6.18.26-6.48,7.94-14.21,52.84-13.64h1556.32s10.56.44,19.5,3.66c7.56,2.72,9.35,12.77,3.16,17.9-.08.07-.17.14-.25.21-4.95,3.99-12.39,1.16-13.46-5.11-4.33-25.24-13.95-131.37,2.11-179.17,0,0,5.23-9.21,11.13-15.94,6.54-7.47,18.27,1.83,12.33,9.78-4.35,5.83-13.79,5.83-46.64,6.56h-1556.88s-43.26,2.72-41.3-14.39Z"/>
      <path class="cls-7" d="M1943.47,1801.85c.35-4.75,3.54-7.09,7.49-7.9,7.85-1.6,12.94,4.24,14.84,12.03,6.94,28.52,29.04,121.6-1.03,192.2-2.19,5.15-20.68,6.98-20.15-6.18.26-6.48,7.94-14.21,52.84-13.64h1556.32s10.56.44,19.5,3.66c7.56,2.72,9.35,12.77,3.16,17.9-.08.07-.17.14-.25.21-4.95,3.99-12.39,1.16-13.46-5.11-4.33-25.24-13.95-131.37,2.11-179.17,0,0,5.23-9.21,11.13-15.94,6.54-7.47,18.27,1.83,12.33,9.78-4.35,5.83-13.79,5.83-46.64,6.56h-1556.88s-43.26,2.72-41.3-14.39Z"/>
      <g>
        <g>
          <path class="cls-3" d="M2024.55,2646.27c3.85,8.17,6.73,16.72,9.02,25.46.9,13.47,1.29,27.32-1.73,40.75-1.23,4.94-2.73,10.08-5.73,14.28-3.29,4.1-8.28,6.1-13.35,5.77-7.4-.12-13.71-7.64-11.02-14.95,2.16-5.52,7.92-9.13,13.58-9.69,0,0,6.75-.43,6.75-.43,21.99-1.61,44.15-2.19,66.17-.21,8.67,2.33,17.25,5.28,25.43,8.95-4.5.35-8.91.49-13.31.86-1.85.13-4.68.33-6.56.52-2.18.2-4.34.31-6.52.57-8.52-.77-17.1-1.13-25.69-1.2-12.93-.13-25.85.5-38.78,1.43,0,0-6.31.39-6.31.39-1.77.21-3.37.98-4.32,2.34-.08.09-.11.2-.18.29-.02.05.02-.02.01-.04.05-.07.04-.2.06-.28-.02-.21-.04-.17.06,0,.09.15.36.38.37.36,0,.02-.04-.03-.09-.03,1.72.58,4.08-.05,5.12-1.43,1.8-3.05,2.82-6.54,3.66-9.98,2.26-10.03,2.35-20.69,1.86-31.01.01-2.14-.56-4.23-.48-6.36.41-4.3.77-8.66,1.1-13.05.3-4.39.63-8.82.89-13.31h0Z"/>
          <path class="cls-3" d="M2561.73,2646.27c.26,4.49.6,8.92.89,13.31.33,4.39.69,8.75,1.1,13.05.08,2.13-.5,4.22-.48,6.36-.49,10.31-.4,20.98,1.86,31.01.84,3.44,1.86,6.94,3.66,9.98.97,1.44,3.78,1.96,5.03,1.46,0,.02.28-.21.37-.36.1-.16.08-.21.06,0,.02.09,0,.21.06.28,0,.02.03.08.01.04-.07-.09-.11-.2-.18-.29-.96-1.37-2.56-2.13-4.32-2.34,0,0-6.31-.39-6.31-.39-12.93-.93-25.85-1.56-38.78-1.43-8.59.08-17.17.43-25.69,1.2-2.17-.26-4.33-.38-6.52-.57-1.76-.19-4.77-.38-6.56-.52-4.4-.37-8.81-.52-13.31-.86,8.19-3.66,16.77-6.62,25.43-8.95,22.02-1.98,44.18-1.4,66.17.21,0,0,6.75.43,6.75.43,6.66.63,14.07,5.9,14.2,13.18-.77,14.39-20.61,14.92-26.43,3.47-4.06-7.94-5.61-17.09-6.29-25.82-.7-9.11-.34-18.09.27-26.99,2.29-8.74,5.17-17.28,9.02-25.46h0Z"/>
          <path class="cls-3" d="M2024.55,2614.87c-.26-4.49-.6-8.92-.89-13.31-.33-4.39-.69-8.75-1.1-13.05-.08-2.13.5-4.22.48-6.35.49-10.32.4-20.98-1.86-31.01-.84-3.44-1.86-6.94-3.66-9.98-.95-1.44-3.81-1.96-5.03-1.46,0-.02-.28.21-.37.36-.1.16-.08.21-.06,0-.02-.09,0-.21-.06-.28,0-.02-.03-.08-.01-.04.07.09.11.2.18.29.96,1.37,2.56,2.13,4.32,2.34,0,0,6.31.39,6.31.39,12.93.93,25.85,1.56,38.78,1.43,8.59-.08,17.17-.43,25.69-1.2,2.17.26,4.33.38,6.52.57,1.76.19,4.77.38,6.56.52,4.4.37,8.81.52,13.31.86-8.19,3.66-16.77,6.62-25.43,8.95-22.02,1.98-44.18,1.4-66.17-.21,0,0-6.75-.43-6.75-.43-6.66-.63-14.07-5.9-14.2-13.18.77-14.39,20.61-14.92,26.43-3.47,4.06,7.94,5.61,17.09,6.29,25.82.7,9.11.34,18.09-.27,26.99-2.29,8.74-5.17,17.28-9.02,25.46h0Z"/>
        </g>
        <path class="cls-3" d="M2561.73,2614.87c-3.85-8.17-6.73-16.72-9.02-25.46-.9-13.47-1.29-27.32,1.73-40.75,1.23-4.94,2.73-10.08,5.73-14.28,3.29-4.1,8.28-6.1,13.35-5.77,7.4.12,13.71,7.64,11.02,14.95-2.16,5.52-7.92,9.13-13.58,9.69,0,0-6.75.43-6.75.43-21.99,1.61-44.15,2.19-66.17.21-8.67-2.33-17.24-5.28-25.43-8.95,4.5-.35,8.91-.49,13.31-.86,1.85-.13,4.68-.33,6.56-.52,2.18-.2,4.34-.31,6.52-.57,8.52.77,17.1,1.13,25.69,1.2,12.93.13,25.85-.5,38.78-1.43,0,0,6.31-.39,6.31-.39,1.77-.21,3.37-.98,4.32-2.34.08-.09.11-.2.18-.29.02-.05-.02.02-.01.04-.05.07-.04.2-.06.28.02.21.04.17-.06,0-.09-.15-.36-.38-.37-.36,0-.01.04.03.09.03-1.72-.58-4.08.05-5.12,1.43-1.8,3.05-2.82,6.54-3.66,9.98-2.26,10.03-2.35,20.69-1.86,31.01-.01,2.14.56,4.23.48,6.35-.41,4.3-.77,8.66-1.1,13.05-.3,4.39-.63,8.82-.89,13.31h0Z"/>
      </g>
      <text class="cls-5" transform="translate(2145.42 2671.28) rotate(.71)"><tspan x="0" y="0">B</tspan><tspan class="cls-9" x="79.64" y="0">a</tspan><tspan class="cls-11" x="150.17" y="0">c</tspan><tspan class="cls-12" x="216.69" y="0">k</tspan></text>
      <g>
        <g>
          <path class="cls-3" d="M2911.08,2646.27c3.85,8.17,6.73,16.72,9.02,25.46.9,13.47,1.29,27.32-1.73,40.75-1.23,4.94-2.73,10.08-5.72,14.28-3.29,4.1-8.28,6.1-13.35,5.77-7.4-.12-13.71-7.64-11.02-14.95,2.16-5.52,7.92-9.13,13.58-9.69,0,0,6.75-.43,6.75-.43,21.99-1.61,44.15-2.19,66.17-.21,8.67,2.33,17.25,5.28,25.43,8.95-4.5.35-8.91.49-13.31.86-1.85.13-4.68.33-6.56.52-2.18.2-4.34.31-6.52.57-8.52-.77-17.1-1.13-25.69-1.2-12.93-.13-25.85.5-38.78,1.43,0,0-6.31.39-6.31.39-1.77.21-3.37.98-4.32,2.34-.08.09-.11.2-.18.29-.02.05.02-.02.01-.04.05-.07.04-.2.06-.28-.02-.21-.04-.17.06,0,.09.15.36.38.37.36,0,.02-.04-.03-.09-.03,1.72.58,4.08-.05,5.12-1.43,1.8-3.05,2.82-6.54,3.66-9.98,2.26-10.03,2.35-20.69,1.86-31.01.01-2.14-.56-4.23-.48-6.36.41-4.3.77-8.66,1.1-13.05.3-4.39.63-8.82.89-13.31h0Z"/>
          <path class="cls-3" d="M3448.27,2646.27c.26,4.49.6,8.92.89,13.31.33,4.39.69,8.75,1.1,13.05.08,2.13-.5,4.22-.48,6.36-.49,10.31-.4,20.98,1.86,31.01.84,3.44,1.86,6.93,3.66,9.98.97,1.44,3.78,1.96,5.03,1.46,0,.02.28-.21.37-.36.1-.16.08-.21.06,0,.02.09,0,.21.06.28,0,.02.03.08.01.04-.07-.09-.11-.2-.18-.29-.96-1.37-2.56-2.13-4.32-2.34,0,0-6.31-.39-6.31-.39-12.93-.93-25.85-1.56-38.78-1.43-8.59.08-17.17.43-25.69,1.2-2.17-.26-4.33-.38-6.52-.57-1.76-.19-4.77-.38-6.56-.52-4.4-.37-8.81-.52-13.31-.86,8.19-3.66,16.77-6.62,25.43-8.95,22.02-1.98,44.18-1.4,66.17.21,0,0,6.74.43,6.74.43,6.66.63,14.07,5.89,14.2,13.18-.77,14.39-20.61,14.92-26.43,3.47-4.06-7.94-5.61-17.09-6.29-25.82-.7-9.11-.34-18.09.27-26.99,2.29-8.74,5.17-17.28,9.02-25.46h0Z"/>
          <path class="cls-3" d="M2911.08,2614.87c-.26-4.49-.6-8.92-.89-13.31-.33-4.39-.69-8.75-1.1-13.05-.08-2.13.5-4.22.48-6.35.49-10.32.4-20.98-1.86-31.01-.84-3.44-1.86-6.94-3.66-9.98-.95-1.44-3.81-1.96-5.03-1.46,0-.02-.28.21-.37.36-.1.16-.08.21-.06,0-.02-.09,0-.21-.06-.28,0-.02-.03-.08-.01-.04.07.09.11.2.18.29.96,1.37,2.56,2.13,4.32,2.34,0,0,6.31.39,6.31.39,12.93.93,25.85,1.56,38.78,1.43,8.59-.08,17.17-.43,25.69-1.2,2.17.26,4.33.38,6.52.57,1.76.19,4.77.38,6.56.52,4.4.37,8.81.52,13.31.86-8.19,3.66-16.77,6.62-25.43,8.95-22.02,1.98-44.18,1.4-66.17-.21,0,0-6.75-.43-6.75-.43-6.66-.63-14.07-5.9-14.2-13.18.77-14.39,20.61-14.92,26.43-3.47,4.06,7.94,5.61,17.1,6.29,25.82.7,9.11.34,18.09-.27,26.99-2.29,8.74-5.17,17.28-9.02,25.46h0Z"/>
        </g>
        <path class="cls-3" d="M3448.27,2614.87c-3.85-8.17-6.73-16.72-9.02-25.46-.9-13.47-1.29-27.32,1.73-40.75,1.23-4.94,2.73-10.08,5.73-14.28,3.29-4.1,8.28-6.1,13.35-5.77,7.4.12,13.71,7.64,11.02,14.95-2.16,5.52-7.92,9.13-13.58,9.69,0,0-6.74.43-6.74.43-21.99,1.61-44.15,2.19-66.17.21-8.67-2.33-17.24-5.28-25.43-8.95,4.5-.35,8.91-.49,13.31-.86,1.85-.13,4.68-.33,6.56-.52,2.18-.2,4.34-.31,6.52-.57,8.52.77,17.1,1.13,25.69,1.2,12.93.13,25.85-.5,38.78-1.43,0,0,6.31-.39,6.31-.39,1.77-.21,3.37-.98,4.32-2.34.08-.09.11-.2.18-.29.02-.05-.02.02-.01.04-.05.07-.04.2-.06.28.02.21.04.17-.06,0-.09-.15-.36-.38-.37-.36,0-.01.04.03.09.03-1.72-.58-4.08.05-5.12,1.43-1.8,3.05-2.82,6.54-3.66,9.98-2.26,10.03-2.35,20.69-1.86,31.01-.01,2.14.56,4.23.48,6.35-.41,4.3-.77,8.66-1.1,13.05-.3,4.39-.63,8.82-.89,13.31h0Z"/>
      </g>
      <text class="cls-5" transform="translate(3031.96 2671.28) rotate(.71)"><tspan x="0" y="0">R</tspan><tspan class="cls-1" x="87.2" y="0">o</tspan><tspan class="cls-13" x="157.42" y="0">a</tspan><tspan class="cls-4" x="236.9" y="0">d</tspan></text>
      <g>
        <g class="cls-6">
          <path class="cls-2" d="M1600.59,947.17c1.44-46.48,1.9-92.83.58-139.19-.11-5.73.71-11.39,1.34-17.06.6-5.68.83-11.37,1.15-17.06,2.66-55.93,2.21-113.38-10.12-167.94-3.84-16.59-8.84-32.43-16.04-47.68-1.56-3.16-3.35-6.94-5.54-9.72-6.74-8.74-19.45-13.82-30.79-12.9-3.35.28-6.68.78-9.78,2.1-2.18,1.13-4.71,3.44-6.11,5.62-2.8,4.32-2.98,7.44-.43,11.13,2.24,3.64,5.18,6.77,8.72,9.54,7.14,5.48,16.78,8.75,26.22,9.17,2.61.14,10.54.58,13.3.72,120.42,8.89,241.54,13.29,361.87,2.33,10.34.46,24.29.45,34.62.56,19.28.46,41.6-.13,60.9-.12,14.43-.49,29.24-.94,43.78-1.14-16.45,5.44-33.57,11.21-50.35,15.85-10.58,2.84-23.76,6.49-34.08,9.15-8.64,2.04-25.78,5.93-34.42,7.86-4.67,1.13-12.43,2.66-17.31,3.6-125.02,11.55-250.72,6.23-375.61-2.71-25.55-.22-51.83-11.54-66.57-33.47-8.55-12.07-11.17-26.38-6.38-40.44,5.25-15.08,16.97-27.2,32.18-32.36,29.66-9.53,64.83,1.65,81.94,28.16,2.22,3.5,4.43,7.87,6.25,11.61,18.53,39.45,25.65,83.7,29.01,126.47,3.18,41.52,2.06,82.73-.31,124.12-.15,5.89-.22,11.78-1.25,17.6-9.04,46.19-20.7,91.97-36.75,136.22h0Z"/>
          <path class="cls-2" d="M3854.82,947.17c-16.05-44.25-27.71-90.03-36.75-136.22-1.03-5.82-1.1-11.71-1.25-17.6-2.38-41.39-3.5-82.6-.31-124.12,3.36-42.76,10.48-87.02,29.01-126.47,1.81-3.72,4.03-8.11,6.25-11.61,17.11-26.51,52.28-37.7,81.94-28.16,15.22,5.15,26.93,17.28,32.18,32.36,4.78,14.04,2.17,28.38-6.38,40.44-14.74,21.93-41.02,33.24-66.57,33.47-124.9,8.94-250.59,14.26-375.61,2.71,0,0-8.67-1.7-8.67-1.7-2.89-.58-5.76-1.27-8.64-1.9-8.39-1.88-26-5.88-34.42-7.86-10.66-2.71-23.53-6.34-34.08-9.15-16.75-4.64-33.9-10.4-50.35-15.85,14.54.2,29.31.65,43.78,1.14,19.35,0,41.54.58,60.9.12,10.43-.12,24.43-.09,34.62-.56,120.33,10.96,241.44,6.56,361.87-2.33,0,0,8.92-.48,8.92-.48l4.37-.24c9.44-.42,19.08-3.69,26.22-9.17,3.54-2.76,6.49-5.9,8.72-9.54,2.53-3.66,2.38-6.82-.43-11.13-1.4-2.19-3.93-4.5-6.11-5.62-3.09-1.32-6.44-1.81-9.78-2.1-11.34-.92-24.05,4.16-30.79,12.9-2.2,2.78-3.96,6.54-5.54,9.72-7.2,15.25-12.2,31.09-16.04,47.68-12.33,54.57-12.78,112-10.12,167.94.32,5.69.56,11.38,1.15,17.06.63,5.67,1.44,11.33,1.34,17.06-1.31,46.36-.86,92.71.58,139.19h0Z"/>
          <path class="cls-2" d="M3863.98,1847.99c-1.44,46.48-1.9,92.83-.58,139.19.11,5.73-.71,11.39-1.34,17.06-.6,5.68-.83,11.37-1.15,17.06-2.66,55.93-2.21,113.38,10.12,167.94,3.84,16.59,8.84,32.43,16.04,47.68,1.56,3.16,3.35,6.94,5.54,9.72,6.74,8.74,19.45,13.82,30.79,12.9,3.35-.28,6.68-.78,9.78-2.1,2.18-1.13,4.71-3.44,6.11-5.62,2.8-4.32,2.98-7.44.43-11.13-2.23-3.64-5.18-6.77-8.72-9.54-7.14-5.48-16.78-8.75-26.22-9.17-2.61-.14-10.54-.58-13.3-.72-120.42-8.89-241.54-13.29-361.87-2.33-10.34-.46-24.29-.45-34.62-.56-19.28-.46-41.6.13-60.9.12-14.43.49-29.24.94-43.78,1.14,16.45-5.44,33.57-11.21,50.35-15.85,10.58-2.84,23.76-6.49,34.08-9.15,8.64-2.04,25.78-5.93,34.42-7.86,4.67-1.13,12.43-2.66,17.31-3.6,125.02-11.55,250.72-6.23,375.61,2.71,25.55.22,51.83,11.54,66.57,33.47,8.55,12.06,11.17,26.39,6.38,40.44-5.25,15.08-16.97,27.2-32.18,32.36-29.66,9.53-64.83-1.65-81.94-28.16-2.22-3.5-4.43-7.87-6.25-11.61-18.53-39.45-25.65-83.7-29.01-126.47-3.18-41.52-2.06-82.73.31-124.12.15-5.89.22-11.78,1.25-17.6,9.04-46.19,20.7-91.97,36.75-136.22h0Z"/>
          <path class="cls-2" d="M1599.69,1847.99c16.05,44.25,27.71,90.03,36.75,136.22,1.03,5.82,1.1,11.71,1.25,17.6,2.38,41.39,3.5,82.6.31,124.12-3.36,42.77-10.48,87.02-29.01,126.47-1.81,3.72-4.03,8.11-6.25,11.61-17.11,26.51-52.28,37.7-81.94,28.16-15.22-5.15-26.93-17.28-32.18-32.36-4.78-14.04-2.17-28.38,6.38-40.44,14.74-21.93,41.02-33.24,66.57-33.47,124.9-8.94,250.59-14.26,375.61-2.71,0,0,8.67,1.7,8.67,1.7,2.89.58,5.76,1.27,8.64,1.9,8.39,1.88,26,5.88,34.42,7.86,10.66,2.71,23.53,6.34,34.08,9.15,16.75,4.64,33.89,10.4,50.35,15.85-14.54-.2-29.31-.65-43.78-1.14-19.35,0-41.54-.58-60.9-.12-10.43.12-24.43.09-34.62.56-120.33-10.96-241.44-6.56-361.87,2.33,0,0-8.92.48-8.92.48,0,0-4.37.24-4.37.24-9.44.42-19.08,3.69-26.22,9.17-3.54,2.76-6.49,5.9-8.72,9.54-2.53,3.67-2.38,6.82.43,11.13,1.4,2.19,3.93,4.5,6.11,5.62,3.09,1.32,6.44,1.81,9.78,2.1,11.34.92,24.05-4.16,30.79-12.9,2.2-2.78,3.96-6.54,5.54-9.72,7.2-15.25,12.2-31.09,16.04-47.68,12.33-54.57,12.78-112,10.12-167.94-.32-5.69-.56-11.38-1.15-17.06-.63-5.67-1.44-11.33-1.34-17.06,1.31-46.36.86-92.71-.58-139.19h0Z"/>
          <path class="cls-2" d="M1591.12,1038.55c2.45,15.87,6.37,41.53,8.8,56.92-2.96,22.78-4.3,46.01-3.88,68.91.95,46.52,8.36,94.39,32.48,134.42,15.33,26.29,3.25,59.23-22.1,73.8-24.49,14.46-60.58,12.33-81.16-8.18-4.22-3.99-8-8.4-10.19-13.73-.56-1.43-1.36-3.64-1.79-5.15-9.43-32.95,5.09-71.83,20.98-100.45-1.91,24.77-3.85,69.22,12.73,88.53,1.53,1.67,2.46,3.76,3.83,5.43,1.94,2.13,4.31,3.5,7.02,4.63,11.89,4.55,29.36,2.54,37.26-8,4.9-6.13,5.88-14.07,1.44-20.49-3.66-6.2-7.12-12.71-10.1-19.21-29.07-64.23-29.63-136.22-22.65-204.76,7.34-18.39,16.01-36.35,27.31-52.68h0Z"/>
          <path class="cls-2" d="M1591.72,1749.5c-10.86-15.61-19.15-32.79-26.4-50.31-2.11-3.93-1.34-8.29-1.78-12.53-6.32-68.05-3.99-139.62,27.24-202.24,2.19-4.39,4.85-8.97,7.34-13.22,1.7-3.01,2.45-5.84.9-8.97-2.16-4.23-5.66-7.22-10.28-10.37-11.16-7.27-38.12-17.99-50.7-9.54-2.35,2.05-4.8,3.41-7.36,5.51-8.09,7.32-12.33,17.39-16.01,29.24-5.73,20.09-7.89,42.41-6.03,63.54-15.74-31.28-24.41-81.7-5.57-113.45,3.92-6.88,9.58-12.73,16.77-16.29,10.25-5.51,22.04-8.07,33.5-7.47,24.26,1.39,55.83,13.65,71.49,33.03,11.76,14.13,14.4,33.33,5.91,49.83-.66,1.49-1.85,3.35-2.65,4.78-22.69,38.44-30.09,84.32-31.37,128.9-.36,22.23.13,44.85,3.16,67.07.74,2.63.89,5.26.28,7.96-2.23,13.98-6.29,40.38-8.46,54.55h0Z"/>
          <path class="cls-2" d="M3860.84,1038.55c10.55,15.14,18.64,31.77,25.76,48.74,1.07,2.56,2.26,5.16,2.22,7.98,3.71,45.23,5.24,90.76-3.29,135.86-5.37,29.42-15.18,59.43-30.97,85.55-6.98,12.77,5.37,26.25,18.51,28.55,8.14,1.54,18.04.81,24.92-3.54,3.38-1.86,4.59-5.21,6.98-8.06,16.58-19.31,14.65-63.73,12.73-88.53,15.89,28.6,30.41,67.51,20.98,100.45-.45,1.38-1.2,3.78-1.79,5.15-2.2,5.33-5.98,9.74-10.19,13.73-20.59,20.52-56.67,22.64-81.16,8.18-25.35-14.58-37.44-47.49-22.1-73.8,24.12-40.03,31.53-87.89,32.48-134.42.42-22.9-.92-46.13-3.88-68.91,2.41-15.48,6.43-41.25,8.81-56.92h0Z"/>
          <path class="cls-2" d="M3860.23,1749.5c-2.24-14.36-6.2-40.72-8.46-54.55-.61-2.71-.46-5.31.28-7.96,3.04-22.22,3.52-44.84,3.16-67.07-1.28-44.57-8.68-90.45-31.37-128.9-.78-1.38-1.97-3.32-2.65-4.78-8.49-16.5-5.86-35.68,5.91-49.83,15.68-19.39,47.21-31.63,71.49-33.03,11.46-.6,23.25,1.96,33.5,7.47,7.19,3.57,12.86,9.4,16.77,16.29,18.84,31.76,10.17,82.15-5.57,113.45,2.34-26.92-1.71-67.34-18.06-88.67-2.27-2.89-5.1-5.18-7.96-7-2.41-1.69-4.25-3.78-7.19-4.54-13.91-4.2-35.48,4.2-46.88,11.47-3.41,2.25-6.29,4.76-8.17,7.11-1.54,1.88-2.58,3.77-2.89,5.81-.29,2.16.51,4.32,1.69,6.42,2.5,4.25,5.14,8.83,7.34,13.22,31.23,62.62,33.56,134.19,27.24,202.24-.44,4.24.33,8.6-1.78,12.53-7.25,17.52-15.54,34.69-26.4,50.31h0Z"/>
          <path class="cls-2" d="M3315.85,2222.74c-23,10.8-47.11,19.21-71.51,26.14-88.82,5.43-178.79,6.66-266.25-13.42-17.55-4.05-34.87-9.34-51.79-15.64-16.69-5.99-35.53-.24-47,13.42-7.33,8.73-13.27,21.87-10.22,33.26.45,2.01.84,4.03,1.39,6.19,2.67,9.99,10.83,18.73,19.45,25.47,23.24,17.54,54.9,27.97,83.97,29.99,3.48.2,6.98.26,10.51.09-6.67,2.33-13.72,3.82-20.84,4.79-35.87,4.31-78.66-1.76-107.9-24.97-10.02-8.14-20.01-20.62-22.6-34.32-5.24-31.76,11.99-64.85,39.37-81.06,19.31-11.77,44.06-14.37,65.42-6.85,67.04,25.02,139.6,30.27,210.85,30.64,30.91-.15,62.02-1,92.82-4.1,1.73.05,3.49.39,5.23.61,22.45,3.1,46.55,6.2,69.11,9.76h0Z"/>
          <path class="cls-2" d="M2148.22,2222.2c18.7-2.94,37.25-5.4,55.73-7.98,0,0,11-1.46,11-1.46,3.66-.43,7.34-1.32,10.91-.8,32.16,3.64,64.77,3.78,97.04,3.94,56.77-.51,114.45-4.88,169.1-19.53,10.02-2.71,20.05-5.89,29.76-9.49,39.54-16.52,92.57,1.77,104.9,45.21,3.99,15.19,5.12,38.85-.34,53.73-9.85,26.47-34.89,42.42-61.33,47.5-37.62,7.24-76.28.95-112.14-10.21,21.91,1.33,43.6.8,65.13-2.33,27.64-4.27,67.63-14.51,73.59-46.01,1.19-5.19,2.5-10.48,2.51-16.02.01-2.9-.23-6.01-.56-8.92-.62-7.32-2.79-14.16-8.03-19.75-11.79-12.9-32.41-16.56-48.72-10.47-11.5,4.3-23.51,8.22-35.32,11.39-90.98,24.19-185.32,22.66-278.32,17.7-3.71-.03-7.31-1.5-10.94-2.54,0,0-10.84-3.37-10.84-3.37-17.88-5.94-36.09-12.43-53.11-20.61h0Z"/>
          <path class="cls-2" d="M2146.2,571.08c22.84-10.77,46.79-19.01,70.99-26.03,88.16-5.65,177.49-6.67,264.4,12.75,17.55,4.04,35.16,9.1,52.17,15.51,2.39.9,4.85,1.67,7.35,2.19,14.21,3.23,31.4-1.13,41.21-11.28,4.51-4.59,7.39-9.91,8.49-16.02.21-1.2.2-2.31.21-3.86.15-6.8-2.23-13.44-3.76-20.03-1.1-5.5-2.64-10.96-4.95-16.05-16.1-37.44-62.31-41.65-98.8-37.07,43.2-19.44,94.41-21.15,125.77,20.2,5.07,6.66,9.3,13.93,12.53,21.62,3.82,9.87,4.69,20.48,5.11,31.04.41,16.7-7.42,33.81-19.06,45.41-19.17,19.32-47.92,26.76-74.19,21.16-4.28-.9-8.49-2.18-12.59-3.72-66.45-24.29-138.4-29.2-208.88-29.53-30.7.11-61.59,1.19-92.17,4.08-24.15-3.17-49.59-6.59-73.83-10.35h0Z"/>
          <path class="cls-2" d="M3313.83,571.62c-21.03,3.33-43.99,6.33-65.01,9.2-2.43.31-5.81.83-8.01,1.09-4.42.51-8.72-.99-13.11-1.14-82.99-5.22-168.13-5.01-249.17,14.45-13.16,3.29-26.17,7.19-38.83,11.92-1.67.58-4.31,1.61-6.03,2.09-24,7.46-51.08,3.62-71.74-11-20.37-14.36-31.65-37.66-28.32-62.68.95-8.55,2.13-17.06,5.5-25.02,5.21-11.79,12.91-22.58,22.37-31.32,36-33.59,90.33-25.8,131.43-8.06-14.26-1.71-28.49-2.64-42.36-1.84-19.41,1.06-39.61,5.64-54.96,17.62-9.22,7.27-15.92,16.81-19.79,27.74-1.85,5.39-3.07,10.93-4.78,16.37-1.67,5.65-2.51,12.23-1.79,17.81,1.53,8.29,6.42,15.11,13.44,20.09,10.31,7.32,24.27,9.78,36.65,6.98,2.58-.54,5.31-1.47,7.78-2.4,14-5.24,28.29-9.53,42.74-13.14,85.33-20.52,173.38-20.89,260.29-15.44,5.43.41,10.94-.47,16.15,1.59,22.9,6.95,45.88,14.77,67.53,25.07h0Z"/>
          <path class="cls-2" d="M2732.29,2118.28c-1.88,21.99-5.31,53.03-7.59,75.19-8.21,22.23-15.37,45.15-20.83,68.02-3.75,16.16-6.72,32.45-5.64,48.9.79,11.89,2.36,27.54,11.37,35.14,6.96,5.28,15.75,4.88,24.85,5.39,0,0-.29-.04-.29-.04-.04,0,.02,0,.02,0,1.54.11,3.1.04,4.68-.11,26.82-2.91,28.83-34.32,27.61-56.66-1.69-25.77-8.33-51.04-16.17-75.74,0,0-1.36-4.22-1.36-4.22-1.21-4.3-3.67-8.14-4.74-12.48-.59-2.64-.94-6.32-1.31-9.03,0,0-2.54-18.29-2.54-18.29-1.56-10.77-3.9-26.46-5.47-37.14,0,0-.66-4.71-.66-4.71-.16-4.66-.18-9.56-1.93-14.23h0ZM2732.29,2118.28c19,21.59,36.22,44.76,50.85,69.61,10.83,33.73,21.49,68.04,23.69,103.8,1.3,21.21-.53,43.93-10.64,63.33-12.2,23.96-37.9,38.03-64.71,36.22-.71-.04-1.7-.15-2.4-.23,0,0,2.64.18,2.64.18-61.27.54-76.86-46.74-73.73-99.61,3.48-38.69,16.15-75.32,28.32-111.75,14-21.53,28.9-42.27,45.99-61.54h0Z"/>
          <path class="cls-2" d="M2732.79,666.48c1.88-21.99,5.31-53.03,7.59-75.19,8.21-22.23,15.37-45.15,20.83-68.02,3.75-16.17,6.72-32.45,5.64-48.9-.79-11.89-2.36-27.54-11.37-35.14-6.96-5.28-15.75-4.88-24.85-5.39,0,0,.29.04.29.04.05,0-.02,0-.02,0-1.54-.11-3.1-.04-4.68.11-26.82,2.91-28.83,34.32-27.61,56.66,1.69,25.77,8.33,51.04,16.17,75.74,0,0,1.36,4.22,1.36,4.22,1.21,4.3,3.67,8.14,4.74,12.48.59,2.64.94,6.32,1.31,9.03,0,0,2.54,18.29,2.54,18.29,1.56,10.77,3.9,26.45,5.47,37.14,0,0,.66,4.71.66,4.71.16,4.66.18,9.56,1.93,14.23h0ZM2732.79,666.48c-19-21.59-36.22-44.76-50.85-69.61-10.83-33.73-21.49-68.04-23.69-103.8-1.3-21.21.53-43.93,10.64-63.33,12.2-23.96,37.9-38.03,64.71-36.22.71.04,1.7.15,2.4.23,0,0-2.64-.18-2.64-.18,61.28-.54,76.86,46.73,73.73,99.61-3.48,38.69-16.15,75.32-28.32,111.75-14,21.53-28.9,42.27-45.99,61.54h0Z"/>
        </g>
        <g class="cls-8">
          <path class="cls-3" d="M2331.37,882.47v-32.94h4.43l13.46,22.32c4.25,5.31,11.16,11.69,21.08,11.69,12.22,0,17.89-9.74,17.89-20.9,0-14.7-10.27-19.13-26.21-26.74-13.64-6.55-30.29-15.94-30.29-34.36,0-20.54,20.55-34.89,48.53-34.89,5.67,0,14.52.89,25.86,4.07v28.69h-4.43l-12.04-19.13c-3.36-3.54-8.5-8.32-16.12-8.32-9.92,0-15.94,7.97-15.94,19.13s6.38,18.95,25.15,26.39c16.83,6.73,30.99,15.76,30.99,34.71,0,24.26-23.91,36.66-49.41,36.66-7.97,0-22.49-1.24-32.94-6.38Z"/>
          <path class="cls-3" d="M2530.62,884.07v3.01h-46.93v-3.01l8.86-8.15-11.16-32.41h-32.59l-11.87,30.64,10.63,9.92v3.01h-29.4v-3.01l10.63-9.92,42.86-107.51h7.97l42.15,109.28,8.86,8.15ZM2479.44,837.67l-13.46-39.14-15.05,39.14h28.51Z"/>
          <path class="cls-3" d="M2628.92,768.41v2.3l-10.98,12.4-39.32,105.73h-7.97l-42.15-109.28-8.5-8.86v-2.3h48.53v2.3l-10.8,8.86,27.45,75.45,24.62-71.91-12.57-12.4v-2.3h31.7Z"/>
          <path class="cls-3" d="M2668.06,773.2v50.48h19.84l11.69-12.75h3.01v30.46h-3.01l-11.69-12.75h-19.84v53.66h26.57l15.59-23.2h4.43v27.98h-83.06v-2.3l8.86-8.86v-96.35l-8.86-8.86v-2.3h83.06v27.98h-4.43l-15.59-23.2h-26.57Z"/>
          <path class="cls-3" d="M2843.75,768.41v27.98h-4.43l-15.59-23.2h-26.57v52.25h19.84l11.69-12.75h3.01v30.46h-3.01l-11.69-12.75h-19.84v45.52l10.63,8.86v2.3h-47.11v-2.3l8.86-8.86v-96.35l-8.86-8.86v-2.3h83.06Z"/>
          <path class="cls-3" d="M2896.35,884.78v2.3h-45.34v-2.3l8.68-8.68v-96.52l-8.86-8.86v-2.3h45.34v2.3l-8.86,8.86v96.35h.18l8.86,8.86Z"/>
          <path class="cls-3" d="M2991.81,856.97v30.11h-83.06v-2.3l8.86-8.86v-96.35l-8.86-8.86v-2.3h45.34v2.3l-8.86,8.86v102.19h26.03l16.12-24.79h4.43Z"/>
          <path class="cls-3" d="M3037.15,773.2v50.48h19.84l11.69-12.75h3.01v30.46h-3.01l-11.69-12.75h-19.84v53.66h26.57l15.59-23.2h4.43v27.98h-83.06v-2.3l8.86-8.86v-96.35l-8.86-8.86v-2.3h83.06v27.98h-4.43l-15.59-23.2h-26.57Z"/>
          <path class="cls-3" d="M3097.9,882.47v-32.94h4.43l13.46,22.32c4.25,5.31,11.16,11.69,21.08,11.69,12.22,0,17.89-9.74,17.89-20.9,0-14.7-10.27-19.13-26.21-26.74-13.64-6.55-30.29-15.94-30.29-34.36,0-20.54,20.54-34.89,48.53-34.89,5.67,0,14.52.89,25.86,4.07v28.69h-4.43l-12.04-19.13c-3.37-3.54-8.5-8.32-16.12-8.32-9.92,0-15.94,7.97-15.94,19.13s6.38,18.95,25.15,26.39c16.83,6.73,30.99,15.76,30.99,34.71,0,24.26-23.91,36.66-49.41,36.66-7.97,0-22.49-1.24-32.94-6.38Z"/>
        </g>
      </g>
    </g>
  </g>
</svg>