<?xml version="1.0" encoding="UTF-8"?>
<svg id="_레이어_1" data-name="레이어 1" xmlns="http://www.w3.org/2000/svg" viewBox="0 0 836.55 758.43">
  <defs>
    <style>
      .cls-1 {
        fill: none;
      }

      .cls-1, .cls-2, .cls-3, .cls-4 {
        stroke: #050101;
        stroke-miterlimit: 10;
        stroke-width: 3px;
      }

      .cls-2 {
        fill: #840000;
      }

      .cls-3 {
        fill: #a00b0b;
      }

      .cls-4 {
        fill: #b50000;
      }
    </style>
  </defs>
  <g>
    <g>
      <path class="cls-4" d="M282.98,168.23s43.83-55.25,96.85-67.72c30.35-7.14,62.09,2.68,83.84,25.03,10.69,10.98,30.17,25.56,65.45,40.39,55.03,23.13,99.45,66.17,123.32,120.88,24.05,55.14,39.88,140.74-5.08,212.67,0,0-144.33,201.12-359.64,80.45,0,0-257.9-127.77-4.73-411.7Z"/>
      <circle class="cls-3" cx="432.05" cy="385.91" r="187.11"/>
    </g>
    <path class="cls-1" d="M347.14,479.11s7.91-8.4,17.54-22.2c14.11-20.23,31.92-52.05,33.9-86.01,2.36-40.25,16.64-76.38,53.09-87.17,28.6-8.46,50.14,2.67,56.37,20.13,5.57,15.6-15.32,28.65-28.82,36.26l-98.03,50.62c-1.84.95-3.45-1.61-1.8-2.85,34.15-25.7,118.9-77.01,143.76-26.82,4.08,8.24,3.44,18-1.88,25.49-12.65,17.81-53.49,46.26-183.04,66.13"/>
  </g>
  <path class="cls-2" d="M212.74,516.76s79.08,109.96,234.97,100.92c0,0-142.34-4.52-234.97-100.92Z"/>
  <path class="cls-2" d="M439.13,107.9s14.86,6.13,28.81,21.91c0,0,21.45,19.46,45.67,28.96,0,0-32.64-1.23-50.88-24.67,0,0-11.95-17.32-23.6-26.2Z"/>
</svg>