<?xml version="1.0" encoding="UTF-8"?>
<svg id="_레이어_1" data-name="레이어 1" xmlns="http://www.w3.org/2000/svg" viewBox="0 0 5509.16 3093">
  <defs>
    <style>
      .cls-1 {
        fill: #000;
      }

      .cls-1, .cls-2, .cls-3, .cls-4, .cls-5, .cls-6, .cls-7, .cls-8 {
        stroke-miterlimit: 10;
      }

      .cls-1, .cls-3, .cls-4, .cls-5, .cls-6, .cls-7, .cls-8 {
        stroke: #000;
      }

      .cls-1, .cls-4, .cls-5, .cls-6, .cls-7, .cls-8 {
        stroke-width: 3px;
      }

      .cls-9 {
        stroke-width: 0px;
      }

      .cls-9, .cls-10 {
        fill: #9e0000;
      }

      .cls-2 {
        fill: none;
        stroke: #fff;
        stroke-width: 5.13px;
      }

      .cls-11 {
        letter-spacing: .03em;
      }

      .cls-12 {
        letter-spacing: 0em;
      }

      .cls-10 {
        font-family: ChalkboardSE-Regular, 'Chalkboard SE';
        font-size: 115.82px;
      }

      .cls-3 {
        fill: #db0000;
        stroke-width: 3.17px;
      }

      .cls-13 {
        letter-spacing: .04em;
      }

      .cls-14 {
        letter-spacing: 0em;
      }

      .cls-4 {
        fill: #2b1801;
      }

      .cls-5 {
        fill: #c9c9c9;
      }

      .cls-6 {
        fill: #fff;
      }

      .cls-7 {
        fill: #e5dbcf;
      }

      .cls-8 {
        fill: #512e00;
      }
    </style>
  </defs>
  <rect class="cls-4" x="2728.83" y="399.44" width="156.57" height="2331.1"/>
  <path class="cls-8" d="M1272.29,399.44h1461.76v2331.1h-1460.72c-88.19,0-159.79-71.6-159.79-159.79V558.19c0-87.62,71.14-158.75,158.75-158.75Z"/>
  <rect class="cls-3" x="1605.46" y="446.18" width="216.52" height="455.14"/>
  <polygon class="cls-7" points="1477.12 643.48 1283.72 726.66 1283.72 2510.14 1477.12 2496.9 1477.12 643.48"/>
  <path class="cls-6" d="M2764.56,2496.9c-199.39-15.61-394.08,11.8-623.12,11.79-229.17,0-464.84-27.41-664.33-11.79V643.48c199.86-17.27,417.51-27.98,650.67-27.76,227.86.21,440.83,10.83,636.77,27.76v1853.43Z"/>
  <path class="cls-8" d="M2880.29,399.44h1499.56c91.18,0,165.2,74.02,165.2,165.2v1990.42c0,96.85-78.63,175.48-175.48,175.48h-1489.28V399.44h0Z"/>
  <path class="cls-6" d="M4156.41,2496.9c-183.23-29.72-405.69-5.95-651.16-6.08-247.24-.13-462.03-23.8-646.24,6.08V643.48c216.01-18.66,451.88-29.65,704.98-27.76,210.39,1.57,408.37,11.86,592.42,27.76v1853.43Z"/>
  <circle class="cls-1" cx="2602.07" cy="782.12" r="47.76"/>
  <circle class="cls-1" cx="2602.07" cy="1004.53" r="47.76"/>
  <circle class="cls-1" cx="2602.07" cy="1226.94" r="47.76"/>
  <circle class="cls-1" cx="2602.07" cy="1449.36" r="47.76"/>
  <circle class="cls-1" cx="2602.07" cy="1671.77" r="47.76"/>
  <circle class="cls-1" cx="2602.07" cy="1894.18" r="47.76"/>
  <circle class="cls-1" cx="2602.07" cy="2116.6" r="47.76"/>
  <circle class="cls-1" cx="2602.07" cy="2339.01" r="47.76"/>
  <g>
    <circle class="cls-1" cx="3013.19" cy="782.12" r="47.76"/>
    <circle class="cls-1" cx="3013.19" cy="1004.53" r="47.76"/>
    <circle class="cls-1" cx="3013.19" cy="1226.94" r="47.76"/>
    <circle class="cls-1" cx="3013.19" cy="1449.36" r="47.76"/>
    <circle class="cls-1" cx="3013.19" cy="1671.77" r="47.76"/>
    <circle class="cls-1" cx="3013.19" cy="1894.18" r="47.76"/>
    <circle class="cls-1" cx="3013.19" cy="2116.6" r="47.76"/>
    <circle class="cls-1" cx="3013.19" cy="2339.01" r="47.76"/>
  </g>
  <path class="cls-5" d="M2962.63,813.24c-47.78-5.6-102.26-9.46-162.28-9.41-59.09.05-112.79,3.88-159.99,9.41-19.13,0-34.64-14.36-34.64-32.08h0c0-17.72,15.51-32.08,34.64-32.08,47.11-4.91,99.64-8.2,156.78-8.36,60.58-.17,116.06,3.21,165.49,8.36,19.13,0,34.64,14.36,34.64,32.08h0c0,17.72-15.51,32.08-34.64,32.08Z"/>
  <path class="cls-5" d="M2962.63,1035.95c-47.78-5.6-102.26-9.46-162.28-9.41-59.09.05-112.79,3.88-159.99,9.41-19.13,0-34.64-14.36-34.64-32.08h0c0-17.72,15.51-32.08,34.64-32.08,47.11-4.91,99.64-8.2,156.78-8.36,60.58-.17,116.06,3.21,165.49,8.36,19.13,0,34.64,14.36,34.64,32.08h0c0,17.72-15.51,32.08-34.64,32.08Z"/>
  <path class="cls-5" d="M2962.63,1258.66c-47.78-5.6-102.26-9.46-162.28-9.41-59.09.05-112.79,3.88-159.99,9.41-19.13,0-34.64-14.36-34.64-32.08h0c0-17.72,15.51-32.08,34.64-32.08,47.11-4.91,99.64-8.2,156.78-8.36,60.58-.17,116.06,3.21,165.49,8.36,19.13,0,34.64,14.36,34.64,32.08h0c0,17.72-15.51,32.08-34.64,32.08Z"/>
  <path class="cls-5" d="M2962.63,1481.36c-47.78-5.6-102.26-9.46-162.28-9.41-59.09.05-112.79,3.88-159.99,9.41-19.13,0-34.64-14.36-34.64-32.08h0c0-17.72,15.51-32.08,34.64-32.08,47.11-4.91,99.64-8.2,156.78-8.36,60.58-.17,116.06,3.21,165.49,8.36,19.13,0,34.64,14.36,34.64,32.08h0c0,17.72-15.51,32.08-34.64,32.08Z"/>
  <path class="cls-5" d="M2962.63,1704.07c-47.78-5.6-102.26-9.46-162.28-9.41-59.09.05-112.79,3.88-159.99,9.41-19.13,0-34.64-14.36-34.64-32.08h0c0-17.72,15.51-32.08,34.64-32.08,47.11-4.91,99.64-8.2,156.78-8.36,60.58-.17,116.06,3.21,165.49,8.36,19.13,0,34.64,14.36,34.64,32.08h0c0,17.72-15.51,32.08-34.64,32.08Z"/>
  <path class="cls-5" d="M2962.63,1926.78c-47.78-5.6-102.26-9.46-162.28-9.41-59.09.05-112.79,3.88-159.99,9.41-19.13,0-34.64-14.36-34.64-32.08h0c0-17.72,15.51-32.08,34.64-32.08,47.11-4.91,99.64-8.2,156.78-8.36,60.58-.17,116.06,3.21,165.49,8.36,19.13,0,34.64,14.36,34.64,32.08h0c0,17.72-15.51,32.08-34.64,32.08Z"/>
  <path class="cls-5" d="M2962.63,2149.49c-47.78-5.6-102.26-9.46-162.28-9.41-59.09.05-112.79,3.88-159.99,9.41-19.13,0-34.64-14.36-34.64-32.08h0c0-17.72,15.51-32.08,34.64-32.08,47.11-4.91,99.64-8.2,156.78-8.36,60.58-.17,116.06,3.21,165.49,8.36,19.13,0,34.64,14.36,34.64,32.08h0c0,17.72-15.51,32.08-34.64,32.08Z"/>
  <path class="cls-5" d="M2962.63,2372.2c-47.78-5.6-102.26-9.46-162.28-9.41-59.09.05-112.79,3.88-159.99,9.41-19.13,0-34.64-14.36-34.64-32.08h0c0-17.72,15.51-32.08,34.64-32.08,47.11-4.91,99.64-8.2,156.78-8.36,60.58-.17,116.06,3.21,165.49,8.36,19.13,0,34.64,14.36,34.64,32.08h0c0,17.72-15.51,32.08-34.64,32.08Z"/>
  <polygon class="cls-7" points="4142.15 643.48 4335.56 726.66 4335.56 2510.14 4142.15 2496.9 4142.15 643.48"/>
  <g>
    <line class="cls-2" x1="1667.53" y1="486.46" x2="1756.98" y2="575.9"/>
    <line class="cls-2" x1="1756.98" y1="486.46" x2="1667.53" y2="575.9"/>
  </g>
  <g>
    <g>
      <path class="cls-9" d="M3538.43,2306.21c3.71,7.87,6.48,16.09,8.68,24.51.87,12.97,1.24,26.3-1.67,39.23-1.19,4.76-2.63,9.7-5.51,13.75-3.17,3.95-7.97,5.87-12.85,5.56-7.13-.11-13.2-7.35-10.61-14.4,2.08-5.31,7.63-8.79,13.07-9.33,0,0,6.49-.41,6.49-.41,21.17-1.55,42.51-2.11,63.71-.2,8.34,2.24,16.6,5.09,24.49,8.61-4.33.33-8.57.47-12.81.83-1.78.12-4.51.32-6.32.5-2.1.19-4.18.3-6.27.55-8.21-.74-16.46-1.08-24.73-1.16-12.45-.12-24.88.48-37.33,1.37,0,0-6.07.38-6.07.38-1.7.2-3.24.94-4.16,2.26-.07.09-.11.19-.18.28-.01.05.02-.02.01-.04.05-.07.04-.19.06-.27-.02-.2-.04-.16.05,0,.09.14.35.37.35.35,0,.01-.04-.03-.09-.03.1.02.23.05.34.09,1.8.44,4.08-.36,4.91-1.97,0,0,.57-1.2.57-1.2,4.32-9.86,4.67-20.96,4.63-31.66.04-4.09-.45-8.17-.67-12.23.8-8.3,1.38-16.74,1.92-25.38h0Z"/>
      <path class="cls-9" d="M4055.62,2306.21c.54,8.64,1.12,17.08,1.92,25.38-.22,4.06-.71,8.14-.67,12.23-.05,10.7.3,21.8,4.63,31.66,0,0,.57,1.2.57,1.2.83,1.6,3.11,2.4,4.91,1.97.11-.04.25-.07.34-.09-.05,0-.1.04-.09.03,0,.02.26-.21.35-.35.09-.16.08-.2.05,0,.02.09,0,.21.06.27,0,.02.03.08.01.04-.07-.09-.1-.19-.18-.28-.92-1.32-2.46-2.05-4.16-2.26,0,0-6.07-.38-6.07-.38-12.45-.89-24.88-1.5-37.33-1.37-8.27.07-16.53.41-24.73,1.16-2.09-.25-4.17-.36-6.27-.55-1.69-.18-4.59-.37-6.32-.5-4.24-.36-8.48-.5-12.81-.83,7.88-3.53,16.14-6.37,24.49-8.61,21.2-1.91,42.54-1.35,63.71.2,0,0,6.49.41,6.49.41,5.44.54,10.99,4.01,13.07,9.33,2.58,7.04-3.48,14.29-10.61,14.4-5.27.36-10.6-2.03-13.59-6.59-2.3-3.92-3.73-8.33-4.77-12.71-2.91-12.93-2.54-26.27-1.67-39.23,2.21-8.41,4.97-16.64,8.68-24.51h0Z"/>
      <path class="cls-9" d="M3538.43,2275.97c-.54-8.64-1.12-17.08-1.92-25.38.22-4.06.71-8.14.67-12.23.05-10.7-.3-21.8-4.63-31.66,0,0-.57-1.2-.57-1.2-.83-1.6-3.11-2.4-4.91-1.97-.11.04-.25.07-.34.09.05,0,.1-.04.09-.03,0-.02-.27.21-.35.35-.09.16-.08.2-.05,0-.02-.09,0-.21-.06-.27,0-.02-.03-.08-.01-.04.07.09.1.19.18.28.92,1.32,2.46,2.05,4.16,2.26,0,0,6.07.38,6.07.38,12.45.89,24.89,1.5,37.33,1.37,8.27-.07,16.53-.41,24.73-1.16,2.09.25,4.17.36,6.27.55,1.69.18,4.59.37,6.32.5,4.24.36,8.48.5,12.81.83-7.88,3.53-16.14,6.37-24.49,8.61-21.2,1.91-42.54,1.35-63.71-.2,0,0-6.49-.41-6.49-.41-5.44-.54-10.99-4.01-13.07-9.33-2.58-7.04,3.48-14.29,10.61-14.4,5.27-.36,10.6,2.03,13.59,6.59,2.3,3.92,3.73,8.33,4.77,12.71,2.91,12.93,2.54,26.27,1.67,39.23-2.21,8.41-4.97,16.64-8.68,24.51h0Z"/>
    </g>
    <path class="cls-9" d="M4055.62,2275.97c-3.71-7.87-6.48-16.09-8.68-24.51-.87-12.97-1.24-26.3,1.67-39.23,1.19-4.76,2.63-9.7,5.51-13.75,3.16-3.95,7.97-5.87,12.85-5.56,7.13.11,13.2,7.35,10.61,14.4-2.08,5.32-7.63,8.79-13.07,9.33,0,0-6.49.41-6.49.41-21.17,1.55-42.51,2.11-63.71.2-8.34-2.24-16.6-5.09-24.49-8.61,4.33-.33,8.57-.47,12.81-.83,1.78-.12,4.51-.32,6.32-.5,2.1-.19,4.18-.3,6.27-.55,8.21.74,16.46,1.08,24.73,1.16,12.45.12,24.88-.48,37.33-1.37,0,0,6.07-.38,6.07-.38,1.7-.2,3.24-.94,4.16-2.26.07-.09.11-.19.18-.28.02-.05-.02.02-.01.04-.05.07-.04.19-.06.27.02.2.04.16-.05,0-.09-.14-.35-.37-.35-.35,0-.01.04.03.09.03-.1-.02-.23-.05-.34-.09-1.8-.44-4.08.36-4.91,1.97,0,0-.57,1.2-.57,1.2-4.32,9.86-4.67,20.96-4.63,31.66-.04,4.09.45,8.17.67,12.23-.8,8.3-1.38,16.74-1.92,25.38h0Z"/>
  </g>
  <text class="cls-10" transform="translate(3599.17 2319.96) rotate(.71)"><tspan x="0" y="0">C</tspan><tspan class="cls-11" x="67.96" y="0">o</tspan><tspan class="cls-12" x="127.33" y="0">n</tspan><tspan class="cls-14" x="186.46" y="0">f</tspan><tspan x="236.62" y="0">i</tspan><tspan class="cls-13" x="265.54" y="0">r</tspan><tspan x="321.21" y="0">m</tspan></text>
</svg>