<?xml version="1.0" encoding="UTF-8"?>
<svg id="_레이어_1" data-name="레이어 1" xmlns="http://www.w3.org/2000/svg" viewBox="0 0 4529.05 1763.33">
  <defs>
    <style>
      .cls-1 {
        stroke-width: 0px;
      }

      .cls-1, .cls-2 {
        fill: #9e0000;
      }

      .cls-2 {
        font-family: ChalkboardSE-Regular, 'Chalkboard SE';
        font-size: 943.78px;
      }

      .cls-3 {
        letter-spacing: -.02em;
      }
    </style>
  </defs>
  <g>
    <g>
      <path class="cls-1" d="M413.5,1054.28c26.11,55.14,45.47,112.97,60.99,172,1.76,7.43,1.58,15.02,1.55,22.58,4.57,86.52,5.8,173.27-14.63,258.61-4.91,19.87-11.17,39.54-19.35,58.35-3.74,8.35-7.9,17.29-12.8,25.04-24.99,38.71-75.78,55.4-119.24,41.9-31.27-9.77-54.74-40-54.88-73.09-.03-11.81,3.21-23.64,8.98-33.82.76-1.37,2.61-4.34,3.37-5.62,20.03-30.84,55.44-48.66,91.47-50.23,4.91-.22,11.05-.56,15.95-.86,96.18-6.81,192.79-12.39,289.48-11.3,59.78.52,119.65,3.09,179.42,8.37,0,0,11.02,2.99,11.02,2.99,54.84,15.37,109.03,33.86,160.83,57.54-56.07,3.37-111.68,6.88-167.31,12.05,0,0-10.99,1.07-10.99,1.07-57.61-5.1-115.56-7.58-173.6-8.09-94.76-1.08-189.6,4.47-284.34,11.16-3.13.16-8.34.51-11.47.64,0,0-5.67.28-5.67.28-9.18.37-18.87,3.72-25.37,8.77-3.59,2.82-6.16,5.72-8.24,9.29-.16.24-.07.14-.07.12.27-.62.52-1.53.49-2.32.02-.63-.14-1.01-.1-.95.34.95,1.71,2.55,2.7,3.22,11.31,3.75,29.2.24,36.6-13.19.79-1.51,2.35-4.78,3.1-6.2.59-1.25,2.3-5.08,2.92-6.4,32.57-78.4,32.62-176.39,28.98-260.87-.43-7.16-.6-14.34-1.55-21.46-.47-3.57-1.11-7.12-1.48-10.69-.41-3.57-.5-7.16-.26-10.79,5.73-59.05,9.73-118.34,13.53-178.12h0Z"/>
      <path class="cls-1" d="M4043.26,1054.28c3.8,59.77,7.8,119.07,13.53,178.12.24,3.63.15,7.22-.26,10.79-.37,3.57-1.01,7.12-1.48,10.69-.95,7.12-1.13,14.3-1.55,21.46-3.65,84.42-3.59,182.5,28.97,260.88,1.03,2.28,2.8,6.24,3.96,8.47,0,0,2.06,4.14,2.06,4.14.76,1.24,1.44,2.32,2.28,3.48,8.53,10.66,24.24,13.06,34.32,9.71,1.03-.64,2.35-2.29,2.7-3.22.04-.06-.12.32-.1.95,0,.62.12,1.46.34,1.94.04.16.1.25.15.38,0,.01.1.11-.07-.12-2.08-3.58-4.65-6.48-8.24-9.29-6.5-5.05-16.19-8.39-25.37-8.77,0,0-5.67-.28-5.67-.28-3.15-.15-8.26-.45-11.47-.64-94.74-6.69-189.57-12.24-284.34-11.16-58.04.51-115.99,3-173.6,8.09,0,0-10.99-1.07-10.99-1.07-55.63-5.18-111.23-8.69-167.31-12.05,51.8-23.68,105.99-42.18,160.83-57.54,0,0,11.02-2.99,11.02-2.99,59.77-5.29,119.64-7.85,179.42-8.37,96.69-1.1,193.31,4.49,289.48,11.3,4.88.31,11.07.62,15.95.86,36.02,1.56,71.44,19.39,91.46,50.23,1.29,2.04,2.24,3.77,3.37,5.62,5.76,10.18,9,22.01,8.97,33.82-.13,33.09-23.62,63.32-54.88,73.09-43.46,13.49-94.25-3.19-119.24-41.9-4.9-7.75-9.06-16.68-12.8-25.04-8.18-18.8-14.44-38.47-19.35-58.35-20.43-85.34-19.2-172.09-14.63-258.6-.02-7.57-.21-15.15,1.55-22.58,15.52-59.03,34.88-116.86,60.99-172h0Z"/>
      <path class="cls-1" d="M413.5,842.07c-3.8-59.77-7.8-119.07-13.53-178.12-.24-3.63-.15-7.22.26-10.79.37-3.57,1.01-7.12,1.48-10.69.95-7.12,1.13-14.31,1.55-21.46,3.65-84.42,3.59-182.5-28.97-260.88-1.03-2.28-2.8-6.24-3.96-8.47,0,0-2.06-4.14-2.06-4.14-.76-1.24-1.44-2.32-2.28-3.48-8.53-10.66-24.25-13.06-34.32-9.7-1.03.64-2.35,2.29-2.7,3.22-.04.06.12-.32.1-.95,0-.62-.12-1.46-.34-1.94-.04-.16-.1-.25-.15-.38,0-.01-.1-.11.07.12,2.08,3.57,4.65,6.48,8.24,9.29,6.5,5.05,16.19,8.39,25.37,8.77,0,0,5.67.28,5.67.28,3.15.15,8.26.45,11.47.64,94.74,6.69,189.57,12.24,284.34,11.16,58.04-.51,115.99-2.99,173.6-8.09,0,0,10.99,1.07,10.99,1.07,55.63,5.18,111.23,8.69,167.31,12.05-51.8,23.68-105.99,42.18-160.83,57.54,0,0-11.02,2.99-11.02,2.99-59.77,5.29-119.64,7.85-179.42,8.37-96.69,1.1-193.31-4.49-289.48-11.3-4.88-.31-11.07-.62-15.95-.85-36.02-1.56-71.44-19.39-91.46-50.23-1.29-2.04-2.24-3.77-3.37-5.62-5.76-10.18-9-22.01-8.98-33.82.13-33.09,23.62-63.32,54.88-73.09,43.46-13.49,94.25,3.19,119.24,41.9,4.9,7.75,9.06,16.68,12.8,25.04,8.18,18.8,14.44,38.48,19.35,58.35,20.43,85.34,19.2,172.09,14.63,258.6.02,7.57.21,15.15-1.55,22.58-15.52,59.03-34.88,116.86-60.99,172h0Z"/>
    </g>
    <path class="cls-1" d="M4043.26,842.07c-26.1-55.14-45.47-112.97-60.99-172-1.76-7.43-1.58-15.02-1.55-22.58-4.57-86.52-5.8-173.27,14.63-258.61,4.91-19.87,11.17-39.54,19.35-58.35,3.74-8.35,7.9-17.29,12.8-25.04,24.99-38.71,75.78-55.4,119.24-41.9,31.27,9.77,54.74,40,54.88,73.09.03,11.81-3.21,23.64-8.98,33.82-.76,1.37-2.61,4.34-3.37,5.62-20.03,30.84-55.44,48.66-91.47,50.23-4.91.22-11.05.56-15.95.86-96.18,6.81-192.79,12.39-289.48,11.3-59.78-.52-119.65-3.09-179.42-8.37,0,0-11.02-2.99-11.02-2.99-54.84-15.37-109.03-33.86-160.83-57.54,56.07-3.37,111.68-6.88,167.31-12.05,0,0,10.99-1.07,10.99-1.07,57.61,5.1,115.56,7.59,173.6,8.09,94.76,1.08,189.6-4.47,284.34-11.16,3.13-.16,8.34-.51,11.47-.64,0,0,5.67-.28,5.67-.28,9.18-.37,18.87-3.72,25.37-8.77,3.59-2.82,6.16-5.72,8.24-9.29.16-.24.07-.14.07-.12-.27.62-.52,1.52-.49,2.32-.02.63.14,1.01.1.95-.34-.95-1.71-2.55-2.7-3.22-11.31-3.75-29.2-.24-36.6,13.19-.79,1.51-2.35,4.78-3.1,6.2-.59,1.25-2.3,5.08-2.92,6.4-32.57,78.41-32.62,176.39-28.98,260.87.43,7.16.6,14.34,1.55,21.46.47,3.57,1.11,7.12,1.48,10.69.41,3.57.5,7.16.26,10.79-5.73,59.05-9.73,118.34-13.53,178.12h0Z"/>
  </g>
  <text class="cls-2" transform="translate(838.95 1252.56) rotate(.71)"><tspan x="0" y="0">S</tspan><tspan class="cls-3" x="554.8" y="0">T</tspan><tspan x="1073.08" y="0">ART</tspan></text>
</svg>