<?xml version="1.0" encoding="UTF-8"?>
<svg id="_레이어_1" data-name="레이어 1" xmlns="http://www.w3.org/2000/svg" viewBox="0 0 5442.52 3061.42">
  <defs>
    <style>
      .cls-1 {
        fill: #0068ff;
        stroke-width: 3.92px;
      }

      .cls-1, .cls-2, .cls-3, .cls-4, .cls-5, .cls-6, .cls-7, .cls-8, .cls-9, .cls-10, .cls-11, .cls-12, .cls-13, .cls-14, .cls-15, .cls-16, .cls-17, .cls-18, .cls-19, .cls-20, .cls-21, .cls-22, .cls-23, .cls-24, .cls-25, .cls-26, .cls-27, .cls-28, .cls-29, .cls-30, .cls-31, .cls-32, .cls-33, .cls-34, .cls-35, .cls-36, .cls-37, .cls-38, .cls-39, .cls-40, .cls-41, .cls-42, .cls-43, .cls-44, .cls-45, .cls-46, .cls-47, .cls-48, .cls-49, .cls-50, .cls-51, .cls-52, .cls-53, .cls-54, .cls-55 {
        stroke: #000;
        stroke-miterlimit: 10;
      }

      .cls-2 {
        fill: #232323;
      }

      .cls-2, .cls-3, .cls-6, .cls-9, .cls-11, .cls-12, .cls-16, .cls-17, .cls-19, .cls-20, .cls-21, .cls-25, .cls-27, .cls-28, .cls-30, .cls-34, .cls-39, .cls-40, .cls-43, .cls-45, .cls-46, .cls-50, .cls-52, .cls-53, .cls-55 {
        stroke-width: 3px;
      }

      .cls-3, .cls-35 {
        fill: #4f3719;
      }

      .cls-4 {
        stroke-width: 3.19px;
      }

      .cls-4, .cls-5, .cls-7, .cls-22, .cls-24, .cls-36, .cls-37, .cls-39 {
        fill: none;
      }

      .cls-5 {
        stroke-width: 2.53px;
      }

      .cls-6 {
        fill: #5e1f1f;
      }

      .cls-7 {
        stroke-width: 2.55px;
      }

      .cls-8 {
        stroke-width: .27px;
      }

      .cls-8, .cls-32 {
        fill: #000;
      }

      .cls-9 {
        fill: #997447;
      }

      .cls-10 {
        stroke-width: 2.59px;
      }

      .cls-10, .cls-52 {
        fill: #878787;
      }

      .cls-11, .cls-26 {
        fill: #89653a;
      }

      .cls-12 {
        fill: #4c3d2b;
      }

      .cls-13, .cls-15 {
        fill: #383838;
      }

      .cls-13, .cls-47 {
        stroke-width: 3.18px;
      }

      .cls-14 {
        fill: #db0000;
        stroke-width: 3.39px;
      }

      .cls-15, .cls-29 {
        stroke-width: 2.54px;
      }

      .cls-16 {
        fill: #ba0d0d;
      }

      .cls-17 {
        fill: #492b00;
      }

      .cls-18 {
        stroke-width: 2.98px;
      }

      .cls-18, .cls-19 {
        fill: #686868;
      }

      .cls-20, .cls-48 {
        fill: #c9c9c9;
      }

      .cls-21 {
        fill: #606060;
      }

      .cls-22 {
        stroke-width: 2.92px;
      }

      .cls-23 {
        fill: #003677;
        stroke-width: 3.84px;
      }

      .cls-24 {
        stroke-width: 3.5px;
      }

      .cls-25 {
        fill: #821200;
      }

      .cls-26, .cls-35 {
        stroke-width: 2.66px;
      }

      .cls-27 {
        fill: #545454;
      }

      .cls-28 {
        fill: #b27c36;
      }

      .cls-29, .cls-33, .cls-40, .cls-47, .cls-49 {
        fill: #cecece;
      }

      .cls-30 {
        fill: #fff;
      }

      .cls-31 {
        stroke-width: 2.65px;
      }

      .cls-31, .cls-43 {
        fill: #ad8d6a;
      }

      .cls-32 {
        stroke-width: .31px;
      }

      .cls-33 {
        stroke-width: 2.64px;
      }

      .cls-34 {
        fill: #c4a886;
      }

      .cls-36 {
        stroke-width: 2.83px;
      }

      .cls-37 {
        stroke-width: 3.03px;
      }

      .cls-38 {
        stroke-width: 3.04px;
      }

      .cls-38, .cls-41, .cls-42, .cls-44, .cls-51, .cls-54 {
        fill: #ddd;
      }

      .cls-41 {
        stroke-width: 3px;
      }

      .cls-42 {
        stroke-width: 3px;
      }

      .cls-44 {
        stroke-width: 3.02px;
      }

      .cls-45 {
        fill: #a56200;
      }

      .cls-46 {
        fill: #ef6262;
      }

      .cls-48 {
        stroke-width: 2.46px;
      }

      .cls-49 {
        stroke-width: 3.11px;
      }

      .cls-50 {
        fill: #ce4141;
      }

      .cls-51 {
        stroke-width: 2.97px;
      }

      .cls-53 {
        fill: #a82727;
      }

      .cls-54 {
        stroke-width: 2.97px;
      }

      .cls-55 {
        fill: #491c1c;
      }
    </style>
  </defs>
  <g>
    <rect class="cls-30" x="2504.4" y="1531.15" width="656.31" height="656.31"/>
    <rect class="cls-30" x="3162.05" y="1530.35" width="656.31" height="656.31"/>
    <rect class="cls-30" x="3819.75" y="1528.17" width="656.31" height="656.31"/>
    <rect class="cls-30" x="4477.46" y="1528.17" width="656.31" height="656.31"/>
    <rect class="cls-30" x="5135.16" y="1528.17" width="656.31" height="656.31"/>
    <rect class="cls-30" x="2504.35" y="874.9" width="656.31" height="656.31"/>
    <rect class="cls-30" x="3160.67" y="875.26" width="656.31" height="656.31"/>
    <rect class="cls-30" x="3819.75" y="874.9" width="656.31" height="656.31"/>
    <rect class="cls-30" x="4477.46" y="874.9" width="656.31" height="656.31"/>
    <rect class="cls-30" x="5135.16" y="874.9" width="656.31" height="656.31"/>
    <rect class="cls-30" x="2504.35" y="221.62" width="656.31" height="656.31"/>
    <rect class="cls-30" x="3162.05" y="221.62" width="656.31" height="656.31"/>
    <rect class="cls-30" x="3820.5" y="221.62" width="656.31" height="656.31"/>
    <rect class="cls-30" x="4477.46" y="221.62" width="656.31" height="656.31"/>
    <rect class="cls-30" x="5135.16" y="221.62" width="656.31" height="656.31"/>
    <rect class="cls-30" x="2504.35" y="-431.65" width="656.31" height="656.31"/>
    <rect class="cls-30" x="3162.05" y="-431.65" width="656.31" height="656.31"/>
    <polygon class="cls-30" points="4474.76 223.36 3819.51 224.9 3821.73 -432.58 4478.04 -432.58 4474.76 223.36"/>
    <rect class="cls-30" x="4477.46" y="-431.65" width="656.31" height="656.31"/>
    <rect class="cls-30" x="5135.16" y="-431.65" width="656.31" height="656.31"/>
  </g>
  <g>
    <g>
      <path class="cls-42" d="M522.5,2184.27c-.5-1.5-336.46,182.93-336.46,182.93h759.57l252.2-184.44-675.32,1.51Z"/>
      <path class="cls-42" d="M176.83,2368.01c-.5-1.5-336.46,182.93-336.46,182.93h860.93l252.2-184.44-776.68,1.51Z"/>
      <path class="cls-42" d="M-154.53,2552.4c-.5-1.5-336.46,182.93-336.46,182.93H451.06l252.2-184.44-857.79,1.51Z"/>
      <path class="cls-42" d="M-490.98,2736.47c-.5-1.5-336.46,182.93-336.46,182.93H206.31l252.2-184.44-949.5,1.51Z"/>
      <path class="cls-42" d="M-824.89,2920.54c-.5-1.5-336.46,182.93-336.46,182.93H-38.44l252.2-184.44-1038.65,1.51Z"/>
    </g>
    <g>
      <path class="cls-42" d="M1198.21,2184.27c-.5-1.5-251.68,182.93-251.68,182.93h767.51l144.34-184.44-660.17,1.51Z"/>
      <path class="cls-42" d="M950.87,2368.01c-.5-1.5-248.78,182.93-248.78,182.93h860.93l146.69-180.72-758.84-2.21Z"/>
      <path class="cls-42" d="M703.52,2552.4c-.5-1.5-246.99,180.55-246.99,180.55l945.2,2.38,160.98-184.44-859.2,1.51Z"/>
      <path class="cls-42" d="M458.34,2733.22c-.5-1.5-242.3,183.29-242.3,183.29l1029.91,2.89,158.39-184.44-945.99-1.74Z"/>
      <path class="cls-42" d="M208.83,2920.54c-.5-1.5-248.01,182.93-248.01,182.93h1122.9l164.39-184.44-1039.28,1.51Z"/>
    </g>
    <g>
      <path class="cls-42" d="M1853.97,2184.27c-.5-1.5-140.14,182.93-140.14,182.93h737.88l57.92-184.44-655.66,1.51Z"/>
      <path class="cls-42" d="M1713.54,2368.01c-.5-1.5-153.28,182.93-153.28,182.93h831.3l61.73-180.72-739.75-2.21Z"/>
      <path class="cls-42" d="M1564.84,2552.4c-.5-1.5-159.27,180.55-159.27,180.55l915.58,2.38,71.31-184.44-827.61,1.51Z"/>
      <path class="cls-42" d="M1250.93,2920.54c-.5-1.5-163.47,182.93-163.47,182.93h1093.28l75.46-184.44-1005.26,1.51Z"/>
      <path class="cls-42" d="M1406,2734.53c-2.51.81-156.69,182.94-156.69,182.94h1009.28l64.54-184.44-917.07,1.51s-.04-.01-.06,0Z"/>
    </g>
    <g>
      <path class="cls-42" d="M2510.71,2184.99c-.5-1.5-57.01,182.2-57.01,182.2h716.13l1.04-184.44-660.15,2.23Z"/>
      <path class="cls-42" d="M2252.88,2919c-.5-1.5-69.64,182.2-69.64,182.2h986.86l-1.79-184.44-915.43,2.23Z"/>
      <path class="cls-42" d="M2325.05,2735.48c-.5-1.5-69.64,182.2-69.64,182.2h912.38v-184.44l-842.74,2.23Z"/>
      <path class="cls-42" d="M2393.38,2552.05c-.5-1.5-69.64,182.2-69.64,182.2h844.16v-184.44l-774.52,2.23Z"/>
      <path class="cls-42" d="M2451.66,2367.74c-.5-1.5-59.09,182.2-59.09,182.2h777.25l-3.03-184.44-715.13,2.23Z"/>
    </g>
    <g>
      <path class="cls-38" d="M3818.09,2186.88c.52-1.5,58.45,182.2,58.45,182.2h-711.51s-.95-184.44-.95-184.44l654.01,2.23Z"/>
      <path class="cls-38" d="M4082.43,2920.89c.52-1.5,71.4,182.2,71.4,182.2h-987.78s-3.67-184.44-3.67-184.44l920.05,2.23Z"/>
      <path class="cls-38" d="M4008.44,2737.37c.52-1.5,71.4,182.2,71.4,182.2h-914.47s-1.76-184.44-1.76-184.44l844.83,2.23Z"/>
      <path class="cls-38" d="M3938.39,2553.94c.52-1.5,71.4,182.2,71.4,182.2h-847.06s1.67-184.44,1.67-184.44l773.99,2.23Z"/>
      <path class="cls-38" d="M3878.63,2369.63c.52-1.5,60.58,182.2,60.58,182.2h-774.18s-1.1-184.44-1.1-184.44l714.7,2.23Z"/>
    </g>
    <g>
      <path class="cls-51" d="M4479.48,2188.47c.51-1.49,141.11,182.26,141.11,182.26h-742.97s-58.32-183.76-58.32-183.76l660.17,1.5Z"/>
      <path class="cls-51" d="M4620.88,2371.55c.51-1.49,154.33,182.26,154.33,182.26h-837.03s-62.16-180.06-62.16-180.06l744.85-2.2Z"/>
      <path class="cls-51" d="M4770.6,2555.26c.51-1.49,160.37,179.89,160.37,179.89l-921.88,2.37-71.8-183.76,833.31,1.5Z"/>
      <path class="cls-54" d="M5091.23,2922.05c.51-1.49,165.34,182.26,165.34,182.26h-1105.77s-76.32-183.76-76.32-183.76l1016.75,1.5Z"/>
      <path class="cls-51" d="M4930.53,2736.72c2.52.8,157.77,182.27,157.77,182.27h-1016.23s-64.99-183.76-64.99-183.76l923.39,1.5s.04-.01.06,0Z"/>
    </g>
    <g>
      <path class="cls-44" d="M5144.44,2189.28c.51-1.49,255.04,182.37,255.04,182.37h-777.74s-146.26-183.88-146.26-183.88l668.97,1.5Z"/>
      <path class="cls-44" d="M5395.09,2372.47c.51-1.49,252.09,182.37,252.09,182.37h-872.41s-148.65-180.17-148.65-180.17l768.96-2.2Z"/>
      <path class="cls-44" d="M5645.73,2556.29c.51-1.49,250.28,180,250.28,180l-957.81,2.37-163.13-183.88,870.66,1.5Z"/>
      <path class="cls-44" d="M5894.17,2736.56c.51-1.49,245.53,182.73,245.53,182.73l-1043.64,2.88-160.5-183.88,958.6-1.74Z"/>
      <path class="cls-44" d="M6145.73,2923.32c.51-1.49,251.31,182.37,251.31,182.37h-1137.88s-166.58-183.88-166.58-183.88l1053.14,1.5Z"/>
    </g>
    <g>
      <path class="cls-41" d="M5810.1,2189.7c.5-1.5,336.76,182.93,336.76,182.93h-760.26s-252.43-184.44-252.43-184.44l675.93,1.51Z"/>
      <path class="cls-41" d="M6156.09,2373.45c.5-1.5,336.76,182.93,336.76,182.93h-861.71s-252.43-184.44-252.43-184.44l777.39,1.51Z"/>
    </g>
  </g>
  <path class="cls-40" d="M200.5,3082.18l2905.11-1500.49c.59-.3.37-1.2-.29-1.19l-602.78,1.27s-.1,0-.14.02L-230.8,2218.85c-.28.07-.48.31-.49.6l-20.53,857.02c0,.35.27.64.62.65l451.4,5.13c.1,0,.21-.02.3-.07Z"/>
  <path class="cls-40" d="M3042.54,6.6v589.06L1543.99-159.23l1485.46,15.29s39.27,150.54,13.09,150.54Z"/>
  <polygon class="cls-19" points="2490.1 641.47 3039.89 595.66 1168 -346.83 -743.16 -143.94 2490.1 641.47"/>
  <polygon class="cls-16" points="60.15 1547.47 810.32 1540.91 480.03 1584.16 -58.66 1576.3 60.15 1547.47"/>
  <path class="cls-53" d="M810.32,2535.72c-11.8,0-279.4,115.16-279.4,115.16l-3.71,152.22,280.9-139.71,2.21-127.67Z"/>
  <polygon class="cls-55" points="248.04 2008.82 549.46 1949.93 553.4 2510.78 237.33 2632.89 248.04 2008.82"/>
  <polygon class="cls-6" points="810.32 2535.72 553.4 2510.78 237.33 2632.89 530.93 2650.87 810.32 2535.72"/>
  <polygon class="cls-17" points="1087.56 1634.92 1087.56 1963.58 1336.13 2003.17 1334.06 1656.83 1087.56 1634.92"/>
  <polygon class="cls-45" points="1607.94 1604.79 1607.98 1919.68 1337.92 2001.38 1334.06 1656.83 1607.94 1604.79"/>
  <path class="cls-28" d="M1360.07,1584.25l247.77,19.98c.42.03.45.63.04.71l-273.83,51.89-245.93-23.42c-.27-.02-.29-.41-.02-.46l271.97-48.71Z"/>
  <path class="cls-34" d="M2190.37,1948.72c-2.19.12-2.04,1.31-2.85,1.63l-554.21,221.43c-.14.06-.29.07-.43.05l-428.85-60.3c-.89-.13-1-1.37-.15-1.65l633.81-200.25,351.29,40.9"/>
  <path class="cls-12" d="M1200.43,2171.29v-60.26l431.85,60.84.4,59.68c0,.53-.47.94-.99.87l-431.26-61.13Z"/>
  <path class="cls-9" d="M2191.6,1981.15l.24-28.64c.01-1.49-1.48-2.51-2.86-1.96l-556.7,221.33.39,58.8c0,.91.93,1.53,1.77,1.19l557.16-250.71Z"/>
  <path class="cls-3" d="M2830.19,371.69h-68.38c-1.09-1.23-6.16-7.25-5.7-16.17.38-7.48,4.41-12.4,5.7-13.85h68.38v30.02Z"/>
  <path class="cls-11" d="M2844.4,319.25l-22.44-.16s-26.12,31.58.89,81.28l22,.16s-28.2-38.48-.45-81.28Z"/>
  <path class="cls-35" d="M2950.72,446.38h-60.63c-1.15-1.3-4.69-5.62-5.06-12.18-.45-7.96,4.1-13.35,5.06-14.43h60.63v26.62Z"/>
  <path class="cls-26" d="M2962.05,399.78h-19.9s-22.94,27.58,0,70.98h19.51s-25.96-40.33.39-70.98Z"/>
  <path class="cls-19" d="M3110.72,2187.37l-4.25-604.94c0-.93-.99-1.52-1.81-1.09L214.66,3078.68l1912.5-3.82,983.56-887.48Z"/>
  <polygon class="cls-21" points="2577.65 1796.4 2971.15 1616.85 2603.48 1616.41 2097.22 1767.3 2577.65 1796.4"/>
  <polygon class="cls-53" points="483.97 2041.98 480.03 1584.16 810.32 1540.91 813.5 1969.75 483.97 2041.98"/>
  <ellipse class="cls-50" cx="551.63" cy="1940.11" rx="16.32" ry="21.76"/>
  <ellipse class="cls-46" cx="558.48" cy="1940.11" rx="16.32" ry="21.76"/>
  <ellipse class="cls-50" cx="554.18" cy="1823.77" rx="24.36" ry="32.48"/>
  <ellipse class="cls-46" cx="563.13" cy="1823.77" rx="24.36" ry="32.48"/>
  <polygon class="cls-25" points="-58.66 1576.3 480.03 1584.16 483.97 2041.98 248.04 2030.2 237.33 2632.89 531.58 2650.22 527.22 2803.1 -70.45 2771.64 -58.66 1576.3"/>
  <polygon class="cls-2" points="2604.7 1616.41 2971.45 1616.41 2606.51 1782.9 2604.7 1616.41"/>
  <path class="cls-39" d="M2799.25,468.19c-.97,2.38,10.34-68.62,8.15-97.9"/>
  <path class="cls-37" d="M2924.28,550.91c-.97,2.42,1.18-74.63-1.01-104.44"/>
  <path class="cls-48" d="M3041.65,802.16l-50.19-15.29c-21.94-6.68-36.97-26.88-37.07-49.82l-.7-163.06c-.06-14.06-11.34-25.5-25.39-25.75l-5.09-.09c-13.2-.24-24.02,10.41-23.98,23.62l1.48,486.49c.03,9.21,8.17,16.27,17.29,15l127.95-17.78c18.37-2.55,31.95-18.42,31.62-36.97l-3.03-172.78c-.35-20.11-13.63-37.71-32.87-43.57ZM2927.15,588.29c-6.06.2-11.14-4.55-11.34-10.61s4.55-11.14,10.61-11.34c6.06-.2,11.14,4.55,11.34,10.61s-4.55,11.14-10.61,11.34Z"/>
  <path class="cls-39" d="M2925.72,566.05s-48.73-162.42-6.66-146.07"/>
  <path class="cls-20" d="M2944.03,790.3l-61.28-18.66c-26.79-8.16-59.99-32.82-60.11-60.83l-.86-190.59c-.06-15.04.64-27.69-10.63-36.09-3.39-2.53-7.51-3.89-11.74-3.97h0c-16.12-.3-29.33,12.71-29.28,28.83l1.81,594c.03,11.24,9.97,19.87,21.11,18.32l156.22-21.71c22.43-3.12,39.01-22.49,38.61-45.14l-3.7-210.96c-.43-24.56-16.64-46.04-40.14-53.2ZM2797.87,522.81c-7.4.25-13.6-5.55-13.84-12.95s5.55-13.6,12.95-13.84c7.4-.25,13.6,5.55,13.84,12.95s-5.55,13.6-12.95,13.84Z"/>
  <polygon class="cls-19" points="-72.91 602.2 -134.73 657.72 1373.08 777.71 1865.22 774.83 -72.91 602.2"/>
  <ellipse class="cls-43" cx="2847.85" cy="359.95" rx="15.84" ry="40.72"/>
  <ellipse class="cls-31" cx="2963.68" cy="435.6" rx="14.05" ry="35.74"/>
  <path class="cls-32" d="M2808.47,462.16h-21.74c-16.29,0-29.5,13.21-29.5,29.5v179.08c0,8.95,7.26,16.21,16.21,16.21h48.32c8.95,0,16.21-7.26,16.21-16.21v-179.08c0-16.29-13.21-29.5-29.5-29.5ZM2797.36,530.23c-11.74,0-21.25-9.52-21.25-21.25s9.51-21.25,21.25-21.25,21.25,9.51,21.25,21.25-9.51,21.25-21.25,21.25Z"/>
  <path class="cls-8" d="M2938.27,541.75h-22.04c-14.42,0-26.1,11.69-26.1,26.1v150.97c0,7.92,6.42,14.34,14.34,14.34h45.56c7.92,0,14.34-6.42,14.34-14.34v-150.97c0-14.41-11.69-26.1-26.1-26.1ZM2926.67,595.01c-9.65,0-17.48-7.82-17.48-17.48s7.82-17.48,17.48-17.48,17.48,7.82,17.48,17.48-7.82,17.48-17.48,17.48Z"/>
  <path class="cls-39" d="M2797.11,498.65s-49.52-178.12,5.43-157.11"/>
  <polygon class="cls-49" points="1321.95 1641.45 1208.04 1631.05 1240.49 1625.4 1354.79 1636.39 1321.95 1641.45"/>
  <polygon class="cls-29" points="1375.2 1631.29 1265.29 1620.3 1293.43 1615.96 1398.35 1627.37 1375.2 1631.29"/>
  <path class="cls-29" d="M1372.47,1537.32h-32s0,.09,0,.13c.14,5.3-4.25,9.61-9.55,9.61h-37.91c-4.41,28.04,2.8,74.51,2.8,74.51-1.4,1.4,75.32,9.21,75.32,9.21l1.15-80.29h.02s.17-13.18.17-13.18Z"/>
  <path class="cls-15" d="M1368.19,1408.31h-17.07c-12.05,0-14.34,9.77-14.34,21.82l-.41,109.52h3.28l37.59,1.89v-124.19c0-4.99-4.05-9.04-9.04-9.04ZM1358.24,1436.5c-3.65,0-6.6-3.51-6.6-7.84s2.96-7.84,6.6-7.84,6.6,3.51,6.6,7.84-2.96,7.84-6.6,7.84Z"/>
  <path class="cls-47" d="M1323.95,1522.91h-40.13c0,.06,0,.11,0,.17.18,6.64-5.33,12.05-11.98,12.05h-47.54c-7.34,53.92,5.32,96.57,5.32,96.57-1.76,1.76,92.64,8.43,92.64,8.43l1.45-100.69h.02s.21-16.52.21-16.52Z"/>
  <path class="cls-13" d="M1318.58,1361.14h-21.41c-15.11,0-17.98,12.25-17.98,27.36l-.52,137.33h4.11l47.13,2.38v-155.73c0-6.26-5.08-11.34-11.34-11.34ZM1306.1,1396.48c-4.57,0-8.28-4.4-8.28-9.83s3.71-9.83,8.28-9.83,8.28,4.4,8.28,9.83-3.71,9.83-8.28,9.83Z"/>
  <polygon class="cls-19" points="1866.31 1200.71 1310.53 1234.56 -53.85 1280.71 -26.15 1268.41 1866.31 1200.71"/>
  <g>
    <path class="cls-36" d="M1071.4,447.44c-25.27,0-45.76,8.39-45.76,18.73,0,.47.05.94.14,1.41.02.13.04.26.04.4v51.17c0,23,16.56,41.64,36.98,41.64h0c.99,0,1.79.9,1.79,2.01v67.1c0,1.07-.74,1.95-1.68,2.01-17.13,1.02-29.94,5.06-29.94,9.9,0,5.61,17.18,10.15,38.37,10.15s38.37-4.55,38.37-10.15c0-4.85-12.86-8.9-30.04-9.91-.95-.06-1.68-.94-1.68-2.01v-67.1c0-1.11.8-2.01,1.79-2.01h.37c20.42,0,36.98-18.64,36.98-41.64v-52c.04-.32.06-.64.06-.97,0-10.35-20.49-18.73-45.76-18.73Z"/>
    <path class="cls-36" d="M1029.36,466.75s43.53,15.53,85.95,0"/>
  </g>
  <g>
    <path class="cls-5" d="M1210.98,490.13c-22.55,0-40.83,7.48-40.83,16.71,0,.42.05.84.12,1.26.02.12.03.24.03.36v45.65c0,20.52,14.77,37.15,32.99,37.15h0c.88,0,1.59.8,1.59,1.79v59.86c0,.95-.66,1.74-1.5,1.79-15.28.91-26.71,4.52-26.71,8.84,0,5,15.32,9.06,34.23,9.06s34.23-4.06,34.23-9.06c0-4.33-11.47-7.94-26.8-8.84-.84-.05-1.5-.84-1.5-1.79v-59.86c0-.99.71-1.79,1.59-1.79h.33c18.22,0,32.99-16.63,32.99-37.15v-46.39c.04-.29.05-.58.05-.87,0-9.23-18.28-16.71-40.82-16.71Z"/>
    <path class="cls-5" d="M1173.48,507.36s38.83,13.86,76.67,0"/>
  </g>
  <g>
    <path class="cls-7" d="M1357.56,512.91c-22.8,0-41.27,7.56-41.27,16.9,0,.43.05.85.13,1.27.02.12.04.24.04.36v46.15c0,20.74,14.93,37.56,33.35,37.56h0c.89,0,1.61.81,1.61,1.81v60.52c0,.96-.67,1.76-1.52,1.81-15.45.92-27,4.57-27,8.93,0,5.06,15.49,9.16,34.6,9.16s34.6-4.1,34.6-9.16c0-4.37-11.6-8.03-27.1-8.94-.85-.05-1.52-.85-1.52-1.81v-60.52c0-1,.72-1.81,1.61-1.81h.33c18.42,0,33.35-16.81,33.35-37.56v-46.9c.04-.29.05-.58.05-.87,0-9.33-18.48-16.9-41.27-16.9Z"/>
    <path class="cls-7" d="M1319.64,530.33s39.26,14.01,77.52,0"/>
  </g>
  <g>
    <path class="cls-5" d="M1506.91,545.96c-22.55,0-40.83,7.48-40.83,16.71,0,.42.05.84.12,1.26.02.12.03.24.03.36v45.65c0,20.52,14.77,37.15,32.99,37.15h0c.88,0,1.59.8,1.59,1.79v59.86c0,.95-.66,1.74-1.5,1.79-15.28.91-26.71,4.52-26.71,8.84,0,5,15.32,9.06,34.23,9.06s34.23-4.06,34.23-9.06c0-4.33-11.47-7.94-26.8-8.84-.84-.05-1.5-.84-1.5-1.79v-59.86c0-.99.71-1.79,1.59-1.79h.33c18.22,0,32.99-16.63,32.99-37.15v-46.39c.04-.29.05-.58.05-.87,0-9.23-18.28-16.71-40.82-16.71Z"/>
    <path class="cls-5" d="M1469.4,563.19s38.83,13.86,76.67,0"/>
  </g>
  <polygon class="cls-40" points="1865.32 722.12 -72.91 490.94 -72.91 602.2 1865.22 774.48 1865.32 722.12"/>
  <path class="cls-33" d="M1616.38,1180.39c-5.99,1.07-13.5,1.93-22.17,1.85-7.64-.07-14.33-.87-19.81-1.85v-418.51c4.96-1.33,11.99-2.7,20.49-2.76,8.98-.06,16.38,1.38,21.5,2.76v418.51Z"/>
  <path class="cls-18" d="M1348.19,1212.49c-5.6,1.25-12.88,2.36-21.41,2.32-8.15-.04-15.14-1.1-20.58-2.32v-456.94c4.47-1.67,11.73-3.77,20.89-3.79,9.26-.01,16.6,2.11,21.09,3.79v456.94Z"/>
  <path class="cls-33" d="M83.22,1225.93c-5.25,1.82-13.45,3.97-23.64,3.89-9.65-.07-17.44-2.11-22.56-3.89v-576.34c5.44-1.91,14.13-4.21,24.93-3.92,8.98.24,16.29,2.17,21.27,3.92v576.34Z"/>
  <g>
    <path class="cls-39" d="M889.3,1201.19c0-10.91,45.91-19.76,102.54-19.76s102.54,8.85,102.54,19.76-50.71,25.84-107.34,25.84-97.73-14.93-97.73-25.84Z"/>
    <g>
      <path class="cls-39" d="M889.3,1201.19s-11.08-198.41,38.57-301.39c0,0,74.41-10.11,114.93-.99,0,0,47.23,58.68,51.57,302.38"/>
      <path class="cls-39" d="M887.45,1184.26c22.02-18.75,94.62-21.38,94.62-21.38,103.02-.12,100.95,16.37,109.78,20.98,1.29.67,1.48,2.62.34,3.55-6.01,4.92-31.3,19.65-106.52,21.21,0,0-75.7-2.49-98.22-24.37"/>
    </g>
  </g>
  <g>
    <path class="cls-39" d="M731.51,1218.62c0-7.48,30.38-13.55,67.86-13.55s67.86,6.07,67.86,13.55-33.56,17.72-71.04,17.72-64.69-10.24-64.69-17.72Z"/>
    <path class="cls-39" d="M731.51,1218.62s-7.33-136.07,25.53-206.7c0,0,49.25-6.94,76.07-.68,0,0,31.26,40.24,34.13,207.38"/>
    <path class="cls-39" d="M730.29,1207.01c14.58-12.86,62.63-14.67,62.63-14.67,68.18-.08,66.82,11.23,72.66,14.39.85.46.98,1.8.23,2.44-3.98,3.37-20.72,13.47-70.5,14.55,0,0-50.1-1.71-65.01-16.71"/>
  </g>
  <g>
    <path class="cls-39" d="M538.61,1209.87c0-8.87,37.33-16.07,83.37-16.07s83.37,7.19,83.37,16.07-41.23,21.01-87.27,21.01-79.47-12.14-79.47-21.01Z"/>
    <path class="cls-39" d="M538.61,1209.87s-9.01-161.33,31.36-245.06c0,0,60.51-8.22,93.45-.81,0,0,38.4,47.71,41.93,245.87"/>
    <path class="cls-39" d="M537.11,1196.11c17.91-15.24,76.93-17.39,76.93-17.39,83.76-.1,82.08,13.31,89.26,17.06,1.05.55,1.21,2.13.28,2.89-4.89,4-25.45,15.97-86.61,17.25,0,0-61.55-2.02-79.87-19.81"/>
  </g>
  <g>
    <path class="cls-24" d="M344.31,1228.61c0-12.05,37.33-21.82,83.37-21.82s83.37,9.77,83.37,21.82-41.23,28.53-87.27,28.53-79.47-16.48-79.47-28.53Z"/>
    <path class="cls-24" d="M344.31,1228.61s-9.01-219.06,31.36-332.75c0,0,60.51-11.17,93.45-1.1,0,0,38.4,64.79,41.93,333.84"/>
    <path class="cls-24" d="M342.82,1209.92c17.91-20.7,76.93-23.61,76.93-23.61,83.76-.14,82.08,18.07,89.26,23.17,1.05.74,1.21,2.89.28,3.92-4.89,5.43-25.45,21.69-86.61,23.42,0,0-61.55-2.75-79.87-26.9"/>
  </g>
  <g>
    <path class="cls-39" d="M1118.39,1210.03c0-7.96,33.49-14.41,74.79-14.41s74.79,6.45,74.79,14.41-36.99,18.85-78.3,18.85-71.29-10.89-71.29-18.85Z"/>
    <path class="cls-39" d="M1118.39,1210.03s-8.08-144.73,28.14-219.85c0,0,54.28-7.38,83.84-.72,0,0,34.45,42.8,37.62,220.57"/>
    <path class="cls-39" d="M1117.05,1197.69c16.07-13.68,69.02-15.6,69.02-15.6,75.15-.09,73.64,11.94,80.08,15.31.94.49,1.08,1.91.25,2.59-4.38,3.59-22.83,14.33-77.7,15.47,0,0-55.22-1.81-71.65-17.78"/>
  </g>
  <polygon class="cls-40" points="-26.15 1185.32 1866.31 1145.32 1866.31 1200.71 -26.15 1268.41 -26.15 1185.32"/>
  <ellipse class="cls-14" cx="2373.58" cy="1586.96" rx="33.05" ry="37.89"/>
  <ellipse class="cls-10" cx="2362.11" cy="1587.06" rx="25.27" ry="28.97"/>
  <path class="cls-52" d="M2306.82,1661.33s36.27,11.81,66.04-2.13l-3.33-251.17c0-11.12,1.87-22.18,5.86-32.56,6.32-16.43,19.19-35.36,45.01-36.05,0,0,57.07-7.32,57.23,71.66h60.98s6.08-135.86-120.96-132.61c0,0-75.88,1.56-102.52,70.08-5.09,13.09-7.6,27.04-7.85,41.08l-.48,271.7Z"/>
  <ellipse class="cls-52" cx="2304.36" cy="1601.41" rx="29.25" ry="33.53"/>
  <ellipse class="cls-27" cx="2294.38" cy="1601.41" rx="29.25" ry="33.53"/>
  <ellipse class="cls-1" cx="2272.97" cy="1605.35" rx="38.27" ry="43.87"/>
  <ellipse class="cls-23" cx="2266.07" cy="1605.67" rx="21.17" ry="25.4"/>
  <line class="cls-22" x1="2845.93" y1="1716.62" x2="2845.93" y2="2427.3"/>
  <line class="cls-4" x1="2484.87" y1="1903.91" x2="2484.87" y2="2752.55"/>
</svg>