<?xml version="1.0" encoding="UTF-8"?>
<svg id="_레이어_1" data-name="레이어 1" xmlns="http://www.w3.org/2000/svg" viewBox="0 0 5442.52 3061.42">
  <defs>
    <style>
      .cls-1 {
        fill: #9e0000;
        stroke-width: 0px;
      }

      .cls-2 {
        opacity: .99;
      }
    </style>
  </defs>
  <g class="cls-2">
    <path class="cls-1" d="M1624.73,759.75c56.06-42.75,127.72-66.7,198.69-63.64,43.49,1.74,88.2,14.38,123.16,41.62,21.83,16.42,38.09,35.57,48.52,61.15,16.74,37.63,16.7,81.68,4.23,120.1-9.77,30.11-23.42,58.44-44.24,82.14-49.4,55.48-127.76,81.11-200.58,79.68-37.83-1.13-114.41-9.64-141.98-36.76-11-10.9-14.19-27.76-5.55-41.44,4.7-7.59,10.82-11.84,17.48-15.89,9.54-5.48,19.52-9.08,29.7-12.21,93.36-25.86,196.55-13.35,283.49,27.83,7.46,3.79,13.15,8.16,19.52,12.87,36.96,28.76,67.36,66.34,81.8,111.56,14.68,45.36,7.29,95.09-8.98,138.98-16.32,42.1-42.19,83.43-82.17,107.06-36.33,20.19-77.18,24.65-117.24,26.38-42.75,1.32-85.27-.69-127.43-4.52-14.24-1.52-29.14-4.43-42.79-7.17-4.74-.86-11.07-2.24-14.88-2.25-.46,0-.42.05.15-.07.33-.06.75-.17,1.33-.37,2.32-.62,5.62-3.34,6.47-5.11-.09.24-.23.54-.24.81-.04.25-.03.58.06,1.09.16,1.28,1.76,3.85,3.34,4.95.28.23.55.39.84.57,0,0,.15.1.03.03-2.24-1.31-5.1-1.69-7.38-.91-.53.18-.78.33-.83.36,2.12-1.67,4.15-5.47,4.39-8.27,0,.73.04-1.95.04-3.46.36-79.34,2.1-217.85,2.22-298.17-.09-6.86-.34-13.71-.34-20.57,0-23.95,4.29-57.99,5.78-82.2,4.42-52.32,9.48-112.25,14.46-164.4,1.34-12.63,2.62-31.23,3.98-40.17-.27-6.09-.11-11.58-.31-17.51-.39-11.21-1.07-22.65-5.36-33.08-2.18-5.16-5.63-9.94-10.87-12.4,5.83,1.41,10.56,5.83,13.86,10.75,8.21,12.61,11.08,27.71,13.93,42.19.55,2.84,1.06,5.73,1.67,8.29,0,0,.06.93.06.93,1.14,13.73,2.21,27.45,3.27,41.18,2.95,37.86,6.43,85.41,9.03,123.55,1.45,20.59,4.17,61.81,5.51,82.38.8,13.73,2.13,27.47,1.78,41.18-2.12,75.06-1.98,213.47-2.95,288.11,0,5.53-.23,25.21-.24,30.87.07,5.23-.39,10.83-1.56,15.83-6.23,28.69-33.35,55.41-64.64,48.65-5.84-1.21-11.58-3.79-16.54-7.17-8.76-5.83-15.93-13.65-21.02-22.89-6.02-10.93-8.88-23.94-7.22-36.65,2.12-17.54,12.8-35.18,30.39-41.08,14.22-5.04,29.19-1.96,42.5.59,13.24,2.68,25.29,5.01,38.33,6.48,5.43.67,13.72,1.22,19.27,1.61,40.12,2.62,79.5,4.48,119.21,1.49,24.88-2.04,50.42-6.09,71.75-17.61,8.33-4.67,15.31-10.74,22.01-17.89,23.96-26.17,39.52-61.12,46.4-95.97,2.21-11.6,3.54-23.36,3.43-35.12-.74-49.03-35.61-94.25-74.95-121.8-1.1-.74-2.22-1.46-3.02-1.93-.36-.22-.81-.45-.36-.22l-1.86-.88c-63.27-29.71-135.87-40.7-205.02-31.27-18.85,2.94-37.32,6.28-53.92,14.72-1.14.61-1.7,1.26-.56.18,1.32-1.33,3.4-4.25,4.33-7.14,2.16-5.78,1.74-13.16-1.13-18.51-1.55-2.74-1.95-3.12-3.37-4.5,1.44.97,3.87,2.27,6.54,3.4,29.72,11.84,63.57,15.61,95.76,17.17,62.21,1.79,133.98-21.55,169.89-74.21,3.23-4.75,6.05-9.86,8.67-14.96,10.81-21.13,18.91-44.01,20.23-67.22.86-16.5-1.56-32.52-8.62-47.23-4.84-9.86-11.3-18.7-17.92-27.62-17.57-24.38-41.96-41.77-70.27-52.38-74.13-27.74-160.44-16.45-231.15,18.08h0Z"/>
    <path class="cls-1" d="M2176.31,699.67c5.62,15.76,8.85,32.28,12.24,48.6,4.06,21.4,8.25,43.52,11.13,65.01.67,5.4,1.87,10.82,1.5,16.17-.14,2.68-.57,5.34-.92,8.01-5.27,80.23-16.34,294.13-21.24,377.52-1.6,27.67-4.38,81.31-6.11,108.5-.36,5.47-.67,11.99-.38,16.82.4,5.77.77,9.8,3.01,14.07.1.18.2.31.29.47.02.03.02.03-.03-.05-.17-.3-.41-.53-.61-.78-.68-.75-1.39-1.44-1.69-1.58.17.12,1.14.53,2.38.9,11.56,3.06,24.92,2.79,38.07,2.07,18.33-1.29,38.7-3.92,56.13-9.21,19.84-7.16,40.55-15.34,60.74-21.83,6.62-2.18,13.35-4.2,20.05-6.23,4.04-1.28,7.93-3.06,12.08-4,5.63-1.22,11.47-1.08,17.2-1.44,5.78-.25,11.6-.3,17.41-.27,17.5.23,35.1,1.74,52.19,5.71,16.64,3.95,33.82,10.62,46.62,21.67-10.97-1.89-21.56-1.8-31.86-.49-20.41,2.6-40.01,9.29-58.92,17.2-4.73,1.96-9.41,4.08-14.08,6.21-4.69,2.02-9.14,4.7-14,6.27-4.86,1.41-10,1.86-14.82,3.51-19.52,5.84-39.71,13.11-58.91,20.4-4.95,1.85-10.86,4.1-16,5.85-23.54,7.31-46.13,10.18-70.4,12.01-27.58,1.32-67.08,2.07-86.24-23.07-15.31-20.82-15.25-48.06-13.29-72.05,7.26-130.15,19.01-342.68,26.24-472.75.44-5.34-.12-10.72.12-16.07.22-5.35,2.02-10.62,3.28-15.92l4.12-15.88c5.04-20.52,11.03-43.05,16.6-63.41,2.87-10.59,5.78-21.22,8.07-31.95h0Z"/>
    <path class="cls-1" d="M2781.99,1659.35c-.25,2.33-1.66,4.45-2.55,6.61,0,0-3.07,6.37-3.07,6.37-6.11,12.56-11.99,25.41-16.83,38.41-8.08,22.65-16.75,51.39-7.05,74.03,6.54,14.21,20.76,20.11,35.75,23.1,0,0,.36.07.36.07.1.02.3.07.22.02-.04-.06-.13-.1-.13-.15-.06-.09-.07-.16-.02-.23.17-.27.92-.52,1.75-.93,1.7-.8,3.71-2.09,4.89-3.46,1.23-1.35,1.59-2.65,1.12-3.02-.22-.2-.55-.16-.87-.06-.31.11-.61.24-.87.18-.52-.08-1.2-1.1-2.53-2.69-.88-1.13-2.33-2.6-3.45-3.8-.05-.05-.14-.16-.16-.16-.09.05-.08.11-.23.04-1.84-1.05-3.77-3.13-5.83-4.56-5.1-4.11-11.66-7.46-18.14-9.62-51.88-18.03-108.06,3.89-148.22,38.61-98.68,81.52-92.29,261.74-52.91,372.8,10.36,26.86,24.38,52.6,41.4,75.85,39.94,58.22,118.82,75.87,175.19,30.27,7.07-5.88,13.05-13.03,18.61-20.62,14.82-20.72,25.93-43.91,35.26-68.1,15.67-41.25,25.63-85.03,29.7-129.02.66-8.83.28-17.7,1.48-26.49,11.07-71.81,7.03-146.11-21.49-214.77,6.06,7.28,11.78,14.91,17.19,22.83,38.42,57.28,56.87,125.44,61.25,194.15.23,4.96-.03,9.91-.51,14.83-1.1,8.47-2.36,21.03-3.35,29.44-2.99,24.47-7.53,48.72-13.68,72.61-15.18,58.2-45.58,137.31-95.45,173.94-81.33,59.93-192.81,35.76-249.53-45.58-5.98-8.08-11.79-16.77-17.03-25.3-12.6-20.67-23.46-42.17-32.03-64.88-25.05-71.3-34.45-147.78-28.17-223.04,6.5-73.51,30.75-149.87,86.16-201.69,21.06-19.56,44.12-36.19,70.61-48.65,54.66-26.32,123.54-28.16,176.29,4.87,6.74,4.16,14.7,11.29,19.67,19.14,4.75,7.9,8.23,16.17,10.1,25.53,4.77,23.16-6.05,45.69-27.52,55.68-11.82,5.38-24.46,7.31-37.31,3.84-7.7-2.54-14.79-5.97-21.88-10.25-51.39-32.32-36.64-86.76-9.29-130.02,7.58-12.22,16.02-23.59,24.87-34.79,0,0,4.37-5.55,4.37-5.55,1.32-1.91,3.13-3.59,3.9-5.78h0Z"/>
    <path class="cls-1" d="M2786.91,679.31c-.25,2.33-1.66,4.45-2.55,6.61,0,0-3.07,6.37-3.07,6.37-6.11,12.56-11.99,25.41-16.83,38.41-8.08,22.65-16.75,51.39-7.05,74.03,6.54,14.21,20.76,20.11,35.75,23.1,0,0,.36.07.36.07.1.02.3.07.22.02-.04-.06-.13-.1-.13-.15-.06-.09-.07-.16-.02-.23.17-.27.92-.52,1.75-.93,1.7-.8,3.71-2.09,4.89-3.46,1.23-1.35,1.59-2.65,1.12-3.02-.22-.2-.55-.16-.87-.06-.31.11-.61.24-.87.18-.52-.08-1.2-1.1-2.53-2.69-.88-1.13-2.33-2.6-3.45-3.8-.05-.05-.14-.16-.16-.16-.09.05-.08.11-.23.04-1.84-1.05-3.76-3.13-5.83-4.56-5.1-4.11-11.66-7.46-18.14-9.62-51.88-18.03-108.06,3.89-148.22,38.61-98.68,81.52-92.29,261.74-52.91,372.8,10.36,26.86,24.38,52.6,41.4,75.85,39.94,58.22,118.82,75.87,175.19,30.27,7.07-5.88,13.05-13.03,18.61-20.62,14.82-20.72,25.93-43.91,35.26-68.1,15.67-41.25,25.63-85.03,29.7-129.02.66-8.83.28-17.7,1.48-26.49,11.07-71.81,7.03-146.11-21.49-214.77,6.06,7.28,11.78,14.91,17.19,22.83,38.42,57.28,56.87,125.44,61.25,194.15.23,4.96-.03,9.91-.51,14.83-1.1,8.47-2.36,21.03-3.35,29.44-2.99,24.47-7.53,48.72-13.68,72.61-15.18,58.2-45.58,137.31-95.45,173.94-81.33,59.93-192.81,35.76-249.53-45.58-5.98-8.08-11.79-16.77-17.03-25.3-12.6-20.67-23.46-42.17-32.03-64.88-25.05-71.3-34.45-147.78-28.17-223.04,6.5-73.51,30.75-149.87,86.16-201.69,21.06-19.56,44.12-36.19,70.61-48.65,54.66-26.32,123.54-28.16,176.29,4.87,6.74,4.16,14.7,11.29,19.67,19.14,4.75,7.9,8.23,16.17,10.1,25.53,4.77,23.16-6.04,45.69-27.52,55.68-11.82,5.38-24.46,7.31-37.31,3.84-7.7-2.54-14.79-5.97-21.88-10.25-51.39-32.32-36.64-86.76-9.29-130.02,7.58-12.22,16.02-23.59,24.87-34.79,0,0,4.37-5.55,4.37-5.55,1.32-1.91,3.13-3.59,3.9-5.78h0Z"/>
    <path class="cls-1" d="M3289.24,679.31c-.25,2.33-1.66,4.45-2.55,6.61,0,0-3.07,6.37-3.07,6.37-6.11,12.56-11.99,25.41-16.83,38.41-8.08,22.65-16.75,51.39-7.05,74.03,6.54,14.21,20.76,20.11,35.75,23.1,0,0,.36.07.36.07.1.02.3.07.22.02-.04-.06-.13-.1-.13-.15-.06-.09-.07-.16-.02-.23.17-.27.92-.52,1.75-.93,1.7-.8,3.71-2.09,4.89-3.46,1.23-1.35,1.59-2.65,1.12-3.02-.22-.2-.55-.16-.87-.06-.31.11-.61.24-.87.18-.52-.08-1.2-1.1-2.53-2.69-.88-1.13-2.33-2.6-3.45-3.8-.05-.05-.14-.16-.16-.16-.09.05-.08.11-.23.04-1.84-1.05-3.77-3.13-5.83-4.56-5.1-4.11-11.66-7.46-18.14-9.62-51.88-18.03-108.06,3.89-148.22,38.61-98.68,81.52-92.29,261.74-52.91,372.8,10.36,26.86,24.38,52.6,41.4,75.85,39.94,58.22,118.82,75.87,175.19,30.27,7.07-5.88,13.05-13.03,18.61-20.62,14.82-20.72,25.93-43.91,35.26-68.1,15.67-41.25,25.63-85.03,29.7-129.02.66-8.83.28-17.7,1.48-26.49,11.07-71.81,7.03-146.11-21.49-214.77,6.06,7.28,11.78,14.91,17.19,22.83,38.42,57.28,56.87,125.44,61.25,194.15.23,4.96-.03,9.91-.51,14.83-1.1,8.47-2.36,21.03-3.35,29.44-2.99,24.47-7.53,48.72-13.68,72.61-15.18,58.2-45.58,137.31-95.45,173.94-81.33,59.93-192.81,35.76-249.53-45.58-5.98-8.08-11.79-16.77-17.03-25.3-12.6-20.67-23.46-42.17-32.03-64.88-25.05-71.3-34.45-147.78-28.17-223.04,6.5-73.51,30.75-149.87,86.16-201.69,21.06-19.56,44.12-36.19,70.61-48.65,54.66-26.32,123.54-28.16,176.29,4.87,6.74,4.16,14.7,11.29,19.67,19.14,4.75,7.9,8.23,16.17,10.1,25.53,4.77,23.16-6.05,45.69-27.52,55.68-11.82,5.38-24.46,7.31-37.31,3.84-7.7-2.54-14.79-5.97-21.88-10.25-51.39-32.32-36.64-86.76-9.29-130.02,7.58-12.22,16.02-23.59,24.87-34.79,0,0,4.37-5.55,4.37-5.55,1.32-1.91,3.13-3.59,3.9-5.78h0Z"/>
    <path class="cls-1" d="M3614.51,691.74c3.74,4.53,5.5,10.39,7.4,15.87,5.24,16.73,8.51,34,11.67,51.18,11.77,68.62,18.4,137.98,23.89,207.33.85,11.54.25,23.07-.34,34.6-1.05,34.42-1.29,69.32-2.43,103.72-3.49,102.74-6.59,205.62-18.67,307.88,0,0-.3,2.23-.3,2.23,0,0-.08.56-.08.56,0,0-.11.74-.11.74,0,0-.39,2.21-.39,2.21-3.06,18.13-17.25,32.23-36.21,32.74-23.5.69-46.48-18.54-63.79-31.7-1.23-.93-4.06-3.19-5.26-4.12-17.95-13.91-21-39.09-12.11-58.58,7.23-17.04,24.33-30.72,43.68-30.13,1.64,0,3.4.24,5.04.4,14.17,1.75,28.61,3.81,42.63,5.49,54.31,6.12,110.32,13.5,164.3,7.4,6.85-1.05,12.49-2.07,18.37-4.4,1.41-.57,2.5-1.15,2.98-1.47,0,0,6.79-3.24,6.79-3.24,20.84-8.26,41.08-23.58,57.24-40.27,39.99-41.41,61.4-97.77,70.37-154.08,6.3-55.29,4.5-112.51-1.99-167.56-3.1-24.34-7.45-47.97-14.23-71.27-2.85-10-6.54-20.28-10.57-29.86-.7-1.67-3.11-6.68-3.83-8.35-1.31-2.4-2.83-5.59-4.2-7.99-25.85-46.42-67.83-84.02-119.29-99.09,0,0-1.46-.38-1.46-.38,0,0-5.84-1.56-5.84-1.56-4.8-1.19-9.88-2.11-14.78-2.89-6.87-1.11-13.97-1.33-20.92-1.2-4.53,0-25.94-.03-29.98.27-4.77.34-10.44.97-15.13,1.69-1.95.2-7.04,1.31-9.07,1.65-2.89.61-6.13,1.49-9.04,2.17-1.86.47-6.99,2.13-8.98,2.68,0,0,2.7-1.43,2.7-1.43,0,0-.59.32-.59.32-18.73,9.03-37.74,15.82-58.61,19.01-20.47,3.09-45.83.28-58.27-18.89-2.23-3.36-3.74-6.79-5.11-10.38,0,0-.08-.55-.08-.55-.14-.97-.16-1.48-.22-2.17-1.9-32.31,13.68-59.82,49.72-55.35,8.85,1.11,17.16,3.68,25.13,6.77-17.66-2.16-43.56-3.3-52.3,15.22-3.52,8.02-3.3,17.43-1.57,25.99.32,1.45.76,3.5,1.3,4.85,0,0-.88-2.56-.88-2.56,1.89,2.7,3.99,4.64,6.27,5.83,18.59,9.09,55.74-13.55,71.41-25.27,0,0,.26-.21.26-.21.07-.06.19-.15.15-.14,0,0-.17.04-.17.04,0,0,2.86-1.47,2.86-1.47,0,0,6.96-3.59,6.96-3.59,18.88-9.53,39.5-16.27,60.37-19.7,18.56-3.27,37.63-.66,56.04,2.24,8.95,1.45,18.52,3.76,27.23,6.35,51.65,15.45,97.03,49.18,129.17,92.21,8.49,11.26,16.38,23.58,23.05,36.01,5.5,10.26,10.39,21.43,14.36,32.37,28.73,78.68,34.13,193.02,26.04,276.27-.53,5.07-1.33,10.56-2.28,15.58-2.49,14.21-6.1,29.97-10.06,43.85-19.48,69.06-60.72,134.89-123.23,172.67-9.44,5.68-19.56,10.92-30.03,14.66,0,0-1.01.34-1.01.34,0,0,6.79-3.24,6.79-3.24-4.33,2.83-8.42,4.79-12.31,6.4-58.73,23.41-188.43,3.17-253.39-4.75,0,0-.52-.07-.52-.07-.17-.02.06.01.09.02,2.99.42,6.65-.52,8.82-2.31.08-.06.17-.18.23-.21.13-.08.23-.25.29-.28.13-.19.17-.18.15-.21.01.04-.06.08-.08.19-.1.18-.15.44-.12.34-.02-.03.04-.22,0-.48-.18-2.43-1.45-4.61-3.2-6.39-.26-.29-.6-.61-.91-.82,0,0,.1.08.1.08,0,0,1.52,1.19,1.52,1.19,0,0,3.39,2.65,3.39,2.65,7.93,6.3,16.55,12.8,24.68,17.54,2.3,1.21,3.73,2.07,5.48,2.59-7.26-1.2-15.67,4.07-18.36,10.87-.12.41-.22.51-.32.87-.05.14-.07.38-.09.44-.02.03-.04.05-.04.08,0,.03,0,.06,0,.09,0,.1.03-.17.05-.32,0,0,.07-.51.07-.51,7.08-55.35,10.09-111.32,13.13-167.15,3.81-79.82,6.84-159.96,7.28-239.92-.28-11.44-.64-22.86.39-34.28,5.23-57.09,10.48-114.24,14.1-171.47,1.41-22.86,2.66-45.78,2.62-68.67-.02-5.72-.16-11.43-.58-17.11-.51-5.65-.79-11.48-3.2-16.69h0Z"/>
    <path class="cls-1" d="M1911.81,1868.72c7.67-5.51,8.48-17.68,7.9-26.19-.32-4.45-1.38-8.6-3.26-12.55-5.85-12.05-15.98-21.39-26.84-29.23-27.76-19.39-61.65-29.02-95.03-30.72-8.73-.51-17.26-2.52-25.99-3.21-51.88-1.17-113.46,7.12-143.02,50.3-8.57,13.11-11.56,28.4-10,41.54,2.42,17.81,11.61,33.59,23.28,47.52,33.38,38.61,85.7,58.72,135.03,71.26,42.26,12.97,81.44,31.46,117.27,58.4,61.71,46.38,92.48,114.29,68.98,190.41-7.94,26.42-20.77,50.55-35.84,73.02-23.6,36.18-53.26,64.81-93.62,81.57-70.36,29.2-151.49,17.12-218.25-15.36-6.03-2.96-12.2-5.73-18.16-9-6.01-3.29-11.5-7.41-16.67-11.93-22.18-19.32-44.35-43.83-50.23-73.87-3.19-19.36-2.75-39.25,1.64-58.36,3.95-16.12,12.47-38.25,31.58-40.46,10.83-1.06,19.42,4.76,25.92,12.75-7.2-4.37-16.03-7.77-24.05-4.08-6.89,3.22-9.09,10.39-10.46,17.87-2.85,20.78,2.32,43.01,10.75,62,6.89,13.14,19.25,22.31,32.31,30.73,8.94,5.83,19.08,9.88,28.19,15.5,4.02,2.45,9.84,6.26,14.09,8.28,52.19,25.41,117.02,36.45,171.49,13.96,30.34-12.59,50.94-33.94,68.69-61.06,28.66-41.97,48.28-95.43,20.88-141.84-28.02-47.91-89.26-78.85-141.67-94.82-46.08-11.78-91.9-29.52-130.23-59.36-47.64-36.94-78.93-93.27-63.94-149.6,21.95-80.98,108.64-109.74,183.87-111.77,8.28-.35,16.57-.3,24.86-.02,11.26.24,22.66.53,33.57,3.63,40.14,11.87,77.94,34.04,104.24,66.77,10.73,13.63,20.04,29.85,21.77,47.6.89,10.49-1.98,21.19-7.27,30.1-2.7,4.37-6.64,8.98-11.78,10.22h0Z"/>
    <path class="cls-1" d="M3825.88,1812.36c-55.94-10.46-112.03-13.2-168.3-11.16-9.77.8-19.29-.05-28.95-1.4-25.34-2-51.25-1.8-76.49-.13-11.4.82-22.98,2.13-34.21,4.17-1.54.3-3.8.78-5.34,1.08,1.75-.44,4.78-1.47,7.3-3.46,2.07-1.53,3.96-3.64,5.2-5.65,1.8-3.14,2.51-5.21,2.75-7.84.07-1.1-.02-1.08.05-.65.72,4.39,1.81,7.17,2.5,12.15,4,164.31-7.85,328.78-11.67,492.8-.39,22.82-.71,45.41.48,68.07,0,0,.27,4.62.27,4.62,0,0,.38,4.42.38,4.42.12,1.35.29,3.44.3,3.27-.18-.63-.3-1.33-1.01-2.82-2.59-6.04-10.27-11.35-16.7-11.71-1.26-.1-1.73-.06-2.03-.04-.47.05.19-.01,1.15-.23.97-.21,2.27-.53,3.67-.9,17.1-4.87,35.06-9.15,52.89-11.08,39.34-4.39,79.1-.8,117.9,5.94,3.47.51,6.98.85,10.42,1.41,6.93,1.02,13.38,4.05,19.85,6.53,18.22,7.15,37.58,16.35,55.09,22.63,5.66,2,11.2,3.56,15.72,4.01,7.88,1.16,12.17-2.38,15.62-9.52,2.68-5.59,4.66-11.88,5.31-18.15.3-3.21.33-6.51-.86-9.73,1.25,1.18,2.29,2.66,3.12,4.23,2.54,4.79,3.71,10.17,4.4,15.54.63,5.53.68,11.27-.34,16.91-2.04,12.17-11.31,21.23-23.02,24.73-8.13,2.6-16.13,3.11-24.23,3.41-14.5.32-28.32-.9-42.41-1.77,0,0-20-1.31-20-1.31-6.57-.49-13.18-.27-19.36-1.87-12.18-3.44-24.81-5.1-37.32-6.67-36.41-4.3-73.36-4.47-108.85,5.72-10.06,2.57-20.65,6.44-31.68,5.45-15.23-1.16-27.5-12.3-31.07-26.92-1.12-3.87-1.57-9.03-1.81-11.99-.25-2.83-.68-8.16-.79-10.96-.62-10.44-.79-21.02-.88-31.44,1.45-173.89,15.66-347.16,12.41-520.93,0,0-.07-4.96-.07-4.96,0,0-.02-1.24-.02-1.24,0,0,0-.31,0-.31,0,.15.02.77.04,1.02.04.58.09.98.12,1.2.13.9.08.46-.03-.01,0,0-1.17-5.01-1.17-5.01-.46-2.11-.95-4.5-1.33-7.38-1.23-8.49-.29-19.67,5.18-28.03,4.75-7.89,13.96-14.08,22.73-15.69,0,0,1.39-.28,1.39-.28,0,0,2.78-.56,2.78-.56,27.97-5.45,56.96-6.91,85.29-6.94,13.94-.09,27.8.74,41.71,1.08,6.94.09,13.91.06,20.78,1.22,60.44,13.03,120.82,34.12,173.15,67.13h0Z"/>
    <path class="cls-1" d="M3472.74,2033.4c11.95-10.66,24.59-19.53,37.84-27.85,6.29-6.05,13.21-2.48,19.8-3.76,6.65-.4,13.34-.65,20.01-.98,40.17-1.73,81.03-2.44,121.42.02,31.37,2.33,62.22,4.95,92.7,17.27,9.57,4.19,18.49,9.46,25.89,17.07.84.89,2.1,2.41,2.9,3.34,1.73,2.01,3.19,4.41,4.66,6.66,2.1,3.48,4.43,7.01,5.16,11.11.34,2.12.26,4.34.12,6.46,0,0-.55-3.1-.55-3.1.03.19.07.46.09.58-.13,12.88-7.84,27.88-18.37,35.12-8.62,6.42-21.01,7.34-30.34,2.98,2.94-3.51,5.26-7.07,6.37-10.56,2.62-7.26-1.32-13.16-7.84-16.04-.76-.3-2.7-1.17-2.85.15.23,1.6-.51-2.8-.5-2.68-.79.87-1.28,2.1-.31,2.89.47.5.74.49,1.21,1.23.11.08.05.09.07.11,0,.04.05.06.09.06,0,0-.04-.02-.04-.02-.17-.08-.21-.19-.33-.31-.27-.17-.52-.36-.76-.57-.13-.14-.68-.43-.87-.56-.51-.39-1.6-.96-2.2-1.28-1-.59-2.45-1.16-3.5-1.69-9.08-3.74-18.74-5.98-28.42-7.73-15.09-2.71-30.15-4.13-45.84-5.14-44.88-2.69-89.89-1.37-134.97.99,0,0-4.87.28-4.87.28-.81.05-1.62.07-2.43.17-2.44.41-4.86,1.73-7.3.42-15.81-7.3-31.04-14.94-46.02-24.64h0Z"/>
    <path class="cls-1" d="M1967.24,1771.79c70.32-11.39,140.99-20.97,211.76-28.39,79.05,1.32,179.86.4,259.13.65,0,0,1.39,0,1.39,0,.18,0,.01,0,.03,0-2.29.11-4.14,1.43-4.81,3.66-.32,1.02-.31,2.4.02,3.49.36.91.79,1.92,1.33,2.75.88,1.35,1.04,1.34.85,1.19-.19-.19-.75-.66-1.48-1.19-5.32-3.72-11.79-6.53-18.15-8.91-18.27-6.65-37.86-10.13-57.52-11.45-12.78-.72-25.8-.86-38.53.71-20.33,3.33-42.61,12.39-52.66,31.18-3.56,6.53-5.44,14.79-5.87,22.43-.03,1.63.02,6.62,0,8.35.27,140.76-.54,316.25.4,456.46-7.98,55.5-17.11,111.99-28.12,167-5.93-28.53-11.28-60.36-16.13-89.22-3.48-21.31-7.26-45.45-10.43-66.98-1.15-7.4-2.34-14.83-1.66-22.33.55-6.16.51-15.96.49-22.31.01-131.06-.06-301.93.05-433.32,3.26-70.91,65.71-108.13,131.47-107.89,41.51-.6,94.36,7.31,129.22,31.39,6.21,4.63,11.72,9.5,16.19,17.36,14.77,27.18-.24,61.89-29.57,70.8-5.38,1.7-10.95,2.38-16.53,2.3-.7-.04-23.65.03-25.08,0-69.63.28-164.84-.67-234.05.65-70.77-7.41-141.44-17-211.76-28.38h0Z"/>
    <path class="cls-1" d="M3049.79,2429.08c-10.6-90.65-19.23-183.15-26.05-274.12-.55-12.45.61-24.89.84-37.34.63-86.12,2.14-249.4,2.77-336.13,0,0,.05-6.22.05-6.22-.18-16.49,3.59-33.85,15.26-47.23,19.4-22.51,50.85-24.35,77.37-26.34,34.8-2.68,69.23-3.97,104.27-.43,75.5,5.8,140.76,56.72,159.85,130.81,14.87,59.57,6.67,126.47-33.28,175.2-30.77,36.49-81.93,61.31-129,67.5-6.23.79-12.58,1.16-18.9,1.17-39.75-.02-94.17.02-133.86,0-3.64-.03-15.04.02-18.68,0-2.66-.01-6.22.05-8.91-.25-18.39-1.84-36.06-13.51-41.2-32.49-2.62-9.59-.3-21.16,5.68-29.01,12.14-16.12,32.71-19.73,50.79-22.2,14.32-1.71,28.71-2.09,42.84-2.07,13.03,2.04,25.92,5.29,38.52,8.92,57.99,16.78,112.06,45.38,159.47,82.66,9.7,7.28,18.91,15.25,26.91,24.4,32.11,35.75,57.53,77.35,74.69,122.17,20.87,54.19,29.55,113.49,28.23,170.3-10.86-54.83-28.82-108.21-57.7-156.06-16.59-27.7-36.7-53.21-59.83-75.61-14.8-14.62-32.3-27.51-47.62-41.61-46.22-38.69-108.6-67.93-167.67-79.79,0,0-1.34-.23-1.34-.23,0,0,4.13.31,4.13.31-7.84,0-15.59.19-23.07.68-10.01.81-18.77,1.42-27.19,4.46-.44.16-.44.33.83-.64.41-.33.8-.68,1.18-1.08,4.71-4.63,6.67-12.81,4.92-19.21-1.24-4.46-3.49-8.37-7.19-9.11,38.87-.02,119.42.02,157.42-.02,30.93-.88,63.35-14.67,87.86-33.34,5.76-4.46,11.26-9.6,15.86-15.11,3.57-4.47,6.96-9.4,9.85-14.35,18.95-31.84,21.17-70.72,13.69-106.82-10.14-49.55-53.25-86.86-102.99-93.24-30.28-4-61.56-3.57-92.25-1.47-10.88.83-25.22,1.61-35.12,3.06-5.24.61-10.98,2.01-14.89,3.89-1.22.66-1.56,1.03-1.71,1.21-.16.18-.36.43-.75,1.51-.83,1.97-1.06,6.92-1.02,9.7-.66,83.61-2.03,246.74-2.69,330.02-.03,7.05-.15,17.88.16,24.91.5,12.47.4,24.94-1.04,37.36-8.46,86.63-17.81,175.01-29.49,261.3h0Z"/>
  </g>
  <path class="cls-1" d="M1089.47,859.69c2.15-67.88,2.7-135.62.85-203.17-.14-8.37,1.02-16.62,1.95-24.91.89-8.28,1.22-16.6,1.68-24.9,3.96-83.65,3.23-169.53-16.14-250.97-2.86-11.45-6.14-23.04-10.03-34.17-3.76-10.93-8.16-21.78-13.29-32.13,0,0-2.54-5.1-2.54-5.1-8.81-17.05-29.86-26.91-49.2-25.4-4.24.28-8.44,1.1-12.5,2.34-4.23,1.56-8.17,5.22-10.7,8.97-3.07,4.52-4.59,9.81-1.69,14.51,0,0,1.05,1.74,1.05,1.74.31.6.72,1.2,1.11,1.71,10.07,14.68,27.15,23.18,45.23,25.23,4.22.41,10.13.63,14.39.84,1.9.09,7.67.46,9.69.56,175.79,13.08,352.53,19.37,528.19,3.49,67.75,1.92,135.39.98,203.3-1.12-48.2,16.95-98.42,30.86-148.3,42.47-16.16,3.76-34.12,7.53-50.43,10.84-180.45,16.4-361.91,9.53-542.16-3.75-1.49-.1-4.65-.26-6.15-.33-37.27-.25-75.62-16.87-97.11-48.83-3.5-5.16-6.78-10.88-8.93-16.78-12.46-32.86,6.73-69.93,36.7-85.35,10.53-5.38,22.91-7.92,34.71-8.82,39.61-2.98,80.65,17.59,99.21,53.38,12.57,24.26,21.83,50.29,28.66,76.7,24.71,97.83,23.45,198.74,17.92,298.43-.21,8.59-.32,17.19-1.83,25.69-13.17,67.56-30.23,134.16-53.64,198.83h0Z"/>
  <path class="cls-1" d="M4379.74,859.69c-23.41-64.67-40.47-131.28-53.64-198.83-1.51-8.49-1.62-17.1-1.83-25.69-5.53-99.69-6.79-200.6,17.91-298.43,6.83-26.4,16.09-52.44,28.66-76.7,18.56-35.78,59.6-56.35,99.21-53.37,15.14,1.1,30.87,5.02,43.22,13.99,27.53,19.31,41.39,56.35,24.97,87.47-.39.77-.82,1.62-1.17,2.17,0,0-2.21,3.7-2.21,3.7-.73,1.2-1.53,2.52-2.33,3.61-21.5,31.96-59.84,48.58-97.11,48.83-1.56.06-4.6.23-6.15.33-180.25,13.29-361.72,20.15-542.16,3.75-16.21-3.28-34.3-7.1-50.43-10.84-49.85-11.61-100.1-25.51-148.3-42.47,34.22,1.02,68.19,1.84,102.05,2.11,28.89.16,59.78-.05,88.62-.63,0,0,12.63-.36,12.63-.36,66.62,5.89,133.58,8.77,200.6,9.35,113.56,1.47,227.15-6.01,340.57-13.57,0,0,6.44-.32,6.44-.32,20.21-.98,40.4-10.26,51-27.31,0,0,1.05-1.74,1.05-1.74.23-.34.24-.45.33-.62,4.32-8.22-3.83-18.18-10.94-22.09-.71-.35-1.34-.63-1.78-.76-4.06-1.24-8.25-2.06-12.5-2.34-19.35-1.51-40.39,8.35-49.2,25.4,0,0-2.54,5.1-2.54,5.1-5.13,10.36-9.52,21.21-13.29,32.13-3.9,11.12-7.17,22.72-10.03,34.17-19.37,81.45-20.11,167.31-16.14,250.97.47,8.3.79,16.63,1.68,24.9.93,8.29,2.1,16.54,1.95,24.91-1.85,67.55-1.3,135.28.85,203.17h0Z"/>
  <path class="cls-1" d="M4393.11,2174.52c-2.15,67.88-2.7,135.62-.85,203.17.14,8.37-1.02,16.62-1.95,24.91-.89,8.28-1.22,16.6-1.68,24.9-3.96,83.65-3.23,169.53,16.14,250.97,2.86,11.45,6.14,23.04,10.03,34.17,3.76,10.93,8.16,21.78,13.29,32.13,0,0,2.54,5.1,2.54,5.1,8.81,17.05,29.86,26.91,49.2,25.4,4.24-.28,8.44-1.1,12.5-2.34,4.23-1.56,8.17-5.22,10.7-8.97,3.07-4.52,4.59-9.81,1.69-14.51,0,0-1.05-1.74-1.05-1.74-.31-.6-.72-1.2-1.1-1.71-10.07-14.68-27.15-23.18-45.23-25.23-4.22-.41-10.13-.63-14.39-.84-1.9-.09-7.67-.46-9.69-.56-175.79-13.08-352.53-19.37-528.19-3.49-67.75-1.92-135.39-.98-203.3,1.12,48.2-16.95,98.42-30.86,148.3-42.47,16.17-3.76,34.12-7.53,50.43-10.84,180.45-16.4,361.91-9.53,542.16,3.75,1.49.1,4.65.26,6.15.33,37.27.25,75.62,16.87,97.11,48.83,3.49,5.16,6.78,10.88,8.93,16.78,12.46,32.86-6.73,69.93-36.7,85.35-10.53,5.38-22.91,7.92-34.71,8.82-39.61,2.98-80.65-17.59-99.21-53.38-12.57-24.26-21.83-50.29-28.66-76.7-24.71-97.83-23.45-198.74-17.92-298.43.21-8.59.32-17.19,1.83-25.69,13.17-67.56,30.23-134.16,53.64-198.83h0Z"/>
  <path class="cls-1" d="M1088.15,2174.52c23.41,64.67,40.47,131.28,53.64,198.83,1.51,8.49,1.62,17.1,1.83,25.69,5.53,99.69,6.79,200.6-17.91,298.43-6.83,26.4-16.09,52.44-28.66,76.7-18.56,35.78-59.6,56.35-99.21,53.37-15.14-1.1-30.87-5.02-43.22-13.99-27.53-19.31-41.39-56.35-24.97-87.47.39-.77.82-1.62,1.17-2.17,0,0,2.21-3.7,2.21-3.7.73-1.2,1.53-2.52,2.33-3.61,21.5-31.96,59.84-48.58,97.11-48.83,1.56-.06,4.6-.23,6.15-.33,180.25-13.29,361.72-20.15,542.16-3.75,16.21,3.28,34.3,7.1,50.43,10.84,49.85,11.61,100.1,25.51,148.3,42.47-34.22-1.02-68.19-1.84-102.05-2.11-28.89-.16-59.78.05-88.62.63,0,0-12.63.36-12.63.36-66.62-5.89-133.58-8.77-200.6-9.35-113.57-1.47-227.15,6.01-340.57,13.57,0,0-6.44.32-6.44.32-20.21.98-40.4,10.26-51,27.31,0,0-1.05,1.74-1.05,1.74-.23.34-.24.45-.33.62-4.32,8.22,3.83,18.18,10.94,22.09.71.35,1.35.63,1.78.76,4.06,1.24,8.25,2.06,12.5,2.34,19.35,1.51,40.39-8.35,49.2-25.4,0,0,2.54-5.1,2.54-5.1,5.13-10.36,9.52-21.21,13.29-32.13,3.9-11.12,7.17-22.72,10.03-34.17,19.37-81.45,20.11-167.31,16.14-250.97-.47-8.3-.79-16.63-1.68-24.9-.93-8.29-2.1-16.54-1.95-24.91,1.84-67.55,1.3-135.28-.85-203.17h0Z"/>
  <path class="cls-1" d="M1075.63,993.05c3.46,22.47,9.43,61.2,12.85,83.08-4.33,33.25-6.27,67.16-5.66,100.58,1.39,66.79,11.81,135.54,45.76,193.35,1.11,1.96,2.77,4.69,3.76,6.75,24.67,50.28-12.08,105.35-63.96,115.18-30.84,6.09-65.78-.29-88.85-23.29-5.15-4.93-9.88-10.13-13.14-16.36-1.87-3.38-3.2-7.51-4.37-11.19-13.84-47.51,7.54-105.26,30.64-146.62-2.82,36.03-5.56,101.13,18.59,129.22,2.2,2.38,3.61,5.52,5.59,7.92,2.83,3.11,6.29,5.11,10.25,6.76,13.34,4.95,31.68,4.72,44.23-2.88,12.51-7.02,21.29-23.4,13.5-36.53-23.05-38.13-37.36-81.91-45.21-124.86-12.45-65.82-10.22-132.28-4.8-198.3-.08-4.09,1.69-7.94,3.24-11.65,10.36-24.78,22.2-49.04,37.59-71.15h0Z"/>
  <path class="cls-1" d="M1076.52,2030.76c-16.43-23.68-28.96-49.75-39.71-76.39-11-105.06-9.53-216.76,39.8-313.44,2.8-5.28,6.19-11.23,9.23-16.38,2.48-4.4,3.58-8.53,1.32-13.09-3.16-6.18-8.26-10.55-15-15.14-16.47-10.58-48.48-22.93-68.44-16.74-4.29,1.13-6.99,4.13-10.49,6.62-4.39,2.83-8.2,5.93-11.58,10.24-23.83,30.43-29.89,91.12-26.4,129.41-22.95-45.27-35.6-119.7-8.16-165.6,2.9-4.77,6.14-9.49,10.18-13.49,4.1-4.13,9.06-7.54,14.32-10.29,14.67-8,33.06-11.88,48.91-10.89,15.3.71,28.46,4.07,42.31,8.72,23.5,8.3,45.28,19.33,62.03,39.48,12.27,14.65,18.85,35.58,14.78,54.78-1.62,8.17-4.41,15.1-8.23,21.87-2.29,3.88-4.99,8.51-7.1,12.46-43,80.64-47.11,192.56-34.87,282.35.11,1.96-.25,3.96-.57,5.9,0,0-.95,5.97-.95,5.97-2.53,16.28-8.88,57.07-11.39,73.66h0Z"/>
  <path class="cls-1" d="M4388.53,993.05c15.39,22.11,27.24,46.37,37.59,71.15,1.58,3.71,3.3,7.57,3.24,11.65,5.42,66.02,7.65,132.48-4.8,198.3-7.84,42.95-22.16,86.74-45.21,124.86-7.78,13.13.99,29.52,13.51,36.53,12.55,7.6,30.9,7.84,44.23,2.88,3.96-1.64,7.42-3.65,10.25-6.76,1.98-2.4,3.39-5.54,5.59-7.92,24.15-28.09,21.41-93.16,18.59-129.22,23.09,41.34,44.48,99.11,30.64,146.62-1.14,3.65-2.54,7.8-4.37,11.19-3.26,6.23-7.98,11.44-13.14,16.36-23.08,23-58.01,29.37-88.85,23.29-51.88-9.84-88.64-64.87-63.96-115.18.96-2.09,2.61-4.71,3.75-6.75,33.95-57.81,44.36-126.55,45.76-193.35.61-33.42-1.33-67.33-5.66-100.58,3.38-21.98,9.49-60.89,12.85-83.08h0Z"/>
  <path class="cls-1" d="M4387.64,2030.76c-2.63-16.84-8.82-57.6-11.39-73.66-.42-2.56-1.06-6.58-1.41-8.94-.4-2.94.18-5.79.87-8.64,10.25-91.3,7.26-194.26-35.86-276.64-2.11-3.95-4.83-8.59-7.1-12.46-3.83-6.76-6.61-13.7-8.23-21.87-4.06-19.19,2.52-40.15,14.78-54.78,16.74-20.16,38.54-31.18,62.03-39.48,13.86-4.65,27.01-8.02,42.31-8.72,15.84-.99,34.23,2.89,48.91,10.89,5.26,2.75,10.22,6.16,14.32,10.29,4.04,4,7.28,8.73,10.18,13.49,27.45,45.9,14.79,120.31-8.16,165.6,3.49-38.3-2.55-98.93-26.4-129.41-3.39-4.31-7.19-7.43-11.58-10.24-3.5-2.49-6.2-5.5-10.49-6.62-19.96-6.19-51.97,6.17-68.44,16.74-6.74,4.6-11.85,8.96-15,15.14-2.26,4.56-1.17,8.69,1.32,13.09,3.06,5.17,6.43,11.1,9.23,16.38,49.33,96.68,50.8,208.37,39.8,313.44-10.74,26.65-23.28,52.71-39.71,76.39h0Z"/>
  <path class="cls-1" d="M3593.05,2721.5c-19.2,9.25-39.04,16.74-59.05,23.86-14.89,5.09-30.11,10.29-45.32,14.29-129.64,7.93-260.97,9.73-388.63-19.58-20.74-4.84-41.26-10.7-61.44-17.73-6.24-2.19-18.14-7.03-24.72-7.77-29.17-5.21-58.78,13.9-69.62,41.18-3.91,9.45-6.08,19.81-3.33,29.62.66,2.93,1.23,5.88,2.03,9.04,3.72,14.4,16.27,27.82,28.39,37.18,33.72,25.53,80.32,40.88,122.57,43.78,5.07.29,10.19.39,15.34.13-39.52,12.97-85.49,10.95-125.88.64-34.65-9.5-68.94-26.97-87.63-60.19-7.16-12.21-9.57-27.28-8.66-41.25,1.19-26.45,11.86-51.92,28.97-71.94,25.38-30.26,66.96-46.69,106.18-39.9,10.65,1.43,23.6,6.32,33.7,10.05,37.01,12.91,75.3,21.31,114.13,27.3,103.81,15.05,209.99,15.3,314.48,6.17,1.26.04,2.54.18,3.81.36,34.15,4.66,70.41,9.41,104.7,14.78h0Z"/>
  <path class="cls-1" d="M1888.79,2720.71c31.51-4.98,65.92-9.47,97.4-13.8,5.33-.61,10.71-1.9,15.92-1.14,5.2.79,10.41,1.62,15.68,1.81,104.25,6.61,209.65,6.44,312.66-11.26,32.69-5.75,65.15-13.59,96.46-24.56,2.27-.77,8.74-3.24,11.01-4.03,43.49-16.06,96.13-5.61,127.91,29.34,19.94,21.64,25.87,47.84,26.12,76.82.11,13.22-.6,26.93-5.34,39.7-14.45,38.75-50.84,61.84-89.53,69.34-54.02,10.54-111.93,1.34-163.68-14.91,47.02,2.53,94.79.68,139.68-13.64,24.31-8.08,50.29-21.82,59.76-46.31,2.59-7.05,3.89-14.39,5.46-21.76,1.64-8.15,1.45-16.76.42-25.23-.94-10.74-4.06-20.62-11.74-28.84-15.15-16.66-40.96-22.85-62.78-17.75-3.94.84-8.13,2.35-11.93,3.77-3.96,1.49-11.89,4.29-15.89,5.62-93.92,30.89-194.11,39-292.3,40.03-43.37.27-86.64-1.19-129.78-4.06-5.39-.52-10.82-.45-16.23-.44-5.42-.05-10.68-2.18-15.97-3.67-31.79-9.77-63.22-20.75-93.33-35.03h0Z"/>
  <path class="cls-1" d="M1885.84,310.73c33.35-15.7,68.27-27.81,103.62-38,87.17-5.68,175.05-8.01,262.32-.2,69.33,6.04,139.45,18.52,205.15,43.28,28.09,8.77,65.16-2.85,75.88-31.17,1.55-4.36,2.46-8.11,2.31-12.96.23-10.95-3.99-21.56-6.15-32.23-9.77-46.5-45.18-70.03-90.72-75.2-19.39-2.35-39.72-1.61-60.05.66,0,0,7.09-2.99,7.09-2.99,37.31-15.1,79.55-22.97,118.8-9.67,34.73,11.5,62.05,40.25,75.97,73.69,4.63,11.41,5.84,23.52,7.01,35.75.68,8.54.78,17.3-.9,26.04-13.13,67.82-92.25,99.48-153.13,75.26-59.52-22.16-122.34-32.52-185.84-38.27-79.33-6.89-159.19-5.91-238.66-.4-4.97.48-9.87,1.92-14.91,1.52-2.52-.18-5.06-.62-7.59-.94-32.53-4.45-67.49-9.03-100.17-14.17h0Z"/>
  <path class="cls-1" d="M3590.11,311.52c-33.48,5.26-69.27,9.95-102.69,14.51-2.57.36-5.17.73-7.76.64-3.84-.11-7.63-1.04-11.44-1.49-139.12-8.89-296.56-8.83-428.28,39.68-49.05,17.82-109.96,1-137.89-44.69-6.32-10.32-10.71-22-12.66-34-1.41-9.11-1.08-18.81-.2-27.28,1.38-12.48,3.11-24.9,8.03-36.51,12.52-28.42,35.23-53.24,63.34-66.45,51.29-24.41,111.26-11.87,161.15,8.97-20.81-2.49-41.59-3.86-61.83-2.68-28.42,1.61-57.49,8.06-80.22,25.72-13.46,10.62-23.23,24.53-28.88,40.49-2.71,7.86-4.48,15.96-6.98,23.89-2.43,8.1-3.59,17.61-2.67,25.61.91,5.29,2.81,10.32,5.64,14.94,11.3,18.44,34.98,27.79,56.35,26.49,7.73-.38,15.36-2.23,22.55-5.05,20.44-7.65,41.29-13.91,62.39-19.18,130.98-31.49,266.41-30.42,399.63-21.34,34.91,10.31,69.47,22.14,102.44,37.73h0Z"/>
  <path class="cls-1" d="M2741.29,2569.03c-2.73,32.04-7.76,77.43-11.08,109.74-14.71,40.38-27.75,81.79-35.45,123.85-1.74,10.11-2.98,19.54-3.38,29.33-.32,20.12.67,48.26,12.44,64.32,8.62,11.01,22.7,11.74,36.79,12.07,46.5,4.23,53.01-44.25,50.61-82.64-2.57-39.26-13.29-79-25.61-116.73-1.75-6.28-5.35-11.88-6.92-18.22-5.64-40.51-11.84-80.8-17.39-121.72h0ZM2741.29,2569.03c24.93,27.97,46.97,57.89,67.04,89.53,2.19,3.68,5.42,8.28,7.19,12.06,2.93,6.29,3.65,13.37,6.12,19.85,8.05,24.44,15.03,48.84,20.39,74.3,12.07,59.14,19.13,137.49-32.67,180.97-20.1,16.35-45.99,23.67-71.48,21.5,0,0-1.27-.15-1.27-.15,0,0,3.85.26,3.85.26-73.57.68-104.83-46.21-107.82-114.92-.51-10.22-.56-20.3.2-30.47,3.18-38.12,13.31-74.86,24.22-110.99,5.41-17.56,11.31-34.84,17.11-52.11,20.39-31.46,42.22-61.68,67.12-89.83h0Z"/>
  <path class="cls-1" d="M2742.03,449.98c2.73-32.04,7.76-77.43,11.08-109.74,14.71-40.38,27.75-81.79,35.45-123.85,1.74-10.11,2.98-19.54,3.38-29.33.32-20.12-.67-48.26-12.44-64.32-8.62-11.01-22.7-11.74-36.79-12.07-46.5-4.23-53.01,44.25-50.61,82.64,2.57,39.26,13.29,79,25.61,116.73,1.75,6.28,5.35,11.88,6.92,18.22,5.64,40.51,11.84,80.8,17.39,121.72h0ZM2742.03,449.98c-24.93-27.97-46.97-57.89-67.04-89.53-2.19-3.68-5.42-8.28-7.19-12.06-2.93-6.29-3.65-13.37-6.12-19.85-8.05-24.45-15.03-48.84-20.39-74.3-12.07-59.14-19.13-137.49,32.67-180.97,20.1-16.35,45.99-23.67,71.48-21.5,0,0,1.27.15,1.27.15,0,0-3.85-.26-3.85-.26,73.57-.68,104.83,46.21,107.82,114.92.51,10.22.56,20.3-.2,30.47-3.18,38.12-13.31,74.86-24.22,110.99-5.41,17.56-11.31,34.84-17.11,52.11-20.39,31.46-42.22,61.68-67.12,89.83h0Z"/>
</svg>