<?xml version="1.0" encoding="UTF-8"?>
<svg id="_레이어_1" data-name="레이어 1" xmlns="http://www.w3.org/2000/svg" viewBox="0 0 5442.52 3061.42">
  <defs>
    <style>
      .cls-1 {
        fill: #000;
      }

      .cls-1, .cls-2 {
        stroke-width: 0px;
      }

      .cls-2 {
        fill: #fff;
      }
    </style>
  </defs>
  <g>
    <path class="cls-2" d="M1855.41,1319.69c-70.15,76.55-156.49,147-226.64,223.55-9.52,10.39-19.65,22.36-19.1,36.44.6,15.25,13.4,26.82,25.21,36.49,57.11,46.75,114.21,93.49,171.32,140.24,14.29,11.7,28.92,30.23,46.21,36.71,18.47,6.93,38.66,7.2,58.38,7.38,745.59,6.89,1491.24-.07,2236.82-7.63-33.1-158.92-64.44-332.63,9.95-476.91-147.87,18.39-286.2,9.28-435.2,7.71-100.22-1.06-210.18,16.36-310.24,10.61-107.91-6.2-216.04-7.34-324.12-8.48-410.8-4.32-818.54-1.79-1229.35-6.11"/>
    <path class="cls-1" d="M1854.35,1318.63c-63.61,69.1-135.7,129.62-201.26,196.77-20.28,20.77-60.56,51.94-37.44,83.85,12.09,16.68,31.6,28.98,47.37,41.89,19.47,15.94,38.94,31.87,58.41,47.81,19.47,15.94,38.94,31.87,58.41,47.81,17.28,14.14,33.49,29.18,50.36,43.74,31.72,27.36,77.12,21.49,116.19,21.83,101.67.88,203.34,1.51,305.02,1.91,202.5.81,405,.74,607.51.07,202.51-.67,405.01-1.95,607.51-3.57,201.65-1.61,403.3-3.56,604.95-5.59,25.42-.26,50.84-.51,76.25-.77,1.02-.01,1.64-.95,1.45-1.9-32.21-154.85-65.4-327.76,9.8-475.76.46-.9-.08-2.41-1.3-2.26-146.25,17.9-292.96,8.4-439.76,7.67-70.99-.35-141.67,7.62-212.53,10.65-73.28,3.13-146.44-3.21-219.69-5.26-304.38-8.51-609.26-5.77-913.73-6.51-171.07-.41-342.14-1.04-513.2-2.83-1.93-.02-1.93,2.98,0,3,193.05,2.02,386.1,2.55,579.16,2.98,192.98.43,385.95.77,578.92,2.45,96.37.84,192.78,1.46,289.11,4.51,46.91,1.49,93.84,5.3,140.75,5.77,45.03.46,90.01-2.59,134.92-5.63,44.61-3.03,89.27-6.25,134.01-6.14,46.69.12,93.39,1.63,140.08,2.58,92.44,1.87,185.07,2.25,277.14-7.4,4.87-.51,12.63-3.13,17.37-1.94,6.04,1.52,3.14,2.73.42,8.5-4.02,8.53-7.72,17.22-11.1,26.03-7.12,18.53-12.78,37.6-17.11,56.98-8.61,38.47-11.98,77.96-11.91,117.33.15,82.46,14.91,164.19,31.36,244.71.88,4.29,3.66,10.63,3.09,14.97-.83,6.32-6.63,4.59-12.48,4.65-12.71.13-25.42.26-38.13.39-23.72.24-47.45.48-71.17.71-48.29.48-96.59.96-144.88,1.43-96.59.94-193.18,1.83-289.77,2.67-193.18,1.67-386.36,3.07-579.55,3.98-193.18.91-386.36,1.33-579.55,1.02-96.59-.15-193.18-.49-289.77-1.03-48.29-.27-96.59-.6-144.88-.98-24.57-.19-49.14-.4-73.71-.62-23.31-.21-49.56,1.41-71.22-8.72-18.63-8.71-32.59-26.93-48.33-39.81-18.17-14.87-36.34-29.75-54.51-44.62-36.99-30.28-74.21-60.29-110.97-90.84-7.67-6.38-15.96-13.18-20.8-22.09-7.79-14.36-2.12-28.19,7.17-39.96,13.29-16.82,29.22-31.97,44.34-47.13,31.66-31.72,64.6-62.12,97.19-92.87s63.09-60.22,92.63-92.31c1.31-1.42-.81-3.55-2.12-2.12h0Z"/>
  </g>
  <g>
    <path class="cls-1" d="M1876.1,1800.74c229.16-8.46,478.09-15.76,707.81-21.42,484.89,1,1024.82.17,1509.98.43,0,0,23.59,0,23.59,0,0,0,1.47,0,1.47,0,.11,0,1.2.04,1.38.05,24.76,1.6,48.41,5.3,72.64,12.73,0,0,6.26,2.11,6.26,2.11,0,0,.78.27.78.27.27.09.67.26,1,.38,0,0,2.07.82,2.07.82,41.31,17.1,50.39,73.31,16.12,102.35-25.08,22.47-65.24,15.43-81.39-14.14-2.34-4.31-4.08-8.91-5.16-13.68-.53-2.24-1.35-7.52-1.77-9.9-1.32-7.85-2.56-15.71-3.78-23.57-24.13-165.41-38.04-363.6,13.79-524.38,0,0,.66-2,.66-2,0,0,.98-1.68.98-1.68,6.95-12,14.51-23.83,22.45-35.23,6.01-8.6,12.4-17.19,19.24-25.28,6.45-8.01,14.14-14.79,24.18-18.41,21.42-8.04,46.43,1,59.44,19.31,18.05,24.69,9.22,56.75-15.56,72.92-14.08,9.11-31.22,12.15-46.97,14.1-20.54,2.37-41.14,3.05-61.47,3.74-38.22,1.23-81.45,2.01-119.91,1.73-428.93.34-1006.81-.62-1434.22.4-27.33-.47-53.23-1.29-79.69-1.98-205.93-5.49-432.09-12.04-637.43-19.42,233.14-8.34,483.26-15.54,716.95-21.4,442.82.87,1029.67.22,1473.75.4,25.9-.11,53.41-1.06,79.23-1.71,19.46-.68,38.74-1.27,57.78-3.46,6.06-.72,11.9-1.67,17.04-2.93,7.02-1.91,11.28-3.26,15.2-7.42,1.84-2.17,3.54-4.89,2.66-7.74-1.13-3.47-5.75-7.64-10.04-7.51-1.68.05-2.81.31-4.62,1.81-.21.22-.47.31-.69.6-.55.62-.73.7-1.32,1.42,0,0-.73.86-.73.86-2.55,2.94-4.86,5.81-7.26,8.86-11.52,14.81-22.01,30.8-31.5,47.05-46.74,149.82-34.43,356.11-6.76,523.98,0,0,.97,5.74.97,5.74.25,1.63.61,3.19,1.38,4.6,2.79,5.27,10.52,7.44,15.53,3.77,12.34-8.24,10.15-27.61-3.32-33.09-.78-.38-5.58-1.94-6.58-2.29-19.25-5.98-40.89-9.44-61.48-10.79,0,0-.72-.04-.72-.04,0,0-1.47,0-1.47,0,0,0-23.58,0-23.58,0-485.05.24-1024.6-.55-1509.39.43-229.66-5.74-478.25-12.89-707.52-21.42h0Z"/>
    <g>
      <path class="cls-1" d="M1803.54,1138.38c13.44-14.96,34.57-21.83,53-10.67,5.69,3.39,10.61,7.66,14.57,12.88,7.42,10.52,7.67,24.54,3.59,36.21-1.91,5.66-4.85,11.07-8.57,15.85-.91,1.23-3.74,5.1-4.71,6.42-3.74,5.01-14.78,19.91-18.71,25.19-84.73,88.44-272.12,283.47-359.2,374.41,0,0-1.95-30.86-1.95-30.86,0,0,198.74,160.68,198.74,160.68,20.27,16.24,60.73,49.47,81.01,64.94,8.49,8.28,19.71,20.4,27.98,28.91,25.88,27.28,51.68,54.89,76.56,83.15-28.25-15.83-55.94-32.3-83.57-49.07-14.97-9.19-33.26-20.08-47.9-29.67-6.38-4.82-11.99-10.57-18.36-15.4-54.82-44.36-222-179.46-278.61-225.26,53.78-56.1,252.13-262.84,303.14-316.04,9.35-9.7,34.02-35.5,43.1-44.93,6.97-7.12,14.64-15.35,21.14-22.86,5.07-5.82,17.93-15.32,23.81-20.3,1.6-1.22,10.37-8.46,12.21-9.86,0,0,1.97-1.56,1.97-1.56,0,0,1.26-.9,1.26-.9,6.14-4.84,11.67-14.43,7.04-21.69-2.64-4.79-6.2-9.25-10.98-12.04-11.16-6.48-25.51-3.2-36.54,2.46h0Z"/>
      <path class="cls-1" d="M1820.79,1961.95c7.52-3.03,14.95-6.81,21.08-12.13.88-.69.76.7,1.45.78,7.81,2.72,12.69.12,17.5-6.6.07-.02.08-.13.1-.19.17-.27.24-.61.38-.91.56-2.15.55-4.32-.07-7.16-.55-2.4-1.63-4.94-3.21-7.41.45-.72.94-1.49,1.33-2.26,3.34-6.36,5.18-13.51,6.47-20.57,6.68-1.98,13.92-2.48,20.78-1.35,2.31.37,4.57.91,6.82,1.62,3.9,6.1,6.98,13.01,8.71,20.52,2.94,12.08,1.81,26.81-4.62,38.17-7.77,13.08-20.69,24.18-36.34,27.83-9.96,2.31-20.31,1.57-29.85-1.44,0,0-1.32-.42-1.32-.42-.87-.39-1.86-.25-2.77-.39-.45-.09-.85-.36-1.15-.8-1.12-2.05-2.05-4.2-2.86-6.32-2.35-6.68-3.4-13.92-2.45-20.96h0Z"/>
    </g>
    <g>
      <path class="cls-1" d="M1927.34,1138.38c13.44-14.96,34.57-21.83,53-10.67,5.69,3.39,10.61,7.66,14.57,12.88,7.42,10.52,7.67,24.54,3.59,36.21-1.91,5.66-4.85,11.07-8.57,15.85-.91,1.23-3.74,5.1-4.71,6.42-3.74,5.01-14.78,19.91-18.71,25.19-84.73,88.44-272.12,283.47-359.2,374.41,0,0-1.95-30.86-1.95-30.86,0,0,198.74,160.68,198.74,160.68,20.27,16.24,60.73,49.47,81.01,64.94,8.49,8.28,19.71,20.4,27.97,28.91,25.88,27.28,51.68,54.89,76.56,83.15-28.25-15.83-55.94-32.3-83.57-49.07-14.97-9.19-33.26-20.08-47.9-29.67-6.38-4.82-11.99-10.57-18.36-15.4-54.82-44.36-222-179.46-278.61-225.26,53.78-56.1,252.13-262.84,303.14-316.04,9.35-9.7,34.02-35.5,43.1-44.93,6.97-7.12,14.64-15.35,21.14-22.86,5.07-5.82,17.93-15.32,23.81-20.3,1.6-1.22,10.37-8.46,12.21-9.86,0,0,1.97-1.56,1.97-1.56,0,0,1.26-.9,1.26-.9,6.14-4.84,11.67-14.43,7.04-21.69-2.64-4.79-6.2-9.25-10.98-12.04-11.16-6.48-25.51-3.2-36.54,2.46h0Z"/>
      <path class="cls-1" d="M1944.59,1961.95c7.52-3.03,14.95-6.81,21.08-12.13.88-.69.76.7,1.45.78,7.81,2.72,12.69.12,17.5-6.6.07-.02.08-.13.1-.19.17-.27.24-.61.38-.91.56-2.15.55-4.32-.07-7.16-.55-2.4-1.63-4.94-3.21-7.41.46-.72.94-1.49,1.33-2.26,3.34-6.36,5.18-13.51,6.47-20.57,6.68-1.98,13.92-2.48,20.78-1.35,2.31.37,4.57.91,6.82,1.62,3.9,6.1,6.98,13.01,8.71,20.52,2.94,12.08,1.81,26.81-4.62,38.17-7.77,13.08-20.69,24.18-36.34,27.83-9.96,2.31-20.31,1.57-29.85-1.44,0,0-1.32-.42-1.32-.42-.87-.39-1.86-.25-2.77-.39-.45-.09-.85-.36-1.15-.8-1.12-2.05-2.05-4.2-2.86-6.32-2.35-6.68-3.4-13.92-2.45-20.96h0Z"/>
    </g>
  </g>
</svg>