<?xml version="1.0" encoding="UTF-8"?>
<svg id="_레이어_1" data-name="레이어 1" xmlns="http://www.w3.org/2000/svg" viewBox="0 0 5442.52 3061.42">
  <defs>
    <style>
      .cls-1 {
        fill: #020202;
        stroke-width: 0px;
      }
    </style>
  </defs>
  <path class="cls-1" d="M3815.58,1048.46c-134.83-284.37-606.32-216.24-606.32,67.89s-298.67,386.37-298.67,386.37c109.32-52.71,84.17-239.22,84.17-239.22,170.55-50.95,105.89-265.99,105.89-265.99-247.65-10.89-240.52,260.06-240.52,260.06h-108.62s7.14-270.95-240.52-260.06c0,0-64.66,215.04,105.89,265.99,0,0-25.15,186.51,84.17,239.22,0,0-298.67-102.24-298.67-386.37s-471.48-352.26-606.32-67.89c0,0,284.83,32.45,151.43,461.5,0,0,335.31-36.05,212.72,302.86,0,0,408.78-126.5,567.42,154.72l-86.39,238.27h329.14l-86.38-238.27c158.64-281.23,567.42-154.72,567.42-154.72-122.59-338.91,212.72-302.86,212.72-302.86-133.4-429.05,151.43-461.5,151.43-461.5Z"/>
</svg>