<?xml version="1.0" encoding="UTF-8"?>
<svg xmlns="http://www.w3.org/2000/svg" viewBox="0 0 5442.52 3061.42">
  <defs>
    <style>
      .cls-1 {
        fill: #020202;
        stroke-width: 0px;
      }

      .cls-2 {
        mix-blend-mode: hard-light;
      }

      .cls-3 {
        isolation: isolate;
      }
    </style>
  </defs>
  <g class="cls-3">
    <g id="_레이어_1" data-name="레이어 1">
      <g class="cls-2">
        <path class="cls-1" d="M1578.95,1059.38c1.53-49.24,2.01-98.35.62-147.46-.11-6.07.75-12.06,1.42-18.08.63-6.01.88-12.05,1.22-18.07,2.82-59.25,2.34-120.11-10.72-177.92-4.07-17.57-9.36-34.36-16.99-50.52-1.66-3.34-3.55-7.36-5.87-10.3-7.14-9.26-20.61-14.64-32.62-13.67-3.54.3-7.08.83-10.36,2.22-2.3,1.2-4.99,3.64-6.47,5.96-2.96,4.58-3.16,7.89-.46,11.79,2.37,3.85,5.49,7.18,9.24,10.1,7.56,5.81,17.78,9.27,27.77,9.72,2.76.14,11.17.61,14.09.76,127.58,9.42,255.89,14.08,383.37,2.47,10.96.48,25.73.47,36.67.59,20.43.49,44.08-.14,64.52-.13,15.29-.52,30.98-1,46.38-1.21-17.43,5.77-35.56,11.88-53.34,16.79-11.22,3.01-25.17,6.88-36.1,9.7-9.16,2.16-27.31,6.28-36.47,8.33-4.94,1.19-13.17,2.82-18.33,3.82-132.45,12.24-265.61,6.6-397.93-2.87-27.06-.24-54.92-12.23-70.53-35.46-9.06-12.8-11.83-27.94-6.76-42.85,6.15-17.92,21.37-32,40.05-35.88,32.13-7.64,68.63,7.18,84.08,36.94,37.31,73.33,38.45,172.88,34.77,253.59-.57,9.34-1,18.68-1.27,28.03-.16,3.11-.52,6.21-1.03,9.29-2.36,12.3-4.98,24.54-7.73,36.71-8.5,36.38-18.36,72.51-31.21,107.6h0Z"/>
        <path class="cls-1" d="M3967.13,1059.38c-12.85-35.09-22.71-71.22-31.21-107.6-2.74-12.18-5.37-24.41-7.73-36.71-.51-3.08-.87-6.18-1.03-9.29-.27-9.35-.7-18.69-1.27-28.03-3.67-80.7-2.56-180.21,34.77-253.59,15.45-29.76,51.96-44.59,84.08-36.94,18.67,3.88,33.89,17.96,40.05,35.88,5.06,14.89,2.31,30.05-6.76,42.85-15.62,23.23-43.46,35.22-70.53,35.46-132.32,9.47-265.48,15.1-397.93,2.87,0,0-9.18-1.8-9.18-1.8-3.06-.62-6.1-1.35-9.15-2.02-8.89-1.99-27.54-6.23-36.47-8.33-11.36-2.93-24.88-6.68-36.1-9.7-17.75-4.91-35.91-11.02-53.34-16.79,15.4.21,31.05.68,46.38,1.21,20.5,0,44.01.61,64.52.13,11.06-.12,25.88-.1,36.67-.59,127.48,11.61,255.79,6.95,383.37-2.47,2.71-.1,11.38-.64,14.09-.76,10-.44,20.21-3.91,27.77-9.72,3.75-2.93,6.87-6.25,9.24-10.1,2.69-3.88,2.51-7.22-.46-11.79-1.48-2.32-4.16-4.76-6.48-5.96-3.27-1.4-6.83-1.92-10.36-2.22-12.01-.97-25.48,4.41-32.62,13.67-2.33,2.94-4.2,6.93-5.87,10.3-7.63,16.16-12.92,32.94-16.99,50.52-13.06,57.81-13.54,118.66-10.72,177.92.34,6.02.59,12.06,1.22,18.07.66,6.01,1.53,12,1.42,18.08-1.39,49.11-.91,98.21.62,147.46h0Z"/>
        <path class="cls-1" d="M3976.83,2013.73c-1.53,49.24-2.01,98.35-.62,147.46.11,6.07-.75,12.06-1.42,18.08-.63,6.01-.88,12.05-1.22,18.07-2.82,59.26-2.34,120.11,10.72,177.92,4.07,17.57,9.37,34.36,16.99,50.52,1.66,3.34,3.55,7.36,5.87,10.3,7.14,9.26,20.61,14.64,32.62,13.67,3.54-.3,7.08-.83,10.36-2.22,2.3-1.2,4.99-3.64,6.48-5.96,2.96-4.57,3.16-7.89.46-11.79-2.37-3.85-5.49-7.18-9.24-10.1-7.56-5.81-17.78-9.27-27.77-9.72-2.76-.14-11.17-.61-14.09-.76-127.58-9.42-255.89-14.08-383.37-2.47-10.96-.48-25.73-.47-36.67-.59-20.43-.49-44.08.14-64.52.13-15.29.52-30.98,1-46.38,1.21,17.43-5.77,35.56-11.88,53.34-16.79,11.22-3.01,25.17-6.88,36.1-9.7,9.16-2.16,27.31-6.28,36.47-8.33,4.94-1.19,13.17-2.82,18.33-3.82,132.45-12.24,265.61-6.6,397.93,2.87,27.06.24,54.92,12.23,70.53,35.46,9.06,12.8,11.83,27.94,6.76,42.85-6.15,17.92-21.37,32-40.05,35.88-32.13,7.64-68.63-7.18-84.08-36.94-37.31-73.33-38.45-172.88-34.77-253.59.57-9.34,1-18.68,1.27-28.03.16-3.11.52-6.21,1.03-9.29,2.36-12.3,4.98-24.54,7.73-36.71,8.5-36.38,18.36-72.51,31.21-107.6h0Z"/>
        <path class="cls-1" d="M1577.99,2013.73c12.85,35.09,22.71,71.22,31.21,107.6,2.74,12.18,5.37,24.41,7.73,36.71.51,3.08.87,6.18,1.03,9.29.27,9.35.7,18.69,1.27,28.03,3.67,80.7,2.56,180.21-34.77,253.59-15.45,29.76-51.96,44.59-84.08,36.94-18.67-3.88-33.89-17.96-40.05-35.88-5.06-14.89-2.31-30.05,6.76-42.85,15.62-23.23,43.46-35.22,70.53-35.46,132.32-9.47,265.48-15.1,397.93-2.87,0,0,9.18,1.8,9.18,1.8,3.06.62,6.1,1.35,9.15,2.02,8.89,1.99,27.54,6.23,36.47,8.33,11.36,2.93,24.88,6.68,36.1,9.7,17.75,4.91,35.91,11.02,53.34,16.79-15.4-.21-31.05-.68-46.38-1.21-20.5,0-44.01-.61-64.52-.13-11.06.12-25.88.1-36.67.59-127.48-11.61-255.79-6.95-383.37,2.47-2.71.1-11.38.64-14.09.76-10,.44-20.21,3.91-27.77,9.72-3.75,2.93-6.87,6.25-9.24,10.1-2.69,3.88-2.51,7.22.46,11.79,1.48,2.32,4.16,4.76,6.48,5.96,3.27,1.4,6.83,1.92,10.36,2.22,12.01.97,25.48-4.41,32.62-13.67,2.33-2.94,4.2-6.93,5.87-10.3,7.63-16.16,12.92-32.94,16.99-50.52,13.06-57.81,13.54-118.66,10.72-177.92-.34-6.02-.59-12.06-1.22-18.07-.66-6.01-1.53-12-1.42-18.08,1.39-49.11.91-98.21-.62-147.46h0Z"/>
        <path class="cls-1" d="M1568.91,1156.19c2.59,16.81,6.75,44,9.33,60.3-3.14,24.14-4.55,48.74-4.11,73,1.01,49.29,8.86,100,34.41,142.4,16.24,27.85,3.45,62.76-23.41,78.19-25.83,15.3-64.21,13.08-85.98-8.67-4.47-4.23-8.47-8.9-10.8-14.55-.59-1.52-1.44-3.85-1.9-5.45-10-34.86,5.4-76.14,22.23-106.42-2.03,26.21-4.07,73.37,13.49,93.79,1.62,1.77,2.61,3.98,4.06,5.75,2.05,2.26,4.57,3.71,7.44,4.9,12.64,4.81,31.06,2.71,39.47-8.47,5.19-6.52,6.24-14.87,1.52-21.71-3.88-6.57-7.54-13.46-10.7-20.35-30.79-68.05-31.39-144.31-23.99-216.93,7.77-19.48,16.96-38.51,28.94-55.81h0Z"/>
        <path class="cls-1" d="M1569.55,1909.39c-11.51-16.54-20.29-34.74-27.97-53.3-2.24-4.2-1.42-8.76-1.89-13.28-6.7-72.09-4.23-147.92,28.85-214.26,2.46-5.01,5.57-10.11,8.3-14.98,2.38-4.37,1.33-8.24-1.79-11.98-8.41-9.68-21.62-14.98-34.83-18.73-8.11-2.1-15.78-3.24-23.5-.96-3.12.81-5.06,3.02-7.62,4.8-25.18,15.55-30.34,73.82-27.57,101.36-16.67-32.95-25.83-86.83-5.9-120.19,6.68-11.96,16.82-18.05,29.56-22.21,16.23-5.23,34.06-3.04,49.71,1.85,11.52,3.57,22.14,8.05,32.49,14.84,18.25,11.72,32.63,32.01,27.97,55.11-1.18,5.93-3.2,10.96-5.98,15.87-13.57,22.38-22.15,46.97-27.48,73.18-8.72,44.55-9.18,91.38-3.7,136.65.78,2.78.95,5.57.3,8.43-2.36,14.77-6.67,42.83-8.96,57.79h0Z"/>
        <path class="cls-1" d="M3973.51,1156.19c11.18,16.04,19.75,33.66,27.29,51.64,1.13,2.71,2.4,5.47,2.35,8.45,3.93,47.92,5.56,96.16-3.48,143.93-5.69,31.17-16.09,62.96-32.81,90.63-7.39,13.53,5.69,27.81,19.61,30.24,8.62,1.63,19.11.86,26.4-3.75,1.22-.82,2.38-1.67,3.34-2.79,1.45-1.77,2.43-3.98,4.06-5.75,17.56-20.42,15.52-67.55,13.49-93.79,16.83,30.27,32.23,71.56,22.23,106.42-.47,1.46-1.27,4.01-1.9,5.45-2.33,5.65-6.33,10.32-10.8,14.55-21.77,21.75-60.15,23.96-85.98,8.67-26.86-15.45-39.66-50.32-23.41-78.19,25.55-42.41,33.41-93.11,34.41-142.4.44-24.26-.97-48.87-4.11-73,2.55-16.4,6.81-43.7,9.33-60.31h0Z"/>
        <path class="cls-1" d="M3972.87,1909.39c-2.37-15.16-6.57-43.17-8.96-57.79-.64-2.88-.49-5.63.3-8.43,5.48-45.27,5.02-92.1-3.7-136.65-5.32-26.21-13.9-50.8-27.48-73.18-2.78-4.91-4.8-9.94-5.98-15.87-4.67-23.08,9.72-43.41,27.97-55.11,10.35-6.79,20.97-11.27,32.49-14.84,15.64-4.88,33.48-7.08,49.71-1.85,12.73,4.16,22.88,10.24,29.56,22.21,19.93,33.32,10.77,87.27-5.9,120.19,2.78-27.49-2.4-85.83-27.57-101.36-2.55-1.78-4.5-4-7.62-4.8-7.73-2.28-15.39-1.14-23.5.95-13.2,3.75-26.43,9.05-34.83,18.73-3.12,3.74-4.18,7.61-1.79,11.98,2.73,4.88,5.83,9.97,8.29,14.98,33.08,66.34,35.55,142.16,28.86,214.26-.47,4.49.35,9.11-1.89,13.28-7.68,18.56-16.46,36.76-27.97,53.3h0Z"/>
        <path class="cls-1" d="M3396.13,2410.75c-24.37,11.44-49.91,20.35-75.76,27.69-94.1,5.76-189.41,7.06-282.08-14.21-18.6-4.29-36.95-9.89-54.86-16.57-17.68-6.34-37.64-.26-49.79,14.21-5.22,6.06-9.04,13.59-10.86,21.34-1.25,4.73-1.11,9.37.03,13.9.48,2.13.89,4.27,1.47,6.56,2.83,10.58,11.48,19.84,20.6,26.99,24.59,18.57,58.19,29.64,88.96,31.77,3.68.21,7.4.28,11.13.1-7.07,2.47-14.53,4.05-22.08,5.08-38,4.56-83.33-1.86-114.32-26.46-10.61-8.62-21.2-21.84-23.94-36.36-5.55-33.65,12.7-68.71,41.71-85.87,20.46-12.47,46.68-15.23,69.31-7.26,71.02,26.51,147.9,32.07,223.38,32.46,32.74-.16,65.71-1.06,98.33-4.35,1.83.06,3.69.42,5.55.65,23.79,3.28,49.32,6.57,73.21,10.34h0Z"/>
        <path class="cls-1" d="M2159.12,2410.17c19.81-3.12,39.47-5.72,59.05-8.45,0,0,11.65-1.54,11.65-1.54,3.87-.46,7.77-1.4,11.56-.85,34.07,3.86,68.62,4.01,102.81,4.18,60.15-.54,121.25-5.17,179.15-20.69,10.62-2.87,21.24-6.24,31.53-10.06,41.89-17.5,98.07,1.88,111.13,47.9,4.22,16,5.42,41.27-.36,56.93-10.48,28.08-36.92,44.92-64.98,50.32-39.86,7.67-80.81,1.01-118.8-10.81,23.21,1.41,46.19.85,69-2.47,29.26-4.5,71.67-15.4,77.96-48.74,1.25-5.5,2.65-11.1,2.66-16.97.01-3.07-.24-6.37-.6-9.45-.66-7.75-2.95-15-8.51-20.93-12.49-13.66-34.33-17.55-51.62-11.1-12.19,4.56-24.91,8.71-37.42,12.07-96.39,25.63-196.34,24.01-294.86,18.75-3.93-.04-7.75-1.58-11.59-2.69l-11.48-3.57c-18.95-6.3-38.23-13.16-56.26-21.83h0Z"/>
        <path class="cls-1" d="M2156.98,660.93c24.2-11.41,49.57-20.14,75.21-27.58,93.4-5.98,188.03-7.06,280.11,13.51,18.59,4.28,37.25,9.65,55.27,16.43,2.53.95,5.14,1.76,7.79,2.32,15.05,3.42,33.27-1.2,43.66-11.95,4.78-4.86,7.82-10.5,9-16.97.22-1.27.21-2.45.22-4.09.16-7.2-2.37-14.23-3.99-21.22-1.18-5.81-2.78-11.6-5.25-17-17.05-39.66-66.01-44.12-104.67-39.28,45.77-20.59,100.02-22.4,133.24,21.4,5.37,7.06,9.86,14.76,13.27,22.9,4.04,10.37,4.98,21.77,5.42,32.89.43,17.69-7.86,35.81-20.19,48.11-21.98,22.17-55.9,29.54-85.41,20.69-2.17-.62-4.4-1.42-6.52-2.21-16.38-6.16-33.12-10.97-50.34-14.94-84.13-18.63-171.94-18.76-257.78-13.13-3.61.35-7.16,1.4-10.82,1.1-4.95-.5-6.54-.89-11.04-1.45-21.62-2.97-45.44-6.07-67.18-9.52h0Z"/>
        <path class="cls-1" d="M3393.99,661.51c-22.28,3.53-46.61,6.71-68.87,9.75-2.58.33-6.15.88-8.49,1.15-4.68.54-9.23-1.05-13.89-1.21-87.93-5.53-178.12-5.31-263.97,15.31-13.94,3.48-27.73,7.62-41.13,12.63-1.77.62-4.56,1.7-6.39,2.22-25.43,7.9-54.12,3.84-76-11.65-21.6-15.24-33.52-39.87-30-66.4,1-9.06,2.25-18.07,5.83-26.5,5.52-12.49,13.67-23.92,23.7-33.18,38.14-35.59,95.7-27.33,139.24-8.54-15.11-1.81-30.19-2.8-44.88-1.95-20.57,1.13-41.97,5.97-58.22,18.67-9.77,7.71-16.86,17.8-20.96,29.39-1.97,5.7-3.25,11.58-5.07,17.34-1.77,5.99-2.66,12.96-1.89,18.87,1.62,8.78,6.8,16.01,14.24,21.28,8.66,6.16,19.99,9.14,30.71,8.51,5.61-.28,11.15-1.62,16.36-3.66,14.83-5.55,29.97-10.1,45.28-13.92,90.4-21.74,183.68-22.13,275.76-16.35,5.75.43,11.59-.5,17.11,1.68,24.27,7.36,48.6,15.65,71.55,26.56h0Z"/>
        <path class="cls-1" d="M2777.89,2300.08c-1.99,23.29-5.63,56.18-8.04,79.66-8.7,23.55-16.28,47.83-22.06,72.06-3.97,17.13-7.12,34.38-5.98,51.81.83,12.56,2.52,29.21,12.05,37.23,6.83,4.98,14.43,5.3,23.53,5.52,0,0,2.79.19,2.79.19,0,0-.31-.04-.31-.04-.05,0,.02,0,.02,0,7.1.42,14.94-1.73,20.33-6.2,28.53-24.96,7.15-102.01-3.25-134.19,0,0-1.45-4.47-1.45-4.47-1.28-4.55-3.88-8.62-5.02-13.22-.66-2.83-.97-6.67-1.39-9.56,0,0-2.69-19.38-2.69-19.38-1.96-13.46-4.59-30.95-6.49-44.33-.19-5.12-.17-9.97-2.05-15.07h0ZM2777.89,2300.08c20.13,22.88,38.37,47.42,53.88,73.74,11.47,35.74,22.76,72.08,25.1,109.97,1.38,22.47-.56,46.54-11.27,67.09-13.43,26.23-41.79,41.19-71.1,38.12,0,0,2.79.19,2.79.19-11.72.03-25.74-1.61-37.37-7.05-35.55-16.01-42.16-58.29-41.06-92.85.67-16.15,3.65-31.8,7.22-47.26,6.12-26.27,14.51-51.43,23.09-76.76,14.83-22.81,30.62-44.78,48.72-65.2h0Z"/>
        <path class="cls-1" d="M2778.43,762.01c1.99-23.29,5.63-56.18,8.04-79.66,8.7-23.55,16.28-47.83,22.06-72.06,3.97-17.13,7.12-34.38,5.98-51.81-.83-12.56-2.52-29.21-12.05-37.23-6.83-4.98-14.43-5.3-23.53-5.52,0,0-2.79-.19-2.79-.19,0,0,.31.04.31.04.05,0-.02,0-.02,0-7.1-.42-14.94,1.73-20.33,6.2-28.53,24.96-7.15,102.01,3.25,134.19,0,0,1.45,4.47,1.45,4.47,1.28,4.55,3.88,8.62,5.02,13.22.66,2.83.97,6.67,1.39,9.56,0,0,2.69,19.38,2.69,19.38,1.96,13.46,4.59,30.95,6.49,44.33.19,5.12.17,9.97,2.05,15.07h0ZM2778.43,762.01c-20.13-22.88-38.37-47.42-53.88-73.74-11.47-35.74-22.76-72.08-25.1-109.97-1.38-22.47.56-46.54,11.27-67.09,13.43-26.23,41.79-41.19,71.1-38.12,0,0-2.79-.19-2.79-.19,11.72-.03,25.74,1.61,37.37,7.05,35.55,16.01,42.16,58.29,41.06,92.85-.67,16.15-3.65,31.8-7.22,47.26-6.12,26.27-14.51,51.43-23.09,76.77-14.83,22.81-30.62,44.78-48.72,65.2h0Z"/>
      </g>
    </g>
  </g>
</svg>