<?xml version="1.0" encoding="UTF-8"?>
<svg id="_레이어_1" data-name="레이어 1" xmlns="http://www.w3.org/2000/svg" viewBox="0 0 5442.52 3061.42">
  <defs>
    <style>
      .cls-1 {
        fill: #000;
      }

      .cls-1, .cls-2 {
        stroke-width: 0px;
      }

      .cls-2 {
        fill: #fff;
      }
    </style>
  </defs>
  <g>
    <path class="cls-2" d="M1631.47,1254.1c1.33-17.88,13.32-26.71,28.21-29.74,29.57-6.03,48.72,15.96,55.86,45.28,26.14,107.38,109.32,321.05-3.89,586.89-8.26,19.39-77.88,26.3-75.85-23.26,1-24.4,29.91-53.51,198.95-51.37h2169.66s39.75,1.67,73.4,13.79c28.48,10.26,35.21,48.08,11.88,67.38-.31.26-.63.52-.95.77-18.65,15.04-46.63,4.37-50.68-19.24-16.29-95.03-52.51-357.83,7.93-537.82,0,0,19.69-34.68,41.89-60.03,24.64-28.12,68.8,6.88,46.42,36.83-16.39,21.95-51.91,21.94-175.61,24.7H1786.95s-162.86,10.25-155.48-54.18Z"/>
    <path class="cls-1" d="M1631.47,1254.1c1.2-17.51,13.59-27.59,30.37-30.23,10.26-1.78,21.23.15,29.86,6.13,4.35,2.91,8.08,6.66,11.28,10.78,6.37,8.32,10.48,18.15,13.13,28.22,5.21,20.07,11.17,39.94,16.93,59.88,22.8,77.38,41.05,156.82,44.81,237.79.94,17.77,1.12,37.37.69,55.2-.37,15.13-1.52,32.23-2.81,47.38-.97,8.82-2.39,22.74-3.78,31.48-2.13,15.08-4.97,32.04-8.25,46.92-2.13,10.92-6.48,27.85-9.25,38.67-2.58,8.98-6.13,21.69-9.05,30.53-4.08,12.33-8.45,25.57-13.15,37.59,0,0-2.79,7.47-2.79,7.47,0,0-.7,1.87-.7,1.87-3,7.27-9.01,13.17-15.62,17.18-16.32,9.42-35.29,11.77-53.67,8.22-12.92-2.44-27.32-10.47-35.1-22.06-3.42-4.84-5.78-10.34-7.47-15.98-4.22-16.16-2.68-33.17,7.52-46.86,9.25-12.36,22.82-20.24,36.52-25.44,8.17-3.16,16.78-5.55,25.27-7.51,37.3-7.99,75.18-9.55,112.78-10.38,649.37-.03,1541.08-.08,2194.77-.04,0,0,7.78,0,7.78,0,0,0,1.95,0,1.95,0,0,0,.97,0,.97,0,.09-.01,1.09.02,1.61.05,19.51,1.18,38.78,4.01,57.78,8.64,0,0,4.12,1.08,4.12,1.08,2.74.68,5.49,1.55,8.24,2.36,4.55,1.44,9.19,2.88,13.57,4.89,0,0,2.68,1.3,2.68,1.3,4.41,2.35,8.59,5.15,12.3,8.53,26.24,23.38,27,66.36.09,89.94-29.49,27.44-77.65,12.53-86.79-26.34-2.98-15.83-5.34-31.96-7.72-47.87-14.88-104.01-22.74-209.38-17.06-314.46,3.75-63.9,12.66-127.89,32.84-188.94,0,0,.66-1.98.66-1.98,0,0,.98-1.7.98-1.7,7.32-12.74,15.43-25.17,23.89-37.23,5.35-7.54,11.05-15.09,17.08-22.28,4.93-6.06,10.21-11.43,17.54-15.44,5.35-2.98,11.49-4.99,17.7-5.7,12.13-1.43,24.09,1.89,33.99,8.41,15.03,9.78,24.96,27.64,23.31,45.95-1.33,17.52-12.86,33.03-27.62,41.53-22.95,13-56.15,13.49-81.74,15.08-27.28,1.28-65.26,1.86-92.91,2.55-18.92-.04-56.76.03-76.4,0-401.97.46-990.21-.87-1390.98.5-126.59-1.04-253.13-6.26-379.66-10.55-96.04-3.37-199.51-7.24-295.36-8.94,0,0-21.09-.39-21.09-.39,0,0-5.27-.09-5.27-.09,0,0-2.64-.04-2.64-.04-4.35.1-8.82.24-13.18.26-39.04-.03-148.6-2.46-142.93-55.91h0ZM1631.47,1254.1c-5.41,54.46,106.2,54.69,142.87,53.39,6.8-.26,14.18-.84,21.05-.82,103.02-1.78,212.64-5.5,315.94-9.33,140.42-4.47,280.87-11.37,421.39-10.25,409.84.53,1002.57.03,1412.63.2,0,0,10.54,0,10.54,0,0,0,2.63,0,2.63,0,30.45-.72,61.38-1.21,91.46-2.51,13.41-.67,26.96-1.39,39.96-3.25,6.2-.9,12.15-2.08,16.81-3.67,2.32-.79,4.31-1.66,5.84-2.55,1.55-.9,2.63-1.76,3.63-2.8.95-1,1.82-2.19,2.46-3.42.48-1.01.67-1.77.73-2.43.17-5-5.96-9.7-10.66-9.19-.77.1-1.43.31-2.22.75-.77.46-1.71,1.09-2.71,2.24-.08.04-.38.42-.64.71,0,0-.78.91-.78.91-12.33,14.44-23.11,30.4-33.12,46.6,0,0-2.6,4.3-2.6,4.3,0,0-2.44,4.16-2.44,4.16,0,0,1.64-3.68,1.64-3.68-9.41,28.27-16.12,57.83-21.06,87.38-22.01,144.05-9.85,291.13,12.97,434.6,0,0,.64,3.79.64,3.79,0,0,.31,1.85.31,1.85.06.23.11.46.14.69,1.35,5.32,6.4,8.65,11.74,7.94,1.77-.22,3.31-1,4.88-2.17.21-.16.81-.64.98-.82,4.28-3.59,6.64-9.15,6.26-14.75-.39-6.11-3.58-12-8.93-15.04,0,0-.78-.45-.78-.45-.57-.25-1.09-.55-1.69-.75,0,0-.44-.18-.44-.18-.12-.06-.29-.13-.6-.23-4.39-1.5-8.71-2.91-13.23-4.07-1.82-.5-5.06-1.31-6.87-1.71-13.99-3.25-28.56-5.32-42.89-6.42,0,0-3.45-.22-3.45-.22,0,0-3.25,0-3.25,0-663.95.24-1556.62-.64-2216.24.4-31.97,1.07-64.44,3.35-95.23,11.62,0,0-3.27.97-3.27.97,0,0-1.64.48-1.64.48,0,0-1.58.53-1.58.53,0,0-3.15,1.06-3.15,1.06,0,0-3.01,1.14-3.01,1.14-.5.19-1.02.37-1.49.57-4.43,1.81-10.04,4.6-13.18,7.16-2.25,1.79-3.47,3.35-4.1,4.43-.87,1.49-.93,3.4-.95,5.14.04,4.7.87,7.37,3.68,10.1,4.48,3.81,11.65,5.03,18.01,5.03,5.75-.07,11.73-1.01,16.54-3.75.08-.06.3-.13.23-.11,0,0,0,.01,0,.03,0,.02.08.01-.03.09-.14.13-.18.27-.27.49-.22.28-.39.68-.43.97,0,0,.76-1.74.76-1.74,1.18-2.94,7.7-17.34,9.19-20.87,3.18-7.88,6.8-16.72,9.96-24.68,3.6-9.89,8.24-22.36,11.38-32.28,3.66-10.6,8-25.76,11.05-36.44,4.37-16.87,8.88-34.94,11.99-52.05,3.3-16.78,6.15-36.06,8.02-52.96,1.93-17.27,3.33-36.25,3.84-53.59,1.14-30.64-.06-61.92-2.93-92.43-4.73-51.44-15.24-102.41-27.91-152.45-5.03-20.12-10.44-40.17-15.18-60.38-2.35-10.01-6.28-19.77-12.39-28.09-6.07-8.31-14.85-14.84-25.05-16.92-10.14-2.01-20.99-.25-30.12,4.52-4.53,2.5-8.53,6.04-11.21,10.51-2.72,4.43-4.06,9.59-4.5,14.74h0Z"/>
  </g>
  <g>
    <path class="cls-1" d="M2190.21,1476.83c11.93,33.01,20.01,70.32,9.4,105.13-1.61,5.19-3.55,10.33-5.83,15.28-2.38,4.9-5.85,9.09-9.34,13.21-36.25,46.07-92.52,74.5-150.91,77.79-65.07,4.61-136.28-28.24-159.86-92.43-24.53-63.85,7.38-135.45,59.39-174.85,41.87-32.55,95.97-48.78,148.85-43.15,4.77.51,11.25,1.64,15.92,2.32,5.34.82,10.72,1.66,15.68,3.96,38.6,16.9,62.23,55.09,76.7,92.73h0ZM2190.21,1476.83c-10.3-27.94-35.46-42.85-63.29-48.5-8.56-1.88-16.99-3.08-25.28-3.96-2.09-.18-4.11-.53-6.07-1.12-3.96-1.13-7.93-2.34-12.04-2.89-43.65-6.57-89.91,6.67-124.61,33.69-52.82,39.89-74.44,117.01-19.34,164.43,59.04,48.78,153.88,29.98,203.45-24.21,0,0,4.12-4.67,4.12-4.67,2.72-3.13,4.86-6.69,7.1-10.14,3.36-5.27,8.03-9.53,11.95-14.42,21.42-25.23,36.52-54.74,24.01-88.19h0Z"/>
    <path class="cls-1" d="M2010.34,1449.02c-55.8,20.97-86.96,75.41-69.6,121.59,17.36,46.18,76.66,66.61,132.46,45.63,55.8-20.97,86.96-75.41,69.6-121.59-17.36-46.18-76.66-66.61-132.46-45.63ZM2115.09,1516.97s-27.83,7.73-9.52,26.55c0,0-36,3.93-41.71,27.42l12.89,13.23-13.09,4.92-.25.09-13.09,4.92.98-18.45c-19.77-13.9-49.44,6.85-49.44,6.85,1.38-26.23-24.65-13.71-24.65-13.71,0-32.55-23.69-26.11-23.69-26.11,3.72-22.97,43.3-32.68,50.4-13.79,7.1,18.89,33.64,16.67,33.64,16.67-10.1-.2-12.74-13.36-12.74-13.36-14.97,1.76-15.15-14.48-15.15-14.48,19.62-8.2,25.82,10.03,25.82,10.03l4.24-1.59.25-.09,4.24-1.59s-7.34-17.8,12.82-24.55c0,0,10.57,12.34-1.86,20.88,0,0,6.68,11.64-.78,18.44,0,0,21.44-15.81,14.34-34.7-7.1-18.89,29.07-37.65,47-22.82,0,0-22.07,10.76-.63,35.25Z"/>
  </g>
</svg>