<?xml version="1.0" encoding="UTF-8"?>
<svg id="_레이어_1" data-name="레이어 1" xmlns="http://www.w3.org/2000/svg" viewBox="0 0 5442.52 3061.42">
  <defs>
    <style>
      .cls-1 {
        fill: #000;
      }

      .cls-1, .cls-2 {
        stroke-width: 0px;
      }

      .cls-2 {
        fill: #fff;
      }
    </style>
  </defs>
  <g>
    <path class="cls-2" d="M1700.12,1263.3c295.63-28.18,593.68,12.57,890.38.08,122.76-5.17,255.37-24.13,342.33-110.94,116.75,88.31,257.6,127.27,396.75,111.6,232.79-26.22,487.49-.63,721.75-.35,20.57.02,38.8-13.63,58.37-7.3,29.23,9.46,60.3,27.38,82.17,48.95,53.18,52.44,106.36,104.89,159.53,157.33,6.85,6.76,14.01,14.05,16.14,23.43,4.1,18-11.42,33.96-25.49,45.91-62.82,53.38-132.92,118.34-212.13,141.17-54.73,15.77-107.96,5.04-164.91,4.35-200.32-2.43-400.65-4.85-600.97-7.28-156.61-1.9-300.8,11.49-422.08,110.6-101.85-85.66-273.41-101.65-406.49-102.94-237.9-2.3-475.79-4.61-713.69-6.91-31.45-.3-55.65,25.73-85.72,16.53-96.74-29.59-154.08-165.29-242.67-214.15,79.11-74.32,161.66-144.97,247.3-211.67"/>
    <path class="cls-1" d="M1700.12,1264.8c226.46-21.25,453.67-2.8,680.43,1.64,103.94,2.03,209.84,3.94,313.09-10.18,82.86-11.34,167.5-36.2,230.64-93.6,5.13-4.66,7.17-7.49,13.85-4.4,4.95,2.29,9.74,7.06,14.3,10.22,10.92,7.55,22.09,14.74,33.5,21.53,21.08,12.55,42.97,23.76,65.49,33.49,42.9,18.53,88.07,31.74,134.26,38.94,46,7.16,92.79,8.35,139.1,3.63,52.79-5.38,105.53-9.41,158.59-11.04,108.88-3.36,217.83.41,326.64,4.25,53.97,1.9,107.95,3.86,161.94,4.98,26.31.55,53.08,2.14,79.38.94,9.65-.44,18.46-2.92,27.75-5.45,15.88-4.32,28.29-3.2,43.46,2.91,52.97,21.33,89.9,65.09,129.63,104.27,20.45,20.17,40.91,40.34,61.36,60.51,9.54,9.41,19.09,18.83,28.63,28.24,11.57,11.41,27.49,23.71,23.9,42.15-4.42,22.73-33.45,40.3-49.87,54.36-18.32,15.69-36.71,31.31-55.73,46.15-39.36,30.7-82.46,59.57-130.94,73.41-53.77,15.35-109.7,5.21-164.51,4.29-57.23-.95-114.47-1.39-171.71-2.08-114.47-1.39-228.94-2.77-343.41-4.16-96.92-1.17-194.91-5.27-290.72,12.44-42.63,7.88-84.5,20.22-123.89,38.43-20.74,9.59-40.73,20.77-59.73,33.46-7.95,5.31-15.73,10.9-23.33,16.71-4.71,3.6-8.01,7.77-13.78,5.19-3.59-1.6-8.16-6.38-11.34-8.69-67.71-49.25-153.09-69.97-234.79-80.84-93.55-12.44-188.29-10.4-282.44-11.31-114.19-1.11-228.38-2.21-342.57-3.32-57.1-.55-114.19-1.11-171.29-1.66-26.99-.26-55.84-3.47-82.63-.19-19.04,2.33-35.46,13.44-54.15,16.98-38.67,7.31-80.5-30.79-105.62-55.64-28.02-27.72-52.25-58.93-78.36-88.38-12.71-14.34-25.85-28.36-40.16-41.13-5.56-4.96-11.29-9.73-17.24-14.23-3.33-2.52-6.73-4.95-10.2-7.27-4.51-3.02-10.67-4.46-9.24-9.62,1.02-3.69,11.32-10.56,13.9-12.95,4.64-4.3,9.3-8.59,13.97-12.87,10.67-9.78,21.4-19.49,32.19-29.14,20.23-18.09,40.67-35.94,61.31-53.55,39.91-34.05,80.6-67.18,121.97-99.45,1.52-1.19-.62-3.3-2.12-2.12-85.6,66.78-168.11,137.4-247.3,211.67-.7.66-.52,1.89.3,2.36,73.93,41.76,114.66,122.67,178.21,176.65,25.75,21.87,61.4,47.03,96.73,36.67,9.66-2.83,18.8-7.21,28.3-10.5,14.3-4.94,28.07-4.98,43.04-4.83,31.4.3,62.8.61,94.21.91,123.71,1.2,247.41,2.4,371.12,3.59,110.84,1.07,222.76-2.31,333.33,6.56,104.98,8.42,219.94,29.07,303.34,98.18.68.56,1.44.55,2.12,0,159.23-128.72,369.17-110.79,561.24-108.46,113.52,1.37,227.03,2.75,340.55,4.12,55.42.67,110.98.11,166.31,3.54,50,3.09,98.11,3.68,145.27-15.58,40.89-16.69,77.5-42.29,111.93-69.6,18.84-14.95,37.12-30.59,55.37-46.24,14.7-12.6,33.72-25.11,42.37-43.08,6.96-14.46,2.44-27.58-7.78-39.04-18.31-20.53-39.42-39.09-59-58.4-19.77-19.5-39.54-39-59.31-58.5s-38.14-40.09-59.32-57.35c-15.97-13.01-33.94-23.66-52.88-31.73-9.28-3.95-18.99-8.3-29.23-8.32-10.08-.02-19.52,3.7-29.17,6.08-25.72,6.35-55.07,2.66-81.43,2.2-25.89-.46-51.78-1.13-77.66-1.91-108-3.26-215.97-8.44-324.05-8.88-53.05-.22-106.12.7-159.09,3.68-50.14,2.82-100.16,10.73-150.37,11.43-98.19,1.37-195.64-24.75-280.78-73.48-21.67-12.41-42.43-26.27-62.4-41.25-.53-.4-1.38-.19-1.82.23-107.65,105.8-273.37,110.43-415,112.58-174.19,2.64-348.13-9.52-522.25-11.91-98.23-1.35-196.55.57-294.4,9.76-1.91.18-1.92,3.18,0,3h0Z"/>
  </g>
  <g>
    <g>
      <path class="cls-1" d="M1835.07,1029.64c18.44-22.16,45.83-25.1,67.41-4.97,17.51,15.45,15.22,43,3.18,61-7.3,10.52-18.11,26.42-25.56,37.1-4.07,6-9.51,10.68-14.77,15.55-4.44,4.17-10.64,10.91-14.97,15.36-70.65,73.65-268.08,279.5-341.47,356,0,0-2.6-41.16-2.6-41.16,56.38,44.99,228.43,185.81,282.71,227.94,4.61,3.1,8.57,6.95,12.19,11.17,0,0,11.15,12.46,11.15,12.46,29.6,33.41,58.96,67.11,87.1,102.31-40.32-20.15-79.42-41.8-118.28-63.74-5.48-3.12-16.64-9.31-21.63-12.63-4.52-3.16-8.31-7.23-12.5-10.79-12.35-10.41-57.29-46.11-70.58-57.11-13.87-10.95-221.54-179.3-229.08-185.21,77.44-80.75,272.4-283.99,347.72-362.52,8.41-8.9,21.47-22.06,29.57-31.08,4.65-5.46,9.09-11.1,14.92-15.41,8.56-6.43,23.48-17.77,32.05-24.05,0,0,.27-.2.27-.2.1-.07.11-.06.16-.1,5.33-2.73,9.84-8.27,10.77-14.03,0-.71.05-1.4-.12-2.19,0,0-.87-1.9-.87-1.9-.28-.67-.61-1.24-.93-1.84-2.12-4.07-4.95-7.91-8.78-10.55-10.82-7.39-25.64-4.52-37.08.61h0Z"/>
      <path class="cls-1" d="M1852.9,1880.74c8.97-4.74,17.66-10.61,24.15-18.46.78-.86.58.26.94.66.09.07.47.16.58.2,1.96.58,3.93,1.03,5.69.2.73-.44,2.03-1.32,3.63-3.19.4-.5.82-1.07,1.25-1.58,0,0-.02.02-.02.02l-.04.03c-.12.11-.21.28-.25.42-.09.03-.12.15-.11.22-.03-.02-.03-.03-.02-.03,0,0,.03.02.03-.01-.02-.1,0-.18.07-.27.43-2.76-.79-6.66-2.74-9.58,2.62-2.95,4.8-6.33,6.66-9.84,1.48-2.77,2.9-5.85,3.94-8.84.93-2.36,2.02-5.84,2.78-8.3,0,0,2.12-.85,2.12-.85,10.09-3.75,21.23-4.66,31.72-2.25,11.4,17.55,15.56,41.28,7.09,61.57-1.48,3.49-3.42,6.99-5.59,10.12-6.54,9.01-13.88,16.25-24.88,22.14-12.59,6.6-28.15,8.28-41.8,5.12-2.61-.54-5.16-1.29-7.67-2.11-1.45-.76-3.5.46-4.43-1.29-4.62-10.65-5.76-22.83-3.12-34.11h0Z"/>
    </g>
    <g>
      <path class="cls-1" d="M4014.2,1029.85c-14.31-6.47-34.31-8.83-45.17,4.54-1.76,2.14-3.25,4.53-4.61,7.04-1.74,3.12-1.44,4.04-1.28,5.51,1.07,5.03,4.88,9.76,9.54,12.67.86.47,1.29.66,2.19,1.33,0,0,1.14.82,1.14.82,0,0,4.56,3.31,4.56,3.31,5.5,4.07,21.48,15.68,27.23,19.98,3.01,2.24,5.8,4.69,8.36,7.37,5.03,5.45,9.77,11.19,15.13,16.32,31.96,32.17,85.13,85.68,117.59,118.34,8.92,9.01,272.22,273.94,273.1,274.85-56.35,44.01-241.12,188.16-295.9,230.94-4,2.99-16.27,12.76-20.31,15.89-4.45,3.61-8.47,7.77-13.21,11.02-6.05,4.13-16.51,9.3-22.63,12.92-40.68,22.38-81.59,44.47-123.7,65.02,30.17-35.85,61.53-70.17,93.12-104.2l11.9-12.69c3.86-4.32,8.13-8.15,12.97-11.32,56.08-42.16,239.92-187.15,298.42-232.3,0,0-2.64,41.81-2.64,41.81-83.37-83.9-288.07-289.91-368.44-370.8-5.1-5.4-10.81-10.17-16.23-15.24-6.01-5.55-15.59-20.09-20.55-26.62,0,0-6.58-9.14-6.58-9.14l-3.28-4.58-.82-1.15c-.29-.4-.48-.69-.98-1.34-4.29-5.52-7.66-11.74-9.82-18.32-5.6-16.42-3.18-36.1,11.01-47.74,22.52-19.91,50.67-16.19,69.87,5.76h0Z"/>
      <path class="cls-1" d="M3995.38,1897.19c2.3,11.44.81,23.65-4,34.3-.95,1.76-3.01.51-4.47,1.27-30.31,10.06-59.73-.89-77.51-26.62-9.42-13.8-11.62-31.61-7.79-47.66,2.07-8.9,5.8-16.96,10.42-23.95,7.75-1.81,15.77-1.71,23.58-.16,3.62.76,7.23,1.95,10.63,3.36,2.05,7.65,4.57,15.45,8.76,22.2,5.51,8.81,3.74,2.36,1.16,11.27-.45,1.87-.34,3.4-.17,3.95,0-.06-.03-.11-.08-.15-.09-.08-.1-.32-.32-.45.05.05.2.24.26.3,4.08,5.15,7.12,6.76,13.25,4.81,0,0,.45-.14.45-.14.71-.08.35-1.79,1.31-.8,6.73,7.74,15.49,13.66,24.53,18.46h0Z"/>
    </g>
    <g>
      <path class="cls-1" d="M1728.64,1258.12c50.74-11.45,101.74-20.3,152.94-28.31,6.37-.87,12.74-.3,19.12.1,229.21.61,553.91,0,783.81.22,0,0,19.12,0,19.12,0h.6s-.31,0-.31,0c-.22,0-.01,0,.02,0,5.12-.31,10.22-.88,15.35-1.6,11.52-1.62,23.11-3.94,34.43-6.85,8.6-2.08,17.06-4.75,25.23-8.17,2.77-1.05,5.65-1.73,8.56-2.32,23.52-4.39,47.12-10.9,70.17-20.09,11.57-4.52,23.22-9.92,34.29-15.55,11.29-5.82,22.36-12.34,33.46-19.27-7.06,10.98-15,21.5-23.59,31.66-26.67,30.83-58.78,56.12-95.04,75.83-3.03,1.7-6.22,2.98-9.47,4.06-23.27,6.46-46.2,13.02-70.34,16.18-6.65.94-13.54,1.69-20.31,2.07-35.39.1-323.47.04-365.67.06-94.14.19-349.25-.38-440.13.21-6.38.4-12.76.97-19.14.1-51.26-8.01-102.31-16.85-153.09-28.31h0Z"/>
      <path class="cls-1" d="M4123.55,1258.12c-50.78,11.46-101.83,20.3-153.09,28.31-6.38.87-12.75.3-19.14-.1-89.15-.61-346.91,0-440.13-.21-43.76-.02-328.67.08-365.67-.06-6.76-.38-13.66-1.13-20.31-2.07-24.14-3.16-47.07-9.72-70.34-16.18-3.26-1.08-6.45-2.36-9.47-4.05-36.25-19.71-68.37-45-95.04-75.83-8.59-10.16-16.53-20.67-23.59-31.66,11.1,6.93,22.16,13.45,33.46,19.27,11.07,5.66,22.76,11.04,34.29,15.55,23.06,9.19,46.65,15.7,70.17,20.09,2.91.58,5.79,1.26,8.56,2.32,8.16,3.42,16.63,6.09,25.23,8.17,11.32,2.91,22.91,5.23,34.43,6.85,5.14.72,10.23,1.29,15.35,1.6.03,0,.24.01.02,0,0,0-.31,0-.31,0,0,0,.6,0,.6,0,0,0,19.12,0,19.12,0,230.12-.2,554.33.39,783.81-.21,6.37-.4,12.75-.97,19.12-.1,51.2,8.01,102.19,16.85,152.94,28.31h0Z"/>
    </g>
    <g>
      <path class="cls-1" d="M4135.06,1681.68c-50.74,11.45-101.74,20.3-152.94,28.31-6.37.87-12.74.3-19.12-.1-229.21-.61-553.91,0-783.81-.22,0,0-19.12,0-19.12,0,0,0-.6,0-.6,0,0,0,.31,0,.31,0,.22,0,.01,0-.02,0-5.12.31-10.22.88-15.35,1.6-11.52,1.62-23.11,3.94-34.43,6.85-8.6,2.08-17.06,4.75-25.23,8.17-2.77,1.05-5.65,1.73-8.56,2.32-23.52,4.39-47.12,10.9-70.17,20.09-11.57,4.52-23.22,9.92-34.29,15.55-11.29,5.82-22.36,12.34-33.46,19.27,7.06-10.98,15-21.5,23.59-31.66,26.67-30.83,58.78-56.12,95.04-75.83,3.03-1.7,6.22-2.98,9.47-4.06,23.27-6.46,46.2-13.02,70.34-16.18,6.65-.94,13.54-1.69,20.31-2.07,35.39-.1,323.47-.04,365.67-.06,94.14-.19,349.25.38,440.13-.21,6.38-.4,12.76-.97,19.14-.1,51.26,8.01,102.31,16.85,153.09,28.31h0Z"/>
      <path class="cls-1" d="M1740.15,1681.68c50.78-11.46,101.83-20.3,153.09-28.31,6.38-.87,12.75-.3,19.14.1,89.15.61,346.91,0,440.13.21,43.76.03,328.67-.08,365.67.06,6.76.38,13.66,1.13,20.31,2.07,24.14,3.16,47.07,9.72,70.34,16.18,3.26,1.08,6.45,2.36,9.47,4.05,36.25,19.71,68.37,45,95.04,75.83,8.59,10.16,16.53,20.67,23.59,31.66-11.1-6.93-22.16-13.45-33.46-19.27-11.07-5.66-22.76-11.04-34.29-15.55-23.06-9.19-46.65-15.7-70.17-20.09-2.91-.58-5.79-1.26-8.56-2.32-8.16-3.42-16.63-6.09-25.23-8.17-11.32-2.91-22.91-5.23-34.43-6.85-5.14-.72-10.23-1.29-15.35-1.6-.03,0-.24-.01-.02,0h.31s-.6,0-.6,0h-19.12c-230.12.2-554.33-.39-783.81.21-6.37.4-12.75.97-19.12.1-51.2-8.01-102.19-16.85-152.94-28.31h0Z"/>
    </g>
  </g>
</svg>