<?xml version="1.0" encoding="UTF-8"?>
<svg id="_레이어_1" data-name="레이어 1" xmlns="http://www.w3.org/2000/svg" viewBox="0 0 5442.52 3061.42">
  <defs>
    <style>
      .cls-1 {
        fill: #000;
        stroke-width: 0px;
      }
    </style>
  </defs>
  <path class="cls-1" d="M662.22,1600.65c56.29,13.53,113.85,21.5,171.37,27.37,34.34,3.38,68.84,5.72,103.27,7,11.47.44,22.83,1.84,34.23,3.12,222.84,18.7,449.19-9.51,661.85-78.12,43.62-14,87.15-30.07,129.62-47.36,16.54-6.23,33.68-11.91,50.41-17.49,175.77-56.74,489.18-141.58,662.2-65.73,18,8.24,35.64,18.18,49.88,32.22,27.43,27.57,37.79,58.02,31.2,96.63-12.6,70.12-81.86,112.6-148.49,83.64-22.33-10.12-39.05-28.4-50.6-49.42,21.59,26.84,51.72,44.49,86.77,40.85,52.99-3.9,87-57.64,71.31-107-2.82-8.54-5.96-16.87-10.94-24.4-6.46-9.65-15.69-17.3-25.63-23.34-138.99-82.78-436.25-8.46-586.66,35.78-37.73,11.27-75.3,23.28-112.32,36.64-38.29,15.59-77.84,30.39-117.09,43.48-172.7,57.58-354.32,88.95-536.4,91.1-46.85.56-94.19-.81-140.94-4.09-17.58-1.45-35.28-1.56-52.72-4.45-57.99-9.76-115.36-22.82-171.58-40.02-33.51-10.42-66.8-21.82-98.72-36.41h0Z"/>
  <path class="cls-1" d="M4781.68,1605.82c-31.92,14.59-65.22,25.99-98.72,36.41-56.21,17.21-113.59,30.27-171.58,40.02-17.44,2.89-35.14,3-52.72,4.45-46.78,3.27-94.06,4.66-140.94,4.09-182.08-2.16-363.7-33.52-536.4-91.1-39.25-13.09-78.81-27.9-117.09-43.48-37.02-13.35-74.59-25.36-112.32-36.63-150.42-44.23-447.66-118.56-586.66-35.78-9.91,6.04-19.17,13.69-25.63,23.34-4.98,7.52-8.12,15.86-10.94,24.4-15.68,49.18,18.2,103.11,71.31,107.01,35.14,3.62,65.11-13.97,86.77-40.85-11.54,21.03-28.28,39.3-50.6,49.42-66.49,28.91-135.86-13.37-148.49-83.64-5.03-28.66-.45-56.73,17.44-80.49,15.87-22.62,38.88-37.19,63.63-48.36,172.89-75.85,486.45,8.97,662.2,65.72,16.73,5.58,33.87,11.26,50.41,17.49,42.46,17.29,86,33.36,129.62,47.36,212.66,68.61,439.01,96.82,661.85,78.12,11.39-1.29,22.76-2.68,34.23-3.12,34.44-1.28,68.93-3.63,103.27-7,57.51-5.86,115.07-13.83,171.37-27.37h0Z"/>
  <path class="cls-1" d="M2727,1489.72c4.59-16.46,7.62-31.38,9.35-47.44.54-4.82.91-9.52,1.21-14,.11-1.07.28-2.04.53-2.89,2.11-5.98,3.51-12.26,5.56-18.28,2.26-7.01,4.81-14.03,7.56-21.19v10.45l-37.83-98.57,27.26-.05s-37.69,99.28-37.69,99.28l-.02-10.42c2.73,7.1,5.27,14.06,7.52,21.01,2.02,5.99,3.48,12.18,5.51,18.16.85,5.51.82,11.15,1.63,17,1.76,15.87,4.84,30.74,9.43,46.93h0ZM2727,1489.72c-6.94-11.8-18.17-25.56-27.05-36.97-2.41-2.89-3.32-6.94-5.05-10.26,0,0-1.63-3.48-1.63-3.48-7.18-15.42-13.59-31.41-19.58-47.12,0,0,1.98-5.22,1.98-5.22,9.61-25.28,42.19-111.15,51.26-135.01,8.93,23.3,41.99,109.37,51.52,134.24,0,0,2.01,5.23,2.01,5.23l-2.01,5.23c-5.35,13.97-11.25,28.4-17.62,42.18,0,0-1.63,3.5-1.63,3.5-1.74,3.38-2.72,7.42-4.92,10.53-8.84,11.48-20.23,25.41-27.27,37.13h0Z"/>
  <path class="cls-1" d="M2763.37,1503.8c14.88-8.4,27.58-16.8,40.16-26.93,3.79-3.02,7.38-6.09,10.75-9.04.83-.68,1.64-1.25,2.42-1.67,5.72-2.74,11.15-6.19,16.86-8.99,6.56-3.36,13.32-6.52,20.33-9.63l-7.39,7.39,42.95-96.45,19.31,19.24-96.86,43.55,7.35-7.39c-3.09,6.95-6.21,13.67-9.54,20.18-2.81,5.66-6.16,11.07-8.95,16.73-3.3,4.5-7.3,8.46-10.87,13.17-9.98,12.47-18.31,25.16-26.52,39.85h0ZM2763.37,1503.8c3.44-13.25,5.22-30.92,7.01-45.27.34-3.75,2.56-7.26,3.68-10.82,0,0,1.31-3.61,1.31-3.61,5.83-15.98,12.6-31.82,19.47-47.17,0,0,5.09-2.29,5.09-2.29,24.66-11.08,108.43-48.76,131.71-59.22-10.16,22.8-47.65,107.03-58.49,131.36,0,0-2.28,5.11-2.28,5.11,0,0-5.12,2.28-5.12,2.28-13.66,6.09-28.04,12.13-42.29,17.36,0,0-3.63,1.32-3.63,1.32-3.62,1.16-7.17,3.32-10.93,3.96-14.37,1.87-32.27,3.66-45.54,6.97h0Z"/>
  <path class="cls-1" d="M2687.81,1503.8c-13.26-3.31-31.17-5.09-45.54-6.97-3.75-.64-7.31-2.81-10.93-3.96,0,0-3.63-1.32-3.63-1.32-16.06-5.89-31.98-12.72-47.4-19.64,0,0-2.28-5.11-2.28-5.11-10.98-24.68-48.12-108.05-58.49-131.36,22.76,10.25,107.4,48.28,131.71,59.22,0,0,5.09,2.29,5.09,2.29l2.26,5.1c6.04,13.59,12.02,27.89,17.2,42.07,0,0,1.31,3.61,1.31,3.61,1.12,3.57,3.34,7.07,3.68,10.82,1.78,14.35,3.57,32.01,7.01,45.27h0ZM2687.81,1503.8c-8.2-14.69-16.53-27.38-26.52-39.85-3.57-4.71-7.58-8.68-10.87-13.17-2.79-5.66-6.14-11.07-8.95-16.73-3.33-6.51-6.45-13.22-9.54-20.18,0,0,7.35,7.39,7.35,7.39l-96.86-43.55s19.31-19.24,19.31-19.24l42.95,96.45-7.39-7.39c7,3.12,13.77,6.28,20.33,9.63,5.7,2.81,11.14,6.25,16.86,8.99.79.42,1.59.99,2.42,1.67,3.37,2.95,6.96,6.02,10.75,9.04,12.58,10.13,25.27,18.54,40.16,26.93h0Z"/>
</svg>